<?xml version="1.0" encoding="utf-8"?>
<!-- Generator: Adobe Illustrator 17.0.0, SVG Export Plug-In . SVG Version: 6.00 Build 0)  -->
<!DOCTYPE svg PUBLIC "-//W3C//DTD SVG 1.1//EN" "http://www.w3.org/Graphics/SVG/1.1/DTD/svg11.dtd">
<svg version="1.1" id="圖層_1" xmlns="http://www.w3.org/2000/svg" xmlns:xlink="http://www.w3.org/1999/xlink" x="0px" y="0px"
	 width="300px" height="300px" viewBox="0 0 300 300" enable-background="new 0 0 300 300" xml:space="preserve">
<g>
	<path fill="#040000" d="M210.327,111.752c-12.39,6.913-36.851,22.192-64.942,62.847c0.279-16.379-0.012-34.625-0.728-51.8
		c31.993-15.156,45.506-33.707,45.506-33.707c6.318-10.205,5.832-20.41-2.916-23.812c-9.158,9.574-22.663,21.042-44.011,32.287
		c-0.618-8.487-1.344-16.178-2.154-22.567c-4.786-37.755-17.009-29.157-17.009-29.157c2.588,22.469,4.182,41.77,5.074,58.588
		c-23.139,10.65-31.209,13.991-66.791,31.314c0,0-1.944,2.916-6.804,6.318c30.475-0.558,55.06-5.958,74.458-13.112
		c0.476,29.436-1.352,50.004-3.022,67.539c-2.916,30.615-11.663,32.073-8.747,55.399c23.326,14.093,22.601-23.357,24.784-38.877
		c0.086-0.612,0.169-1.245,0.25-1.888c13.625-38.078,49.66-74.003,69.242-84.369c13-6.882,15.764-7.349,10.367,6.722
		c-9.071,23.65-20.734,44.06-31.425,60.259c-8.531,12.926-25.837,15.875-20.734,23.002c3.888,5.431,10.051-0.485,31.425,0.648
		c24.46,1.296,13.121-17.495,6.236-17.737c-9.478-0.335-13.688-4.292-13.688-4.292s27.785-29.3,41.145-51.836
		C256.881,108.031,235.843,97.515,210.327,111.752z"/>
</g>
</svg>
