<?xml version="1.0" encoding="utf-8"?>
<!-- Generator: Adobe Illustrator 17.0.0, SVG Export Plug-In . SVG Version: 6.00 Build 0)  -->
<!DOCTYPE svg PUBLIC "-//W3C//DTD SVG 1.1//EN" "http://www.w3.org/Graphics/SVG/1.1/DTD/svg11.dtd">
<svg version="1.1" id="圖層_1" xmlns="http://www.w3.org/2000/svg" xmlns:xlink="http://www.w3.org/1999/xlink" x="0px" y="0px"
	 width="180px" height="180px" viewBox="-207.5 510.5 180 180" enable-background="new -207.5 510.5 180 180" xml:space="preserve">
<polygon fill="#231815" points="-149,624.5 -149,657.5 -158,657.5 -158,624.5 -167,624.5 -167,657.5 -176,657.5 -176,624.5 
	-185,624.5 -185,666.5 -140,666.5 -140,624.5 "/>
<g>
	<polygon fill="#231815" points="-179.643,671.5 -185,671.5 -185,676.5 -183.928,676.5 -183.928,672.572 -182.857,672.572 
		-182.857,676.5 -181.785,676.5 -181.785,672.572 -180.715,672.572 -180.715,676.5 -179.643,676.5 	"/>
	<polygon fill="#231815" points="-168.333,671.5 -168.333,675.428 -170.952,675.428 -170.952,671.5 -172.024,671.5 -172.024,676.5 
		-167.262,676.5 -167.262,671.5 	"/>
	<polygon fill="#231815" points="-161.071,671.5 -165.834,671.5 -165.834,676.5 -164.762,676.5 -164.762,672.572 -162.143,672.572 
		-162.143,676.5 -161.071,676.5 	"/>
	<polygon fill="#231815" points="-140,671.5 -144.762,671.5 -144.762,676.5 -143.691,676.5 -143.691,672.572 -141.072,672.572 
		-141.072,676.5 -140,676.5 	"/>
	<path fill="#231815" d="M-148.691,671.5h-4.762v5h1.072v-1.072h2.619v1.072h1.072L-148.691,671.5L-148.691,671.5z
		 M-149.762,674.357h-2.619v-1.786h2.619V674.357z"/>
	<path fill="#231815" d="M-178.214,671.5v5h4.762v-5H-178.214z M-174.523,675.428h-2.619v-2.857h2.619V675.428z"/>
	<rect x="-147.262" y="671.5" fill="#231815" width="1.072" height="5"/>
	<polygon fill="#231815" points="-154.881,671.5 -159.642,671.5 -159.642,672.572 -157.797,672.572 -157.797,676.5 -156.726,676.5 
		-156.726,672.572 -154.881,672.572 	"/>
</g>
<g>
	<polygon fill="#FFFFFF" points="-59,624.5 -59,657.5 -68,657.5 -68,624.5 -77,624.5 -77,657.5 -86,657.5 -86,624.5 -95,624.5 
		-95,666.5 -50,666.5 -50,624.5 	"/>
	<g>
		<polygon fill="#FFFFFF" points="-89.643,671.5 -95,671.5 -95,676.5 -93.928,676.5 -93.928,672.572 -92.857,672.572 -92.857,676.5 
			-91.785,676.5 -91.785,672.572 -90.715,672.572 -90.715,676.5 -89.643,676.5 		"/>
		<polygon fill="#FFFFFF" points="-78.333,671.5 -78.333,675.428 -80.952,675.428 -80.952,671.5 -82.024,671.5 -82.024,676.5 
			-77.262,676.5 -77.262,671.5 		"/>
		<polygon fill="#FFFFFF" points="-71.071,671.5 -75.834,671.5 -75.834,676.5 -74.762,676.5 -74.762,672.572 -72.143,672.572 
			-72.143,676.5 -71.071,676.5 		"/>
		<polygon fill="#FFFFFF" points="-50,671.5 -54.762,671.5 -54.762,676.5 -53.691,676.5 -53.691,672.572 -51.072,672.572 
			-51.072,676.5 -50,676.5 		"/>
		<path fill="#FFFFFF" d="M-58.691,671.5h-4.762v5h1.072v-1.072h2.619v1.072h1.072L-58.691,671.5L-58.691,671.5z M-59.762,674.357
			h-2.619v-1.786h2.619V674.357z"/>
		<path fill="#FFFFFF" d="M-88.214,671.5v5h4.762v-5H-88.214z M-84.523,675.428h-2.619v-2.857h2.619V675.428z"/>
		<rect x="-57.262" y="671.5" fill="#FFFFFF" width="1.072" height="5"/>
		<polygon fill="#FFFFFF" points="-64.881,671.5 -69.642,671.5 -69.642,672.572 -67.797,672.572 -67.797,676.5 -66.726,676.5 
			-66.726,672.572 -64.881,672.572 		"/>
	</g>
</g>
<polygon fill="#231815" points="-149,534.5 -149,567.5 -158,567.5 -158,534.5 -167,534.5 -167,567.5 -176,567.5 -176,534.5 
	-185,534.5 -185,576.5 -140,576.5 -140,534.5 "/>
<polygon fill="#FFFFFF" points="-59,534.5 -59,567.5 -68,567.5 -68,534.5 -77,534.5 -77,567.5 -86,567.5 -86,534.5 -95,534.5 
	-95,576.5 -50,576.5 -50,534.5 "/>
</svg>
