<?xml version="1.0" encoding="utf-8"?>
<!-- Generator: Adobe Illustrator 17.0.0, SVG Export Plug-In . SVG Version: 6.00 Build 0)  -->
<!DOCTYPE svg PUBLIC "-//W3C//DTD SVG 1.1//EN" "http://www.w3.org/Graphics/SVG/1.1/DTD/svg11.dtd">
<svg version="1.1" id="圖層_1" xmlns="http://www.w3.org/2000/svg" xmlns:xlink="http://www.w3.org/1999/xlink" x="0px" y="0px"
	 width="230px" height="72px" viewBox="-25.5 70.5 230 72" enable-background="new -25.5 70.5 230 72" xml:space="preserve">
<g>
	<g>
		<polygon fill="#FFFFFF" points="63.643,98.5 46.5,98.5 46.5,114.5 49.928,114.5 49.928,101.928 53.357,101.928 53.357,114.5 
			56.785,114.5 56.785,101.928 60.215,101.928 60.215,114.5 63.643,114.5 		"/>
		<polygon fill="#FFFFFF" points="99.833,98.5 99.833,111.072 91.452,111.072 91.452,98.5 88.024,98.5 88.024,114.5 103.262,114.5 
			103.262,98.5 		"/>
		<polygon fill="#FFFFFF" points="123.072,98.5 107.833,98.5 107.833,114.5 111.262,114.5 111.262,101.928 119.643,101.928 
			119.643,114.5 123.072,114.5 		"/>
		<polygon fill="#FFFFFF" points="190.5,98.5 175.262,98.5 175.262,114.5 178.69,114.5 178.69,101.928 187.072,101.928 
			187.072,114.5 190.5,114.5 		"/>
		<path fill="#FFFFFF" d="M162.69,98.5h-15.238v16h3.428v-3.428h8.381v3.428h3.428L162.69,98.5L162.69,98.5z M159.262,107.643
			h-8.381v-5.715h8.381V107.643z"/>
		<path fill="#FFFFFF" d="M68.215,98.5v16h15.238v-16H68.215z M80.024,111.072h-8.381v-9.143h8.381V111.072z"/>
		<rect x="167.262" y="98.5" fill="#FFFFFF" width="3.428" height="16"/>
		<polygon fill="#FFFFFF" points="142.881,98.5 127.643,98.5 127.643,101.928 133.548,101.928 133.548,114.5 136.976,114.5 
			136.976,101.928 142.881,101.928 		"/>
	</g>
	<polygon fill="#FFFFFF" points="33,127.5 -12,127.5 -12,85.5 -3,85.5 -3,118.5 6,118.5 6,85.5 15,85.5 15,118.5 24,118.5 24,85.5 
		33,85.5 	"/>
</g>
</svg>
