<?xml version="1.0" encoding="utf-8"?>
<!-- Generator: Adobe Illustrator 17.0.0, SVG Export Plug-In . SVG Version: 6.00 Build 0)  -->
<!DOCTYPE svg PUBLIC "-//W3C//DTD SVG 1.1//EN" "http://www.w3.org/Graphics/SVG/1.1/DTD/svg11.dtd">
<svg version="1.1" id="圖層_1" xmlns="http://www.w3.org/2000/svg" xmlns:xlink="http://www.w3.org/1999/xlink" x="0px" y="0px"
	 width="144px" height="16px" viewBox="-25.5 70.5 144 16" enable-background="new -25.5 70.5 144 16" xml:space="preserve">
<polygon fill="#FFFFFF" points="-8.357,70.5 -25.5,70.5 -25.5,86.5 -22.072,86.5 -22.072,73.928 -18.643,73.928 -18.643,86.5 
	-15.215,86.5 -15.215,73.928 -11.785,73.928 -11.785,86.5 -8.357,86.5 "/>
<polygon fill="#FFFFFF" points="27.833,70.5 27.833,83.072 19.452,83.072 19.452,70.5 16.024,70.5 16.024,86.5 31.262,86.5 
	31.262,70.5 "/>
<polygon fill="#FFFFFF" points="51.072,70.5 35.833,70.5 35.833,86.5 39.262,86.5 39.262,73.928 47.643,73.928 47.643,86.5 
	51.072,86.5 "/>
<polygon fill="#FFFFFF" points="118.5,70.5 103.262,70.5 103.262,86.5 106.69,86.5 106.69,73.928 115.072,73.928 115.072,86.5 
	118.5,86.5 "/>
<path fill="#FFFFFF" d="M90.69,70.5H75.452v16h3.428v-3.428h8.381V86.5h3.428L90.69,70.5L90.69,70.5z M87.262,79.643h-8.381v-5.715
	h8.381V79.643z"/>
<path fill="#FFFFFF" d="M-3.785,70.5v16h15.238v-16H-3.785z M8.024,83.072h-8.381v-9.143h8.381V83.072z"/>
<rect x="95.262" y="70.5" fill="#FFFFFF" width="3.428" height="16"/>
<polygon fill="#FFFFFF" points="70.881,70.5 55.643,70.5 55.643,73.928 61.548,73.928 61.548,86.5 64.976,86.5 64.976,73.928 
	70.881,73.928 "/>
</svg>
