<?xml version="1.0" encoding="utf-8"?>
<!-- Generator: Adobe Illustrator 17.0.0, SVG Export Plug-In . SVG Version: 6.00 Build 0)  -->
<!DOCTYPE svg PUBLIC "-//W3C//DTD SVG 1.1//EN" "http://www.w3.org/Graphics/SVG/1.1/DTD/svg11.dtd">
<svg version="1.1" xmlns="http://www.w3.org/2000/svg" xmlns:xlink="http://www.w3.org/1999/xlink" x="0px" y="0px" width="900px"
	 height="900px" viewBox="0 0 900 900" enable-background="new 0 0 900 900" xml:space="preserve">
<g id="圖層_1">
	
		<rect x="503.314" y="-146.686" transform="matrix(0.7071 -0.7071 0.7071 0.7071 247.8264 320.9331)" fill="#FFFFFF" stroke="#231815" stroke-miterlimit="10" width="16" height="16"/>
	<g>
		<path fill="#FCD88C" d="M176.414,26.414c-0.781,0.781-2.047,0.781-2.828,0l-2.121-2.121c-0.781-0.781-2.047-0.781-2.828,0
			l3.536,3.536c1.562,1.562,4.095,1.562,5.657,0l8.485-8.485c-0.781-0.781-2.047-0.781-2.828,0L176.414,26.414z"/>
		<path fill="#981643" d="M176.414,76.414c-0.781,0.781-2.047,0.781-2.828,0l-2.121-2.121c-0.781-0.781-2.047-0.781-2.828,0
			l3.536,3.536c1.562,1.562,4.095,1.562,5.657,0l8.485-8.485c-0.781-0.781-2.047-0.781-2.828,0L176.414,76.414z"/>
		<path fill="#5D0B24" d="M176.414,126.414c-0.781,0.781-2.047,0.781-2.828,0l-2.121-2.121c-0.781-0.781-2.047-0.781-2.828,0
			l3.536,3.536c1.562,1.562,4.095,1.562,5.657,0l8.485-8.485c-0.781-0.781-2.047-0.781-2.828,0L176.414,126.414z"/>
		<path fill="#E4E0B9" d="M176.414,176.414c-0.781,0.781-2.047,0.781-2.828,0l-2.121-2.121c-0.781-0.781-2.047-0.781-2.828,0
			l3.536,3.536c1.562,1.562,4.095,1.562,5.657,0l8.485-8.485c-0.781-0.781-2.047-0.781-2.828,0L176.414,176.414z"/>
	</g>
	<rect x="200" y="-100" fill="#981643" width="50" height="50"/>
	<rect x="50" y="-150" fill="#231815" width="20" height="50"/>
	<rect x="60" y="-90" fill="#2C0006" width="20" height="50"/>
	<rect x="40" y="-90" fill="#3F0514" width="20" height="50"/>
	<rect x="20" y="-90" fill="#5D0B24" width="20" height="50"/>
	<rect y="-90" fill="#981643" width="20" height="50"/>
	<rect x="160" y="-150" fill="#E9D98E" width="20" height="50"/>
	<rect x="140" y="-150" fill="#F4ECBB" width="20" height="50"/>
	<rect x="240" y="-90" fill="#FCD88C" width="20" height="50"/>
	<rect x="260" y="-90" fill="#FACB63" width="20" height="50"/>
	<rect x="280" y="-90" fill="#F7BD3F" width="20" height="50"/>
	<rect x="180" y="-150" fill="#F0EA92" width="20" height="50"/>
	<rect x="120" y="-150" fill="#E4E0B9" width="20" height="50"/>
	<rect x="100" y="-150" fill="#F1EFD8" width="20" height="50"/>
	<rect x="80" y="-150" fill="#F8F7E9" width="20" height="50"/>
	<g>
		<path fill="#5D0B24" d="M75,467c4.411,0,8,3.589,8,8s-3.589,8-8,8s-8-3.589-8-8S70.589,467,75,467 M75,465
			c-5.523,0-10,4.477-10,10s4.477,10,10,10s10-4.477,10-10S80.523,465,75,465L75,465z"/>
	</g>
	<g>
		<path fill="#5D0B24" d="M63.025,474.5H55v1h8.025C63.018,475.333,63,475.169,63,475S63.018,474.667,63.025,474.5z"/>
		<path fill="#5D0B24" d="M86.975,475.5H95v-1h-8.025C86.982,474.667,87,474.831,87,475S86.982,475.333,86.975,475.5z"/>
		<path fill="#981643" d="M74.5,486.975V495h1v-8.025C75.333,486.982,75.169,487,75,487S74.667,486.982,74.5,486.975z"/>
		<path fill="#981643" d="M75.5,463.025V455h-1v8.025C74.667,463.018,74.831,463,75,463S75.333,463.018,75.5,463.025z"/>
		<path fill="#5D0B24" d="M85.433,457.93l-0.866-0.5l-4.008,6.941c0.296,0.155,0.583,0.326,0.864,0.504L85.433,457.93z"/>
		<path fill="#5D0B24" d="M64.567,492.07l0.866,0.5l4.008-6.941c-0.296-0.155-0.583-0.326-0.864-0.504L64.567,492.07z"/>
		<path fill="#981643" d="M92.07,485.433l0.5-0.865l-6.941-4.008c-0.155,0.296-0.326,0.582-0.504,0.863L92.07,485.433z"/>
		<path fill="#981643" d="M57.93,464.567l-0.5,0.865l6.941,4.008c0.155-0.296,0.326-0.582,0.504-0.863L57.93,464.567z"/>
		<path fill="#5D0B24" d="M65.433,457.43l-0.866,0.5l4.01,6.946c0.281-0.179,0.567-0.349,0.864-0.504L65.433,457.43z"/>
		<path fill="#5D0B24" d="M84.567,492.57l0.866-0.5l-4.01-6.946c-0.281,0.179-0.567,0.349-0.864,0.504L84.567,492.57z"/>
		<path fill="#981643" d="M92.57,465.433l-0.5-0.865l-6.945,4.01c0.179,0.281,0.349,0.567,0.504,0.863L92.57,465.433z"/>
		<path fill="#981643" d="M57.43,484.567l0.5,0.865l6.945-4.01c-0.179-0.281-0.349-0.567-0.504-0.863L57.43,484.567z"/>
	</g>
	<path fill="#F1EFD8" d="M71,413c-1.405,0-2.747,0.254-4,0.697c4.658,1.649,8,6.08,8,11.303c0,5.223-3.342,9.654-8,11.303
		c1.253,0.444,2.595,0.697,4,0.697c6.627,0,12-5.373,12-12C83,418.373,77.627,413,71,413z"/>
	<g>
		<rect x="140" y="-22" fill="#981643" width="2" height="8"/>
		<rect x="140" y="-16" fill="#981643" width="8" height="2"/>
		<rect x="148" y="-16" fill="#981643" width="8" height="2"/>
	</g>
	<path fill="#981643" d="M129.778-20.515c-1.172,1.172-3.071,1.172-4.243,0l-2.828-2.828L122-22.636l2.828,2.828
		c1.562,1.562,4.095,1.562,5.657,0l8.485-8.485L138.263-29L129.778-20.515z"/>
	<path fill="#FCD88C" d="M236.314-80.657l-1.414-1.414l-8.485,8.485c-0.781,0.781-2.047,0.781-2.828,0l-2.828-2.828L219.343-75
		l2.828,2.828c1.562,1.562,4.095,1.562,5.657,0L236.314-80.657z"/>
	<rect x="200" y="-150" fill="#981643" width="50" height="50"/>
	<rect x="350" y="-200" fill="#981643" width="50" height="50"/>
	<path fill="#F8F7E9" d="M233.485-127.828l-1.414-1.414l-8.485,8.485c-0.781,0.781-2.047,0.781-2.828,0l-2.828-2.828l-1.414,1.414
		l2.828,2.828c1.562,1.562,4.095,1.562,5.657,0L233.485-127.828z"/>
	<g>
		<path fill="#F8F7E9" d="M225-148c12.682,0,23,10.318,23,23s-10.318,23-23,23s-23-10.318-23-23S212.318-148,225-148 M225-150
			c-13.807,0-25,11.193-25,25s11.193,25,25,25s25-11.193,25-25S238.807-150,225-150L225-150z"/>
	</g>
	<path fill="#231815" d="M140-80v1h-12c-2.209,0-4-1.791-4-4v-4h1v1c0,3.314,2.686,6,6,6H140z"/>
	<path fill="#231815" d="M144.607-68.364l0.707,0.707l-8.485,8.485c-1.562,1.562-4.095,1.562-5.657,0L128.343-62l0.707-0.707
		l1.414,1.414c1.953,1.953,5.118,1.953,7.071,0L144.607-68.364z"/>
	<rect x="112" y="-74" fill="#FFFFFF" stroke="#231815" stroke-miterlimit="10" width="24" height="24"/>
	<path fill="#231815" d="M136-59v1h-12c-2.209,0-4-1.791-4-4v-4h1v2c0,2.761,2.239,5,5,5H136z"/>
	<path fill="#231815" d="M122-59c2.761,0,5-2.239,5-5v-2h1v4c0,2.209-1.791,4-4,4h-12v-1H122z"/>
	<path fill="#FFFFFF" stroke="#231815" stroke-miterlimit="10" d="M128-67c2.209,0,4-1.791,4-4v-4h-2v4c0,1.105-0.895,2-2,2h-12v2
		H128z"/>
	<path fill="#FCD88C" d="M371.464-175.707c-0.391-0.391-1.024-0.391-1.414,0c-0.391,0.391-0.391,1.024,0,1.414l2.121,2.121
		c1.562,1.562,4.095,1.562,5.657,0l8.485-8.485l-1.414-1.414l-8.485,8.485c-0.781,0.781-2.047,0.781-2.828,0L371.464-175.707z"/>
	<rect x="350" y="-150" fill="#981643" width="50" height="50"/>
	<path fill="#231815" d="M376.414-123.586c-0.781,0.781-2.047,0.781-2.828,0l-2.121-2.121c-0.781-0.781-2.047-0.781-2.828,0
		l3.536,3.536c1.562,1.562,4.095,1.562,5.657,0l8.485-8.485c-0.781-0.781-2.047-0.781-2.828,0L376.414-123.586z"/>
	<path fill="#E4E0B9" d="M223.586,223.586c0.781-0.781,2.047-0.781,2.828,0l7.071,7.071c0.781,0.781,2.047,0.781,2.828,0
		l-8.485-8.485c-1.562-1.562-4.095-1.562-5.657,0l-8.485,8.485c0.781,0.781,2.047,0.781,2.828,0L223.586,223.586z"/>
	<path fill="#231815" d="M139-36c0-0.552-0.448-1-1-1h-11c-1.105,0-2-0.895-2-2v-3c0-0.552-0.448-1-1-1h-1v4c0,2.209,1.791,4,4,4h12
		V-36z"/>
	<path fill="#231815" d="M286-199c0-0.552-0.448-1-1-1s-1,0.448-1,1v3c0,2.209,1.791,4,4,4h12v-2h-12c-1.105,0-2-0.895-2-2V-199z"/>
	<path fill="#FFFFFF" d="M227.828,222.172l8.485,8.485l0.707-0.707l-8.485-8.485c-1.949-1.949-5.122-1.949-7.071,0l-8.485,8.485
		l0.707,0.707l8.485-8.485C223.734,220.609,226.266,220.609,227.828,222.172z"/>
	<path fill="#E4E0B9" d="M276.414,223.586c0.781,0.781,0.781,2.047,0,2.828l-7.071,7.071c-0.781,0.781-0.781,2.047,0,2.828
		l8.485-8.485c1.562-1.562,1.562-4.095,0-5.657l-8.485-8.485c-0.781,0.781-0.781,2.047,0,2.828L276.414,223.586z"/>
	<path fill="#FFFFFF" d="M277.828,227.828l-8.485,8.485l0.707,0.707l8.485-8.485c1.949-1.949,1.949-5.122,0-7.071l-8.485-8.485
		l-0.707,0.707l8.485,8.485C279.391,223.734,279.391,226.266,277.828,227.828z"/>
	<path fill="#E4E0B9" d="M373.586,226.414c-0.781-0.781-0.781-2.047,0-2.828l7.071-7.071c0.781-0.781,0.781-2.047,0-2.828
		l-8.485,8.485c-1.562,1.562-1.562,4.095,0,5.657l8.485,8.485c0.781-0.781,0.781-2.047,0-2.828L373.586,226.414z"/>
	<path fill="#FFFFFF" d="M372.172,222.172l8.485-8.485l-0.707-0.707l-8.485,8.485c-1.949,1.949-1.949,5.122,0,7.071l8.485,8.485
		l0.707-0.707l-8.485-8.485C370.609,226.266,370.609,223.734,372.172,222.172z"/>
	<path fill="#E4E0B9" d="M326.414,226.414c-0.781,0.781-2.047,0.781-2.828,0l-7.071-7.071c-0.781-0.781-2.047-0.781-2.828,0
		l8.485,8.485c1.562,1.562,4.095,1.562,5.657,0l8.485-8.485c-0.781-0.781-2.047-0.781-2.828,0L326.414,226.414z"/>
	<path fill="#FFFFFF" d="M322.172,227.828l-8.485-8.485l-0.707,0.707l8.485,8.485c1.949,1.949,5.122,1.949,7.071,0l8.485-8.485
		l-0.707-0.707l-8.485,8.485C326.266,229.391,323.734,229.391,322.172,227.828z"/>
	<path fill="#981643" d="M223.586,273.586c0.781-0.781,2.047-0.781,2.828,0l7.071,7.071c0.781,0.781,2.047,0.781,2.828,0
		l-8.485-8.485c-1.562-1.562-4.095-1.562-5.657,0l-8.485,8.485c0.781,0.781,2.047,0.781,2.828,0L223.586,273.586z"/>
	<path fill="#FFFFFF" d="M227.828,272.172l8.485,8.485l0.707-0.707l-8.485-8.485c-1.949-1.949-5.122-1.949-7.071,0l-8.485,8.485
		l0.707,0.707l8.485-8.485C223.734,270.609,226.266,270.609,227.828,272.172z"/>
	<path fill="#981643" d="M276.414,273.586c0.781,0.781,0.781,2.047,0,2.828l-7.071,7.071c-0.781,0.781-0.781,2.047,0,2.828
		l8.485-8.485c1.562-1.562,1.562-4.095,0-5.657l-8.485-8.485c-0.781,0.781-0.781,2.047,0,2.828L276.414,273.586z"/>
	<path fill="#FFFFFF" d="M277.828,277.828l-8.485,8.485l0.707,0.707l8.485-8.485c1.949-1.949,1.949-5.122,0-7.071l-8.485-8.485
		l-0.707,0.707l8.485,8.485C279.391,273.734,279.391,276.266,277.828,277.828z"/>
	<path fill="#981643" d="M373.586,276.414c-0.781-0.781-0.781-2.047,0-2.828l7.071-7.071c0.781-0.781,0.781-2.047,0-2.828
		l-8.485,8.485c-1.562,1.562-1.562,4.095,0,5.657l8.485,8.485c0.781-0.781,0.781-2.047,0-2.828L373.586,276.414z"/>
	<path fill="#FFFFFF" d="M372.172,272.172l8.485-8.485l-0.707-0.707l-8.485,8.485c-1.949,1.949-1.949,5.122,0,7.071l8.485,8.485
		l0.707-0.707l-8.485-8.485C370.609,276.266,370.609,273.734,372.172,272.172z"/>
	<path fill="#981643" d="M326.414,276.414c-0.781,0.781-2.047,0.781-2.828,0l-7.071-7.071c-0.781-0.781-2.047-0.781-2.828,0
		l8.485,8.485c1.562,1.562,4.095,1.562,5.657,0l8.485-8.485c-0.781-0.781-2.047-0.781-2.828,0L326.414,276.414z"/>
	<path fill="#FFFFFF" d="M322.172,277.828l-8.485-8.485l-0.707,0.707l8.485,8.485c1.949,1.949,5.122,1.949,7.071,0l8.485-8.485
		l-0.707-0.707l-8.485,8.485C326.266,279.391,323.734,279.391,322.172,277.828z"/>
	<path fill="#2C0006" d="M223.586,323.586c0.781-0.781,2.047-0.781,2.828,0l7.071,7.071c0.781,0.781,2.047,0.781,2.828,0
		l-8.485-8.485c-1.562-1.562-4.095-1.562-5.657,0l-8.485,8.485c0.781,0.781,2.047,0.781,2.828,0L223.586,323.586z"/>
	<path fill="#FFFFFF" d="M227.828,322.172l8.485,8.485l0.707-0.707l-8.485-8.485c-1.949-1.949-5.122-1.949-7.071,0l-8.485,8.485
		l0.707,0.707l8.485-8.485C223.734,320.609,226.266,320.609,227.828,322.172z"/>
	<path fill="#2C0006" d="M276.414,323.586c0.781,0.781,0.781,2.047,0,2.828l-7.071,7.071c-0.781,0.781-0.781,2.047,0,2.828
		l8.485-8.485c1.562-1.562,1.562-4.095,0-5.657l-8.485-8.485c-0.781,0.781-0.781,2.047,0,2.828L276.414,323.586z"/>
	<path fill="#FFFFFF" d="M277.828,327.828l-8.485,8.485l0.707,0.707l8.485-8.485c1.949-1.949,1.949-5.122,0-7.071l-8.485-8.485
		l-0.707,0.707l8.485,8.485C279.391,323.734,279.391,326.266,277.828,327.828z"/>
	<path fill="#2C0006" d="M373.586,326.414c-0.781-0.781-0.781-2.047,0-2.828l7.071-7.071c0.781-0.781,0.781-2.047,0-2.828
		l-8.485,8.485c-1.562,1.562-1.562,4.095,0,5.657l8.485,8.485c0.781-0.781,0.781-2.047,0-2.828L373.586,326.414z"/>
	<path fill="#FFFFFF" d="M372.172,322.172l8.485-8.485l-0.707-0.707l-8.485,8.485c-1.949,1.949-1.949,5.122,0,7.071l8.485,8.485
		l0.707-0.707l-8.485-8.485C370.609,326.266,370.609,323.734,372.172,322.172z"/>
	<path fill="#2C0006" d="M326.414,326.414c-0.781,0.781-2.047,0.781-2.828,0l-7.071-7.071c-0.781-0.781-2.047-0.781-2.828,0
		l8.485,8.485c1.562,1.562,4.095,1.562,5.657,0l8.485-8.485c-0.781-0.781-2.047-0.781-2.828,0L326.414,326.414z"/>
	<path fill="#FFFFFF" d="M322.172,327.828l-8.485-8.485l-0.707,0.707l8.485,8.485c1.949,1.949,5.122,1.949,7.071,0l8.485-8.485
		l-0.707-0.707l-8.485,8.485C326.266,329.391,323.734,329.391,322.172,327.828z"/>
	<path fill="#F1EFD8" d="M223.586,373.586c0.781-0.781,2.047-0.781,2.828,0l7.071,7.071c0.781,0.781,2.047,0.781,2.828,0
		l-8.485-8.485c-1.562-1.562-4.095-1.562-5.657,0l-8.485,8.485c0.781,0.781,2.047,0.781,2.828,0L223.586,373.586z"/>
	<path fill="#FFFFFF" d="M227.828,372.172l8.485,8.485l0.707-0.707l-8.485-8.485c-1.949-1.949-5.122-1.949-7.071,0l-8.485,8.485
		l0.707,0.707l8.485-8.485C223.734,370.609,226.266,370.609,227.828,372.172z"/>
	<path fill="#F1EFD8" d="M276.414,373.586c0.781,0.781,0.781,2.047,0,2.828l-7.071,7.071c-0.781,0.781-0.781,2.047,0,2.828
		l8.485-8.485c1.562-1.562,1.562-4.095,0-5.657l-8.485-8.485c-0.781,0.781-0.781,2.047,0,2.828L276.414,373.586z"/>
	<path fill="#FFFFFF" d="M277.828,377.828l-8.485,8.485l0.707,0.707l8.485-8.485c1.949-1.949,1.949-5.122,0-7.071l-8.485-8.485
		l-0.707,0.707l8.485,8.485C279.391,373.734,279.391,376.266,277.828,377.828z"/>
	<path fill="#F1EFD8" d="M373.586,376.414c-0.781-0.781-0.781-2.047,0-2.828l7.071-7.071c0.781-0.781,0.781-2.047,0-2.828
		l-8.485,8.485c-1.562,1.562-1.562,4.095,0,5.657l8.485,8.485c0.781-0.781,0.781-2.047,0-2.828L373.586,376.414z"/>
	<path fill="#FFFFFF" d="M372.172,372.172l8.485-8.485l-0.707-0.707l-8.485,8.485c-1.949,1.949-1.949,5.122,0,7.071l8.485,8.485
		l0.707-0.707l-8.485-8.485C370.609,376.266,370.609,373.734,372.172,372.172z"/>
	<path fill="#F1EFD8" d="M326.414,376.414c-0.781,0.781-2.047,0.781-2.828,0l-7.071-7.071c-0.781-0.781-2.047-0.781-2.828,0
		l8.485,8.485c1.562,1.562,4.095,1.562,5.657,0l8.485-8.485c-0.781-0.781-2.047-0.781-2.828,0L326.414,376.414z"/>
	<path fill="#FFFFFF" d="M322.172,377.828l-8.485-8.485l-0.707,0.707l8.485,8.485c1.949,1.949,5.122,1.949,7.071,0l8.485-8.485
		l-0.707-0.707l-8.485,8.485C326.266,379.391,323.734,379.391,322.172,377.828z"/>
	<path fill="#FFFFFF" d="M67-20v-12h-1v12c0,2.209,1.791,4,4,4h12v-1H70C68.346-17,67-18.346,67-20z"/>
	<path fill="#E4E0B9" d="M427.081,226.414c-0.781,0.781-2.047,0.781-2.828,0l-2.121-2.121c-0.781-0.781-2.047-0.781-2.828,0
		l3.536,3.536c1.562,1.562,4.095,1.562,5.657,0l8.485-8.485c-0.781-0.781-2.047-0.781-2.828,0L427.081,226.414z"/>
	<path fill="#981643" d="M427.081,276.414c-0.781,0.781-2.047,0.781-2.828,0l-2.121-2.121c-0.781-0.781-2.047-0.781-2.828,0
		l3.536,3.536c1.562,1.562,4.095,1.562,5.657,0l8.485-8.485c-0.781-0.781-2.047-0.781-2.828,0L427.081,276.414z"/>
	<path fill="#5D0B24" d="M427.081,326.414c-0.781,0.781-2.047,0.781-2.828,0l-2.121-2.121c-0.781-0.781-2.047-0.781-2.828,0
		l3.536,3.536c1.562,1.562,4.095,1.562,5.657,0l8.485-8.485c-0.781-0.781-2.047-0.781-2.828,0L427.081,326.414z"/>
	<path fill="#E4E0B9" d="M427.081,376.414c-0.781,0.781-2.047,0.781-2.828,0l-2.121-2.121c-0.781-0.781-2.047-0.781-2.828,0
		l3.536,3.536c1.562,1.562,4.095,1.562,5.657,0l8.485-8.485c-0.781-0.781-2.047-0.781-2.828,0L427.081,376.414z"/>
	<path fill="#E4E0B9" d="M474.608,223.978c-0.174-0.66-0.504-1.289-1.022-1.807l-3.536-3.536c-0.781-0.781-2.047-0.781-2.828,0
		l4.95,4.95c0.781,0.781,0.781,2.047,0,2.828l-3.536,3.536c-0.781,0.781-0.781,2.047,0,2.828l6.756-6.756
		c0.174,0.66,0.504,1.289,1.022,1.807l3.536,3.536c0.781,0.781,2.047,0.781,2.828,0l-4.95-4.95c-0.781-0.781-0.781-2.047,0-2.828
		l3.536-3.536c0.781-0.781,0.781-2.047,0-2.828L474.608,223.978z"/>
	<path fill="#981643" d="M474.608,273.978c-0.174-0.66-0.504-1.289-1.022-1.807l-3.536-3.536c-0.781-0.781-2.047-0.781-2.828,0
		l4.95,4.95c0.781,0.781,0.781,2.047,0,2.828l-3.536,3.536c-0.781,0.781-0.781,2.047,0,2.828l6.756-6.756
		c0.174,0.66,0.504,1.289,1.022,1.807l3.536,3.536c0.781,0.781,2.047,0.781,2.828,0l-4.95-4.95c-0.781-0.781-0.781-2.047,0-2.828
		l3.536-3.536c0.781-0.781,0.781-2.047,0-2.828L474.608,273.978z"/>
	<path fill="#5D0B24" d="M474.608,323.978c-0.174-0.66-0.504-1.289-1.022-1.807l-3.536-3.536c-0.781-0.781-2.047-0.781-2.828,0
		l4.95,4.95c0.781,0.781,0.781,2.047,0,2.828l-3.536,3.536c-0.781,0.781-0.781,2.047,0,2.828l6.756-6.756
		c0.174,0.66,0.504,1.289,1.022,1.807l3.536,3.536c0.781,0.781,2.047,0.781,2.828,0l-4.95-4.95c-0.781-0.781-0.781-2.047,0-2.828
		l3.536-3.536c0.781-0.781,0.781-2.047,0-2.828L474.608,323.978z"/>
	<path fill="#E4E0B9" d="M474.608,373.978c-0.174-0.66-0.504-1.289-1.022-1.807l-3.536-3.536c-0.781-0.781-2.047-0.781-2.828,0
		l4.95,4.95c0.781,0.781,0.781,2.047,0,2.828l-3.536,3.536c-0.781,0.781-0.781,2.047,0,2.828l6.756-6.756
		c0.174,0.66,0.504,1.289,1.022,1.807l3.536,3.536c0.781,0.781,2.047,0.781,2.828,0l-4.95-4.95c-0.781-0.781-0.781-2.047,0-2.828
		l3.536-3.536c0.781-0.781,0.781-2.047,0-2.828L474.608,373.978z"/>
	<path fill="#E4E0B9" d="M520.445-108c0.344-0.59,0.555-1.268,0.555-2v-10c0-1.105-0.895-2-2-2v12c0,1.105-0.895,2-2,2h-10
		c-1.105,0-2,0.895-2,2h14.555c-0.344,0.59-0.555,1.268-0.555,2v10c0,1.105,0.895,2,2,2v-12c0-1.105,0.895-2,2-2h10
		c1.105,0,2-0.895,2-2H520.445z"/>
</g>
<g id="圖層_2">
	<circle fill="#F8F7E9" cx="75" cy="225" r="12"/>
	<circle fill="#F8F7E9" cx="75" cy="275" r="12"/>
	<circle fill="#F1EFD8" cx="75" cy="325" r="12"/>
	<circle fill="#981643" cx="75" cy="375" r="12"/>
	<rect x="566" y="270" fill="#981643" width="18" height="1"/>
	<rect x="566" y="274.5" fill="#981643" width="18" height="1"/>
	<rect x="566" y="279" fill="#981643" width="18" height="1"/>
	<rect x="566" y="220" fill="#E4E0B9" width="18" height="1"/>
	<rect x="566" y="224.5" fill="#E4E0B9" width="18" height="1"/>
	<rect x="566" y="229" fill="#E4E0B9" width="18" height="1"/>
	<rect x="566" y="320" fill="#2C0006" width="18" height="1"/>
	<rect x="566" y="324.5" fill="#2C0006" width="18" height="1"/>
	<rect x="566" y="329" fill="#2C0006" width="18" height="1"/>
	<rect x="566" y="370" fill="#F8F7E9" width="18" height="1"/>
	<rect x="566" y="374.5" fill="#F8F7E9" width="18" height="1"/>
	<rect x="566" y="379" fill="#F8F7E9" width="18" height="1"/>
	<path fill="#981643" d="M123.749,67.098c-4.364,0.691-7.341,4.789-6.65,9.153c0.691,4.364,4.789,7.341,9.153,6.65
		c4.364-0.691,7.341-4.789,6.65-9.153C132.21,69.385,128.112,66.407,123.749,67.098z M126.095,81.914
		c-3.273,0.518-6.239-1.037-7.021-5.975c-0.782-4.938,1.558-7.334,4.831-7.852c3.273-0.518,6.239,1.037,7.021,5.975
		C131.708,79,129.368,81.395,126.095,81.914z"/>
	<circle fill="#981643" cx="125" cy="75" r="4.5"/>
	<path fill="#981643" d="M228.536,71.49c-1.953-1.953-5.118-1.953-7.071,0l-7.071,7.071l1.414,1.414l7.778-7.778
		c1.172-1.172,3.071-1.172,4.243,0l7.071,7.071l0.707-0.707L228.536,71.49z"/>
	<path fill="#981643" d="M278.51,78.536c1.953-1.953,1.953-5.118,0-7.071l-7.071-7.071l-1.414,1.414l7.778,7.778
		c1.172,1.172,1.172,3.071,0,4.243l-7.071,7.071l0.707,0.707L278.51,78.536z"/>
	<path fill="#981643" d="M371.49,71.464c-1.953,1.953-1.953,5.118,0,7.071l7.071,7.071l1.414-1.414l-7.778-7.778
		c-1.172-1.172-1.172-3.071,0-4.243l7.071-7.071l-0.707-0.707L371.49,71.464z"/>
	<path fill="#981643" d="M321.464,78.51c1.953,1.953,5.118,1.953,7.071,0l7.071-7.071l-1.414-1.414l-7.778,7.778
		c-1.172,1.172-3.071,1.172-4.243,0l-7.071-7.071l-0.707,0.707L321.464,78.51z"/>
	<path fill="#E4E0B9" d="M228.536,21.49c-1.953-1.953-5.118-1.953-7.071,0l-7.071,7.071l1.414,1.414l7.778-7.778
		c1.172-1.172,3.071-1.172,4.243,0l7.071,7.071l0.707-0.707L228.536,21.49z"/>
	<path fill="#E4E0B9" d="M278.51,28.536c1.953-1.953,1.953-5.118,0-7.071l-7.071-7.071l-1.414,1.414l7.778,7.778
		c1.172,1.172,1.172,3.071,0,4.243l-7.071,7.071l0.707,0.707L278.51,28.536z"/>
	<path fill="#E4E0B9" d="M371.49,21.464c-1.953,1.953-1.953,5.118,0,7.071l7.071,7.071l1.414-1.414l-7.778-7.778
		c-1.172-1.172-1.172-3.071,0-4.243l7.071-7.071l-0.707-0.707L371.49,21.464z"/>
	<path fill="#E4E0B9" d="M321.464,28.51c1.953,1.953,5.118,1.953,7.071,0l7.071-7.071l-1.414-1.414l-7.778,7.778
		c-1.172,1.172-3.071,1.172-4.243,0l-7.071-7.071l-0.707,0.707L321.464,28.51z"/>
	<path fill="#F1EFD8" d="M228.536,171.49c-1.953-1.953-5.118-1.953-7.071,0l-7.071,7.071l1.414,1.414l7.778-7.778
		c1.172-1.172,3.071-1.172,4.243,0l7.071,7.071l0.707-0.707L228.536,171.49z"/>
	<path fill="#F1EFD8" d="M278.51,178.536c1.953-1.953,1.953-5.118,0-7.071l-7.071-7.071l-1.414,1.414l7.778,7.778
		c1.172,1.172,1.172,3.071,0,4.243l-7.071,7.071l0.707,0.707L278.51,178.536z"/>
	<path fill="#F1EFD8" d="M371.49,171.464c-1.953,1.953-1.953,5.118,0,7.071l7.071,7.071l1.414-1.414l-7.778-7.778
		c-1.172-1.172-1.172-3.071,0-4.243l7.071-7.071l-0.707-0.707L371.49,171.464z"/>
	<path fill="#F1EFD8" d="M321.464,178.51c1.953,1.953,5.118,1.953,7.071,0l7.071-7.071l-1.414-1.414l-7.778,7.778
		c-1.172,1.172-3.071,1.172-4.243,0l-7.071-7.071l-0.707,0.707L321.464,178.51z"/>
	<path fill="#2C0006" d="M228.536,121.49c-1.953-1.953-5.118-1.953-7.071,0l-7.071,7.071l1.414,1.414l7.778-7.778
		c1.172-1.172,3.071-1.172,4.243,0l7.071,7.071l0.707-0.707L228.536,121.49z"/>
	<path fill="#2C0006" d="M278.51,128.536c1.953-1.953,1.953-5.118,0-7.071l-7.071-7.071l-1.414,1.414l7.778,7.778
		c1.172,1.172,1.172,3.071,0,4.243l-7.071,7.071l0.707,0.707L278.51,128.536z"/>
	<path fill="#2C0006" d="M371.49,121.464c-1.953,1.953-1.953,5.118,0,7.071l7.071,7.071l1.414-1.414l-7.778-7.778
		c-1.172-1.172-1.172-3.071,0-4.243l7.071-7.071l-0.707-0.707L371.49,121.464z"/>
	<path fill="#2C0006" d="M321.464,128.51c1.953,1.953,5.118,1.953,7.071,0l7.071-7.071l-1.414-1.414l-7.778,7.778
		c-1.172,1.172-3.071,1.172-4.243,0l-7.071-7.071l-0.707,0.707L321.464,128.51z"/>
	<path fill="#5D0B24" d="M123.749,117.098c-4.364,0.691-7.341,4.789-6.65,9.153c0.691,4.364,4.789,7.341,9.153,6.65
		c4.364-0.691,7.341-4.789,6.65-9.153S128.112,116.407,123.749,117.098z M126.095,131.914c-3.273,0.518-6.239-1.037-7.021-5.975
		s1.558-7.334,4.831-7.852c3.273-0.518,6.239,1.037,7.021,5.975C131.708,129,129.368,131.395,126.095,131.914z"/>
	<circle fill="#5D0B24" cx="125" cy="125" r="4.5"/>
	<path fill="#E4E0B9" d="M429,16c-1.634,0-3.087,0.788-4,2.003c-0.913-1.216-2.366-2.003-4-2.003c-2.757,0-5,2.243-5,5
		c0,2.854,1.718,4.775,3.894,7.208c1.306,1.46,2.786,3.114,4.274,5.347L425,34.803l0.832-1.248c1.488-2.233,2.968-3.887,4.274-5.347
		C432.282,25.775,434,23.854,434,21C434,18.243,431.757,16,429,16L429,16z"/>
	<path fill="#981643" d="M479,66.799c2.209,0,4,1.791,4,4c0,4-4,6-8,12c-4-6-8-8-8-12c0-2.209,1.791-4,4-4s4,1.791,4,4
		C475,68.59,476.791,66.799,479,66.799 M479,65.799c-1.634,0-3.087,0.788-4,2.003c-0.913-1.216-2.366-2.003-4-2.003
		c-2.757,0-5,2.243-5,5c0,2.854,1.718,4.775,3.894,7.208c1.306,1.46,2.786,3.114,4.274,5.347L475,84.602l0.832-1.248
		c1.488-2.233,2.968-3.887,4.274-5.347c2.176-2.433,3.894-4.354,3.894-7.208C484,68.042,481.757,65.799,479,65.799L479,65.799z"/>
	<path fill="#981643" d="M433,71c0,4-4,6-8,12c-4-6-8-8-8-12c0-2.209,1.791-4,4-4s4,1.791,4,4c0-2.209,1.791-4,4-4
		S433,68.791,433,71z"/>
	<path fill="#5D0B24" d="M433,121c0,4-4,6-8,12c-4-6-8-8-8-12c0-2.209,1.791-4,4-4s4,1.791,4,4c0-2.209,1.791-4,4-4
		S433,118.791,433,121z"/>
	<g>
		<path fill="#A2001F" d="M643,242c0-2.761-2.239-5-5-5h-4v2h5c1.657,0,3,1.343,3,3v8h1V242z"/>
		<path fill="#A2001F" d="M641,234c0,2.761,2.239,5,5,5h4v-2h-5c-1.657,0-3-1.343-3-3v-8h-1V234z"/>
	</g>
	<rect x="617" y="24.5" fill="#E4E0B9" width="16" height="1"/>
	<rect x="624.5" y="17" fill="#E4E0B9" width="1" height="16"/>
	<rect x="617" y="74.5" fill="#981643" width="16" height="1"/>
	<rect x="624.5" y="67" fill="#981643" width="1" height="16"/>
	<rect x="617" y="124.5" fill="#5D0B24" width="16" height="1"/>
	<rect x="624.5" y="117" fill="#5D0B24" width="1" height="16"/>
	<rect x="617" y="174.5" fill="#F8F7E9" width="16" height="1"/>
	<rect x="624.5" y="167" fill="#F8F7E9" width="1" height="16"/>
	<g>
		<path fill="#E4E0B9" d="M528,21.5c0-1.657-1.343-3-3-3s-3,1.343-3,3h-1c0-2.209,1.791-4,4-4s4,1.791,4,4H528z"/>
		<path fill="#E4E0B9" d="M529.952,21.5h-9.904c-2.318,2.602-4.048,4.372-4.048,7c0,2.209,1.791,4,4,4h10c2.209,0,4-1.791,4-4
			C534,25.872,532.27,24.102,529.952,21.5z"/>
	</g>
	<g>
		<path fill="#981643" d="M528,71.5c0-1.657-1.343-3-3-3s-3,1.343-3,3h-1c0-2.209,1.791-4,4-4s4,1.791,4,4H528z"/>
		<path fill="#981643" d="M529.952,71.5h-9.904c-2.318,2.602-4.048,4.372-4.048,7c0,2.209,1.791,4,4,4h10c2.209,0,4-1.791,4-4
			C534,75.872,532.27,74.102,529.952,71.5z"/>
	</g>
	<g>
		<path fill="#5D0B24" d="M528,121.5c0-1.657-1.343-3-3-3s-3,1.343-3,3h-1c0-2.209,1.791-4,4-4s4,1.791,4,4H528z"/>
		<path fill="#5D0B24" d="M529.952,121.5h-9.904c-2.318,2.602-4.048,4.372-4.048,7c0,2.209,1.791,4,4,4h10c2.209,0,4-1.791,4-4
			C534,125.872,532.27,124.102,529.952,121.5z"/>
	</g>
	<path fill="#E4E0B9" d="M479,16.799c2.209,0,4,1.791,4,4c0,4-4,6-8,12c-4-6-8-8-8-12c0-2.209,1.791-4,4-4s4,1.791,4,4
		C475,18.59,476.791,16.799,479,16.799 M479,15.799c-1.634,0-3.087,0.788-4,2.003c-0.913-1.216-2.366-2.003-4-2.003
		c-2.757,0-5,2.243-5,5c0,2.854,1.718,4.775,3.894,7.208c1.306,1.46,2.786,3.114,4.274,5.347L475,34.602l0.832-1.248
		c1.488-2.233,2.968-3.887,4.274-5.347c2.176-2.433,3.894-4.354,3.894-7.208C484,18.042,481.757,15.799,479,15.799L479,15.799z"/>
	<path fill="#E4E0B9" d="M578.31,30.104l-1.834,0.797l1.256,1.635l-0.458,0.199l2.791,6.419l1.834-0.798l-2.791-6.419l-0.459,0.199
		L578.31,30.104z"/>
	<path fill="#E4E0B9" d="M572.209,18.581c-3.545,1.542-5.17,5.665-3.628,9.211c1.542,3.545,5.665,5.17,9.211,3.628
		c3.545-1.542,5.17-5.665,3.628-9.211S575.754,17.039,572.209,18.581z M577.393,30.502c-3.039,1.321-6.574-0.071-7.895-3.11
		s0.071-6.574,3.11-7.895c3.039-1.321,6.574,0.071,7.895,3.11S580.431,29.181,577.393,30.502z"/>
	<path fill="#981643" d="M578.31,80.104l-1.834,0.797l1.256,1.635l-0.458,0.199l2.791,6.419l1.834-0.797l-2.791-6.419l-0.459,0.199
		L578.31,80.104z"/>
	<path fill="#981643" d="M572.209,68.581c-3.545,1.542-5.17,5.665-3.628,9.211c1.542,3.545,5.665,5.17,9.211,3.628
		c3.545-1.542,5.17-5.665,3.628-9.211S575.754,67.039,572.209,68.581z M577.393,80.502c-3.039,1.321-6.574-0.071-7.895-3.11
		s0.071-6.574,3.11-7.895s6.574,0.071,7.895,3.11S580.431,79.181,577.393,80.502z"/>
	<path fill="#5D0B24" d="M578.31,130.104l-1.834,0.798l1.256,1.635l-0.458,0.199l2.791,6.419l1.834-0.798l-2.791-6.419l-0.459,0.199
		L578.31,130.104z"/>
	<path fill="#5D0B24" d="M572.209,118.581c-3.545,1.542-5.17,5.665-3.628,9.211c1.542,3.545,5.665,5.17,9.211,3.628
		c3.545-1.542,5.17-5.665,3.628-9.211S575.754,117.039,572.209,118.581z M577.393,130.502c-3.039,1.321-6.574-0.071-7.895-3.11
		c-1.321-3.039,0.071-6.574,3.11-7.895s6.574,0.071,7.895,3.11S580.431,129.181,577.393,130.502z"/>
	<path fill="#5D0B24" d="M776,131h-2l0.5,2H774v7h2v-7h-0.5L776,131z"/>
	<path fill="#5D0B24" d="M775,118c-3.866,0-7,3.134-7,7s3.134,7,7,7s7-3.134,7-7S778.866,118,775,118z M775,131
		c-3.314,0-6-2.686-6-6s2.686-6,6-6s6,2.686,6,6C781,128.314,778.314,131,775,131z"/>
	<rect x="667" y="24.5" fill="#E4E0B9" width="16" height="1"/>
	<rect x="667" y="74.5" fill="#981643" width="16" height="1"/>
	<rect x="667" y="124.5" fill="#5D0B24" width="16" height="1"/>
	<rect x="667" y="174.5" fill="#F8F7E9" width="16" height="1"/>
	
		<rect x="716.995" y="24.505" transform="matrix(-0.7071 0.7071 -0.7071 -0.7071 1255.3254 -469.9634)" fill="#E4E0B9" width="16" height="1"/>
	
		<rect x="724.495" y="17.005" transform="matrix(-0.7071 0.7071 -0.7071 -0.7071 1255.3254 -469.9634)" fill="#E4E0B9" width="1" height="16"/>
	
		<rect x="716.995" y="74.504" transform="matrix(-0.7071 0.7071 -0.7071 -0.7071 1290.6805 -384.6086)" fill="#981643" width="16" height="1"/>
	
		<rect x="724.495" y="67.004" transform="matrix(-0.7071 0.7071 -0.7071 -0.7071 1290.6805 -384.6086)" fill="#981643" width="1" height="16"/>
	
		<rect x="716.995" y="124.504" transform="matrix(-0.7071 0.7071 -0.7071 -0.7071 1326.0356 -299.2537)" fill="#5D0B24" width="16" height="1"/>
	
		<rect x="724.495" y="117.004" transform="matrix(-0.7071 0.7071 -0.7071 -0.7071 1326.0356 -299.2537)" fill="#5D0B24" width="1" height="16"/>
	
		<rect x="716.994" y="174.504" transform="matrix(-0.7071 0.7071 -0.7071 -0.7071 1361.3884 -213.8979)" fill="#F8F7E9" width="16" height="1"/>
	
		<rect x="724.494" y="167.004" transform="matrix(-0.7071 0.7071 -0.7071 -0.7071 1361.3884 -213.8979)" fill="#F8F7E9" width="1" height="16"/>
	<path fill="#FCD88C" d="M123.749,17.098c-4.364,0.691-7.341,4.789-6.65,9.153c0.691,4.364,4.789,7.341,9.153,6.65
		c4.364-0.691,7.341-4.789,6.65-9.153S128.112,16.407,123.749,17.098z M126.095,31.914c-3.273,0.518-6.239-1.037-7.021-5.975
		s1.558-7.334,4.831-7.852c3.273-0.518,6.239,1.037,7.021,5.975C131.708,29,129.368,31.395,126.095,31.914z"/>
	<circle fill="#FCD88C" cx="125" cy="25" r="4.5"/>
	<path fill="#E4E0B9" d="M123.749,167.098c-4.364,0.691-7.341,4.789-6.65,9.153c0.691,4.364,4.789,7.341,9.153,6.65
		c4.364-0.691,7.341-4.789,6.65-9.153C132.21,169.385,128.112,166.407,123.749,167.098z M126.095,181.914
		c-3.273,0.518-6.239-1.037-7.021-5.975c-0.782-4.938,1.558-7.334,4.831-7.852c3.273-0.518,6.239,1.037,7.021,5.975
		C131.708,179,129.368,181.395,126.095,181.914z"/>
	<path fill="#981643" d="M73.749,67.098c-4.364,0.691-7.341,4.789-6.65,9.153c0.691,4.364,4.789,7.341,9.153,6.65
		c4.364-0.691,7.341-4.789,6.65-9.153C82.21,69.385,78.112,66.407,73.749,67.098z M76.095,81.914
		c-3.273,0.518-6.239-1.037-7.021-5.975c-0.782-4.938,1.558-7.334,4.831-7.852c3.273-0.518,6.239,1.037,7.021,5.975
		C81.708,79,79.368,81.395,76.095,81.914z"/>
	<path fill="#5D0B24" d="M73.749,117.098c-4.364,0.691-7.341,4.789-6.65,9.153c0.691,4.364,4.789,7.341,9.153,6.65
		c4.364-0.691,7.341-4.789,6.65-9.153C82.21,119.385,78.112,116.407,73.749,117.098z M76.095,131.914
		c-3.273,0.518-6.239-1.037-7.021-5.975s1.558-7.334,4.831-7.852c3.273-0.518,6.239,1.037,7.021,5.975
		C81.708,129,79.368,131.395,76.095,131.914z"/>
	<path fill="#FCD88C" d="M73.749,17.098c-4.364,0.691-7.341,4.789-6.65,9.153c0.691,4.364,4.789,7.341,9.153,6.65
		c4.364-0.691,7.341-4.789,6.65-9.153C82.21,19.385,78.112,16.407,73.749,17.098z M76.095,31.914
		c-3.273,0.518-6.239-1.037-7.021-5.975s1.558-7.334,4.831-7.852c3.273-0.518,6.239,1.037,7.021,5.975S79.368,31.395,76.095,31.914z
		"/>
	<path fill="#E4E0B9" d="M73.749,167.098c-4.364,0.691-7.341,4.789-6.65,9.153c0.691,4.364,4.789,7.341,9.153,6.65
		c4.364-0.691,7.341-4.789,6.65-9.153C82.21,169.385,78.112,166.407,73.749,167.098z M76.095,181.914
		c-3.273,0.518-6.239-1.037-7.021-5.975c-0.782-4.938,1.558-7.334,4.831-7.852c3.273-0.518,6.239,1.037,7.021,5.975
		C81.708,179,79.368,181.395,76.095,181.914z"/>
	<path fill="#981643" d="M173.749,67.098c-4.364,0.691-7.341,4.789-6.65,9.153c0.691,4.364,4.789,7.341,9.153,6.65
		c4.364-0.691,7.341-4.789,6.65-9.153C182.21,69.385,178.112,66.407,173.749,67.098z M176.095,81.914
		c-3.273,0.518-6.239-1.037-7.021-5.975c-0.782-4.938,1.558-7.334,4.831-7.852s6.239,1.037,7.021,5.975
		C181.708,79,179.368,81.395,176.095,81.914z"/>
	<path fill="#5D0B24" d="M173.749,117.098c-4.364,0.691-7.341,4.789-6.65,9.153c0.691,4.364,4.789,7.341,9.153,6.65
		c4.364-0.691,7.341-4.789,6.65-9.153S178.112,116.407,173.749,117.098z M176.095,131.914c-3.273,0.518-6.239-1.037-7.021-5.975
		c-0.782-4.938,1.558-7.334,4.831-7.852s6.239,1.037,7.021,5.975C181.708,129,179.368,131.395,176.095,131.914z"/>
	<path fill="#FCD88C" d="M173.749,17.098c-4.364,0.691-7.341,4.789-6.65,9.153s4.789,7.341,9.153,6.65
		c4.364-0.691,7.341-4.789,6.65-9.153S178.112,16.407,173.749,17.098z M176.095,31.914c-3.273,0.518-6.239-1.037-7.021-5.975
		c-0.782-4.938,1.558-7.334,4.831-7.852c3.273-0.518,6.239,1.037,7.021,5.975C181.708,29,179.368,31.395,176.095,31.914z"/>
	<path fill="#E4E0B9" d="M173.749,167.098c-4.364,0.691-7.341,4.789-6.65,9.153c0.691,4.364,4.789,7.341,9.153,6.65
		c4.364-0.691,7.341-4.789,6.65-9.153C182.21,169.385,178.112,166.407,173.749,167.098z M176.095,181.914
		c-3.273,0.518-6.239-1.037-7.021-5.975c-0.782-4.938,1.558-7.334,4.831-7.852s6.239,1.037,7.021,5.975
		C181.708,179,179.368,181.395,176.095,181.914z"/>
	<circle fill="#E4E0B9" cx="125" cy="175" r="4.5"/>
	
		<rect x="67" y="224.505" transform="matrix(-0.7071 0.7071 -0.7071 -0.7071 287.1353 331.074)" fill="#E4E0B9" width="16" height="1"/>
	
		<rect x="74.5" y="217.005" transform="matrix(-0.7071 0.7071 -0.7071 -0.7071 287.1353 331.074)" fill="#E4E0B9" width="1" height="16"/>
	
		<rect x="67" y="274.504" transform="matrix(-0.7071 0.7071 -0.7071 -0.7071 322.4905 416.4289)" fill="#981643" width="16" height="1"/>
	
		<rect x="74.5" y="267.004" transform="matrix(-0.7071 0.7071 -0.7071 -0.7071 322.4905 416.4289)" fill="#981643" width="1" height="16"/>
	
		<rect x="67" y="324.504" transform="matrix(-0.7071 0.7071 -0.7071 -0.7071 357.8456 501.7837)" fill="#5D0B24" width="16" height="1"/>
	
		<rect x="74.5" y="317.004" transform="matrix(-0.7071 0.7071 -0.7071 -0.7071 357.8456 501.7837)" fill="#5D0B24" width="1" height="16"/>
	
		<rect x="67" y="374.504" transform="matrix(-0.7071 0.7071 -0.7071 -0.7071 393.2007 587.1385)" fill="#F1EFD8" width="16" height="1"/>
	
		<rect x="74.5" y="367.004" transform="matrix(-0.7071 0.7071 -0.7071 -0.7071 393.2007 587.1385)" fill="#F1EFD8" width="1" height="16"/>
	<g>
		<polygon fill="#E4E0B9" points="29,217 31,217 21,233 19,233 		"/>
		<polygon fill="#E4E0B9" points="31,233 20,217 19,217 30,233 		"/>
	</g>
	<g>
		<polygon fill="#981643" points="29,267 31,267 21,283 19,283 		"/>
		<polygon fill="#981643" points="31,283 20,267 19,267 30,283 		"/>
	</g>
	<g>
		<polygon fill="#5D0B24" points="29,317 31,317 21,333 19,333 		"/>
		<polygon fill="#5D0B24" points="31,333 20,317 19,317 30,333 		"/>
	</g>
	<g>
		<polygon fill="#F1EFD8" points="29,367 31,367 21,383 19,383 		"/>
		<polygon fill="#F1EFD8" points="31,383 20,367 19,367 30,383 		"/>
	</g>
	
		<rect x="117" y="224.505" transform="matrix(-0.7071 0.7071 -0.7071 -0.7071 372.4907 295.7187)" fill="#E4E0B9" width="16" height="1"/>
	
		<rect x="124.5" y="217.005" transform="matrix(-0.7071 0.7071 -0.7071 -0.7071 372.4907 295.7187)" fill="#E4E0B9" width="1" height="16"/>
	
		<rect x="117" y="274.504" transform="matrix(-0.7071 0.7071 -0.7071 -0.7071 407.8458 381.0735)" fill="#981643" width="16" height="1"/>
	
		<rect x="124.5" y="267.004" transform="matrix(-0.7071 0.7071 -0.7071 -0.7071 407.8458 381.0735)" fill="#981643" width="1" height="16"/>
	
		<rect x="117" y="324.504" transform="matrix(-0.7071 0.7071 -0.7071 -0.7071 443.201 466.4284)" fill="#5D0B24" width="16" height="1"/>
	
		<rect x="124.5" y="317.004" transform="matrix(-0.7071 0.7071 -0.7071 -0.7071 443.201 466.4284)" fill="#5D0B24" width="1" height="16"/>
	
		<rect x="117" y="374.504" transform="matrix(-0.7071 0.7071 -0.7071 -0.7071 478.5561 551.7832)" fill="#F1EFD8" width="16" height="1"/>
	
		<rect x="124.5" y="367.004" transform="matrix(-0.7071 0.7071 -0.7071 -0.7071 478.5561 551.7832)" fill="#F1EFD8" width="1" height="16"/>
</g>
</svg>
