<?xml version="1.0" encoding="utf-8"?>
<!-- Generator: Adobe Illustrator 17.0.0, SVG Export Plug-In . SVG Version: 6.00 Build 0)  -->
<!DOCTYPE svg PUBLIC "-//W3C//DTD SVG 1.1//EN" "http://www.w3.org/Graphics/SVG/1.1/DTD/svg11.dtd">
<svg version="1.1" id="圖層_1" xmlns="http://www.w3.org/2000/svg" xmlns:xlink="http://www.w3.org/1999/xlink" x="0px" y="0px"
	 width="76px" height="76px" viewBox="0 0 76 76" enable-background="new 0 0 76 76" xml:space="preserve">
<path fill="#3E0313" d="M74,62c-3.314,0-6-2.686-6-6V13h-7h-1L46,59.667V13h-7h-1L27,49.667L16,13H9H8v43c0,3.314-2.686,6-6,6H0v1
	h17v-1h-2c-3.314,0-6-2.686-6-6V16.343L22.957,63H23h1l3.5-11.667l10.5-35V63h8l14-46.667V56c0,3.314-2.686,6-6,6h-2v1h24v-1H74z"/>
</svg>
