<?xml version="1.0" encoding="utf-8"?>
<!-- Generator: Adobe Illustrator 17.0.0, SVG Export Plug-In . SVG Version: 6.00 Build 0)  -->
<!DOCTYPE svg PUBLIC "-//W3C//DTD SVG 1.1//EN" "http://www.w3.org/Graphics/SVG/1.1/DTD/svg11.dtd">
<svg version="1.1" id="圖層_1" xmlns="http://www.w3.org/2000/svg" xmlns:xlink="http://www.w3.org/1999/xlink" x="0px" y="0px"
	 width="182px" height="75px" viewBox="0 0 182 75" enable-background="new 0 0 182 75" xml:space="preserve">
<g>
	<path fill="#3E0313" d="M64,0h-1v44c0,1.657-1.343,3-3,3h-5v1h17v-1h-5c-1.657,0-3-1.343-3-3V0z"/>
	<path fill="#3E0313" d="M111,0v44c0,1.657-1.343,3-3,3h-5v1h24v-1h-5c-1.657,0-3-1.343-3-3V0H111z"/>
	<polygon fill="#3E0313" points="96,0 95,0 83,36 83.5,37.5 	"/>
	<polygon fill="#3E0313" points="71,0 63,0 79,48 83,36 	"/>
	<polygon fill="#3E0313" points="83,36 79,48 80,48 83.5,37.5 	"/>
	<polygon fill="#3E0313" points="103,0 95,0 95,48 103,24 	"/>
	<polygon fill="#3E0313" points="112,0 111,0 103,24 103,27 	"/>
	<polygon fill="#3E0313" points="103,24 95,48 96,48 103,27 	"/>
</g>
<g>
	<g>
		<path fill="#3E0313" d="M269.5,131h-1v44c0,1.657-1.343,3-3,3h-5v1h17v-1h-5c-1.657,0-3-1.343-3-3V131z"/>
		<path fill="#3E0313" d="M316.5,131v44c0,1.657-1.343,3-3,3h-5v1h24v-1h-5c-1.657,0-3-1.343-3-3v-44H316.5z"/>
		<polygon fill="#3E0313" points="301.5,131 300.5,131 288.5,167 289,168.5 		"/>
		<polygon fill="#3E0313" points="276.5,131 268.5,131 284.5,179 288.5,167 		"/>
		<polygon fill="#3E0313" points="288.5,167 284.5,179 285.5,179 289,168.5 		"/>
		<polygon fill="#3E0313" points="308.5,131 300.5,131 300.5,179 308.5,155 		"/>
		<polygon fill="#3E0313" points="317.5,131 316.5,131 308.5,155 308.5,158 		"/>
		<polygon fill="#3E0313" points="308.5,155 300.5,179 301.5,179 308.5,158 		"/>
	</g>
	<g>
		<rect x="282" y="201" fill="#3E0313" width="8" height="1"/>
		<polygon fill="#3E0313" points="312,206 307,198.5 305.798,198.5 310.798,206 		"/>
		<g>
			<polygon fill="#3E0313" points="286,191 285,191 280,206 281,206 			"/>
			<polygon fill="#3E0313" points="286,191 287,191 292,206 291,206 			"/>
			<g>
				<polygon fill="#3E0313" points="271,191 270,191 265,206 266,206 				"/>
				<polygon fill="#3E0313" points="260,191 261,191 266,206 265,206 				"/>
				<rect x="259" y="191" fill="#3E0313" width="1" height="15"/>
				<rect x="271" y="191" fill="#3E0313" width="1" height="15"/>
			</g>
			<rect x="329" y="191" fill="#3E0313" width="1" height="15"/>
			<rect x="320" y="191" fill="#3E0313" width="1" height="15"/>
			<g>
				<polygon fill="#3E0313" points="250,191 249,191 244,206 245,206 				"/>
				<polygon fill="#3E0313" points="239,191 240,191 245,206 244,206 				"/>
				<rect x="238" y="191" fill="#3E0313" width="1" height="15"/>
				<rect x="250" y="191" fill="#3E0313" width="1" height="15"/>
			</g>
			<g>
				<polygon fill="#3E0313" points="224,191 223,191 218,206 219,206 				"/>
				<polygon fill="#3E0313" points="224,191 225,191 230,206 229,206 				"/>
				<rect x="220" y="201" fill="#3E0313" width="8" height="1"/>
			</g>
			<path fill="#3E0313" d="M204.5,206c-3.444,0-5.5-1.495-5.5-4h1c0,2.708,3.147,3,4.5,3s4.5-0.292,4.5-3
				c0-1.884-2.138-2.559-4.4-3.273c-2.391-0.755-5.1-1.61-5.1-4.227c0-2.159,1.916-3.5,5-3.5c2.851,0,5,1.72,5,4h-1
				c0-1.71-1.72-3-4-3c-1.934,0-4,0.657-4,2.5c0,1.884,2.138,2.559,4.4,3.273c2.391,0.755,5.1,1.61,5.1,4.227
				C210,204.505,207.944,206,204.5,206z"/>
			<path fill="#3E0313" d="M371.5,206c-3.444,0-5.5-1.495-5.5-4h1c0,2.708,3.147,3,4.5,3s4.5-0.292,4.5-3
				c0-1.884-2.138-2.559-4.4-3.273c-2.391-0.755-5.1-1.61-5.1-4.227c0-2.159,1.916-3.5,5-3.5c2.851,0,5,1.72,5,4h-1
				c0-1.71-1.72-3-4-3c-1.934,0-4,0.657-4,2.5c0,1.884,2.138,2.559,4.4,3.273c2.391,0.755,5.1,1.61,5.1,4.227
				C377,204.505,374.944,206,371.5,206z"/>
			<polygon fill="#3E0313" points="340,191 340,204.197 331.202,191 330,191 340,206 340.5,206 341,206 341,191 			"/>
			<rect x="300" y="191" fill="#3E0313" width="1" height="15"/>
			<path fill="#3E0313" d="M306,199c2.209,0,4-1.791,4-4c0-2.209-1.791-4-4-4h-5v1h5c1.657,0,3,1.343,3,3s-1.343,3-3,3h-5v1H306z"/>
			<polygon fill="#3E0313" points="358,192 358,191 350,191 349.5,191 349,191 349,206 349.5,206 350,206 358,206 358,205 350,205 
				350,198 356.5,198 356.5,197 350,197 350,192 			"/>
			<polygon fill="#3E0313" points="394,192 394,191 386,191 385.5,191 385,191 385,206 385.5,206 386,206 394,206 394,205 386,205 
				386,198 392.5,198 392.5,197 386,197 386,192 			"/>
		</g>
	</g>
</g>
<g>
	<path fill="#3D0112" d="M131.5,167c-1.657,0-3-1.343-3-3v-44h-8l-8,24v-24h-8l-12,36l-12-36h-8v44c0,1.657-1.343,3-3,3h-5v1h17v-1
		h-5c-1.657,0-3-1.343-3-3v-41l15,45h1l15-45v45h1l15-45v41c0,1.657-1.343,3-3,3h-5v1h24v-1H131.5z"/>
	<g>
		<polygon fill="#3E0313" points="94,180 93,180 88,195 89,195 		"/>
		<polygon fill="#3E0313" points="83,180 82,180 77,195 78,195 		"/>
		<polygon fill="#3E0313" points="72,180 73,180 78,195 77,195 		"/>
		<polygon fill="#3E0313" points="94,180 95,180 100,195 99,195 		"/>
		<polygon fill="#3E0313" points="44,180 43,180 38,195 39,195 		"/>
		<polygon fill="#3E0313" points="44,180 45,180 50,195 49,195 		"/>
		<rect x="71" y="180" fill="#3E0313" width="1" height="15"/>
		<rect x="83" y="180" fill="#3E0313" width="1" height="15"/>
		<rect x="125" y="180" fill="#3E0313" width="1" height="15"/>
		<rect x="120" y="180" fill="#3E0313" width="1" height="15"/>
		<polygon fill="#3E0313" points="66,180 65,180 60,195 61,195 		"/>
		<polygon fill="#3E0313" points="55,180 56,180 61,195 60,195 		"/>
		<rect x="54" y="180" fill="#3E0313" width="1" height="15"/>
		<rect x="66" y="180" fill="#3E0313" width="1" height="15"/>
		<rect x="90" y="190" fill="#3E0313" width="8" height="1"/>
		<rect x="40" y="190" fill="#3E0313" width="8" height="1"/>
		<path fill="#3E0313" d="M28.5,195c-3.444,0-5.5-1.495-5.5-4h1c0,2.708,3.147,3,4.5,3s4.5-0.292,4.5-3
			c0-1.884-2.138-2.559-4.4-3.273c-2.391-0.755-5.1-1.61-5.1-4.227c0-2.159,1.916-3.5,5-3.5c2.851,0,5,1.72,5,4h-1
			c0-1.71-1.72-3-4-3c-1.934,0-4,0.657-4,2.5c0,1.884,2.138,2.559,4.4,3.273c2.391,0.755,5.1,1.61,5.1,4.227
			C34,193.505,31.944,195,28.5,195z"/>
		<path fill="#3E0313" d="M159.5,195c-3.444,0-5.5-1.495-5.5-4h1c0,2.708,3.147,3,4.5,3s4.5-0.292,4.5-3
			c0-1.884-2.138-2.559-4.4-3.273c-2.391-0.755-5.1-1.61-5.1-4.227c0-2.159,1.916-3.5,5-3.5c2.851,0,5,1.72,5,4h-1
			c0-1.71-1.72-3-4-3c-1.934,0-4,0.657-4,2.5c0,1.884,2.138,2.559,4.4,3.273c2.391,0.755,5.1,1.61,5.1,4.227
			C165,193.505,162.944,195,159.5,195z"/>
		<polygon fill="#3E0313" points="136,180 136,193.197 127.202,180 126,180 136,195 136.5,195 137,195 137,180 		"/>
		<rect x="104" y="180" fill="#3E0313" width="1" height="15"/>
		<path fill="#3E0313" d="M110,188c2.209,0,4-1.791,4-4c0-2.209-1.791-4-4-4h-5v1h5c1.657,0,3,1.343,3,3s-1.343,3-3,3h-5v1H110z"/>
		<polygon fill="#3E0313" points="116,195 111,187.5 109.798,187.5 114.798,195 		"/>
		<polygon fill="#3E0313" points="150,181 150,180 142,180 141.5,180 141,180 141,195 141.5,195 142,195 150,195 150,194 142,194 
			142,187 148.5,187 148.5,186 142,186 142,181 		"/>
		<polygon fill="#3E0313" points="178,181 178,180 170,180 169.5,180 169,180 169,195 169.5,195 170,195 178,195 178,194 170,194 
			170,187 176.5,187 176.5,186 170,186 170,181 		"/>
	</g>
</g>
<g>
	<rect x="92" y="105.5" fill="#3E0313" width="8" height="1"/>
	<polygon fill="#3E0313" points="96,96 95,96 90,111 91,111 	"/>
	<polygon fill="#3E0313" points="96,96 97,96 102,111 101,111 	"/>
	<polygon fill="#3E0313" points="83,96 82,96 77,111 78,111 	"/>
	<polygon fill="#3E0313" points="72,96 73,96 78,111 77,111 	"/>
	<rect x="71" y="96" fill="#3E0313" width="1" height="15"/>
	<rect x="83" y="96" fill="#3E0313" width="1" height="15"/>
	<rect x="135" y="96" fill="#3E0313" width="1" height="15"/>
	<rect x="126" y="96" fill="#3E0313" width="1" height="15"/>
	<g>
		<polygon fill="#3E0313" points="62,96 61,96 56,111 57,111 		"/>
		<polygon fill="#3E0313" points="51,96 52,96 57,111 56,111 		"/>
		<rect x="50" y="96" fill="#3E0313" width="1" height="15"/>
		<rect x="62" y="96" fill="#3E0313" width="1" height="15"/>
	</g>
	<polygon fill="#3E0313" points="38,96 37,96 32,111 33,111 	"/>
	<polygon fill="#3E0313" points="38,96 39,96 44,111 43,111 	"/>
	<rect x="34" y="105.5" fill="#3E0313" width="8" height="1"/>
	<path fill="#3E0313" d="M20.5,111c-3.444,0-5.5-1.495-5.5-4h1c0,2.708,3.147,3,4.5,3s4.5-0.292,4.5-3
		c0-1.884-2.138-2.559-4.4-3.273c-2.391-0.755-5.1-1.61-5.1-4.227c0-2.159,1.916-3.5,5-3.5c2.851,0,5,1.72,5,4h-1c0-1.71-1.72-3-4-3
		c-1.934,0-4,0.657-4,2.5c0,1.884,2.138,2.559,4.4,3.273c2.391,0.755,5.1,1.61,5.1,4.227C26,109.505,23.944,111,20.5,111z"/>
	<path fill="#3E0313" d="M175.5,111c-3.444,0-5.5-1.495-5.5-4h1c0,2.708,3.147,3,4.5,3s4.5-0.292,4.5-3
		c0-1.884-2.138-2.559-4.4-3.273c-2.391-0.755-5.1-1.61-5.1-4.227c0-2.159,1.916-3.5,5-3.5c2.851,0,5,1.72,5,4h-1c0-1.71-1.72-3-4-3
		c-1.934,0-4,0.657-4,2.5c0,1.884,2.138,2.559,4.4,3.273c2.391,0.755,5.1,1.61,5.1,4.227C181,109.505,178.944,111,175.5,111z"/>
	<polygon fill="#3E0313" points="146,96 146,109.197 137.202,96 136,96 146,111 147,111 147,96 	"/>
	<g>
		<polygon fill="#3E0313" points="120,111 115,103.5 113.798,103.5 118.798,111 		"/>
		<rect x="108" y="96" fill="#3E0313" width="1" height="15"/>
		<path fill="#3E0313" d="M114,104c2.209,0,4-1.791,4-4c0-2.209-1.791-4-4-4h-5v1h5c1.657,0,3,1.343,3,3s-1.343,3-3,3h-5v1H114z"/>
	</g>
	<polygon fill="#3E0313" points="164,97 164,96 155,96 155,111 164,111 164,110 156,110 156,104 162.5,104 162.5,103 156,103 
		156,97 	"/>
	<polygon fill="#3E0313" points="196,97 196,96 187,96 187,111 196,111 196,110 188,110 188,104 194.5,104 194.5,103 188,103 
		188,97 	"/>
</g>
<g>
	<path fill="#3E0313" d="M161,75c-3.444,0-5.5-1.495-5.5-4h1c0,2.708,3.147,3,4.5,3s4.5-0.292,4.5-3c0-1.884-2.138-2.559-4.4-3.273
		c-2.391-0.755-5.1-1.61-5.1-4.227c0-2.159,1.916-3.5,5-3.5c2.851,0,5,1.72,5,4h-1c0-1.71-1.72-3-4-3c-1.934,0-4,0.657-4,2.5
		c0,1.884,2.138,2.559,4.4,3.273c2.391,0.755,5.1,1.61,5.1,4.227C166.5,73.505,164.444,75,161,75z"/>
	<rect x="78" y="69.5" fill="#3E0313" width="8" height="1"/>
	<polygon fill="#3E0313" points="82,60 81,60 76,75 77,75 	"/>
	<polygon fill="#3E0313" points="82,60 83,60 88,75 87,75 	"/>
	<polygon fill="#3E0313" points="69,60 68,60 63,75 64,75 	"/>
	<polygon fill="#3E0313" points="58,60 59,60 64,75 63,75 	"/>
	<rect x="57" y="60" fill="#3E0313" width="1" height="15"/>
	<rect x="69" y="60" fill="#3E0313" width="1" height="15"/>
	<rect x="121" y="60" fill="#3E0313" width="1" height="15"/>
	<rect x="112" y="60" fill="#3E0313" width="1" height="15"/>
	<polygon fill="#3E0313" points="48,60 47,60 42,75 43,75 	"/>
	<polygon fill="#3E0313" points="37,60 38,60 43,75 42,75 	"/>
	<rect x="36" y="60" fill="#3E0313" width="1" height="15"/>
	<rect x="48" y="60" fill="#3E0313" width="1" height="15"/>
	<polygon fill="#3E0313" points="24,60 23,60 18,75 19,75 	"/>
	<polygon fill="#3E0313" points="24,60 25,60 30,75 29,75 	"/>
	<rect x="20" y="69.5" fill="#3E0313" width="8" height="1"/>
	<polygon fill="#3E0313" points="132,60 132,73.197 123.202,60 122,60 132,75 133,75 133,60 	"/>
	<polygon fill="#3E0313" points="106,75 101,67.5 99.798,67.5 104.798,75 	"/>
	<rect x="94" y="60" fill="#3E0313" width="1" height="15"/>
	<path fill="#3E0313" d="M100,68c2.209,0,4-1.791,4-4c0-2.209-1.791-4-4-4h-5v1h5c1.657,0,3,1.343,3,3s-1.343,3-3,3h-5v1H100z"/>
	<polygon fill="#3E0313" points="150,61 150,60 141,60 141,75 150,75 150,74 142,74 142,68 148.5,68 148.5,67 142,67 142,61 	"/>
	<polygon fill="#3E0313" points="181,61 181,60 172,60 172,75 181,75 181,74 173,74 173,68 179.5,68 179.5,67 173,67 173,61 	"/>
	<path fill="#3E0313" d="M6.5,75C3.056,75,1,73.505,1,71h1c0,2.708,3.147,3,4.5,3s4.5-0.292,4.5-3c0-1.884-2.138-2.559-4.4-3.273
		c-2.391-0.755-5.1-1.61-5.1-4.227c0-2.159,1.916-3.5,5-3.5c2.851,0,5,1.72,5,4h-1c0-1.71-1.72-3-4-3c-1.934,0-4,0.657-4,2.5
		c0,1.884,2.138,2.559,4.4,3.273C9.291,67.528,12,68.384,12,71C12,73.505,9.944,75,6.5,75z"/>
</g>
</svg>
