<?xml version="1.0" encoding="utf-8"?>
<!-- Generator: Adobe Illustrator 17.0.0, SVG Export Plug-In . SVG Version: 6.00 Build 0)  -->
<!DOCTYPE svg PUBLIC "-//W3C//DTD SVG 1.1//EN" "http://www.w3.org/Graphics/SVG/1.1/DTD/svg11.dtd">
<svg version="1.1" id="圖層_1" xmlns="http://www.w3.org/2000/svg" xmlns:xlink="http://www.w3.org/1999/xlink" x="0px" y="0px"
	 width="394px" height="100px" viewBox="0 0 394 100" enable-background="new 0 0 394 100" xml:space="preserve">
<g>
	<g>
		<path fill="#FFFFFF" d="M9,99.5c-4.352,0-9-1.84-9-7h2c0,4.514,4.895,5,7,5s7-0.486,7-5c0-2.746-2.68-4.002-6.77-5.602
			C5.676,85.506,2,84.066,2,80.5c0-2.281,1.389-5,8-5h6v2h-6c-6,0-6,2.258-6,3c0,2.201,2.895,3.336,5.961,4.535
			C13.729,86.51,18,88.184,18,92.5C18,97.66,13.352,99.5,9,99.5z"/>
		<rect x="238" y="75.5" fill="#FFFFFF" width="2" height="24"/>
		<rect x="264" y="75.5" fill="#FFFFFF" width="2" height="24"/>
		<rect x="282" y="75.5" fill="#FFFFFF" width="2" height="24"/>
		<polygon fill="#FFFFFF" points="284,98.895 268.404,75.5 266,75.5 282,99.5 284,99.5 		"/>
		<path fill="#FFFFFF" d="M215.596,99.5H218l-8.203-12.304c2.43-0.767,4.203-3.012,4.203-5.696c0-3.314-2.686-6-6-6h-10v24h2v-12
			h7.596L215.596,99.5z M200,85.5v-8h8c2.209,0,4,1.791,4,4c0,2.209-1.791,4-4,4h-1.737H200z"/>
		<rect x="74" y="75.5" fill="#FFFFFF" width="2" height="24"/>
		<rect x="94" y="75.5" fill="#FFFFFF" width="2" height="24"/>
		<polygon fill="#FFFFFF" points="92,75.5 85,96.5 78,75.5 76,75.5 84,99.5 86,99.5 94,75.5 		"/>
		<rect x="120" y="75.5" fill="#FFFFFF" width="2" height="24"/>
		<rect x="140" y="75.5" fill="#FFFFFF" width="2" height="24"/>
		<polygon fill="#FFFFFF" points="138,75.5 131,96.5 124,75.5 122,75.5 130,99.5 132,99.5 140,75.5 		"/>
		<polygon fill="#FFFFFF" points="54,99.5 56,99.5 48,75.5 46,75.5 51,90.5 41,90.5 46,75.5 44,75.5 36,99.5 38,99.5 40.333,92.5 
			51.667,92.5 		"/>
		<polygon fill="#FFFFFF" points="178,99.5 180,99.5 172,75.5 170,75.5 175,90.5 165,90.5 170,75.5 168,75.5 160,99.5 162,99.5 
			164.333,92.5 175.667,92.5 		"/>
		<polygon fill="#FFFFFF" points="308,99.5 324,99.5 324,97.5 310,97.5 310,88.5 320,88.5 320,86.5 310,86.5 310,77.5 324,77.5 
			324,75.5 308,75.5 		"/>
		<polygon fill="#FFFFFF" points="378,99.5 394,99.5 394,97.5 380,97.5 380,88.5 390,88.5 390,86.5 380,86.5 380,77.5 394,77.5 
			394,75.5 378,75.5 		"/>
		<path fill="#FFFFFF" d="M351,99.5c-4.352,0-9-1.84-9-7h2c0,4.514,4.895,5,7,5s7-0.486,7-5c0-2.746-2.68-4.002-6.77-5.602
			c-3.555-1.393-7.23-2.832-7.23-6.398c0-2.281,1.389-5,8-5h6v2h-6c-6,0-6,2.258-6,3c0,2.201,2.895,3.336,5.961,4.535
			C355.729,86.51,360,88.184,360,92.5C360,97.66,355.352,99.5,351,99.5z"/>
	</g>
	<path fill="#FFFFFF" d="M163.25,3.75L182,60h1.25L202,3.75V60h1.25L222,3.75V55c0,2.071-1.679,3.75-3.75,3.75H212V60h30v-1.25
		h-6.25c-2.071,0-3.75-1.679-3.75-3.75V0h-10l-10,30V0h-10l-15,45L172,0h-10v55c0,2.071-1.679,3.75-3.75,3.75H152V60h21.25v-1.25
		H167c-2.071,0-3.75-1.679-3.75-3.75V3.75z"/>
</g>
</svg>
