<?xml version="1.0" encoding="utf-8"?>
<!-- Generator: Adobe Illustrator 17.0.0, SVG Export Plug-In . SVG Version: 6.00 Build 0)  -->
<!DOCTYPE svg PUBLIC "-//W3C//DTD SVG 1.1//EN" "http://www.w3.org/Graphics/SVG/1.1/DTD/svg11.dtd">
<svg version="1.1" id="圖層_1" xmlns="http://www.w3.org/2000/svg" xmlns:xlink="http://www.w3.org/1999/xlink" x="0px" y="0px"
	 width="155px" height="75px" viewBox="0 0 155 75" enable-background="new 0 0 155 75" xml:space="preserve">
<path fill="#3D0112" d="M108.5,47c-1.657,0-3-1.343-3-3V0h-8l-8,24V0h-8l-12,36l-12-36h-8v44c0,1.657-1.343,3-3,3h-5v1h17v-1h-5
	c-1.657,0-3-1.343-3-3V3l15,45h1l15-45v45h1l15-45v41c0,1.657-1.343,3-3,3h-5v1h24v-1H108.5z"/>
<g>
	<polygon fill="#3E0313" points="71,60 70,60 65,75 66,75 	"/>
	<polygon fill="#3E0313" points="60,60 59,60 54,75 55,75 	"/>
	<polygon fill="#3E0313" points="49,60 50,60 55,75 54,75 	"/>
	<polygon fill="#3E0313" points="71,60 72,60 77,75 76,75 	"/>
	<polygon fill="#3E0313" points="21,60 20,60 15,75 16,75 	"/>
	<polygon fill="#3E0313" points="21,60 22,60 27,75 26,75 	"/>
	<rect x="48" y="60" fill="#3E0313" width="1" height="15"/>
	<rect x="60" y="60" fill="#3E0313" width="1" height="15"/>
	<rect x="102" y="60" fill="#3E0313" width="1" height="15"/>
	<rect x="97" y="60" fill="#3E0313" width="1" height="15"/>
	<polygon fill="#3E0313" points="43,60 42,60 37,75 38,75 	"/>
	<polygon fill="#3E0313" points="32,60 33,60 38,75 37,75 	"/>
	<rect x="31" y="60" fill="#3E0313" width="1" height="15"/>
	<rect x="43" y="60" fill="#3E0313" width="1" height="15"/>
	<rect x="67" y="70" fill="#3E0313" width="8" height="1"/>
	<rect x="17" y="70" fill="#3E0313" width="8" height="1"/>
	<path fill="#3E0313" d="M5.5,75C2.056,75,0,73.505,0,71h1c0,2.708,3.147,3,4.5,3s4.5-0.292,4.5-3c0-1.884-2.138-2.559-4.4-3.273
		c-2.391-0.755-5.1-1.61-5.1-4.227c0-2.159,1.916-3.5,5-3.5c2.851,0,5,1.72,5,4h-1c0-1.71-1.72-3-4-3c-1.934,0-4,0.657-4,2.5
		c0,1.884,2.138,2.559,4.4,3.273C8.291,67.528,11,68.384,11,71C11,73.505,8.944,75,5.5,75z"/>
	<path fill="#3E0313" d="M136.5,75c-3.444,0-5.5-1.495-5.5-4h1c0,2.708,3.147,3,4.5,3s4.5-0.292,4.5-3
		c0-1.884-2.138-2.559-4.4-3.273c-2.391-0.755-5.1-1.61-5.1-4.227c0-2.159,1.916-3.5,5-3.5c2.851,0,5,1.72,5,4h-1c0-1.71-1.72-3-4-3
		c-1.934,0-4,0.657-4,2.5c0,1.884,2.138,2.559,4.4,3.273c2.391,0.755,5.1,1.61,5.1,4.227C142,73.505,139.944,75,136.5,75z"/>
	<polygon fill="#3E0313" points="113,60 113,73.197 104.202,60 103,60 113,75 113.5,75 114,75 114,60 	"/>
	<rect x="81" y="60" fill="#3E0313" width="1" height="15"/>
	<path fill="#3E0313" d="M87,68c2.209,0,4-1.791,4-4c0-2.209-1.791-4-4-4h-5v1h5c1.657,0,3,1.343,3,3s-1.343,3-3,3h-5v1H87z"/>
	<polygon fill="#3E0313" points="93,75 88,67.5 86.798,67.5 91.798,75 	"/>
	<polygon fill="#3E0313" points="127,61 127,60 119,60 118.5,60 118,60 118,75 118.5,75 119,75 127,75 127,74 119,74 119,67 
		125.5,67 125.5,66 119,66 119,61 	"/>
	<polygon fill="#3E0313" points="155,61 155,60 147,60 146.5,60 146,60 146,75 146.5,75 147,75 155,75 155,74 147,74 147,67 
		153.5,67 153.5,66 147,66 147,61 	"/>
</g>
</svg>
