<?xml version="1.0" encoding="utf-8"?>
<!-- Generator: Adobe Illustrator 17.0.0, SVG Export Plug-In . SVG Version: 6.00 Build 0)  -->
<!DOCTYPE svg PUBLIC "-//W3C//DTD SVG 1.1//EN" "http://www.w3.org/Graphics/SVG/1.1/DTD/svg11.dtd">
<svg version="1.1" id="圖層_1" xmlns="http://www.w3.org/2000/svg" xmlns:xlink="http://www.w3.org/1999/xlink" x="0px" y="0px"
	 width="900px" height="900px" viewBox="0 0 900 900" enable-background="new 0 0 900 900" xml:space="preserve">
<rect x="80" y="-90" fill="#231815" width="20" height="50"/>
<rect x="60" y="-90" fill="#2C0006" width="20" height="50"/>
<rect x="40" y="-90" fill="#3F0514" width="20" height="50"/>
<rect x="20" y="-90" fill="#5D0B24" width="20" height="50"/>
<rect y="-90" fill="#981643" width="20" height="50"/>
<rect x="190" y="-90" fill="#E9D98E" width="20" height="50"/>
<rect x="170" y="-90" fill="#F4ECBB" width="20" height="50"/>
<rect x="240" y="-90" fill="#FCD88C" width="20" height="50"/>
<rect x="260" y="-90" fill="#FACB63" width="20" height="50"/>
<rect x="280" y="-90" fill="#F7BD3F" width="20" height="50"/>
<rect x="210" y="-90" fill="#F0EA92" width="20" height="50"/>
<rect x="150" y="-90" fill="#E4E0B9" width="20" height="50"/>
<rect x="130" y="-90" fill="#F1EFD8" width="20" height="50"/>
<rect x="110" y="-90" fill="#F8F7E9" width="20" height="50"/>
<g>
	<polygon fill="#981643" points="18,67 21,67 32,83 29,83 	"/>
	<polygon fill="#981643" points="18.09,83 19,83 31.91,67 31,67 	"/>
</g>
<g>
	<polygon fill="#E4E0B9" points="18,17 21,17 32,33 29,33 	"/>
	<polygon fill="#E4E0B9" points="18.09,33 19,33 31.91,17 31,17 	"/>
</g>
<g>
	<polygon fill="#F8F7E9" points="18,167 21,167 32,183 29,183 	"/>
	<polygon fill="#F8F7E9" points="18.09,183 19,183 31.91,167 31,167 	"/>
</g>
<g>
	<polygon fill="#2C0006" points="18,117 21,117 32,133 29,133 	"/>
	<polygon fill="#2C0006" points="18.09,133 19,133 31.91,117 31,117 	"/>
</g>
<rect x="602" y="259" fill="#FFFFFF" stroke="#231815" stroke-miterlimit="10" width="10" height="20"/>
<path fill="#FFFFFF" stroke="#231815" stroke-miterlimit="10" d="M612,289c-10,0,0,0-10,0s-10-20-10-20h30C622,269,622,289,612,289z
	"/>
<g>
	<rect x="66" y="71.5" fill="#981643" width="18" height="1"/>
	<rect x="66" y="74.5" fill="#981643" width="18" height="1"/>
	<rect x="66" y="77.5" fill="#981643" width="18" height="1"/>
</g>
<g>
	<rect x="66" y="21.5" fill="#E4E0B9" width="18" height="1"/>
	<rect x="66" y="24.5" fill="#E4E0B9" width="18" height="1"/>
	<rect x="66" y="27.5" fill="#E4E0B9" width="18" height="1"/>
</g>
<g>
	<rect x="66" y="121.5" fill="#2C0006" width="18" height="1"/>
	<rect x="66" y="124.5" fill="#2C0006" width="18" height="1"/>
	<rect x="66" y="127.5" fill="#2C0006" width="18" height="1"/>
</g>
<g>
	<rect x="66" y="171.5" fill="#F8F7E9" width="18" height="1"/>
	<rect x="66" y="174.5" fill="#F8F7E9" width="18" height="1"/>
	<rect x="66" y="177.5" fill="#F8F7E9" width="18" height="1"/>
</g>
<path d="M565,285c-4.418,0-8,3.582-8,8s3.582,8,8,8s8-3.582,8-8S569.418,285,565,285z M565,300c-3.314,0-6-2-6-7s2.686-7,6-7
	s6,2,6,7S568.314,300,565,300z"/>
<path d="M565,287c-2.761,0-5,1.714-5,6s2.239,6,5,6s5-1.714,5-6S567.761,287,565,287z"/>
<circle cx="567" cy="311" r="8"/>
<path fill="#FFFFFF" d="M573,311c0,5-2.686,7-6,7s-6-2-6-7s2.686-7,6-7S573,306,573,311z"/>
<path fill="#231815" d="M589,298c0,4.286-1.791,6-4,6s-4-1.714-4-6s1.791-6,4-6S589,293.714,589,298z"/>
<ellipse cx="606" cy="314" rx="7" ry="8"/>
<ellipse fill="#FFFFFF" cx="606" cy="314" rx="6" ry="7"/>
<ellipse cx="606" cy="314" rx="5" ry="6"/>
<path d="M518,277c-4.418,0-8,3.582-8,8s3.582,8,8,8s8-3.582,8-8S522.418,277,518,277z M521.502,289.865
	C520.677,291.348,519.416,292,518,292s-2.677-0.652-3.502-2.135c-1.511-1.09-2.498-2.86-2.498-4.865s0.987-3.776,2.498-4.865
	c0.825-1.483,2.086-2.135,3.502-2.135s2.677,0.652,3.502,2.135c1.511,1.09,2.498,2.86,2.498,4.865S523.013,288.776,521.502,289.865z
	"/>
<path fill="#981643" d="M125,17c-4.418,0-8,3.582-8,8s3.582,8,8,8s8-3.582,8-8S129.418,17,125,17z M125,32c-3.314,0-6-2-6-7
	s2.686-7,6-7s6,2,6,7S128.314,32,125,32z"/>
<path fill="#5D0B24" d="M125,67c-4.418,0-8,3.582-8,8s3.582,8,8,8s8-3.582,8-8S129.418,67,125,67z M125,82c-3.314,0-6-2-6-7
	s2.686-7,6-7s6,2,6,7S128.314,82,125,82z"/>
<path fill="#981643" d="M125,117c-4.418,0-8,3.582-8,8s3.582,8,8,8s8-3.582,8-8S129.418,117,125,117z M125,132c-3.314,0-6-2-6-7
	s2.686-7,6-7s6,2,6,7S128.314,132,125,132z"/>
<path fill="#981643" d="M175,17c-4.418,0-8,3.582-8,8s3.582,8,8,8s8-3.582,8-8S179.418,17,175,17z M175,32c-3.314,0-6-2-6-7
	s2.686-7,6-7s6,2,6,7S178.314,32,175,32z"/>
<path fill="#5D0B24" d="M175,67c-4.418,0-8,3.582-8,8s3.582,8,8,8s8-3.582,8-8S179.418,67,175,67z M175,82c-3.314,0-6-2-6-7
	s2.686-7,6-7s6,2,6,7S178.314,82,175,82z"/>
<path fill="#F8F7E9" d="M175,217c-4.418,0-8,3.582-8,8s3.582,8,8,8s8-3.582,8-8S179.418,217,175,217z M175,232c-3.314,0-6-2-6-7
	s2.686-7,6-7s6,2,6,7S178.314,232,175,232z"/>
<polygon fill="#FFFFFF" stroke="#231815" stroke-miterlimit="10" points="441,253 439,253 416,276 416,278 441,278 "/>
<path fill="#FFFFFF" stroke="#231815" stroke-miterlimit="10" d="M439,272c0,2.209-1.791,4-4,4"/>
<path fill="#3E0313" d="M282,318h15v-1h-1c-1.105,0-2-0.895-2-2v-15h-3v15c0,1.105-0.895,2-2,2h-7V318z"/>
<path fill="#3E0313" d="M286,338h15v-1h-1c-1.105,0-2-0.895-2-2v-15h-3v15c0,1.105-0.895,2-2,2h-7V338z"/>
<path fill="#3E0313" d="M323,316v1h1c1.105,0,2,0.895,2,2v12c0,1.105-0.895,2-2,2h-7v1h15v-1h-1c-1.105,0-2-0.895-2-2v-12
	c0-1.105,0.895-2,2-2h1v-1H323z"/>
<path fill="#3E0313" d="M243,324c2.761,0,5-2.239,5-5v-13h-3v15c0,1.105-0.895,2-2,2h-7v1H243z"/>
<path fill="#3E0313" d="M345,405c2.761,0,5-2.239,5-5v-8h-3v10c0,1.105-0.895,2-2,2h-7v1H345z"/>
<path fill="#3E0313" d="M327,386c2.761,0,5-2.239,5-5v-7h-3v9c0,1.105-0.895,2-2,2h-7v1H327z"/>
<path fill="#3E0313" d="M304,405c2.761,0,5-2.239,5-5v-13h-3v15c0,1.105-0.895,2-2,2h-13v1H304z"/>
<path fill="#3E0313" d="M454,332c2.761,0,5-2.239,5-5v-1h-3v3c0,1.105-0.895,2-2,2h-13v1H454z"/>
<path fill="#3E0313" d="M472,332c2.761,0,5-2.239,5-5v-1h-3v3c0,1.105-0.895,2-2,2h-13v1H472z"/>
<g>
	<path fill="#3E0313" d="M462,337c0-2.761-2.239-5-5-5h-1v3h3c1.105,0,2,0.895,2,2v13h1V337z"/>
	<path fill="#3E0313" d="M462,319c0-2.761-2.239-5-5-5h-1v3h3c1.105,0,2,0.895,2,2v13h1V319z"/>
</g>
<path fill="#981643" d="M175,117c-4.418,0-8,3.582-8,8s3.582,8,8,8s8-3.582,8-8S179.418,117,175,117z M175,132c-3.314,0-6-2-6-7
	s2.686-7,6-7s6,2,6,7S178.314,132,175,132z"/>
<path fill="#981643" d="M177.778,126.536c-1.953,1.953-5.118,1.953-7.071,0L170,125.828l2.121-2.121l2.121,2.121
	c0.781,0.781,2.047,0.781,2.828,0l9.192-9.192l0.707,0.707L177.778,126.536z"/>
<path fill="#3E0313" d="M313.9,331.9c-1.953,1.953-5.118,1.953-7.071,0L304,329.071l2.121-2.121l4.243,4.243
	c0.781,0.781,2.047,0.781,2.828,0l9.192-9.192l0.707,0.707L313.9,331.9z"/>
<rect x="163" y="224.5" transform="matrix(0.7071 0.7071 -0.7071 0.7071 210.3553 -57.8427)" fill="#F8F7E9" width="24" height="1"/>
<path fill="#F8F7E9" d="M125,217c-4.418,0-8,3.582-8,8s3.582,8,8,8s8-3.582,8-8S129.418,217,125,217z M125,232c-3.314,0-6-2-6-7
	s2.686-7,6-7s6,2,6,7S128.314,232,125,232z"/>
<rect x="113" y="224.5" transform="matrix(0.7071 0.7071 -0.7071 0.7071 195.7107 -22.4874)" fill="#F8F7E9" width="24" height="1"/>
<circle fill="#981643" cx="125" cy="125" r="4.5"/>
<path fill="#3E0313" d="M448,303c2.761,0,5-2.239,5-5v-10h-2v11c0,1.657-1.343,3-3,3h-10v1H448z"/>
<path fill="#981643" d="M228.536,71.49c-1.953-1.953-5.118-1.953-7.071,0l-7.071,7.071l1.414,1.414l7.778-7.778
	c1.172-1.172,3.071-1.172,4.243,0l7.071,7.071l0.707-0.707L228.536,71.49z"/>
<path fill="#981643" d="M278.51,78.536c1.953-1.953,1.953-5.118,0-7.071l-7.071-7.071l-1.414,1.414l7.778,7.778
	c1.172,1.172,1.172,3.071,0,4.243l-7.071,7.071l0.707,0.707L278.51,78.536z"/>
<path fill="#981643" d="M371.49,71.464c-1.953,1.953-1.953,5.118,0,7.071l7.071,7.071l1.414-1.414l-7.778-7.778
	c-1.172-1.172-1.172-3.071,0-4.243l7.071-7.071l-0.707-0.707L371.49,71.464z"/>
<path fill="#981643" d="M321.464,78.51c1.953,1.953,5.118,1.953,7.071,0l7.071-7.071l-1.414-1.414l-7.778,7.778
	c-1.172,1.172-3.071,1.172-4.243,0l-7.071-7.071l-0.707,0.707L321.464,78.51z"/>
<path fill="#E4E0B9" d="M228.536,21.49c-1.953-1.953-5.118-1.953-7.071,0l-7.071,7.071l1.414,1.414l7.778-7.778
	c1.172-1.172,3.071-1.172,4.243,0l7.071,7.071l0.707-0.707L228.536,21.49z"/>
<path fill="#E4E0B9" d="M278.51,28.536c1.953-1.953,1.953-5.118,0-7.071l-7.071-7.071l-1.414,1.414l7.778,7.778
	c1.172,1.172,1.172,3.071,0,4.243l-7.071,7.071l0.707,0.707L278.51,28.536z"/>
<path fill="#E4E0B9" d="M371.49,21.464c-1.953,1.953-1.953,5.118,0,7.071l7.071,7.071l1.414-1.414l-7.778-7.778
	c-1.172-1.172-1.172-3.071,0-4.243l7.071-7.071l-0.707-0.707L371.49,21.464z"/>
<path fill="#E4E0B9" d="M321.464,28.51c1.953,1.953,5.118,1.953,7.071,0l7.071-7.071l-1.414-1.414l-7.778,7.778
	c-1.172,1.172-3.071,1.172-4.243,0l-7.071-7.071l-0.707,0.707L321.464,28.51z"/>
<path fill="#F8F7E9" d="M228.536,171.49c-1.953-1.953-5.118-1.953-7.071,0l-7.071,7.071l1.414,1.414l7.778-7.778
	c1.172-1.172,3.071-1.172,4.243,0l7.071,7.071l0.707-0.707L228.536,171.49z"/>
<path fill="#F8F7E9" d="M278.51,178.536c1.953-1.953,1.953-5.118,0-7.071l-7.071-7.071l-1.414,1.414l7.778,7.778
	c1.172,1.172,1.172,3.071,0,4.243l-7.071,7.071l0.707,0.707L278.51,178.536z"/>
<path fill="#F8F7E9" d="M371.49,171.464c-1.953,1.953-1.953,5.118,0,7.071l7.071,7.071l1.414-1.414l-7.778-7.778
	c-1.172-1.172-1.172-3.071,0-4.243l7.071-7.071l-0.707-0.707L371.49,171.464z"/>
<path fill="#F8F7E9" d="M321.464,178.51c1.953,1.953,5.118,1.953,7.071,0l7.071-7.071l-1.414-1.414l-7.778,7.778
	c-1.172,1.172-3.071,1.172-4.243,0l-7.071-7.071l-0.707,0.707L321.464,178.51z"/>
<path fill="#2C0006" d="M228.536,121.49c-1.953-1.953-5.118-1.953-7.071,0l-7.071,7.071l1.414,1.414l7.778-7.778
	c1.172-1.172,3.071-1.172,4.243,0l7.071,7.071l0.707-0.707L228.536,121.49z"/>
<path fill="#2C0006" d="M278.51,128.536c1.953-1.953,1.953-5.118,0-7.071l-7.071-7.071l-1.414,1.414l7.778,7.778
	c1.172,1.172,1.172,3.071,0,4.243l-7.071,7.071l0.707,0.707L278.51,128.536z"/>
<path fill="#2C0006" d="M371.49,121.464c-1.953,1.953-1.953,5.118,0,7.071l7.071,7.071l1.414-1.414l-7.778-7.778
	c-1.172-1.172-1.172-3.071,0-4.243l7.071-7.071l-0.707-0.707L371.49,121.464z"/>
<path fill="#2C0006" d="M321.464,128.51c1.953,1.953,5.118,1.953,7.071,0l7.071-7.071l-1.414-1.414l-7.778,7.778
	c-1.172,1.172-3.071,1.172-4.243,0l-7.071-7.071l-0.707,0.707L321.464,128.51z"/>
<path fill="#5D0B24" d="M125,167c-4.418,0-8,3.582-8,8s3.582,8,8,8s8-3.582,8-8S129.418,167,125,167z M125,182c-3.314,0-6-2-6-7
	s2.686-7,6-7s6,2,6,7S128.314,182,125,182z"/>
<path fill="#5D0B24" d="M175,167c-4.418,0-8,3.582-8,8s3.582,8,8,8s8-3.582,8-8S179.418,167,175,167z M175,182c-3.314,0-6-2-6-7
	s2.686-7,6-7s6,2,6,7S178.314,182,175,182z"/>
<path fill="#5D0B24" d="M177.778,176.536c-1.953,1.953-5.118,1.953-7.071,0L170,175.828l2.121-2.121l2.121,2.121
	c0.781,0.781,2.047,0.781,2.828,0l9.192-9.192l0.707,0.707L177.778,176.536z"/>
<circle fill="#5D0B24" cx="125" cy="175" r="4.5"/>
<path fill="#E4E0B9" d="M429,17c2.209,0,4,1.791,4,4c0,4-4,6-8,12c-4-6-8-8-8-12c0-2.209,1.791-4,4-4s4,1.791,4,4
	C425,18.791,426.791,17,429,17 M429,16c-1.634,0-3.087,0.788-4,2.003c-0.913-1.216-2.366-2.003-4-2.003c-2.757,0-5,2.243-5,5
	c0,2.854,1.718,4.775,3.894,7.208c1.306,1.46,2.786,3.114,4.274,5.347L425,34.803l0.832-1.248c1.488-2.233,2.968-3.887,4.274-5.347
	C432.282,25.775,434,23.854,434,21C434,18.243,431.757,16,429,16L429,16z"/>
<path fill="#981643" d="M429,67c2.209,0,4,1.791,4,4c0,4-4,6-8,12c-4-6-8-8-8-12c0-2.209,1.791-4,4-4s4,1.791,4,4
	C425,68.791,426.791,67,429,67 M429,66c-1.634,0-3.087,0.788-4,2.003c-0.913-1.216-2.366-2.003-4-2.003c-2.757,0-5,2.243-5,5
	c0,2.854,1.718,4.775,3.894,7.208c1.306,1.46,2.786,3.114,4.274,5.347L425,84.803l0.832-1.248c1.488-2.233,2.968-3.887,4.274-5.347
	C432.282,75.775,434,73.854,434,71C434,68.243,431.757,66,429,66L429,66z"/>
<g>
	<path fill="#981643" d="M433,121c0,4-4,6-8,12c-4-6-8-8-8-12c0-2.209,1.791-4,4-4s4,1.791,4,4c0-2.209,1.791-4,4-4
		S433,118.791,433,121z"/>
</g>
<g>
	<path fill="#5D0B24" d="M433,171c0,4-4,6-8,12c-4-6-8-8-8-12c0-2.209,1.791-4,4-4s4,1.791,4,4c0-2.209,1.791-4,4-4
		S433,168.791,433,171z"/>
</g>
</svg>
