<?xml version="1.0" encoding="utf-8"?>
<!-- Generator: Adobe Illustrator 17.0.0, SVG Export Plug-In . SVG Version: 6.00 Build 0)  -->
<!DOCTYPE svg PUBLIC "-//W3C//DTD SVG 1.1//EN" "http://www.w3.org/Graphics/SVG/1.1/DTD/svg11.dtd">
<svg version="1.1" id="圖層_1" xmlns="http://www.w3.org/2000/svg" xmlns:xlink="http://www.w3.org/1999/xlink" x="0px" y="0px"
	 width="900px" height="900px" viewBox="0 0 900 900" enable-background="new 0 0 900 900" xml:space="preserve">
<rect x="80" y="-90" fill="#231815" width="20" height="50"/>
<rect x="60" y="-90" fill="#2C0006" width="20" height="50"/>
<rect x="40" y="-90" fill="#3F0514" width="20" height="50"/>
<rect x="20" y="-90" fill="#5D0B24" width="20" height="50"/>
<rect y="-90" fill="#981643" width="20" height="50"/>
<rect x="190" y="-90" fill="#E9D98E" width="20" height="50"/>
<rect x="170" y="-90" fill="#F4ECBB" width="20" height="50"/>
<rect x="240" y="-90" fill="#FCD88C" width="20" height="50"/>
<rect x="260" y="-90" fill="#FACB63" width="20" height="50"/>
<rect x="280" y="-90" fill="#F7BD3F" width="20" height="50"/>
<rect x="210" y="-90" fill="#F0EA92" width="20" height="50"/>
<rect x="150" y="-90" fill="#E4E0B9" width="20" height="50"/>
<rect x="130" y="-90" fill="#F1EFD8" width="20" height="50"/>
<rect x="110" y="-90" fill="#F8F7E9" width="20" height="50"/>
<g>
	<polygon fill="#981643" points="18,67 21,67 32,83 29,83 	"/>
	<polygon fill="#981643" points="18.09,83 19,83 31.91,67 31,67 	"/>
</g>
<g>
	<polygon fill="#E4E0B9" points="18,17 21,17 32,33 29,33 	"/>
	<polygon fill="#E4E0B9" points="18.09,33 19,33 31.91,17 31,17 	"/>
</g>
<g>
	<polygon fill="#FFFFFF" points="18,167 21,167 32,183 29,183 	"/>
	<polygon fill="#FFFFFF" points="18.09,183 19,183 31.91,167 31,167 	"/>
</g>
<g>
	<polygon fill="#2C0006" points="18,117 21,117 32,133 29,133 	"/>
	<polygon fill="#2C0006" points="18.09,133 19,133 31.91,117 31,117 	"/>
</g>
</svg>
