<?xml version="1.0" encoding="utf-8"?>
<!-- Generator: Adobe Illustrator 17.0.0, SVG Export Plug-In . SVG Version: 6.00 Build 0)  -->
<!DOCTYPE svg PUBLIC "-//W3C//DTD SVG 1.1//EN" "http://www.w3.org/Graphics/SVG/1.1/DTD/svg11.dtd">
<svg version="1.1" id="圖層_1" xmlns="http://www.w3.org/2000/svg" xmlns:xlink="http://www.w3.org/1999/xlink" x="0px" y="0px"
	 width="900px" height="900px" viewBox="0 0 900 900" enable-background="new 0 0 900 900" xml:space="preserve">
<rect x="80" y="-90" fill="#231815" width="20" height="50"/>
<rect x="60" y="-90" fill="#2C0006" width="20" height="50"/>
<rect x="40" y="-90" fill="#3F0514" width="20" height="50"/>
<rect x="20" y="-90" fill="#5D0B24" width="20" height="50"/>
<rect y="-90" fill="#981643" width="20" height="50"/>
<rect x="190" y="-90" fill="#E9D98E" width="20" height="50"/>
<rect x="170" y="-90" fill="#F4ECBB" width="20" height="50"/>
<rect x="240" y="-90" fill="#FCD88C" width="20" height="50"/>
<rect x="260" y="-90" fill="#FACB63" width="20" height="50"/>
<rect x="280" y="-90" fill="#F7BD3F" width="20" height="50"/>
<rect x="210" y="-90" fill="#F0EA92" width="20" height="50"/>
<rect x="150" y="-90" fill="#E4E0B9" width="20" height="50"/>
<rect x="130" y="-90" fill="#F1EFD8" width="20" height="50"/>
<rect x="110" y="-90" fill="#F8F7E9" width="20" height="50"/>
<polygon fill="#981643" points="18,67 21,67 32,83 29,83 "/>
<polygon fill="#981643" points="18.09,83 19,83 31.91,67 31,67 "/>
<polygon fill="#E4E0B9" points="18,17 21,17 32,33 29,33 "/>
<polygon fill="#E4E0B9" points="18.09,33 19,33 31.91,17 31,17 "/>
<polygon fill="#F8F7E9" points="18,167 21,167 32,183 29,183 "/>
<polygon fill="#F8F7E9" points="18.09,183 19,183 31.91,167 31,167 "/>
<polygon fill="#2C0006" points="18,117 21,117 32,133 29,133 "/>
<polygon fill="#2C0006" points="18.09,133 19,133 31.91,117 31,117 "/>
<rect x="66" y="70" fill="#981643" width="18" height="1"/>
<rect x="66" y="74.5" fill="#981643" width="18" height="1"/>
<rect x="66" y="79" fill="#981643" width="18" height="1"/>
<rect x="66" y="20" fill="#E4E0B9" width="18" height="1"/>
<rect x="66" y="24.5" fill="#E4E0B9" width="18" height="1"/>
<rect x="66" y="29" fill="#E4E0B9" width="18" height="1"/>
<rect x="66" y="120" fill="#2C0006" width="18" height="1"/>
<rect x="66" y="124.5" fill="#2C0006" width="18" height="1"/>
<rect x="66" y="129" fill="#2C0006" width="18" height="1"/>
<rect x="66" y="170" fill="#F8F7E9" width="18" height="1"/>
<rect x="66" y="174.5" fill="#F8F7E9" width="18" height="1"/>
<rect x="66" y="179" fill="#F8F7E9" width="18" height="1"/>
<path fill="#981643" d="M125,17c-4.418,0-8,3.582-8,8s3.582,8,8,8s8-3.582,8-8S129.418,17,125,17z M125,32c-3.314,0-6-2-6-7
	s2.686-7,6-7c3.314,0,6,2,6,7S128.314,32,125,32z"/>
<path fill="#5D0B24" d="M125,67c-4.418,0-8,3.582-8,8s3.582,8,8,8s8-3.582,8-8S129.418,67,125,67z M125,82c-3.314,0-6-2-6-7
	s2.686-7,6-7c3.314,0,6,2,6,7S128.314,82,125,82z"/>
<path fill="#981643" d="M125,117c-4.418,0-8,3.582-8,8s3.582,8,8,8s8-3.582,8-8S129.418,117,125,117z M125,132c-3.314,0-6-2-6-7
	s2.686-7,6-7c3.314,0,6,2,6,7S128.314,132,125,132z"/>
<path fill="#981643" d="M175,17c-4.418,0-8,3.582-8,8s3.582,8,8,8s8-3.582,8-8S179.418,17,175,17z M175,32c-3.314,0-6-2-6-7
	s2.686-7,6-7s6,2,6,7S178.314,32,175,32z"/>
<path fill="#5D0B24" d="M175,67c-4.418,0-8,3.582-8,8s3.582,8,8,8s8-3.582,8-8S179.418,67,175,67z M175,82c-3.314,0-6-2-6-7
	s2.686-7,6-7s6,2,6,7S178.314,82,175,82z"/>
<path fill="#F8F7E9" d="M175,217c-4.418,0-8,3.582-8,8s3.582,8,8,8s8-3.582,8-8S179.418,217,175,217z M175,232c-3.314,0-6-2-6-7
	s2.686-7,6-7s6,2,6,7S178.314,232,175,232z"/>
<path fill="#981643" d="M175,117c-4.418,0-8,3.582-8,8s3.582,8,8,8s8-3.582,8-8S179.418,117,175,117z M175,132c-3.314,0-6-2-6-7
	s2.686-7,6-7s6,2,6,7S178.314,132,175,132z"/>
<path fill="#981643" d="M177.778,126.536c-1.953,1.953-5.118,1.953-7.071,0L170,125.828l2.121-2.121l2.121,2.121
	c0.781,0.781,2.047,0.781,2.828,0l9.192-9.192l0.707,0.707L177.778,126.536z"/>
<rect x="163" y="224.497" transform="matrix(-0.7071 -0.7071 0.7071 -0.7071 139.6471 507.8383)" fill="#F8F7E9" width="24" height="1"/>
<path fill="#F8F7E9" d="M125,217c-4.418,0-8,3.582-8,8s3.582,8,8,8s8-3.582,8-8S129.418,217,125,217z M125,232c-3.314,0-6-2-6-7
	s2.686-7,6-7c3.314,0,6,2,6,7S128.314,232,125,232z"/>
<rect x="113.001" y="224.498" transform="matrix(-0.7071 -0.7071 0.7071 -0.7071 54.2922 472.4837)" fill="#F8F7E9" width="24" height="1"/>
<circle fill="#981643" cx="125" cy="125" r="4.5"/>
<path fill="#981643" d="M228.536,71.49c-1.953-1.953-5.118-1.953-7.071,0l-7.071,7.071l1.414,1.414l7.778-7.778
	c1.172-1.172,3.071-1.172,4.243,0l7.071,7.071l0.707-0.707L228.536,71.49z"/>
<path fill="#981643" d="M278.51,78.536c1.953-1.953,1.953-5.118,0-7.071l-7.071-7.071l-1.414,1.414l7.778,7.778
	c1.172,1.172,1.172,3.071,0,4.243l-7.071,7.071l0.707,0.707L278.51,78.536z"/>
<path fill="#981643" d="M371.49,71.464c-1.953,1.953-1.953,5.118,0,7.071l7.071,7.071l1.414-1.414l-7.778-7.778
	c-1.172-1.172-1.172-3.071,0-4.243l7.071-7.071l-0.707-0.707L371.49,71.464z"/>
<path fill="#981643" d="M321.464,78.51c1.953,1.953,5.118,1.953,7.071,0l7.071-7.071l-1.414-1.414l-7.778,7.778
	c-1.172,1.172-3.071,1.172-4.243,0l-7.071-7.071l-0.707,0.707L321.464,78.51z"/>
<path fill="#E4E0B9" d="M228.536,21.49c-1.953-1.953-5.118-1.953-7.071,0l-7.071,7.071l1.414,1.414l7.778-7.778
	c1.172-1.172,3.071-1.172,4.243,0l7.071,7.071l0.707-0.707L228.536,21.49z"/>
<path fill="#E4E0B9" d="M278.51,28.536c1.953-1.953,1.953-5.118,0-7.071l-7.071-7.071l-1.414,1.414l7.778,7.778
	c1.172,1.172,1.172,3.071,0,4.243l-7.071,7.071l0.707,0.707L278.51,28.536z"/>
<path fill="#E4E0B9" d="M371.49,21.464c-1.953,1.953-1.953,5.118,0,7.071l7.071,7.071l1.414-1.414l-7.778-7.778
	c-1.172-1.172-1.172-3.071,0-4.243l7.071-7.071l-0.707-0.707L371.49,21.464z"/>
<path fill="#E4E0B9" d="M321.464,28.51c1.953,1.953,5.118,1.953,7.071,0l7.071-7.071l-1.414-1.414l-7.778,7.778
	c-1.172,1.172-3.071,1.172-4.243,0l-7.071-7.071l-0.707,0.707L321.464,28.51z"/>
<path fill="#F8F7E9" d="M228.536,171.49c-1.953-1.953-5.118-1.953-7.071,0l-7.071,7.071l1.414,1.414l7.778-7.778
	c1.172-1.172,3.071-1.172,4.243,0l7.071,7.071l0.707-0.707L228.536,171.49z"/>
<path fill="#F8F7E9" d="M278.51,178.536c1.953-1.953,1.953-5.118,0-7.071l-7.071-7.071l-1.414,1.414l7.778,7.778
	c1.172,1.172,1.172,3.071,0,4.243l-7.071,7.071l0.707,0.707L278.51,178.536z"/>
<path fill="#F8F7E9" d="M371.49,171.464c-1.953,1.953-1.953,5.118,0,7.071l7.071,7.071l1.414-1.414l-7.778-7.778
	c-1.172-1.172-1.172-3.071,0-4.243l7.071-7.071l-0.707-0.707L371.49,171.464z"/>
<path fill="#F8F7E9" d="M321.464,178.51c1.953,1.953,5.118,1.953,7.071,0l7.071-7.071l-1.414-1.414l-7.778,7.778
	c-1.172,1.172-3.071,1.172-4.243,0l-7.071-7.071l-0.707,0.707L321.464,178.51z"/>
<path fill="#2C0006" d="M228.536,121.49c-1.953-1.953-5.118-1.953-7.071,0l-7.071,7.071l1.414,1.414l7.778-7.778
	c1.172-1.172,3.071-1.172,4.243,0l7.071,7.071l0.707-0.707L228.536,121.49z"/>
<path fill="#2C0006" d="M278.51,128.536c1.953-1.953,1.953-5.118,0-7.071l-7.071-7.071l-1.414,1.414l7.778,7.778
	c1.172,1.172,1.172,3.071,0,4.243l-7.071,7.071l0.707,0.707L278.51,128.536z"/>
<path fill="#2C0006" d="M371.49,121.464c-1.953,1.953-1.953,5.118,0,7.071l7.071,7.071l1.414-1.414l-7.778-7.778
	c-1.172-1.172-1.172-3.071,0-4.243l7.071-7.071l-0.707-0.707L371.49,121.464z"/>
<path fill="#2C0006" d="M321.464,128.51c1.953,1.953,5.118,1.953,7.071,0l7.071-7.071l-1.414-1.414l-7.778,7.778
	c-1.172,1.172-3.071,1.172-4.243,0l-7.071-7.071l-0.707,0.707L321.464,128.51z"/>
<path fill="#5D0B24" d="M125,167c-4.418,0-8,3.582-8,8s3.582,8,8,8s8-3.582,8-8S129.418,167,125,167z M125,182c-3.314,0-6-2-6-7
	s2.686-7,6-7c3.314,0,6,2,6,7S128.314,182,125,182z"/>
<path fill="#5D0B24" d="M175,167c-4.418,0-8,3.582-8,8s3.582,8,8,8s8-3.582,8-8S179.418,167,175,167z M175,182c-3.314,0-6-2-6-7
	s2.686-7,6-7s6,2,6,7S178.314,182,175,182z"/>
<path fill="#5D0B24" d="M177.778,176.536c-1.953,1.953-5.118,1.953-7.071,0L170,175.828l2.121-2.121l2.121,2.121
	c0.781,0.781,2.047,0.781,2.828,0l9.192-9.192l0.707,0.707L177.778,176.536z"/>
<circle fill="#5D0B24" cx="125" cy="175" r="4.5"/>
<path fill="#E4E0B9" d="M429,16c-1.634,0-3.087,0.788-4,2.003c-0.913-1.216-2.366-2.003-4-2.003c-2.757,0-5,2.243-5,5
	c0,2.854,1.718,4.775,3.894,7.208c1.306,1.46,2.786,3.114,4.274,5.347L425,34.803l0.832-1.248c1.488-2.233,2.968-3.887,4.274-5.347
	C432.282,25.775,434,23.854,434,21C434,18.243,431.757,16,429,16L429,16z"/>
<path fill="#981643" d="M479,66.799c2.209,0,4,1.791,4,4c0,4-4,6-8,12c-4-6-8-8-8-12c0-2.209,1.791-4,4-4s4,1.791,4,4
	C475,68.59,476.791,66.799,479,66.799 M479,65.799c-1.634,0-3.087,0.788-4,2.003c-0.913-1.216-2.366-2.003-4-2.003
	c-2.757,0-5,2.243-5,5c0,2.854,1.718,4.775,3.894,7.208c1.306,1.46,2.786,3.114,4.274,5.347L475,84.602l0.832-1.248
	c1.488-2.233,2.968-3.887,4.274-5.347c2.176-2.433,3.894-4.354,3.894-7.208C484,68.042,481.757,65.799,479,65.799L479,65.799z"/>
<path fill="#981643" d="M433,71c0,4-4,6-8,12c-4-6-8-8-8-12c0-2.209,1.791-4,4-4s4,1.791,4,4c0-2.209,1.791-4,4-4S433,68.791,433,71
	z"/>
<path fill="#5D0B24" d="M433,121c0,4-4,6-8,12c-4-6-8-8-8-12c0-2.209,1.791-4,4-4s4,1.791,4,4c0-2.209,1.791-4,4-4
	S433,118.791,433,121z"/>
<g>
	<path fill="#A2001F" d="M643,242c0-2.761-2.239-5-5-5h-4v2h5c1.657,0,3,1.343,3,3v8h1V242z"/>
	<path fill="#A2001F" d="M641,234c0,2.761,2.239,5,5,5h4v-2h-5c-1.657,0-3-1.343-3-3v-8h-1V234z"/>
</g>
<rect x="617" y="24.5" fill="#E4E0B9" width="16" height="1"/>
<rect x="624.5" y="14" fill="#E4E0B9" width="1" height="22"/>
<rect x="617" y="74.5" fill="#981643" width="16" height="1"/>
<rect x="624.5" y="64" fill="#981643" width="1" height="22"/>
<rect x="617" y="124.5" fill="#2C0006" width="16" height="1"/>
<rect x="624.5" y="114" fill="#2C0006" width="1" height="22"/>
<rect x="617" y="174.5" fill="#F8F7E9" width="16" height="1"/>
<rect x="624.5" y="164" fill="#F8F7E9" width="1" height="22"/>
<rect x="817" y="469" fill="#FFFFFF" stroke="#231815" stroke-miterlimit="10" width="10" height="20"/>
<path fill="#FFFFFF" stroke="#231815" stroke-miterlimit="10" d="M827,499c-10,0,0,0-10,0s-10-20-10-20h30C837,479,837,499,827,499z
	"/>
<path d="M780,495c-4.418,0-8,3.582-8,8s3.582,8,8,8s8-3.582,8-8S784.418,495,780,495z M780,510c-3.314,0-6-2-6-7s2.686-7,6-7
	s6,2,6,7S783.314,510,780,510z"/>
<path d="M780,497c-2.761,0-5,1.714-5,6s2.239,6,5,6s5-1.714,5-6S782.761,497,780,497z"/>
<circle cx="782" cy="521" r="8"/>
<path fill="#FFFFFF" d="M788,521c0,5-2.686,7-6,7s-6-2-6-7s2.686-7,6-7S788,516,788,521z"/>
<path fill="#231815" d="M804,508c0,4.286-1.791,6-4,6s-4-1.714-4-6s1.791-6,4-6S804,503.714,804,508z"/>
<ellipse cx="821" cy="524" rx="7" ry="8"/>
<ellipse fill="#FFFFFF" cx="821" cy="524" rx="6" ry="7"/>
<ellipse cx="821" cy="524" rx="5" ry="6"/>
<path d="M733,487c-4.418,0-8,3.582-8,8s3.582,8,8,8s8-3.582,8-8S737.418,487,733,487z M736.502,499.865
	C735.677,501.348,734.416,502,733,502s-2.677-0.652-3.502-2.135c-1.511-1.09-2.498-2.86-2.498-4.865s0.987-3.776,2.498-4.865
	c0.825-1.483,2.086-2.135,3.502-2.135s2.677,0.652,3.502,2.135c1.511,1.09,2.498,2.86,2.498,4.865S738.013,498.776,736.502,499.865z
	"/>
<polygon fill="#FFFFFF" stroke="#231815" stroke-miterlimit="10" points="656,463 654,463 631,486 631,488 656,488 "/>
<path fill="#FFFFFF" stroke="#231815" stroke-miterlimit="10" d="M654,482c0,2.209-1.791,4-4,4"/>
<path fill="#3E0313" d="M497,528h15v-1h-1c-1.105,0-2-0.895-2-2v-15h-3v15c0,1.105-0.895,2-2,2h-7V528z"/>
<path fill="#3E0313" d="M501,548h15v-1h-1c-1.105,0-2-0.895-2-2v-15h-3v15c0,1.105-0.895,2-2,2h-7V548z"/>
<path fill="#3E0313" d="M538,526v1h1c1.105,0,2,0.895,2,2v12c0,1.105-0.895,2-2,2h-7v1h15v-1h-1c-1.105,0-2-0.895-2-2v-12
	c0-1.105,0.895-2,2-2h1v-1H538z"/>
<path fill="#3E0313" d="M458,534c2.761,0,5-2.239,5-5v-13h-3v15c0,1.105-0.895,2-2,2h-7v1H458z"/>
<path fill="#3E0313" d="M560,615c2.761,0,5-2.239,5-5v-8h-3v10c0,1.105-0.895,2-2,2h-7v1H560z"/>
<path fill="#3E0313" d="M542,596c2.761,0,5-2.239,5-5v-7h-3v9c0,1.105-0.895,2-2,2h-7v1H542z"/>
<path fill="#3E0313" d="M519,615c2.761,0,5-2.239,5-5v-13h-3v15c0,1.105-0.895,2-2,2h-13v1H519z"/>
<path fill="#3E0313" d="M669,542c2.761,0,5-2.239,5-5v-1h-3v3c0,1.105-0.895,2-2,2h-13v1H669z"/>
<path fill="#3E0313" d="M687,542c2.761,0,5-2.239,5-5v-1h-3v3c0,1.105-0.895,2-2,2h-13v1H687z"/>
<g>
	<path fill="#3E0313" d="M677,547c0-2.761-2.239-5-5-5h-1v3h3c1.105,0,2,0.895,2,2v13h1V547z"/>
	<path fill="#3E0313" d="M677,529c0-2.761-2.239-5-5-5h-1v3h3c1.105,0,2,0.895,2,2v13h1V529z"/>
</g>
<path fill="#3E0313" d="M528.9,541.9c-1.953,1.953-5.118,1.953-7.071,0L519,539.071l2.121-2.121l4.243,4.243
	c0.781,0.781,2.047,0.781,2.828,0l9.192-9.192l0.707,0.707L528.9,541.9z"/>
<path fill="#3E0313" d="M663,513c2.761,0,5-2.239,5-5v-10h-2v11c0,1.657-1.343,3-3,3h-10v1H663z"/>
<rect x="665" y="410" fill="#FFFFFF" stroke="#000000" stroke-miterlimit="10" width="50" height="50"/>
<g>
	<path fill="#E4E0B9" d="M528,21.5c0-1.657-1.343-3-3-3s-3,1.343-3,3h-1c0-2.209,1.791-4,4-4s4,1.791,4,4H528z"/>
	<path fill="#E4E0B9" d="M529.952,21.5h-9.904c-2.318,2.602-4.048,4.372-4.048,7c0,2.209,1.791,4,4,4h10c2.209,0,4-1.791,4-4
		C534,25.872,532.27,24.102,529.952,21.5z"/>
</g>
<g>
	<path fill="#981643" d="M528,71.5c0-1.657-1.343-3-3-3s-3,1.343-3,3h-1c0-2.209,1.791-4,4-4s4,1.791,4,4H528z"/>
	<path fill="#981643" d="M529.952,71.5h-9.904c-2.318,2.602-4.048,4.372-4.048,7c0,2.209,1.791,4,4,4h10c2.209,0,4-1.791,4-4
		C534,75.872,532.27,74.102,529.952,71.5z"/>
</g>
<g>
	<path fill="#5D0B24" d="M528,121.5c0-1.657-1.343-3-3-3s-3,1.343-3,3h-1c0-2.209,1.791-4,4-4s4,1.791,4,4H528z"/>
	<path fill="#5D0B24" d="M529.952,121.5h-9.904c-2.318,2.602-4.048,4.372-4.048,7c0,2.209,1.791,4,4,4h10c2.209,0,4-1.791,4-4
		C534,125.872,532.27,124.102,529.952,121.5z"/>
</g>
<path fill="#E4E0B9" d="M479,16.799c2.209,0,4,1.791,4,4c0,4-4,6-8,12c-4-6-8-8-8-12c0-2.209,1.791-4,4-4s4,1.791,4,4
	C475,18.59,476.791,16.799,479,16.799 M479,15.799c-1.634,0-3.087,0.788-4,2.003c-0.913-1.216-2.366-2.003-4-2.003
	c-2.757,0-5,2.243-5,5c0,2.854,1.718,4.775,3.894,7.208c1.306,1.46,2.786,3.114,4.274,5.347L475,34.602l0.832-1.248
	c1.488-2.233,2.968-3.887,4.274-5.347c2.176-2.433,3.894-4.354,3.894-7.208C484,18.042,481.757,15.799,479,15.799L479,15.799z"/>
<path fill="#E4E0B9" d="M578.31,30.104l-1.834,0.797l1.256,1.635l-0.458,0.199l2.791,6.419l1.834-0.798l-2.791-6.419l-0.459,0.199
	L578.31,30.104z"/>
<path fill="#E4E0B9" d="M572.209,18.581c-3.545,1.542-5.17,5.665-3.628,9.211c1.542,3.545,5.665,5.17,9.211,3.628
	c3.545-1.542,5.17-5.665,3.628-9.211C579.878,18.663,575.754,17.039,572.209,18.581z M577.393,30.502
	c-3.039,1.321-6.574-0.071-7.895-3.11s0.071-6.574,3.11-7.895c3.039-1.321,6.574,0.071,7.895,3.11S580.431,29.181,577.393,30.502z"
	/>
<path fill="#981643" d="M578.31,80.104l-1.834,0.797l1.256,1.635l-0.458,0.199l2.791,6.419l1.834-0.797l-2.791-6.419l-0.459,0.199
	L578.31,80.104z"/>
<path fill="#981643" d="M572.209,68.581c-3.545,1.542-5.17,5.665-3.628,9.211c1.542,3.545,5.665,5.17,9.211,3.628
	c3.545-1.542,5.17-5.665,3.628-9.211C579.878,68.663,575.754,67.039,572.209,68.581z M577.393,80.502
	c-3.039,1.321-6.574-0.071-7.895-3.11s0.071-6.574,3.11-7.895s6.574,0.071,7.895,3.11S580.431,79.181,577.393,80.502z"/>
<path fill="#5D0B24" d="M578.31,130.104l-1.834,0.798l1.256,1.635l-0.458,0.199l2.791,6.419l1.834-0.798l-2.791-6.419l-0.459,0.199
	L578.31,130.104z"/>
<path fill="#5D0B24" d="M572.209,118.581c-3.545,1.542-5.17,5.665-3.628,9.211c1.542,3.545,5.665,5.17,9.211,3.628
	c3.545-1.542,5.17-5.665,3.628-9.211C579.878,118.663,575.754,117.039,572.209,118.581z M577.393,130.502
	c-3.039,1.321-6.574-0.071-7.895-3.11c-1.321-3.039,0.071-6.574,3.11-7.895s6.574,0.071,7.895,3.11S580.431,129.181,577.393,130.502
	z"/>
<path fill="#981643" d="M776,131h-2l0.5,2H774v7h2v-7h-0.5L776,131z"/>
<path fill="#981643" d="M775,118c-3.866,0-7,3.134-7,7c0,3.866,3.134,7,7,7s7-3.134,7-7C782,121.134,778.866,118,775,118z M775,131
	c-3.314,0-6-2.686-6-6s2.686-6,6-6s6,2.686,6,6S778.314,131,775,131z"/>
</svg>
