<?xml version="1.0" encoding="utf-8"?>
<!-- Generator: Adobe Illustrator 17.0.0, SVG Export Plug-In . SVG Version: 6.00 Build 0)  -->
<!DOCTYPE svg PUBLIC "-//W3C//DTD SVG 1.1//EN" "http://www.w3.org/Graphics/SVG/1.1/DTD/svg11.dtd">
<svg version="1.1" xmlns="http://www.w3.org/2000/svg" xmlns:xlink="http://www.w3.org/1999/xlink" x="0px" y="0px" width="900px"
	 height="900px" viewBox="0 0 900 900" enable-background="new 0 0 900 900" xml:space="preserve">
<g id="圖層_1">
	<rect x="80" y="-90" fill="#231815" width="20" height="50"/>
	<rect x="60" y="-90" fill="#2C0006" width="20" height="50"/>
	<rect x="40" y="-90" fill="#3F0514" width="20" height="50"/>
	<rect x="20" y="-90" fill="#5D0B24" width="20" height="50"/>
	<rect y="-90" fill="#981643" width="20" height="50"/>
	<rect x="190" y="-90" fill="#E9D98E" width="20" height="50"/>
	<rect x="170" y="-90" fill="#F4ECBB" width="20" height="50"/>
	<rect x="240" y="-90" fill="#FCD88C" width="20" height="50"/>
	<rect x="260" y="-90" fill="#FACB63" width="20" height="50"/>
	<rect x="280" y="-90" fill="#F7BD3F" width="20" height="50"/>
	<rect x="210" y="-90" fill="#F0EA92" width="20" height="50"/>
	<rect x="150" y="-90" fill="#E4E0B9" width="20" height="50"/>
	<rect x="130" y="-90" fill="#F1EFD8" width="20" height="50"/>
	<rect x="110" y="-90" fill="#F8F7E9" width="20" height="50"/>
	<path fill="#981643" d="M175,117c-4.418,0-8,3.582-8,8s3.582,8,8,8s8-3.582,8-8S179.418,117,175,117z M175,132c-3.314,0-6-2-6-7
		s2.686-7,6-7s6,2,6,7S178.314,132,175,132z"/>
	<path fill="#5D0B24" d="M175,167c-4.418,0-8,3.582-8,8s3.582,8,8,8s8-3.582,8-8S179.418,167,175,167z M175,182c-3.314,0-6-2-6-7
		s2.686-7,6-7s6,2,6,7S178.314,182,175,182z"/>
	<path fill="#981643" d="M172.172,126.828c1.562,1.562,4.095,1.562,5.657,0l8.485-8.485l-0.707-0.707l-8.485,8.485
		c-1.172,1.172-3.071,1.172-4.243,0l-2.828-2.828L169.343,124L172.172,126.828z"/>
	<path fill="#5D0B24" d="M172.172,176.828c1.562,1.562,4.095,1.562,5.657,0l8.485-8.485l-0.707-0.707l-8.485,8.485
		c-1.172,1.172-3.071,1.172-4.243,0l-2.828-2.828L169.343,174L172.172,176.828z"/>
</g>
<g id="圖層_2">
	<polygon fill="#981643" points="18,67 21,67 32,83 29,83 	"/>
	<polygon fill="#981643" points="18.09,83 19,83 31.91,67 31,67 	"/>
	<polygon fill="#E4E0B9" points="18,17 21,17 32,33 29,33 	"/>
	<polygon fill="#E4E0B9" points="18.09,33 19,33 31.91,17 31,17 	"/>
	<polygon fill="#F8F7E9" points="18,167 21,167 32,183 29,183 	"/>
	<polygon fill="#F8F7E9" points="18.09,183 19,183 31.91,167 31,167 	"/>
	<polygon fill="#2C0006" points="18,117 21,117 32,133 29,133 	"/>
	<polygon fill="#2C0006" points="18.09,133 19,133 31.91,117 31,117 	"/>
	<rect x="66" y="70" fill="#981643" width="18" height="1"/>
	<rect x="66" y="74.5" fill="#981643" width="18" height="1"/>
	<rect x="66" y="79" fill="#981643" width="18" height="1"/>
	<rect x="66" y="20" fill="#E4E0B9" width="18" height="1"/>
	<rect x="66" y="24.5" fill="#E4E0B9" width="18" height="1"/>
	<rect x="66" y="29" fill="#E4E0B9" width="18" height="1"/>
	<rect x="66" y="120" fill="#2C0006" width="18" height="1"/>
	<rect x="66" y="124.5" fill="#2C0006" width="18" height="1"/>
	<rect x="66" y="129" fill="#2C0006" width="18" height="1"/>
	<rect x="66" y="170" fill="#F8F7E9" width="18" height="1"/>
	<rect x="66" y="174.5" fill="#F8F7E9" width="18" height="1"/>
	<rect x="66" y="179" fill="#F8F7E9" width="18" height="1"/>
	<path fill="#981643" d="M125,17c-4.418,0-8,3.582-8,8s3.582,8,8,8s8-3.582,8-8S129.418,17,125,17z M125,32c-3.314,0-6-2-6-7
		s2.686-7,6-7c3.314,0,6,2,6,7S128.314,32,125,32z"/>
	<path fill="#5D0B24" d="M125,67c-4.418,0-8,3.582-8,8s3.582,8,8,8s8-3.582,8-8S129.418,67,125,67z M125,82c-3.314,0-6-2-6-7
		s2.686-7,6-7c3.314,0,6,2,6,7S128.314,82,125,82z"/>
	<path fill="#981643" d="M125,117c-4.418,0-8,3.582-8,8s3.582,8,8,8s8-3.582,8-8S129.418,117,125,117z M125,132c-3.314,0-6-2-6-7
		s2.686-7,6-7c3.314,0,6,2,6,7S128.314,132,125,132z"/>
	<path fill="#981643" d="M175,17c-4.418,0-8,3.582-8,8s3.582,8,8,8s8-3.582,8-8S179.418,17,175,17z M175,32c-3.314,0-6-2-6-7
		s2.686-7,6-7s6,2,6,7S178.314,32,175,32z"/>
	<path fill="#5D0B24" d="M175,67c-4.418,0-8,3.582-8,8s3.582,8,8,8s8-3.582,8-8S179.418,67,175,67z M175,82c-3.314,0-6-2-6-7
		s2.686-7,6-7s6,2,6,7S178.314,82,175,82z"/>
	<path fill="#F8F7E9" d="M175,217c-4.418,0-8,3.582-8,8s3.582,8,8,8s8-3.582,8-8S179.418,217,175,217z M175,232c-3.314,0-6-2-6-7
		s2.686-7,6-7s6,2,6,7S178.314,232,175,232z"/>
	
		<rect x="163" y="224.5" transform="matrix(0.7071 0.7071 -0.7071 0.7071 210.3556 -57.8426)" fill="#F8F7E9" width="24" height="1"/>
	<path fill="#F8F7E9" d="M125,217c-4.418,0-8,3.582-8,8s3.582,8,8,8s8-3.582,8-8S129.418,217,125,217z M125,232c-3.314,0-6-2-6-7
		s2.686-7,6-7c3.314,0,6,2,6,7S128.314,232,125,232z"/>
	
		<rect x="113" y="224.499" transform="matrix(0.7071 0.7071 -0.7071 0.7071 195.7103 -22.4876)" fill="#F8F7E9" width="24" height="1"/>
	<circle fill="#981643" cx="125" cy="125" r="4.5"/>
	<path fill="#981643" d="M228.536,71.49c-1.953-1.953-5.118-1.953-7.071,0l-7.071,7.071l1.414,1.414l7.778-7.778
		c1.172-1.172,3.071-1.172,4.243,0l7.071,7.071l0.707-0.707L228.536,71.49z"/>
	<path fill="#981643" d="M278.51,78.536c1.953-1.953,1.953-5.118,0-7.071l-7.071-7.071l-1.414,1.414l7.778,7.778
		c1.172,1.172,1.172,3.071,0,4.243l-7.071,7.071l0.707,0.707L278.51,78.536z"/>
	<path fill="#981643" d="M371.49,71.464c-1.953,1.953-1.953,5.118,0,7.071l7.071,7.071l1.414-1.414l-7.778-7.778
		c-1.172-1.172-1.172-3.071,0-4.243l7.071-7.071l-0.707-0.707L371.49,71.464z"/>
	<path fill="#981643" d="M321.464,78.51c1.953,1.953,5.118,1.953,7.071,0l7.071-7.071l-1.414-1.414l-7.778,7.778
		c-1.172,1.172-3.071,1.172-4.243,0l-7.071-7.071l-0.707,0.707L321.464,78.51z"/>
	<path fill="#E4E0B9" d="M228.536,21.49c-1.953-1.953-5.118-1.953-7.071,0l-7.071,7.071l1.414,1.414l7.778-7.778
		c1.172-1.172,3.071-1.172,4.243,0l7.071,7.071l0.707-0.707L228.536,21.49z"/>
	<path fill="#E4E0B9" d="M278.51,28.536c1.953-1.953,1.953-5.118,0-7.071l-7.071-7.071l-1.414,1.414l7.778,7.778
		c1.172,1.172,1.172,3.071,0,4.243l-7.071,7.071l0.707,0.707L278.51,28.536z"/>
	<path fill="#E4E0B9" d="M371.49,21.464c-1.953,1.953-1.953,5.118,0,7.071l7.071,7.071l1.414-1.414l-7.778-7.778
		c-1.172-1.172-1.172-3.071,0-4.243l7.071-7.071l-0.707-0.707L371.49,21.464z"/>
	<path fill="#E4E0B9" d="M321.464,28.51c1.953,1.953,5.118,1.953,7.071,0l7.071-7.071l-1.414-1.414l-7.778,7.778
		c-1.172,1.172-3.071,1.172-4.243,0l-7.071-7.071l-0.707,0.707L321.464,28.51z"/>
	<path fill="#F8F7E9" d="M228.536,171.49c-1.953-1.953-5.118-1.953-7.071,0l-7.071,7.071l1.414,1.414l7.778-7.778
		c1.172-1.172,3.071-1.172,4.243,0l7.071,7.071l0.707-0.707L228.536,171.49z"/>
	<path fill="#F8F7E9" d="M278.51,178.536c1.953-1.953,1.953-5.118,0-7.071l-7.071-7.071l-1.414,1.414l7.778,7.778
		c1.172,1.172,1.172,3.071,0,4.243l-7.071,7.071l0.707,0.707L278.51,178.536z"/>
	<path fill="#F8F7E9" d="M371.49,171.464c-1.953,1.953-1.953,5.118,0,7.071l7.071,7.071l1.414-1.414l-7.778-7.778
		c-1.172-1.172-1.172-3.071,0-4.243l7.071-7.071l-0.707-0.707L371.49,171.464z"/>
	<path fill="#F8F7E9" d="M321.464,178.51c1.953,1.953,5.118,1.953,7.071,0l7.071-7.071l-1.414-1.414l-7.778,7.778
		c-1.172,1.172-3.071,1.172-4.243,0l-7.071-7.071l-0.707,0.707L321.464,178.51z"/>
	<path fill="#2C0006" d="M228.536,121.49c-1.953-1.953-5.118-1.953-7.071,0l-7.071,7.071l1.414,1.414l7.778-7.778
		c1.172-1.172,3.071-1.172,4.243,0l7.071,7.071l0.707-0.707L228.536,121.49z"/>
	<path fill="#2C0006" d="M278.51,128.536c1.953-1.953,1.953-5.118,0-7.071l-7.071-7.071l-1.414,1.414l7.778,7.778
		c1.172,1.172,1.172,3.071,0,4.243l-7.071,7.071l0.707,0.707L278.51,128.536z"/>
	<path fill="#2C0006" d="M371.49,121.464c-1.953,1.953-1.953,5.118,0,7.071l7.071,7.071l1.414-1.414l-7.778-7.778
		c-1.172-1.172-1.172-3.071,0-4.243l7.071-7.071l-0.707-0.707L371.49,121.464z"/>
	<path fill="#2C0006" d="M321.464,128.51c1.953,1.953,5.118,1.953,7.071,0l7.071-7.071l-1.414-1.414l-7.778,7.778
		c-1.172,1.172-3.071,1.172-4.243,0l-7.071-7.071l-0.707,0.707L321.464,128.51z"/>
	<path fill="#5D0B24" d="M125,167c-4.418,0-8,3.582-8,8s3.582,8,8,8s8-3.582,8-8S129.418,167,125,167z M125,182c-3.314,0-6-2-6-7
		s2.686-7,6-7c3.314,0,6,2,6,7S128.314,182,125,182z"/>
	<circle fill="#5D0B24" cx="125" cy="175" r="4.5"/>
	<path fill="#E4E0B9" d="M429,16c-1.634,0-3.087,0.788-4,2.003c-0.913-1.216-2.366-2.003-4-2.003c-2.757,0-5,2.243-5,5
		c0,2.854,1.718,4.775,3.894,7.208c1.306,1.46,2.786,3.114,4.274,5.347L425,34.803l0.832-1.248c1.488-2.233,2.968-3.887,4.274-5.347
		C432.282,25.775,434,23.854,434,21C434,18.243,431.757,16,429,16L429,16z"/>
	<path fill="#981643" d="M479,66.799c2.209,0,4,1.791,4,4c0,4-4,6-8,12c-4-6-8-8-8-12c0-2.209,1.791-4,4-4s4,1.791,4,4
		C475,68.59,476.791,66.799,479,66.799 M479,65.799c-1.634,0-3.087,0.788-4,2.003c-0.913-1.216-2.366-2.003-4-2.003
		c-2.757,0-5,2.243-5,5c0,2.854,1.718,4.775,3.894,7.208c1.306,1.46,2.786,3.114,4.274,5.347L475,84.602l0.832-1.248
		c1.488-2.233,2.968-3.887,4.274-5.347c2.176-2.433,3.894-4.354,3.894-7.208C484,68.042,481.757,65.799,479,65.799L479,65.799z"/>
	<path fill="#981643" d="M433,71c0,4-4,6-8,12c-4-6-8-8-8-12c0-2.209,1.791-4,4-4s4,1.791,4,4c0-2.209,1.791-4,4-4
		S433,68.791,433,71z"/>
	<path fill="#5D0B24" d="M433,121c0,4-4,6-8,12c-4-6-8-8-8-12c0-2.209,1.791-4,4-4s4,1.791,4,4c0-2.209,1.791-4,4-4
		S433,118.791,433,121z"/>
	<g>
		<path fill="#A2001F" d="M643,242c0-2.761-2.239-5-5-5h-4v2h5c1.657,0,3,1.343,3,3v8h1V242z"/>
		<path fill="#A2001F" d="M641,234c0,2.761,2.239,5,5,5h4v-2h-5c-1.657,0-3-1.343-3-3v-8h-1V234z"/>
	</g>
	<rect x="617" y="24.5" fill="#E4E0B9" width="16" height="1"/>
	<rect x="624.5" y="17" fill="#E4E0B9" width="1" height="16"/>
	<rect x="617" y="74.5" fill="#981643" width="16" height="1"/>
	<rect x="624.5" y="67" fill="#981643" width="1" height="16"/>
	<rect x="617" y="124.5" fill="#2C0006" width="16" height="1"/>
	<rect x="624.5" y="117" fill="#2C0006" width="1" height="16"/>
	<rect x="617" y="174.5" fill="#F8F7E9" width="16" height="1"/>
	<rect x="624.5" y="167" fill="#F8F7E9" width="1" height="16"/>
	<g>
		<path fill="#E4E0B9" d="M528,21.5c0-1.657-1.343-3-3-3s-3,1.343-3,3h-1c0-2.209,1.791-4,4-4s4,1.791,4,4H528z"/>
		<path fill="#E4E0B9" d="M529.952,21.5h-9.904c-2.318,2.602-4.048,4.372-4.048,7c0,2.209,1.791,4,4,4h10c2.209,0,4-1.791,4-4
			C534,25.872,532.27,24.102,529.952,21.5z"/>
	</g>
	<g>
		<path fill="#981643" d="M528,71.5c0-1.657-1.343-3-3-3s-3,1.343-3,3h-1c0-2.209,1.791-4,4-4s4,1.791,4,4H528z"/>
		<path fill="#981643" d="M529.952,71.5h-9.904c-2.318,2.602-4.048,4.372-4.048,7c0,2.209,1.791,4,4,4h10c2.209,0,4-1.791,4-4
			C534,75.872,532.27,74.102,529.952,71.5z"/>
	</g>
	<g>
		<path fill="#5D0B24" d="M528,121.5c0-1.657-1.343-3-3-3s-3,1.343-3,3h-1c0-2.209,1.791-4,4-4s4,1.791,4,4H528z"/>
		<path fill="#5D0B24" d="M529.952,121.5h-9.904c-2.318,2.602-4.048,4.372-4.048,7c0,2.209,1.791,4,4,4h10c2.209,0,4-1.791,4-4
			C534,125.872,532.27,124.102,529.952,121.5z"/>
	</g>
	<path fill="#E4E0B9" d="M479,16.799c2.209,0,4,1.791,4,4c0,4-4,6-8,12c-4-6-8-8-8-12c0-2.209,1.791-4,4-4s4,1.791,4,4
		C475,18.59,476.791,16.799,479,16.799 M479,15.799c-1.634,0-3.087,0.788-4,2.003c-0.913-1.216-2.366-2.003-4-2.003
		c-2.757,0-5,2.243-5,5c0,2.854,1.718,4.775,3.894,7.208c1.306,1.46,2.786,3.114,4.274,5.347L475,34.602l0.832-1.248
		c1.488-2.233,2.968-3.887,4.274-5.347c2.176-2.433,3.894-4.354,3.894-7.208C484,18.042,481.757,15.799,479,15.799L479,15.799z"/>
	<path fill="#E4E0B9" d="M578.31,30.104l-1.834,0.797l1.256,1.635l-0.458,0.199l2.791,6.419l1.834-0.798l-2.791-6.419l-0.459,0.199
		L578.31,30.104z"/>
	<path fill="#E4E0B9" d="M572.209,18.581c-3.545,1.542-5.17,5.665-3.628,9.211c1.542,3.545,5.665,5.17,9.211,3.628
		c3.545-1.542,5.17-5.665,3.628-9.211S575.754,17.039,572.209,18.581z M577.393,30.502c-3.039,1.321-6.574-0.071-7.895-3.11
		s0.071-6.574,3.11-7.895c3.039-1.321,6.574,0.071,7.895,3.11S580.431,29.181,577.393,30.502z"/>
	<path fill="#981643" d="M578.31,80.104l-1.834,0.797l1.256,1.635l-0.458,0.199l2.791,6.419l1.834-0.797l-2.791-6.419l-0.459,0.199
		L578.31,80.104z"/>
	<path fill="#981643" d="M572.209,68.581c-3.545,1.542-5.17,5.665-3.628,9.211c1.542,3.545,5.665,5.17,9.211,3.628
		c3.545-1.542,5.17-5.665,3.628-9.211S575.754,67.039,572.209,68.581z M577.393,80.502c-3.039,1.321-6.574-0.071-7.895-3.11
		s0.071-6.574,3.11-7.895s6.574,0.071,7.895,3.11S580.431,79.181,577.393,80.502z"/>
	<path fill="#5D0B24" d="M578.31,130.104l-1.834,0.798l1.256,1.635l-0.458,0.199l2.791,6.419l1.834-0.798l-2.791-6.419l-0.459,0.199
		L578.31,130.104z"/>
	<path fill="#5D0B24" d="M572.209,118.581c-3.545,1.542-5.17,5.665-3.628,9.211c1.542,3.545,5.665,5.17,9.211,3.628
		c3.545-1.542,5.17-5.665,3.628-9.211S575.754,117.039,572.209,118.581z M577.393,130.502c-3.039,1.321-6.574-0.071-7.895-3.11
		c-1.321-3.039,0.071-6.574,3.11-7.895s6.574,0.071,7.895,3.11S580.431,129.181,577.393,130.502z"/>
	<path fill="#981643" d="M776,131h-2l0.5,2H774v7h2v-7h-0.5L776,131z"/>
	<path fill="#981643" d="M775,118c-3.866,0-7,3.134-7,7s3.134,7,7,7s7-3.134,7-7S778.866,118,775,118z M775,131
		c-3.314,0-6-2.686-6-6s2.686-6,6-6s6,2.686,6,6C781,128.314,778.314,131,775,131z"/>
	<rect x="667" y="24.5" fill="#E4E0B9" width="16" height="1"/>
	<rect x="667" y="74.5" fill="#981643" width="16" height="1"/>
	<rect x="667" y="124.5" fill="#2C0006" width="16" height="1"/>
	<rect x="667" y="174.5" fill="#F8F7E9" width="16" height="1"/>
	
		<rect x="716.995" y="24.505" transform="matrix(-0.7071 0.7071 -0.7071 -0.7071 1255.3247 -469.9631)" fill="#E4E0B9" width="16" height="1"/>
	
		<rect x="724.495" y="17.005" transform="matrix(-0.7071 0.7071 -0.7071 -0.7071 1255.3247 -469.9631)" fill="#E4E0B9" width="1" height="16"/>
	
		<rect x="716.995" y="74.504" transform="matrix(-0.7071 0.7071 -0.7071 -0.7071 1290.6793 -384.6081)" fill="#981643" width="16" height="1"/>
	
		<rect x="724.495" y="67.004" transform="matrix(-0.7071 0.7071 -0.7071 -0.7071 1290.6793 -384.6081)" fill="#981643" width="1" height="16"/>
	
		<rect x="716.994" y="124.504" transform="matrix(-0.7071 0.7071 -0.7071 -0.7071 1326.0338 -299.253)" fill="#2C0006" width="16" height="1"/>
	
		<rect x="724.494" y="117.004" transform="matrix(-0.7071 0.7071 -0.7071 -0.7071 1326.0338 -299.253)" fill="#2C0006" width="1" height="16"/>
	
		<rect x="716.994" y="174.504" transform="matrix(-0.7071 0.7071 -0.7071 -0.7071 1361.3884 -213.8979)" fill="#F8F7E9" width="16" height="1"/>
	
		<rect x="724.494" y="167.004" transform="matrix(-0.7071 0.7071 -0.7071 -0.7071 1361.3884 -213.8979)" fill="#F8F7E9" width="1" height="16"/>
</g>
</svg>
