<?xml version="1.0" encoding="utf-8"?>
<!-- Generator: Adobe Illustrator 17.0.0, SVG Export Plug-In . SVG Version: 6.00 Build 0)  -->
<!DOCTYPE svg PUBLIC "-//W3C//DTD SVG 1.1//EN" "http://www.w3.org/Graphics/SVG/1.1/DTD/svg11.dtd">
<svg version="1.1" id="圖層_1" xmlns="http://www.w3.org/2000/svg" xmlns:xlink="http://www.w3.org/1999/xlink" x="0px" y="0px"
	 width="900px" height="900px" viewBox="0 0 900 900" enable-background="new 0 0 900 900" xml:space="preserve">
<g>
	<rect x="333.75" y="802.5" fill="#E5C147" width="56.25" height="7.5"/>
	<polygon fill="#E5C147" points="337.5,780 397.5,780 397.5,772.5 330,772.5 330,840 397.5,840 397.5,832.5 337.5,832.5 	"/>
</g>
<g>
	
		<rect x="488.523" y="802.491" transform="matrix(-0.7071 -0.7071 0.7071 -0.7071 345.3412 1755.5254)" fill="#E5C147" width="95.458" height="7.499"/>
	
		<rect x="532.502" y="758.511" transform="matrix(-0.7071 -0.7071 0.7071 -0.7071 345.3412 1755.5255)" fill="#E5C147" width="7.499" height="95.458"/>
</g>
<g>
	<rect x="675" y="772.5" fill="#E5C147" width="67.5" height="7.5"/>
	<rect x="705" y="776.25" fill="#E5C147" width="7.5" height="63.75"/>
</g>
<polygon fill="#E5C147" points="225,772.5 217.5,772.5 217.5,830.138 166.266,772.5 157.5,772.5 157.5,840 165,840 165,782.362 
	216.234,840 225,840 "/>
<g>
	<path fill="#E5C147" d="M543.75,225.002v20.616c54.906,25.285,97.984,71.964,118.348,129.382H581.25v-56.25h-37.5v18.75h18.75v225
		h-225v-225h150v-18.75H318.75V375h-80.848C260.536,311.18,311.18,260.536,375,237.902V300h18.75v-67.88
		c15.072-3.894,30.764-6.217,46.875-6.882V300h18.75v-74.762c9.544,0.394,18.917,1.439,28.125,2.979V209.19
		c-12.224-1.911-24.739-2.94-37.5-2.94c-134.619,0-243.75,109.131-243.75,243.75S315.381,693.75,450,693.75
		S693.75,584.619,693.75,450C693.75,348.613,631.823,261.736,543.75,225.002z M232.12,393.75h86.63v46.875h-93.512
		C225.903,424.514,228.226,408.822,232.12,393.75z M225.238,459.375h93.512v46.875h-86.63
		C228.226,491.178,225.903,475.486,225.238,459.375z M440.625,674.762c-16.111-0.665-31.803-2.988-46.875-6.882V600H375v62.098
		C311.18,639.464,260.536,588.82,237.902,525h80.848v56.25h121.875V674.762z M506.25,667.88
		c-15.072,3.894-30.764,6.217-46.875,6.882V581.25h46.875V667.88z M581.25,393.75h86.63c3.894,15.072,6.217,30.764,6.882,46.875
		H581.25V393.75z M525,662.098V581.25h56.25V525h80.848C639.464,588.82,588.82,639.464,525,662.098z M667.88,506.25h-86.63v-46.875
		h93.512C674.097,475.486,671.774,491.178,667.88,506.25z"/>
	<path fill="#E5C147" d="M506.25,492.991L388.259,375H375v168.75h18.75V407.009L511.742,525H525V218.06l0,0
		c-6.145-1.986-12.402-3.713-18.75-5.213l0,0V492.991z"/>
</g>
</svg>
