<?xml version="1.0" encoding="utf-8"?>
<!-- Generator: Adobe Illustrator 17.0.0, SVG Export Plug-In . SVG Version: 6.00 Build 0)  -->
<!DOCTYPE svg PUBLIC "-//W3C//DTD SVG 1.1//EN" "http://www.w3.org/Graphics/SVG/1.1/DTD/svg11.dtd">
<svg version="1.1" id="圖層_1" xmlns="http://www.w3.org/2000/svg" xmlns:xlink="http://www.w3.org/1999/xlink" x="0px" y="0px"
	 width="180px" height="180px" viewBox="0 0 180 180" enable-background="new 0 0 180 180" xml:space="preserve">
<g>
	<path d="M119,37.472v7.012c15.016,9.601,25,26.409,25,45.516c0,29.776-24.224,54-54,54s-54-24.224-54-54s24.224-54,54-54
		c3.769,0,7.447,0.391,11,1.129v-6.105C97.432,30.363,93.759,30,90,30c-33.137,0-60,26.863-60,60s26.863,60,60,60s60-26.863,60-60
		C150,67.383,137.481,47.697,119,37.472z"/>
	<path d="M107,32.471v6.291c2.057,0.686,4.061,1.487,6,2.406v-6.581C111.05,33.778,109.047,33.074,107,32.471z"/>
	<path d="M101,95.242v-8.484l-34-34v79.36c1.923,1.055,3.929,1.975,6,2.762V67.242L101,95.242z"/>
	<path d="M113,41.168c-1.939-0.919-3.943-1.72-6-2.406v73.996l-28-28v8.484l34,34V41.168z"/>
</g>
</svg>
