<?xml version="1.0" encoding="utf-8"?>
<!-- Generator: Adobe Illustrator 17.0.0, SVG Export Plug-In . SVG Version: 6.00 Build 0)  -->
<!DOCTYPE svg PUBLIC "-//W3C//DTD SVG 1.1//EN" "http://www.w3.org/Graphics/SVG/1.1/DTD/svg11.dtd">
<svg version="1.1" xmlns="http://www.w3.org/2000/svg" xmlns:xlink="http://www.w3.org/1999/xlink" x="0px" y="0px" width="150px"
	 height="150px" viewBox="-884.5 555.5 150 150" enable-background="new -884.5 555.5 150 150" xml:space="preserve">
<g id="圖層_1" display="none">
	<path display="inline" fill="#FFFFFF" d="M-750.289,689.711h-11.842c-57.769,0-106.579-27.115-106.579-59.211
		c0-16.302,12.628-31.298,32.589-42.13c-6.627-0.813-13.546-1.291-20.747-1.291c-1.943,0-3.828,0.093-5.728,0.158
		c-13.812,12.154-21.903,27.011-21.903,43.263c0,42.056,53.752,75,122.368,75h27.632C-734.5,696.78-741.569,689.711-750.289,689.711
		z"/>
	<path display="inline" fill="#FFFFFF" d="M-780.906,571.289h30.616c8.72,0,15.789-7.069,15.789-15.789h-150
		c0,8.72,7.069,15.789,15.789,15.789h11.842c57.769,0,106.579,27.115,106.579,59.211c0,16.302-12.628,31.298-32.589,42.13
		c6.627,0.813,13.546,1.291,20.747,1.291c1.943,0,3.828-0.093,5.728-0.158c13.812-12.154,21.903-27.011,21.903-43.263
		C-734.5,606.179-752.476,584.907-780.906,571.289z"/>
	<path display="inline" fill="#FFFFFF" d="M-867.542,689.711h-1.168c-8.72,0-15.789,7.07-15.789,15.789h31.583h12.031
		C-850.832,701.032-859.767,695.713-867.542,689.711z"/>
	<path display="inline" fill="#FFFFFF" d="M-802.793,610.621c1.099,0,2.143,0.64,2.61,1.712l10.327,23.746
		c0.624,1.438-0.035,3.115-1.476,3.739l-23.746,10.327c-0.366,0.158-0.752,0.235-1.13,0.235c-1.099,0-2.143-0.64-2.61-1.712
		l-10.327-23.746c-0.624-1.438,0.035-3.115,1.476-3.739l23.746-10.327C-803.556,610.698-803.17,610.621-802.793,610.621
		 M-802.793,594.831c-2.567,0-5.061,0.517-7.421,1.542l-23.754,10.331c-4.549,1.97-8.076,5.617-9.903,10.25
		c-1.827,4.63-1.739,9.695,0.243,14.259l10.331,23.754c2.945,6.796,9.656,11.202,17.089,11.202c2.567,0,5.061-0.517,7.421-1.542
		l23.754-10.331c4.549-1.97,8.076-5.617,9.903-10.25c1.827-4.63,1.739-9.695-0.243-14.259l-10.331-23.754
		C-788.649,599.237-795.36,594.831-802.793,594.831L-802.793,594.831z"/>
</g>
<g id="圖層_2" display="none">
	<g display="inline">
		<path fill="#FFFFFF" d="M-864.314,579.405c-5.663,6.075-10.464,13.136-13.965,21.189c-11.736,26.99-6.282,57.062,11.449,78.162
			l3.764-8.657c-10.463-14.182-15.042-32.204-12.221-50.03l28.572,12.424l3.323-7.642l-30.05-13.066
			c0.777-2.644,1.677-5.274,2.804-7.868l30.569,13.292l3.323-7.642l-30.039-13.061c1.457-2.463,3.071-4.788,4.797-7.001
			l28.565,12.42l3.323-7.642L-864.314,579.405z"/>
		<path fill="#FFFFFF" d="M-799.072,564.721l-12.42,28.565l7.642,3.323l13.061-30.039c2.644,0.777,5.279,1.665,7.873,2.793
			l-13.292,30.569l7.642,3.323l16.615-38.211c0,0-5.056-2.198-7.642-3.323c-26.99-11.736-57.062-6.282-78.162,11.449l8.709,3.787
			C-834.87,566.517-816.895,561.883-799.072,564.721z"/>
		<path fill="#FFFFFF" d="M-754.686,681.595c5.663-6.075,10.464-13.136,13.965-21.189c11.736-26.99,6.282-57.062-11.449-78.162
			l-3.764,8.657c10.463,14.182,15.042,32.204,12.221,50.03l-28.572-12.424l-3.323,7.642l30.05,13.066
			c-0.777,2.644-1.677,5.274-2.804,7.868l-30.569-13.292l-3.323,7.642l30.039,13.061c-1.457,2.463-3.071,4.788-4.797,7.001
			l-28.565-12.42l-3.323,7.642L-754.686,681.595z"/>
		<path fill="#FFFFFF" d="M-819.928,696.279l12.42-28.565l-7.642-3.323l-13.061,30.039c-2.644-0.777-5.279-1.665-7.873-2.793
			l13.292-30.569l-7.642-3.323l-16.615,38.211c0,0,5.056,2.198,7.642,3.323c26.99,11.736,57.062,6.282,78.162-11.449l-8.709-3.787
			C-784.13,694.483-802.105,699.117-819.928,696.279z"/>
		<polygon fill="#FFFFFF" points="-796.542,663.395 -756.667,571.689 -764.31,568.366 -798.512,647.027 -817.055,599.954 
			-822.458,597.605 -862.333,689.311 -854.69,692.634 -820.488,613.973 -801.945,661.046 		"/>
	</g>
</g>
<g id="圖層_3">
	<path fill="#FFFFFF" d="M-749.251,585.98l4.047-9.306l-7.642-3.323l-2.354,5.414c-6.709-7.061-14.911-12.922-24.393-17.045
		c-37.927-16.491-82.194,0.946-98.686,38.873c-11.041,25.393-6.814,53.591,8.53,74.426l-4.047,9.306l7.642,3.323l2.354-5.414
		c6.709,7.061,14.911,12.922,24.393,17.045c37.927,16.491,82.194-0.946,98.686-38.873
		C-729.679,635.013-733.906,606.815-749.251,585.98z M-870.637,603.917c14.658-33.711,54.01-49.212,87.721-34.554
		c9.601,4.175,17.659,10.398,24.031,17.877l-35.189,80.929c-5.007-4.2-13.28-14.684-11.273-37.301
		c3.329-37.554-18.82-47.637-19.768-48.049l-3.821-1.661l-36.915,84.9C-877.192,648.024-879.753,624.88-870.637,603.917z
		 M-836.083,691.637c-9.601-4.175-17.659-10.398-24.031-17.877l35.189-80.929c5.007,4.2,13.28,14.684,11.273,37.301
		c-3.329,37.554,18.82,47.637,19.768,48.049l3.821,1.661l36.915-84.9c11.34,18.033,13.901,41.176,4.785,62.14
		C-763.02,690.794-802.373,706.295-836.083,691.637z"/>
</g>
<g id="圖層_4" display="none">
	<g display="inline">
		<path fill="#FFFFFF" d="M-800.672,641.544l4.699-10.807l-21.596-54.825l-38.801,89.236c1.82,2.468,3.845,4.791,6.059,6.965
			l32.363-74.429L-800.672,641.544z"/>
		<path fill="#FFFFFF" d="M-818.328,619.456l-4.699,10.807l21.596,54.825l46.238-106.341c-2.016-2.119-4.21-4.084-6.49-5.972
			l-39.369,90.542L-818.328,619.456z"/>
		<path fill="#FFFFFF" d="M-749.238,585.95l-3.896,8.959c11.358,18.023,13.907,41.161,4.771,62.174
			c-14.682,33.767-53.954,49.236-87.721,34.554c-33.767-14.682-49.236-53.954-34.554-87.721
			c14.682-33.767,53.954-49.236,87.721-34.554c3.922,1.705,7.57,3.775,10.98,6.096l3.359-7.724
			c-3.463-2.251-7.101-4.312-11.015-6.014c-37.987-16.517-82.169,0.886-98.686,38.873c-16.517,37.987,0.886,82.169,38.873,98.686
			c37.987,16.517,82.169-0.886,98.686-38.873C-729.657,634.961-733.872,606.777-749.238,585.95z"/>
	</g>
</g>
</svg>
