<?xml version="1.0" encoding="utf-8"?>
<!-- Generator: Adobe Illustrator 17.0.0, SVG Export Plug-In . SVG Version: 6.00 Build 0)  -->
<!DOCTYPE svg PUBLIC "-//W3C//DTD SVG 1.1//EN" "http://www.w3.org/Graphics/SVG/1.1/DTD/svg11.dtd">
<svg version="1.1" id="圖層_1" xmlns="http://www.w3.org/2000/svg" xmlns:xlink="http://www.w3.org/1999/xlink" x="0px" y="0px"
	 width="150px" height="150px" viewBox="0 0 150 150" enable-background="new 0 0 150 150" xml:space="preserve">
<g id="圖層_2" display="none">
	<g display="inline">
		<path d="M-880.142,604.5c-2.771,7.829-4.358,16.219-4.358,25c0,29.431,16.992,54.834,41.667,67.114v-9.44
			c-15.251-8.834-26.636-23.535-31.156-41.007h31.156v-8.333h-32.768c-0.342-2.734-0.566-5.505-0.566-8.333h33.333v-8.333h-32.756
			c0.354-2.84,0.907-5.615,1.607-8.333h31.148V604.5H-880.142z"/>
		<path d="M-826.167,565.018v31.148h8.333V563.41c2.734-0.342,5.505-0.578,8.333-0.578v33.333h8.333V554.5c0,0-5.513,0-8.333,0
			c-29.431,0-54.834,16.992-67.114,41.667h9.497C-858.279,580.94-843.643,569.523-826.167,565.018z"/>
		<path d="M-738.858,654.5c2.771-7.829,4.358-16.219,4.358-25c0-29.431-16.992-54.834-41.667-67.114v9.44
			c15.251,8.834,26.636,23.535,31.156,41.007h-31.156v8.333h32.768c0.342,2.734,0.566,5.505,0.566,8.333h-33.333v8.333h32.756
			c-0.354,2.84-0.907,5.615-1.607,8.333h-31.148v8.333h37.307V654.5z"/>
		<path d="M-792.833,693.982v-31.148h-8.333v32.756c-2.734,0.342-5.505,0.578-8.333,0.578v-33.333h-8.333V704.5c0,0,5.513,0,8.333,0
			c29.431,0,54.834-16.992,67.114-41.667h-9.497C-760.721,678.06-775.357,689.477-792.833,693.982z"/>
		<polygon points="-784.5,654.5 -784.5,554.5 -792.833,554.5 -792.833,640.275 -828.608,604.5 -834.5,604.5 -834.5,704.5 
			-826.167,704.5 -826.167,618.725 -790.392,654.5 		"/>
	</g>
</g>
<g id="圖層_3" display="none">
	<path display="inline" d="M-772,565.648V555.5h-8.333v5.904c-8.968-3.8-18.827-5.904-29.167-5.904c-41.357,0-75,33.643-75,75
		c0,27.69,15.12,51.864,37.5,64.852V705.5h8.333v-5.904c8.968,3.8,18.827,5.904,29.167,5.904c41.357,0,75-33.643,75-75
		C-734.5,602.81-749.62,578.636-772,565.648z M-876.167,630.5c0-36.759,29.907-66.667,66.667-66.667
		c10.47,0,20.341,2.494,29.167,6.812v88.249c-6.266-1.855-18.034-8.171-25.212-29.712C-817.467,593.415-841.8,593-842.833,593H-847
		v92.578C-864.59,673.562-876.167,653.36-876.167,630.5z M-809.5,697.167c-10.47,0-20.341-2.494-29.167-6.812v-88.249
		c6.266,1.855,18.034,8.171,25.212,29.712C-801.533,667.585-777.2,668-776.167,668H-772v-92.578
		c17.59,12.016,29.167,32.218,29.167,55.078C-742.833,667.259-772.741,697.167-809.5,697.167z"/>
</g>
<g id="圖層_4" display="none">
	<g display="inline">
		<path d="M-797,637.108v-11.784l-41.667-41.667v97.306c2.653,1.538,5.436,2.861,8.333,3.971v-81.161L-797,637.108z"/>
		<path d="M-822,623.892v11.784l41.667,41.667V561.384c-2.694-1.139-5.489-2.067-8.333-2.889v98.73L-822,623.892z"/>
		<path d="M-772,565.616v9.77c17.603,12,29.167,32.202,29.167,55.115c0,36.82-29.846,66.667-66.667,66.667
			s-66.667-29.846-66.667-66.667s29.846-66.667,66.667-66.667c4.277,0,8.447,0.444,12.5,1.213v-8.423
			c-4.073-0.684-8.232-1.123-12.5-1.123c-41.423,0-75,33.577-75,75s33.577,75,75,75s75-33.577,75-75
			C-734.5,602.753-749.604,578.588-772,565.616z"/>
	</g>
</g>
<path fill="#FFE610" d="M150,10h-25c-31.182,0-60.422,7.039-82.334,19.821C21.602,42.109,10,58.154,10,75
	c0,5.101,1.071,10.128,3.139,15h69.79l-40-40h88.113c-5.52-7.384-13.499-14.223-23.708-20.179
	c-4.494-2.622-9.311-4.987-14.374-7.114c5.898-1.029,11.987-1.753,18.199-2.198c0.401,0.228,0.817,0.443,1.213,0.674
	C136.637,35.338,150,54.45,150,75s-13.363,39.662-37.628,53.816c-7.51,4.381-15.815,8.116-24.706,11.184H150v10H0v-10h25
	c31.182,0,60.422-7.039,82.334-19.821C128.398,107.891,140,91.846,140,75c0-5.101-1.071-10.128-3.139-15h-69.79l40,40H18.958
	c5.52,7.384,13.499,14.223,23.708,20.179c4.494,2.622,9.311,4.987,14.374,7.114c-5.898,1.029-11.987,1.753-18.199,2.198
	c-0.401-0.228-0.817-0.443-1.213-0.674C13.363,114.662,0,95.55,0,75s13.363-39.662,37.628-53.816
	c7.51-4.381,15.815-8.116,24.706-11.184H0V0h150V10z"/>
</svg>
