<?xml version="1.0" encoding="utf-8"?>
<!-- Generator: Adobe Illustrator 17.0.0, SVG Export Plug-In . SVG Version: 6.00 Build 0)  -->
<!DOCTYPE svg PUBLIC "-//W3C//DTD SVG 1.1//EN" "http://www.w3.org/Graphics/SVG/1.1/DTD/svg11.dtd">
<svg version="1.1" id="圖層_1" xmlns="http://www.w3.org/2000/svg" xmlns:xlink="http://www.w3.org/1999/xlink" x="0px" y="0px"
	 width="180px" height="30px" viewBox="0 0 180 30" enable-background="new 0 0 180 30" xml:space="preserve">
<g>
	<g>
		<rect x="59" y="14" fill="#262B4A" width="15" height="2"/>
		<polygon fill="#262B4A" points="60,8 76,8 76,6 58,6 58,24 76,24 76,22 60,22 		"/>
	</g>
	<g>
		
			<rect x="100.271" y="13.999" transform="matrix(-0.7071 -0.7071 0.7071 -0.7071 182.2959 105.5077)" fill="#262B4A" width="25.456" height="2"/>
		
			<rect x="111.999" y="2.271" transform="matrix(-0.7071 -0.7071 0.7071 -0.7071 182.2959 105.5076)" fill="#262B4A" width="2" height="25.456"/>
	</g>
	<g>
		<rect x="150" y="6" fill="#262B4A" width="18" height="2"/>
		<rect x="158" y="7" fill="#262B4A" width="2" height="17"/>
	</g>
	<polygon fill="#262B4A" points="30,6 28,6 28,21.37 14.338,6 12,6 12,24 14,24 14,8.63 27.662,24 30,24 	"/>
</g>
</svg>
