<?xml version="1.0" encoding="utf-8"?>
<!-- Generator: Adobe Illustrator 17.0.0, SVG Export Plug-In . SVG Version: 6.00 Build 0)  -->
<!DOCTYPE svg PUBLIC "-//W3C//DTD SVG 1.1//EN" "http://www.w3.org/Graphics/SVG/1.1/DTD/svg11.dtd">
<svg version="1.1" id="圖層_1" xmlns="http://www.w3.org/2000/svg" xmlns:xlink="http://www.w3.org/1999/xlink" x="0px" y="0px"
	 width="150px" height="150px" viewBox="0 0 150 150" enable-background="new 0 0 150 150" xml:space="preserve">
<path fill="#262b4a" d="M150,10h-25c-31.182,0-60.422,7.039-82.334,19.821C21.602,42.109,10,58.154,10,75
	c0,5.101,1.071,10.128,3.139,15h69.79l-40-40h88.113c-5.52-7.384-13.499-14.223-23.708-20.179
	c-4.494-2.622-9.311-4.987-14.374-7.114c5.898-1.029,11.987-1.753,18.199-2.198c0.401,0.228,0.817,0.443,1.213,0.674
	C136.637,35.338,150,54.45,150,75s-13.363,39.662-37.628,53.816c-7.51,4.381-15.815,8.116-24.706,11.184H150v10H0v-10h25
	c31.182,0,60.422-7.039,82.334-19.821C128.398,107.891,140,91.846,140,75c0-5.101-1.071-10.128-3.139-15h-69.79l40,40H18.958
	c5.52,7.384,13.499,14.223,23.708,20.179c4.494,2.622,9.311,4.987,14.374,7.114c-5.898,1.029-11.987,1.753-18.199,2.198
	c-0.401-0.228-0.817-0.443-1.213-0.674C13.363,114.662,0,95.55,0,75s13.363-39.662,37.628-53.816
	c7.51-4.381,15.815-8.116,24.706-11.184H0V0h150V10z"/>
</svg>
