<?xml version="1.0" encoding="utf-8"?>
<!-- Generator: Adobe Illustrator 17.0.0, SVG Export Plug-In . SVG Version: 6.00 Build 0)  -->
<!DOCTYPE svg PUBLIC "-//W3C//DTD SVG 1.1//EN" "http://www.w3.org/Graphics/SVG/1.1/DTD/svg11.dtd">
<svg version="1.1" id="圖層_1" xmlns="http://www.w3.org/2000/svg" xmlns:xlink="http://www.w3.org/1999/xlink" x="0px" y="0px"
	 width="900px" height="900px" viewBox="-509.5 930.5 900 900" enable-background="new -509.5 930.5 900 900" xml:space="preserve">
<rect x="1048.448" y="217.489" fill="#2E58A6" width="900" height="900"/>
<g>
	<g>
		<rect x="1382.198" y="1001.239" fill="#FFE610" width="56.25" height="7.5"/>
		<polygon fill="#FFE610" points="1385.948,978.739 1445.948,978.739 1445.948,971.239 1378.448,971.239 1378.448,1038.739 
			1445.948,1038.739 1445.948,1031.239 1385.948,1031.239 		"/>
	</g>
	<g>
		
			<rect x="1536.964" y="1001.222" transform="matrix(-0.7071 -0.7071 0.7071 -0.7071 1994.6185 2836.1414)" fill="#FFE610" width="95.458" height="7.499"/>
		
			<rect x="1580.945" y="957.242" transform="matrix(-0.7071 -0.7071 0.7071 -0.7071 1994.6202 2836.1406)" fill="#FFE610" width="7.499" height="95.458"/>
	</g>

	<g>
		<rect x="1723.448" y="971.239" fill="#FFE610" width="67.5" height="7.5"/>
		<rect x="1753.448" y="974.989" fill="#FFE610" width="7.5" height="63.75"/>
	</g>
	<polygon fill="#FFE610" points="1273.448,971.239 1265.948,971.239 1265.948,1028.877 1214.714,971.239 1205.948,971.239 
		1205.948,1038.739 1213.448,1038.739 1213.448,981.101 1264.682,1038.739 1273.448,1038.739 	"/>
</g>
<g>
	<path fill="#FFE610" d="M1339.349,489.64c18.591-18.591,39.67-33.199,62.156-43.91l-14.03-14.03
		c-22.112,11.311-42.875,26.173-61.384,44.682c-71.696,71.696-89.366,176.935-53.062,265.194l14.553-14.553
		C1258.058,647.121,1275.273,553.715,1339.349,489.64z"/>
	<path fill="#FFE610" d="M1657.547,807.838c-18.591,18.591-39.67,33.199-62.156,43.91l14.03,14.03
		c22.112-11.311,42.875-26.173,61.384-44.682c71.696-71.696,89.366-176.935,53.062-265.193l-14.553,14.553
		C1738.837,650.357,1721.622,743.763,1657.547,807.838z"/>
	<path fill="#FFE610" d="M1339.349,807.838c-18.591-18.591-33.199-39.67-43.91-62.156l-14.03,14.03
		c11.311,22.112,26.173,42.875,44.682,61.384c71.696,71.696,176.935,89.366,265.194,53.062l-14.553-14.553
		C1496.83,889.128,1403.424,871.913,1339.349,807.838z"/>
	
		<rect x="1416.148" y="758.202" transform="matrix(-0.7071 -0.7071 0.7071 -0.7071 1857.6161 2398.3528)" fill="#FFE610" width="18.75" height="112.499"/>
	
		<rect x="1608.39" y="473.151" transform="matrix(-0.7071 -0.7071 0.7071 -0.7071 2387.354 2047.6753)" fill="#FFE610" width="18.75" height="112.499"/>
	
		<rect x="1369.745" y="711.799" transform="matrix(-0.7071 -0.7071 0.7071 -0.7071 1811.2119 2286.325)" fill="#FFE610" width="18.75" height="112.499"/>
	
		<rect x="1561.986" y="426.747" transform="matrix(-0.7071 -0.7071 0.7071 -0.7071 2340.95 1935.6471)" fill="#FFE610" width="18.75" height="112.499"/>
	
		<rect x="1322.868" y="520.027" transform="matrix(-0.7071 -0.7071 0.7071 -0.7071 1979.9572 1878.9285)" fill="#FFE610" width="112.499" height="18.75"/>
	
		<rect x="1369.271" y="473.623" transform="matrix(-0.7071 -0.7071 0.7071 -0.7071 2091.9849 1832.5239)" fill="#FFE610" width="112.499" height="18.75"/>
	
		<rect x="1276.464" y="566.431" transform="matrix(-0.7071 -0.7071 0.7071 -0.7071 1867.929 1925.3325)" fill="#FFE610" width="112.499" height="18.75"/>
	
		<rect x="1561.517" y="758.672" transform="matrix(-0.7071 -0.7071 0.7071 -0.7071 2218.6091 2455.0718)" fill="#FFE610" width="112.499" height="18.75"/>
	
		<rect x="1607.92" y="712.268" transform="matrix(-0.7071 -0.7071 0.7071 -0.7071 2330.637 2408.6677)" fill="#FFE610" width="112.499" height="18.75"/>
	
		<rect x="1515.114" y="805.076" transform="matrix(-0.7071 -0.7071 0.7071 -0.7071 2106.5813 2501.4761)" fill="#FFE610" width="112.499" height="18.75"/>
	<path fill="#FFE610" d="M1657.547,489.64c9.037,9.037,17.089,18.685,24.265,28.768l13.476-13.476
		c-7.31-9.979-15.464-19.533-24.482-28.551c-71.696-71.696-176.935-89.366-265.194-53.061l14.553,14.553
		C1500.065,408.35,1593.471,425.565,1657.547,489.64z"/>
	<polygon fill="#FFE610" points="1507.823,718.913 1507.823,552.048 1498.448,542.673 1286.316,754.805 1299.574,768.063 
		1489.072,578.565 1489.073,745.43 1498.448,754.805 1710.58,542.673 1697.321,529.415 	"/>
	<path fill="#FFE610" d="M1701.457,551.796l14.03-14.03c-2.941-5.749-6.144-11.395-9.572-16.944l-13.628,13.628
		C1695.627,540.117,1698.656,545.914,1701.457,551.796z"/>
</g>
<rect x="-1539.5" y="580.5" width="300" height="300"/>
<rect x="-1839.5" y="580.5" fill="#FFFFFF" width="300" height="300"/>
<g>
	<rect x="-1677" y="768" width="6.25" height="37.5"/>
	<rect x="-1689.5" y="655.5" width="6.25" height="37.5"/>
	<rect x="-1695.75" y="768" width="6.25" height="37.5"/>
	<rect x="-1708.25" y="655.5" width="6.25" height="37.5"/>
	<rect x="-1764.5" y="727.375" width="37.5" height="6.25"/>
	<rect x="-1764.5" y="711.75" width="37.5" height="6.25"/>
	<rect x="-1764.5" y="743" width="37.5" height="6.25"/>
	<rect x="-1652" y="727.375" width="37.5" height="6.25"/>
	<rect x="-1652" y="711.75" width="37.5" height="6.25"/>
	<rect x="-1652" y="743" width="37.5" height="6.25"/>
	<polygon points="-1670.75,744.83 -1710.08,705.5 -1714.5,705.5 -1714.5,805.5 -1708.25,805.5 -1708.25,716.17 -1668.919,755.5 
		-1664.5,755.5 -1664.5,655.5 -1670.75,655.5 	"/>
	<path d="M-1664.5,659.801v-6.614c-2.048-0.662-4.134-1.238-6.25-1.738v6.424C-1668.627,658.422-1666.547,659.075-1664.5,659.801z"
		/>
	<path d="M-1764.5,730.5c0-6.472,0.825-12.755,2.373-18.75h-6.424c-1.423,6.022-2.199,12.294-2.199,18.75
		c0,31.342,17.758,58.521,43.75,72.073v-7.163C-1749.394,782.421-1764.5,758.199-1764.5,730.5z"/>
	<path d="M-1689.5,655.5c8.764,0,17.175,1.525,25,4.301v-6.614c-7.878-2.546-16.275-3.937-25-3.937
		c-33.798,0-62.768,20.64-75.013,50h6.86C-1745.779,673.458-1719.705,655.5-1689.5,655.5z"/>
	<path d="M-1614.5,730.5c0,6.472-0.825,12.755-2.373,18.75h6.424c1.423-6.022,2.199-12.294,2.199-18.75
		c0-31.342-17.758-58.521-43.75-72.073v7.163C-1629.606,678.579-1614.5,702.801-1614.5,730.5z"/>
	<path d="M-1689.5,805.5c-8.764,0-17.175-1.525-25-4.301v6.614c7.878,2.546,16.275,3.937,25,3.937c33.798,0,62.768-20.64,75.013-50
		h-6.86C-1633.221,787.542-1659.295,805.5-1689.5,805.5z"/>
</g>
<g>
	
		<rect x="-1421.339" y="762.575" transform="matrix(-0.7071 -0.7071 0.7071 -0.7071 -2973.5222 330.9758)" fill="#FFFFFF" width="6.25" height="37.5"/>
	
		<rect x="-1350.63" y="674.186" transform="matrix(-0.7071 -0.7071 0.7071 -0.7071 -2790.3145 230.0859)" fill="#FFFFFF" width="6.25" height="37.5"/>
	
		<rect x="-1434.597" y="749.317" transform="matrix(-0.7071 -0.7071 0.7071 -0.7071 -2986.7805 298.9684)" fill="#FFFFFF" width="6.25" height="37.5"/>
	
		<rect x="-1363.888" y="660.928" transform="matrix(-0.7071 -0.7071 0.7071 -0.7071 -2803.5732 198.0786)" fill="#FFFFFF" width="6.25" height="37.5"/>
	
		<rect x="-1448.013" y="687.602" transform="matrix(-0.7071 -0.7071 0.7071 -0.7071 -2928.3225 168.5026)" fill="#FFFFFF" width="37.5" height="6.25"/>
	
		<rect x="-1436.965" y="676.554" transform="matrix(-0.7071 -0.7071 0.7071 -0.7071 -2901.6499 157.4552)" fill="#FFFFFF" width="37.5" height="6.25"/>
	
		<rect x="-1459.061" y="698.651" transform="matrix(-0.7071 -0.7071 0.7071 -0.7071 -2954.9961 179.5527)" fill="#FFFFFF" width="37.5" height="6.25"/>
	
		<rect x="-1368.464" y="767.151" transform="matrix(-0.7071 -0.7071 0.7071 -0.7071 -2848.7727 360.5516)" fill="#FFFFFF" width="37.5" height="6.25"/>
	
		<rect x="-1357.415" y="756.102" transform="matrix(-0.7071 -0.7071 0.7071 -0.7071 -2822.0991 349.5016)" fill="#FFFFFF" width="37.5" height="6.25"/>
	
		<rect x="-1379.512" y="778.199" transform="matrix(-0.7071 -0.7071 0.7071 -0.7071 -2875.4453 371.5991)" fill="#FFFFFF" width="37.5" height="6.25"/>
	<polygon fill="#FFFFFF" points="-1386.375,753.891 -1386.375,698.27 -1389.5,695.145 -1460.211,765.855 -1455.791,770.275 
		-1392.625,707.109 -1392.625,762.73 -1389.5,765.855 -1318.789,695.145 -1323.209,690.725 	"/>
	<path fill="#FFFFFF" d="M-1321.83,698.186l4.677-4.677c-0.98-1.916-2.048-3.798-3.191-5.648l-4.543,4.543
		C-1323.773,694.292-1322.764,696.225-1321.83,698.186z"/>
	<path fill="#FFFFFF" d="M-1442.533,677.467c4.577-4.576,9.602-8.436,14.936-11.58l-4.543-4.543
		c-5.264,3.252-10.248,7.138-14.813,11.703c-22.162,22.162-28.824,53.937-20.027,81.899l5.065-5.065
		C-1468.566,724.862-1462.119,697.053-1442.533,677.467z"/>
	<path fill="#FFFFFF" d="M-1336.467,677.467c6.197,6.197,11.066,13.223,14.637,20.719l4.677-4.677
		c-3.77-7.371-8.724-14.292-14.894-20.461c-23.899-23.898-58.978-29.789-88.398-17.687l4.851,4.851
		C-1388.961,650.37-1357.825,656.109-1336.467,677.467z"/>
	<path fill="#FFFFFF" d="M-1336.467,783.533c-4.577,4.576-9.602,8.436-14.936,11.58l4.543,4.543
		c5.264-3.252,10.248-7.138,14.813-11.703c22.162-22.162,28.824-53.937,20.027-81.899l-5.065,5.065
		C-1310.434,736.138-1316.881,763.947-1336.467,783.533z"/>
	<path fill="#FFFFFF" d="M-1442.533,783.533c-6.197-6.197-11.066-13.223-14.637-20.719l-4.677,4.677
		c3.77,7.371,8.724,14.292,14.894,20.461c23.899,23.898,58.978,29.789,88.398,17.687l-4.851-4.851
		C-1390.039,810.63-1421.175,804.891-1442.533,783.533z"/>
</g>
<rect x="-1839.5" y="880.5" width="300" height="300"/>
<g>
	<path fill="#FFFFFF" d="M-1617.154,1010.758l-6.202,6.202c0.893,4.409,1.356,8.938,1.357,13.54c0,18.03-7.021,34.981-19.77,47.73
		s-29.7,19.77-47.73,19.77s-34.981-7.021-47.73-19.77s-19.77-29.7-19.77-47.73s7.021-34.981,19.77-47.73
		c12.748-12.747,29.698-19.769,47.73-19.77l0.005-7.5c-0.002,0-0.004,0-0.006,0c-19.192,0.002-38.39,7.324-53.033,21.967
		c-29.289,29.289-29.289,76.777,0,106.066c14.645,14.645,33.839,21.967,53.033,21.967s38.388-7.322,53.033-21.967
		C-1616.752,1063.818-1610.329,1035.863-1617.154,1010.758z"/>
	<path fill="#FFFFFF" d="M-1689.493,963c18.026,0,34.974,7.021,47.723,19.77c3.54,3.54,6.62,7.413,9.25,11.534l5.421-5.421
		c-2.693-4.029-5.81-7.859-9.367-11.417c-14.645-14.645-33.832-21.967-53.027-21.967L-1689.493,963L-1689.493,963z"/>
	<path fill="#FFFFFF" d="M-1678.25,977.253l-69.128,69.128c0.732,2.683,1.661,5.301,2.759,7.847l58.87-58.87v52.174l7.499-7.499
		V977.253z"/>
	<polygon fill="#FFFFFF" points="-1693.251,1065.641 -1693.251,1013.467 -1700.75,1020.966 -1700.75,1083.747 -1615.469,998.465 
		-1620.772,993.162 	"/>
</g>
<rect x="-1539.5" y="880.5" fill="#FFFFFF" width="300" height="300"/>
<g>
	<path d="M-1352.304,965.384v8.771c3.749,2.486,7.28,5.361,10.533,8.615c12.749,12.749,19.77,29.7,19.77,47.73
		s-7.021,34.98-19.771,47.73c-12.749,12.749-29.7,19.77-47.729,19.77s-34.981-7.021-47.73-19.77s-19.77-29.7-19.77-47.73
		c0-18.028,7.021-34.979,19.771-47.73l-5.299-5.307c-0.001,0.002-0.003,0.003-0.004,0.004
		c-13.57,13.572-21.967,32.325-21.967,53.033c0,41.421,33.578,75,75,75c20.711,0,39.461-8.395,53.033-21.967
		c13.572-13.572,21.967-32.322,21.967-53.033C-1314.5,1002.619-1329.725,978.31-1352.304,965.384z"/>
	<path d="M-1437.225,982.765C-1424.479,970.019-1407.53,963-1389.5,963c5.006,0,9.923,0.561,14.696,1.615v-7.667
		c-4.753-0.944-9.665-1.448-14.696-1.448c-20.711,0-39.456,8.39-53.029,21.963L-1437.225,982.765L-1437.225,982.765z"/>
	<path d="M-1419.196,984.894v97.762c2.415,1.379,4.923,2.573,7.5,3.598V1003l36.893,36.893v-10.605L-1419.196,984.894z"/>
	<polygon points="-1367.304,1058.001 -1404.196,1021.108 -1404.196,1031.714 -1359.804,1076.106 -1359.804,955.5 -1367.304,955.5 	
		"/>
</g>
<rect x="-1039.5" y="1550.5" fill="#FFFFFF" width="300" height="300"/>
<g>
	<polygon points="-1061.5,655.5 -1067.5,655.5 -1067.5,689.771 -1061.5,695.771 	"/>
	<polygon points="-1067.5,798.258 -1160.258,705.5 -1167.5,705.5 -1167.5,755.5 -1161.5,755.5 -1161.5,712.742 -1068.742,805.5 
		-1061.5,805.5 -1061.5,721.229 -1067.5,715.229 	"/>
	<polygon points="-1017.5,705.5 -1017.5,748.258 -1110.258,655.5 -1117.5,655.5 -1117.5,739.771 -1111.5,745.771 -1111.5,662.742 
		-1018.742,755.5 -1011.5,755.5 -1011.5,705.5 	"/>
	<polygon points="-1117.5,805.5 -1111.5,805.5 -1111.5,771.229 -1117.5,765.229 	"/>
</g>
<rect x="-1839.5" y="1180.5" fill="#FFFFFF" width="300" height="300"/>
<path d="M-1641.5,1367.742l22.758,22.758h7.242v-120h-6v112.758l-9-9V1270.5h-6v97.758l-9-9V1270.5h-6v82.758l-82.758-82.758h-7.242
	v22.758l-22.758-22.758h-7.242v120h6v-112.758l9,9V1390.5h6v-97.758l9,9v88.758h6v-82.758l82.758,82.758h7.242V1367.742z
	 M-1647.5,1383.258l-84-84v-21.516l84,84V1383.258z"/>
<rect x="-1539.5" y="1180.5" width="300" height="300"/>
<path fill="#FFFFFF" d="M-1381.893,1390.775v32.184l5.121,5.121l84.853-84.853l-4.243-4.243l-79.732,79.732v-12.728l73.368-73.368
	l-4.243-4.243l-69.125,69.125v-12.728l62.761-62.761l-4.243-4.243l-58.519,58.519v-117.037l-5.121-5.121l-16.092,16.092v-32.184
	l-5.121-5.121l-84.853,84.853l4.243,4.243l79.732-79.732v12.728l-73.368,73.368l4.243,4.243l69.125-69.125v12.728l-62.761,62.761
	l4.243,4.243l58.519-58.519v117.037l5.121,5.121L-1381.893,1390.775z M-1397.107,1397.504V1278.71l15.214-15.214v118.794
	L-1397.107,1397.504z"/>
<rect x="-1239.5" y="1180.5" fill="#FFFFFF" width="300" height="300"/>
<g>
	<polygon points="-1094.5,1400.5 -1044.5,1260.5 -1034.5,1260.5 -1084.5,1400.5 	"/>
	<polygon points="-1169.5,1330.5 -1159.5,1330.5 -1134.5,1260.5 -1144.5,1260.5 	"/>
	<polygon points="-1144.5,1260.5 -1094.5,1400.5 -1084.5,1400.5 -1134.5,1260.5 	"/>
	<polygon points="-1094.5,1260.5 -1044.5,1400.5 -1034.5,1400.5 -1084.5,1260.5 	"/>
	<polygon points="-1009.5,1330.5 -1019.5,1330.5 -1044.5,1400.5 -1034.5,1400.5 	"/>
	<polygon points="-1144.5,1400.5 -1094.5,1260.5 -1084.5,1260.5 -1134.5,1400.5 	"/>
	<polygon fill="#FFFFFF" points="-1038.786,1360.5 -1060.214,1300.5 -1070.214,1300.5 -1048.786,1360.5 	"/>
	<polygon fill="#FFFFFF" points="-1090.214,1300.5 -1068.786,1360.5 -1058.786,1360.5 -1080.214,1300.5 	"/>
	<polygon fill="#FFFFFF" points="-1139.5,1300.5 -1139.5,1302.5 -1118.786,1360.5 -1108.786,1360.5 -1130.214,1300.5 	"/>
	<polygon fill="#FFFFFF" points="-1120.214,1300.5 -1098.786,1360.5 -1088.786,1360.5 -1110.214,1300.5 	"/>
</g>
<rect x="-1239.5" y="880.5" width="300" height="300"/>
<g>
	<polygon fill="#FFFFFF" points="-1142.533,1076.462 -1008.183,1012.822 -1001.112,1019.893 -1135.462,1083.533 	"/>
	<polygon fill="#FFFFFF" points="-1146.069,973.931 -1138.997,981.003 -1071.822,949.183 -1078.893,942.112 	"/>
	<polygon fill="#FFFFFF" points="-1078.893,942.112 -1142.533,1076.462 -1135.462,1083.533 -1071.822,949.183 	"/>
	<polygon fill="#FFFFFF" points="-1043.538,977.467 -1107.178,1111.817 -1100.107,1118.888 -1036.467,984.538 	"/>
	<polygon fill="#FFFFFF" points="-1032.931,1087.069 -1040.003,1079.997 -1107.178,1111.817 -1100.107,1118.888 	"/>
	<polygon fill="#FFFFFF" points="-1177.888,1041.107 -1043.538,977.467 -1036.467,984.538 -1170.817,1048.178 	"/>
	<polygon points="-1074.853,1087.574 -1047.579,1029.995 -1054.65,1022.924 -1081.924,1080.503 	"/>
	<polygon points="-1068.792,1008.782 -1096.066,1066.36 -1088.995,1073.432 -1061.721,1015.853 	"/>
	<polygon points="-1103.642,973.931 -1105.056,975.346 -1131.421,1031.005 -1124.35,1038.076 -1097.076,980.497 	"/>
	<polygon points="-1090.005,987.568 -1117.279,1045.147 -1110.208,1052.218 -1082.934,994.64 	"/>
</g>
<rect x="600" y="-1300" fill="#FFE610" width="900" height="900"/>
	 <!-- Mountain make 20190918 - Chiou wen shan - 版權所有 邱文山 -->

<g>
	
		<rect x="954.435" y="-753.782" transform="matrix(-0.7071 -0.7071 0.7071 -0.7071 2138.5559 -509.2453)" fill="#2E58A6" width="18.75" height="112.499"/>
	
		<rect x="1166.564" y="-1018.946" transform="matrix(-0.7071 -0.7071 0.7071 -0.7071 2688.1819 -811.9121)" fill="#2E58A6" width="18.75" height="112.499"/>
	
		<rect x="914.661" y="-793.555" transform="matrix(-0.7071 -0.7071 0.7071 -0.7071 2098.7815 -605.2682)" fill="#2E58A6" width="18.75" height="112.499"/>
	
		<rect x="1126.789" y="-1058.72" transform="matrix(-0.7071 -0.7071 0.7071 -0.7071 2648.4075 -907.9349)" fill="#2E58A6" width="18.75" height="112.499"/>
	
		<rect x="874.413" y="-978.699" transform="matrix(-0.7071 -0.7071 0.7071 -0.7071 2274.156 -996.6612)" fill="#2E58A6" width="112.499" height="18.75"/>
	
		<rect x="907.558" y="-1011.845" transform="matrix(-0.7071 -0.7071 0.7071 -0.7071 2354.176 -1029.8083)" fill="#2E58A6" width="112.499" height="18.75"/>
	
		<rect x="841.268" y="-945.554" transform="matrix(-0.7071 -0.7071 0.7071 -0.7071 2194.137 -963.5161)" fill="#2E58A6" width="112.499" height="18.75"/>
	
		<rect x="1113.062" y="-740.054" transform="matrix(-0.7071 -0.7071 0.7071 -0.7071 2512.8076 -420.5192)" fill="#2E58A6" width="112.499" height="18.75"/>
	
		<rect x="1146.207" y="-773.199" transform="matrix(-0.7071 -0.7071 0.7071 -0.7071 2592.8264 -453.6641)" fill="#2E58A6" width="112.499" height="18.75"/>
	
		<rect x="1079.917" y="-706.908" transform="matrix(-0.7071 -0.7071 0.7071 -0.7071 2432.7876 -387.3721)" fill="#2E58A6" width="112.499" height="18.75"/>
	<polygon fill="#2E58A6" points="1059.375,-779.826 1059.375,-946.691 1050,-956.066 837.868,-743.934 851.126,-730.676 
		1040.625,-920.174 1040.625,-753.309 1050,-743.934 1262.132,-956.066 1248.874,-969.324 	"/>
	<path fill="#2E58A6" d="M1253.009-946.943l14.03-14.03c-2.941-5.749-6.144-11.395-9.572-16.944l-13.628,13.628
		C1247.18-958.622,1250.208-952.825,1253.009-946.943z"/>
	<path fill="#2E58A6" d="M890.901-1009.099c13.729-13.73,28.807-25.308,44.809-34.74l-13.628-13.628
		c-15.793,9.755-30.744,21.414-44.44,35.11c-66.487,66.487-86.471,161.81-60.082,245.697l15.195-15.195
		C812.803-866.913,832.142-950.34,890.901-1009.099z"/>
	<path fill="#2E58A6" d="M1209.099-1009.099c18.591,18.591,33.199,39.67,43.91,62.156l14.03-14.03
		c-11.311-22.112-26.173-42.875-44.682-61.384c-71.696-71.696-176.935-89.366-265.194-53.062l14.553,14.553
		C1051.618-1090.389,1145.024-1073.174,1209.099-1009.099z"/>
	<path fill="#2E58A6" d="M1209.099-690.901c-13.729,13.73-28.807,25.309-44.809,34.74l13.628,13.628
		c15.793-9.755,30.744-21.414,44.44-35.11c66.487-66.487,86.471-161.81,60.082-245.697l-15.195,15.195
		C1287.197-833.087,1267.858-749.66,1209.099-690.901z"/>
	<path fill="#2E58A6" d="M890.901-690.901c-18.591-18.591-33.199-39.67-43.91-62.156l-14.03,14.03
		c11.311,22.112,26.173,42.875,44.682,61.384c71.696,71.696,176.935,89.366,265.194,53.061l-14.553-14.553
		C1048.382-609.611,954.976-626.826,890.901-690.901z"/>
</g>
<g>
	
		<rect x="-42.829" y="1536.845" transform="matrix(-0.7071 -0.7071 0.7071 -0.7071 -1070.4318 2649.0527)" width="112.499" height="18.75"/>
	<polygon points="-50.125,1450.674 -50.125,1283.809 -59.5,1274.434 -271.632,1486.566 -258.374,1499.824 -68.875,1310.326 
		-68.875,1477.191 -59.5,1486.566 152.632,1274.434 139.374,1261.176 	"/>
	
		<rect x="-221.815" y="1238.538" transform="matrix(-0.7071 -0.7071 0.7071 -0.7071 -1165.046 2013.2474)" width="112.499" height="18.75"/>
	
		<rect x="-188.67" y="1205.393" transform="matrix(-0.7071 -0.7071 0.7071 -0.7071 -1085.0271 1980.1024)" width="112.499" height="18.75"/>
	
		<rect x="-254.961" y="1271.683" transform="matrix(-0.7071 -0.7071 0.7071 -0.7071 -1245.0668 2046.3929)" width="112.499" height="18.75"/>
	
		<rect x="-9.684" y="1503.7" transform="matrix(-0.7071 -0.7071 0.7071 -0.7071 -990.4128 2615.9077)" width="112.499" height="18.75"/>
	
		<rect x="23.462" y="1470.555" transform="matrix(-0.7071 -0.7071 0.7071 -0.7071 -910.392 2582.7622)" width="112.499" height="18.75"/>
	<path d="M-205.341,1208.143c13.73-13.73,28.807-25.309,44.809-34.74l-13.628-13.628c-15.793,9.755-30.744,21.414-44.44,35.11
		c-66.487,66.487-86.471,161.81-60.082,245.697l15.195-15.195C-283.439,1350.328-264.1,1266.902-205.341,1208.143z"/>
	<path d="M86.341,1552.857c-13.73,13.729-28.807,25.308-44.809,34.74l13.628,13.628c15.793-9.755,30.744-21.414,44.44-35.11
		c66.487-66.487,86.471-161.81,60.082-245.697l-15.195,15.195C164.439,1410.672,145.1,1494.098,86.341,1552.857z"/>
	
		<rect x="16.839" y="1265.058" transform="matrix(0.7071 -0.7071 0.7071 0.7071 -879.7529 424.9541)" width="112.499" height="18.75"/>
	
		<rect x="-16.307" y="1231.912" transform="matrix(0.7071 -0.7071 0.7071 0.7071 -866.0236 391.8085)" width="112.499" height="18.75"/>
	
		<rect x="-248.326" y="1477.192" transform="matrix(0.7071 -0.7071 0.7071 0.7071 -1107.4197 299.5871)" width="112.499" height="18.75"/>
	
		<rect x="-215.18" y="1510.338" transform="matrix(0.7071 -0.7071 0.7071 0.7071 -1121.149 332.7327)" width="112.499" height="18.75"/>
	<path d="M112.857,1234.659c13.729,13.73,25.308,28.807,34.74,44.809l13.628-13.628c-9.755-15.793-21.414-30.744-35.11-44.44
		c-66.487-66.487-161.81-86.471-245.697-60.082l15.195,15.195C-29.328,1156.561,54.098,1175.9,112.857,1234.659z"/>
	<path d="M-231.857,1526.341c-13.73-13.73-25.309-28.807-34.74-44.809l-13.628,13.628c9.755,15.793,21.414,30.744,35.11,44.44
		c66.487,66.487,161.81,86.471,245.697,60.082l-15.195-15.195C-89.672,1604.439-173.098,1585.1-231.857,1526.341z"/>
</g>
<g>
	<g>
		<rect x="-345.5" y="1706.5" width="2" height="48"/>
		<rect x="-368.5" y="1729.5" width="48" height="2"/>
	</g>
	<g>
		<rect x="-175.5" y="1706.5" width="2" height="48"/>
		<rect x="-198.5" y="1729.5" width="48" height="2"/>
	</g>
	<g>
		<rect x="4.5" y="1706.5" width="2" height="48"/>
		<rect x="-18.5" y="1729.5" width="48" height="2"/>
	</g>
	<g>
		<rect x="188.5" y="1706.5" width="2" height="48"/>
		<rect x="165.5" y="1729.5" width="48" height="2"/>
	</g>
	<g>
		<rect x="-279.5" y="1694.5" width="2" height="72"/>
		<g>
			<rect x="-279.5" y="1764.5" width="44" height="2"/>
			<rect x="-279.5" y="1694.5" width="44" height="2"/>
		</g>
		<rect x="-279.5" y="1729.5" width="36" height="2"/>
	</g>
	<g>
		<g>
			<line x1="-109.5" y1="1766.5" x2="-55.5" y2="1694.5"/>
			
				<rect x="-83.5" y="1685.5" transform="matrix(0.8001 0.5998 -0.5998 0.8001 1021.5391 395.3846)" width="1.999" height="89.999"/>
		</g>
		<g>
			<line x1="-55.5" y1="1766.5" x2="-109.5" y2="1694.5"/>
			<rect x="-127.5" y="1729.5" transform="matrix(0.6 0.8 -0.8 0.6 1351.4082 758.2128)" width="89.999" height="1.999"/>
		</g>
	</g>
	<polygon points="128.5,1696.5 128.5,1694.5 70.5,1694.5 70.5,1696.5 98.5,1696.5 98.5,1766.5 100.5,1766.5 100.5,1696.5 	"/>
	<g>
		<path d="M295.5,1687.5c23.71,0,43,19.29,43,43s-19.29,43-43,43s-43-19.29-43-43S271.79,1687.5,295.5,1687.5 M295.5,1685.5
			c-24.853,0-45,20.147-45,45s20.147,45,45,45s45-20.147,45-45S320.353,1685.5,295.5,1685.5L295.5,1685.5z"/>
		<path d="M311.5,1714.5v32h-32v-32H311.5 M313.5,1712.5h-36v36h36V1712.5L313.5,1712.5z"/>
	</g>
	<polygon points="-405.5,1694.5 -407.5,1694.5 -407.5,1763.338 -455.873,1694.5 -459.5,1694.5 -459.5,1766.5 -457.5,1766.5 
		-457.5,1695.662 -407.722,1766.5 -405.5,1766.5 	"/>
</g>
<g>
	<g>
		<rect x="227.5" y="861" width="1" height="24"/>
		<rect x="216" y="872.5" width="24" height="1"/>
	</g>
	<g>
		<rect x="312.5" y="861" width="1" height="24"/>
		<rect x="301" y="872.5" width="24" height="1"/>
	</g>
	<g>
		<rect x="402.5" y="861" width="1" height="24"/>
		<rect x="391" y="872.5" width="24" height="1"/>
	</g>
	<g>
		<rect x="494.5" y="861" width="1" height="24"/>
		<rect x="483" y="872.5" width="24" height="1"/>
	</g>
	<g>
		<rect x="260.5" y="855" width="1" height="36"/>
		<g>
			<rect x="260.5" y="890" width="22" height="1"/>
			<rect x="260.5" y="855" width="22" height="1"/>
		</g>
		<rect x="260.5" y="872.5" width="18" height="1"/>
	</g>
	<g>
		<g>
			<line x1="345.5" y1="891" x2="372.5" y2="855"/>
			<rect x="358.5" y="850.5" transform="matrix(0.8001 0.5998 -0.5998 0.8001 595.4214 -40.8461)" width="1" height="45"/>
		</g>
		<g>
			<line x1="372.5" y1="891" x2="345.5" y2="855"/>
			<rect x="336.5" y="872.5" transform="matrix(0.6 0.8 -0.8 0.6 842.007 62.0044)" width="45" height="1"/>
		</g>
	</g>
	<polygon points="464.5,856 464.5,855 435.5,855 435.5,856 449.5,856 449.5,891 450.5,891 450.5,856 	"/>
	<g>
		<path d="M548,851.5c11.855,0,21.5,9.645,21.5,21.5s-9.645,21.5-21.5,21.5s-21.5-9.645-21.5-21.5S536.145,851.5,548,851.5
			 M548,850.5c-12.426,0-22.5,10.074-22.5,22.5s10.074,22.5,22.5,22.5s22.5-10.074,22.5-22.5S560.426,850.5,548,850.5L548,850.5z"/>
		<path d="M556,865v16h-16v-16H556 M557,864h-18v18h18V864L557,864z"/>
	</g>
	<polygon points="197.5,855 196.5,855 196.5,889.419 172.314,855 170.5,855 170.5,891 171.5,891 171.5,855.581 196.389,891 
		197.5,891 	"/>
</g>
</svg>
