<?xml version="1.0" encoding="utf-8"?>
<!-- Generator: Adobe Illustrator 17.0.0, SVG Export Plug-In . SVG Version: 6.00 Build 0)  -->
<!DOCTYPE svg PUBLIC "-//W3C//DTD SVG 1.1//EN" "http://www.w3.org/Graphics/SVG/1.1/DTD/svg11.dtd">
<svg version="1.1" id="圖層_1" xmlns="http://www.w3.org/2000/svg" xmlns:xlink="http://www.w3.org/1999/xlink" x="0px" y="0px"
	 width="150px" height="150px" viewBox="0 0 150 150" enable-background="new 0 0 150 150" xml:space="preserve">
<g>
	<path fill="#2E58A6" d="M0,10h25c31.182,0,60.422,7.039,82.334,19.821C128.398,42.109,140,58.154,140,75
		s-11.602,32.891-32.666,45.179c-4.494,2.622-9.311,4.987-14.374,7.114c5.898,1.029,11.987,1.753,18.199,2.198
		c0.401-0.228,0.817-0.443,1.213-0.674C136.637,114.662,150,95.55,150,75s-13.363-39.662-37.628-53.816
		c-7.51-4.381-15.815-8.116-24.706-11.184H150V0H0V10z"/>
	<path fill="#2E58A6" d="M37.628,21.184C13.363,35.338,0,54.45,0,75s13.363,39.662,37.628,53.816
		c7.51,4.381,15.815,8.116,24.706,11.184H0v10h150v-10h-25c-31.182,0-60.422-7.039-82.334-19.821C21.602,107.891,10,91.846,10,75
		s11.602-32.891,32.666-45.179c4.494-2.622,9.311-4.987,14.374-7.114c-5.898-1.029-11.987-1.753-18.199-2.198
		C38.44,20.737,38.024,20.952,37.628,21.184z"/>
	<path fill="#2E58A6" d="M82.947,55.332l11.722,27.615L67.053,94.668L55.332,67.053L82.947,55.332 M88.245,42.219l-9.205,3.907
		L51.424,57.848l-9.205,3.907l3.907,9.205l11.722,27.615l3.907,9.205l9.205-3.907l27.615-11.722l9.205-3.907l-3.907-9.205
		L92.152,51.424L88.245,42.219L88.245,42.219z"/>
</g>
</svg>
