<?xml version="1.0" encoding="utf-8"?>
<!-- Generator: Adobe Illustrator 17.0.0, SVG Export Plug-In . SVG Version: 6.00 Build 0)  -->
<!DOCTYPE svg PUBLIC "-//W3C//DTD SVG 1.1//EN" "http://www.w3.org/Graphics/SVG/1.1/DTD/svg11.dtd">
<svg version="1.1" id="圖層_1" xmlns="http://www.w3.org/2000/svg" xmlns:xlink="http://www.w3.org/1999/xlink" x="0px" y="0px"
	 width="900px" height="900px" viewBox="0 0 900 900" enable-background="new 0 0 900 900" xml:space="preserve">
<g>
	<g>
		<rect x="333.75" y="783.75" fill="#DFDFDF" width="56.25" height="7.5"/>
		<polygon fill="#DFDFDF" points="337.5,761.25 397.5,761.25 397.5,753.75 330,753.75 330,821.25 397.5,821.25 397.5,813.75 
			337.5,813.75 		"/>
	</g>
	<g>
		
			<rect x="488.52" y="783.75" transform="matrix(0.7071 0.7071 -0.7071 0.7071 713.9106 -148.5326)" fill="#DFDFDF" width="95.459" height="7.499"/>
		
			<rect x="532.5" y="739.77" transform="matrix(0.7071 0.7071 -0.7071 0.7071 713.9106 -148.5326)" fill="#DFDFDF" width="7.499" height="95.459"/>
	</g>
	<g>
		<rect x="675" y="753.75" fill="#DFDFDF" width="67.5" height="7.5"/>
		<rect x="705" y="757.5" fill="#DFDFDF" width="7.5" height="63.75"/>
	</g>
	<polygon fill="#DFDFDF" points="225,753.75 217.5,753.75 217.5,811.388 166.266,753.75 157.5,753.75 157.5,821.25 165,821.25 
		165,763.612 216.234,821.25 225,821.25 	"/>
</g>
<path fill="#DFDFDF" d="M290.901,272.151c18.591-18.591,39.67-33.199,62.156-43.91l-14.03-14.03
	c-22.112,11.311-42.875,26.173-61.384,44.682c-71.696,71.696-89.366,176.935-53.062,265.194l14.553-14.553
	C209.611,429.632,226.826,336.226,290.901,272.151z"/>
<path fill="#DFDFDF" d="M609.099,590.349c-18.591,18.591-39.67,33.199-62.156,43.91l14.03,14.03
	c22.112-11.311,42.875-26.173,61.384-44.682c71.696-71.696,89.366-176.935,53.061-265.194l-14.553,14.553
	C690.389,432.868,673.174,526.274,609.099,590.349z"/>
<path fill="#DFDFDF" d="M290.901,590.349c-18.591-18.591-33.199-39.67-43.91-62.156l-14.03,14.03
	c11.311,22.112,26.173,42.875,44.682,61.384c71.696,71.696,176.935,89.366,265.194,53.061l-14.553-14.553
	C448.382,671.639,354.976,654.424,290.901,590.349z"/>
<rect x="367.705" y="540.728" transform="matrix(0.7071 0.7071 -0.7071 0.7071 532.5714 -91.7847)" fill="#DFDFDF" width="18.75" height="112.5"/>
<rect x="559.949" y="255.676" transform="matrix(0.7071 0.7071 -0.7071 0.7071 387.316 -311.2121)" fill="#DFDFDF" width="18.75" height="112.5"/>
<rect x="321.301" y="494.324" transform="matrix(0.7071 0.7071 -0.7071 0.7071 486.1675 -72.5636)" fill="#DFDFDF" width="18.75" height="112.5"/>
<rect x="513.545" y="209.272" transform="matrix(0.7071 0.7071 -0.7071 0.7071 340.9122 -291.991)" fill="#DFDFDF" width="18.75" height="112.5"/>
<rect x="274.426" y="302.551" transform="matrix(0.7071 0.7071 -0.7071 0.7071 317.4175 -142.4621)" fill="#DFDFDF" width="112.5" height="18.75"/>
<rect x="320.83" y="256.147" transform="matrix(0.7071 0.7071 -0.7071 0.7071 298.1964 -188.866)" fill="#DFDFDF" width="112.5" height="18.75"/>
<rect x="228.022" y="348.955" transform="matrix(0.7071 0.7071 -0.7071 0.7071 336.6386 -96.0582)" fill="#DFDFDF" width="112.5" height="18.75"/>
<rect x="513.074" y="541.199" transform="matrix(0.7071 0.7071 -0.7071 0.7071 556.066 -241.3136)" fill="#DFDFDF" width="112.5" height="18.75"/>
<rect x="559.478" y="494.795" transform="matrix(0.7071 0.7071 -0.7071 0.7071 536.8449 -287.7175)" fill="#DFDFDF" width="112.5" height="18.75"/>
<rect x="466.67" y="587.603" transform="matrix(0.7071 0.7071 -0.7071 0.7071 575.2872 -194.9097)" fill="#DFDFDF" width="112.5" height="18.75"/>
<path fill="#DFDFDF" d="M609.099,272.151c9.037,9.037,17.089,18.685,24.265,28.768l13.476-13.476
	c-7.31-9.979-15.464-19.533-24.482-28.551c-71.696-71.696-176.935-89.366-265.194-53.062l14.553,14.553
	C451.618,190.861,545.024,208.076,609.099,272.151z"/>
<polygon fill="#DFDFDF" points="459.375,501.424 459.375,334.559 450,325.184 237.868,537.316 251.126,550.574 440.625,361.076 
	440.625,527.941 450,537.316 662.132,325.184 648.874,311.926 "/>
<path fill="#DFDFDF" d="M653.009,334.307l14.03-14.03c-2.941-5.749-6.144-11.395-9.572-16.944l-13.628,13.628
	C647.18,322.628,650.208,328.425,653.009,334.307z"/>
</svg>
