<?xml version="1.0" encoding="utf-8"?>
<!-- Generator: Adobe Illustrator 17.0.0, SVG Export Plug-In . SVG Version: 6.00 Build 0)  -->
<!DOCTYPE svg PUBLIC "-//W3C//DTD SVG 1.1//EN" "http://www.w3.org/Graphics/SVG/1.1/DTD/svg11.dtd">
<svg version="1.1" id="圖層_1" xmlns="http://www.w3.org/2000/svg" xmlns:xlink="http://www.w3.org/1999/xlink" x="0px" y="0px"
	 width="900px" height="900px" viewBox="-509.5 930.5 900 900" enable-background="new -509.5 930.5 900 900" xml:space="preserve">
<g>
	
		<rect x="-42.838" y="1536.856" transform="matrix(0.7071 0.7071 -0.7071 0.7071 1097.2783 443.3978)" width="112.498" height="18.75"/>
	<polygon points="-50.125,1450.674 -50.125,1283.809 -59.5,1274.434 -271.632,1486.566 -258.374,1499.824 -68.875,1310.326 
		-68.875,1477.191 -59.5,1486.566 152.632,1274.434 139.374,1261.176 	"/>
	
		<rect x="-221.824" y="1238.545" transform="matrix(0.7071 0.7071 -0.7071 0.7071 833.9165 482.5867)" width="112.498" height="18.75"/>
	
		<rect x="-188.679" y="1205.4" transform="matrix(0.7071 0.7071 -0.7071 0.7071 820.1874 449.4415)" width="112.498" height="18.75"/>
	
		<rect x="-254.971" y="1271.691" transform="matrix(0.7071 0.7071 -0.7071 0.7071 847.6461 515.733)" width="112.498" height="18.75"/>
	
		<rect x="-9.693" y="1503.711" transform="matrix(0.7071 0.7071 -0.7071 0.7071 1083.5493 410.2526)" width="112.498" height="18.75"/>
	
		<rect x="23.453" y="1470.565" transform="matrix(0.7071 0.7071 -0.7071 0.7071 1069.8197 377.1062)" width="112.498" height="18.75"/>
	<path d="M-205.341,1208.143c13.73-13.73,28.807-25.309,44.809-34.74l-13.628-13.628c-15.793,9.755-30.744,21.414-44.44,35.11
		c-66.487,66.487-86.471,161.81-60.082,245.697l15.195-15.195C-283.439,1350.328-264.1,1266.902-205.341,1208.143z"/>
	<path d="M86.341,1552.857c-13.73,13.729-28.807,25.308-44.809,34.74l13.628,13.628c15.793-9.755,30.744-21.414,44.44-35.11
		c66.487-66.487,86.471-161.81,60.082-245.697l-15.195,15.195C164.439,1410.672,145.1,1494.098,86.341,1552.857z"/>
	
		<rect x="16.831" y="1265.05" transform="matrix(-0.7071 0.7071 -0.7071 -0.7071 1025.9088 2123.9041)" width="112.498" height="18.75"/>
	
		<rect x="-16.315" y="1231.904" transform="matrix(-0.7071 0.7071 -0.7071 -0.7071 945.888 2090.7585)" width="112.498" height="18.75"/>
	
		<rect x="-248.334" y="1477.181" transform="matrix(-0.7071 0.7071 -0.7071 -0.7071 723.2433 2673.5347)" width="112.498" height="18.75"/>
	
		<rect x="-215.189" y="1510.327" transform="matrix(-0.7071 0.7071 -0.7071 -0.7071 803.2641 2706.6802)" width="112.498" height="18.75"/>
	<path d="M112.857,1234.659c13.729,13.73,25.308,28.807,34.74,44.809l13.628-13.628c-9.755-15.793-21.414-30.744-35.11-44.44
		c-66.487-66.487-161.81-86.471-245.697-60.082l15.195,15.195C-29.328,1156.561,54.098,1175.9,112.857,1234.659z"/>
	<path d="M-231.857,1526.341c-13.73-13.73-25.309-28.807-34.74-44.809l-13.628,13.628c9.755,15.793,21.414,30.744,35.11,44.44
		c66.487,66.487,161.81,86.471,245.697,60.082l-15.195-15.195C-89.672,1604.439-173.098,1585.1-231.857,1526.341z"/>
</g>
<g>
	<g>
		<rect x="-345.5" y="1706.5" width="2" height="48"/>
		<rect x="-368.5" y="1729.5" width="48" height="2"/>
	</g>
	<g>
		<rect x="-175.5" y="1706.5" width="2" height="48"/>
		<rect x="-198.5" y="1729.5" width="48" height="2"/>
	</g>
	<g>
		<rect x="4.5" y="1706.5" width="2" height="48"/>
		<rect x="-18.5" y="1729.5" width="48" height="2"/>
	</g>
	<g>
		<rect x="188.5" y="1706.5" width="2" height="48"/>
		<rect x="165.5" y="1729.5" width="48" height="2"/>
	</g>
	<g>
		<rect x="-279.5" y="1694.5" width="2" height="72"/>
		<g>
			<rect x="-279.5" y="1764.5" width="44" height="2"/>
			<rect x="-279.5" y="1694.5" width="44" height="2"/>
		</g>
		<rect x="-279.5" y="1729.5" width="36" height="2"/>
	</g>
	<g>
		<g>
			<line fill="none" x1="-109.5" y1="1766.5" x2="-55.5" y2="1694.5"/>
			
				<rect x="-83.423" y="1685.476" transform="matrix(-0.8001 -0.5998 0.5998 -0.8001 -1186.3521 3065.6414)" width="1.999" height="89.995"/>
		</g>
		<g>
			<line fill="none" x1="-55.5" y1="1766.5" x2="-109.5" y2="1694.5"/>
			<rect x="-127.491" y="1729.513" transform="matrix(-0.6 -0.8 0.8 -0.6 -1516.3965 2702.8262)" width="89.999" height="1.999"/>
		</g>
	</g>
	<polygon points="128.5,1696.5 128.5,1694.5 70.5,1694.5 70.5,1696.5 98.5,1696.5 98.5,1766.5 100.5,1766.5 100.5,1696.5 	"/>
	<g>
		<path d="M295.5,1687.5c23.71,0,43,19.29,43,43s-19.29,43-43,43s-43-19.29-43-43S271.79,1687.5,295.5,1687.5 M295.5,1685.5
			c-24.853,0-45,20.147-45,45s20.147,45,45,45s45-20.147,45-45S320.353,1685.5,295.5,1685.5L295.5,1685.5z"/>
		<path d="M311.5,1714.5v32h-32v-32H311.5 M313.5,1712.5h-36v36h36V1712.5L313.5,1712.5z"/>
	</g>
	<polygon points="-405.5,1694.5 -407.5,1694.5 -407.5,1763.338 -455.873,1694.5 -459.5,1694.5 -459.5,1766.5 -457.5,1766.5 
		-457.5,1695.662 -407.722,1766.5 -405.5,1766.5 	"/>
</g>
</svg>
