<?xml version="1.0" encoding="utf-8"?>
<!-- Generator: Adobe Illustrator 17.0.0, SVG Export Plug-In . SVG Version: 6.00 Build 0)  -->
<!DOCTYPE svg PUBLIC "-//W3C//DTD SVG 1.1//EN" "http://www.w3.org/Graphics/SVG/1.1/DTD/svg11.dtd">
<svg version="1.1" id="圖層_1" xmlns="http://www.w3.org/2000/svg" xmlns:xlink="http://www.w3.org/1999/xlink" x="0px" y="0px"
	 width="900px" height="900px" viewBox="0 0 900 900" enable-background="new 0 0 900 900" xml:space="preserve">
<rect x="1048.448" y="217.489" fill="#2E58A6" width="900" height="900"/>
<g>
	<g>
		<rect x="1382.198" y="1001.239" fill="#FFE610" width="56.25" height="7.5"/>
		<polygon fill="#FFE610" points="1385.948,978.739 1445.948,978.739 1445.948,971.239 1378.448,971.239 1378.448,1038.739 
			1445.948,1038.739 1445.948,1031.239 1385.948,1031.239 		"/>
	</g>
	<g>
		
			<rect x="1536.968" y="1001.24" transform="matrix(0.7071 0.7071 -0.7071 0.7071 1174.7819 -826.1959)" fill="#FFE610" width="95.459" height="7.499"/>
		
			<rect x="1580.948" y="957.259" transform="matrix(0.7071 0.7071 -0.7071 0.7071 1174.7819 -826.1959)" fill="#FFE610" width="7.499" height="95.459"/>
	</g>
	<g>
		<rect x="1723.448" y="971.239" fill="#FFE610" width="67.5" height="7.5"/>
		<rect x="1753.448" y="974.989" fill="#FFE610" width="7.5" height="63.75"/>
	</g>
	<polygon fill="#FFE610" points="1273.448,971.239 1265.948,971.239 1265.948,1028.877 1214.714,971.239 1205.948,971.239 
		1205.948,1038.739 1213.448,1038.739 1213.448,981.101 1264.682,1038.739 1273.448,1038.739 	"/>
</g>
<g>
	<path fill="#FFE610" d="M1339.349,489.64c18.591-18.591,39.67-33.199,62.156-43.91l-14.03-14.03
		c-22.112,11.311-42.875,26.173-61.384,44.682c-71.696,71.696-89.366,176.935-53.062,265.194l14.553-14.553
		C1258.058,647.121,1275.273,553.715,1339.349,489.64z"/>
	<path fill="#FFE610" d="M1657.547,807.838c-18.591,18.591-39.67,33.199-62.156,43.91l14.03,14.03
		c22.112-11.311,42.875-26.173,61.384-44.682c71.696-71.696,89.366-176.935,53.062-265.193l-14.553,14.553
		C1738.837,650.357,1721.622,743.763,1657.547,807.838z"/>
	<path fill="#FFE610" d="M1339.349,807.838c-18.591-18.591-33.199-39.67-43.91-62.156l-14.03,14.03
		c11.311,22.112,26.173,42.875,44.682,61.384c71.696,71.696,176.935,89.366,265.194,53.062l-14.553-14.553
		C1496.83,889.128,1403.424,871.913,1339.349,807.838z"/>
	
		<rect x="1416.152" y="758.217" transform="matrix(0.7071 0.7071 -0.7071 0.7071 993.4426 -769.4481)" fill="#FFE610" width="18.75" height="112.5"/>
	
		<rect x="1608.397" y="473.165" transform="matrix(0.7071 0.7071 -0.7071 0.7071 848.1873 -988.8754)" fill="#FFE610" width="18.75" height="112.5"/>
	
		<rect x="1369.748" y="711.813" transform="matrix(0.7071 0.7071 -0.7071 0.7071 947.0388 -750.227)" fill="#FFE610" width="18.75" height="112.5"/>
	
		<rect x="1561.993" y="426.761" transform="matrix(0.7071 0.7071 -0.7071 0.7071 801.7834 -969.6544)" fill="#FFE610" width="18.75" height="112.5"/>
	
		<rect x="1322.873" y="520.04" transform="matrix(0.7071 0.7071 -0.7071 0.7071 778.2888 -820.1255)" fill="#FFE610" width="112.5" height="18.75"/>
	
		<rect x="1369.277" y="473.636" transform="matrix(0.7071 0.7071 -0.7071 0.7071 759.0676 -866.5294)" fill="#FFE610" width="112.5" height="18.75"/>
	
		<rect x="1276.469" y="566.444" transform="matrix(0.7071 0.7071 -0.7071 0.7071 797.5098 -773.7216)" fill="#FFE610" width="112.5" height="18.75"/>
	
		<rect x="1561.522" y="758.688" transform="matrix(0.7071 0.7071 -0.7071 0.7071 1016.9373 -918.9769)" fill="#FFE610" width="112.5" height="18.75"/>
	
		<rect x="1607.926" y="712.284" transform="matrix(0.7071 0.7071 -0.7071 0.7071 997.7161 -965.3808)" fill="#FFE610" width="112.5" height="18.75"/>
	
		<rect x="1515.118" y="805.092" transform="matrix(0.7071 0.7071 -0.7071 0.7071 1036.1584 -872.5731)" fill="#FFE610" width="112.5" height="18.75"/>
	<path fill="#FFE610" d="M1657.547,489.64c9.037,9.037,17.089,18.685,24.265,28.768l13.476-13.476
		c-7.31-9.979-15.464-19.533-24.482-28.551c-71.696-71.696-176.935-89.366-265.194-53.061l14.553,14.553
		C1500.065,408.35,1593.471,425.565,1657.547,489.64z"/>
	<polygon fill="#FFE610" points="1507.823,718.913 1507.823,552.048 1498.448,542.673 1286.316,754.805 1299.574,768.063 
		1489.072,578.565 1489.073,745.43 1498.448,754.805 1710.58,542.673 1697.321,529.415 	"/>
	<path fill="#FFE610" d="M1701.457,551.796l14.03-14.03c-2.941-5.749-6.144-11.395-9.572-16.944l-13.628,13.628
		C1695.627,540.117,1698.656,545.914,1701.457,551.796z"/>
</g>
<rect x="-1100" y="600" width="300" height="300"/>
<rect x="-1400" y="600" fill="#FFFFFF" width="300" height="300"/>
<g>
	<rect x="-1237.5" y="787.5" width="6.25" height="37.5"/>
	<rect x="-1250" y="675" width="6.25" height="37.5"/>
	<rect x="-1256.25" y="787.5" width="6.25" height="37.5"/>
	<rect x="-1268.75" y="675" width="6.25" height="37.5"/>
	<rect x="-1325" y="746.875" width="37.5" height="6.25"/>
	<rect x="-1325" y="731.25" width="37.5" height="6.25"/>
	<rect x="-1325" y="762.5" width="37.5" height="6.25"/>
	<rect x="-1212.5" y="746.875" width="37.5" height="6.25"/>
	<rect x="-1212.5" y="731.25" width="37.5" height="6.25"/>
	<rect x="-1212.5" y="762.5" width="37.5" height="6.25"/>
	<polygon points="-1231.25,764.33 -1270.58,725 -1275,725 -1275,825 -1268.75,825 -1268.75,735.67 -1229.419,775 -1225,775 
		-1225,675 -1231.25,675 	"/>
	<path d="M-1225,679.301v-6.614c-2.048-0.662-4.134-1.238-6.25-1.738v6.424C-1229.127,677.922-1227.047,678.575-1225,679.301z"/>
	<path d="M-1325,750c0-6.472,0.825-12.755,2.373-18.75h-6.424c-1.423,6.022-2.199,12.294-2.199,18.75
		c0,31.342,17.758,58.521,43.75,72.073v-7.163C-1309.894,801.921-1325,777.699-1325,750z"/>
	<path d="M-1250,675c8.764,0,17.175,1.525,25,4.301v-6.614c-7.878-2.546-16.275-3.937-25-3.937c-33.798,0-62.768,20.64-75.013,50
		h6.86C-1306.279,692.958-1280.205,675-1250,675z"/>
	<path d="M-1175,750c0,6.472-0.825,12.755-2.373,18.75h6.424c1.423-6.022,2.199-12.294,2.199-18.75
		c0-31.342-17.758-58.521-43.75-72.073v7.163C-1190.106,698.079-1175,722.301-1175,750z"/>
	<path d="M-1250,825c-8.764,0-17.175-1.525-25-4.301v6.614c7.878,2.546,16.275,3.937,25,3.937c33.798,0,62.768-20.64,75.013-50
		h-6.86C-1193.721,807.042-1219.795,825-1250,825z"/>
</g>
<g>
	
		<rect x="-981.851" y="782.073" transform="matrix(0.7071 0.7071 -0.7071 0.7071 279.6053 926.6197)" fill="#FFFFFF" width="6.25" height="37.5"/>
	
		<rect x="-911.141" y="693.685" transform="matrix(0.7071 0.7071 -0.7071 0.7071 237.816 850.7313)" fill="#FFFFFF" width="6.25" height="37.5"/>
	
		<rect x="-995.109" y="768.815" transform="matrix(0.7071 0.7071 -0.7071 0.7071 266.3471 932.1114)" fill="#FFFFFF" width="6.25" height="37.5"/>
	
		<rect x="-924.399" y="680.427" transform="matrix(0.7071 0.7071 -0.7071 0.7071 224.5577 856.2231)" fill="#FFFFFF" width="6.25" height="37.5"/>
	
		<rect x="-1008.525" y="707.1" transform="matrix(0.7071 0.7071 -0.7071 0.7071 212.3067 907.8966)" fill="#FFFFFF" width="37.5" height="6.25"/>
	
		<rect x="-997.476" y="696.052" transform="matrix(0.7071 0.7071 -0.7071 0.7071 207.7303 896.8481)" fill="#FFFFFF" width="37.5" height="6.25"/>
	
		<rect x="-1019.573" y="718.149" transform="matrix(0.7071 0.7071 -0.7071 0.7071 216.8832 918.9452)" fill="#FFFFFF" width="37.5" height="6.25"/>
	
		<rect x="-928.975" y="786.65" transform="matrix(0.7071 0.7071 -0.7071 0.7071 291.8563 874.9461)" fill="#FFFFFF" width="37.5" height="6.25"/>
	
		<rect x="-917.927" y="775.601" transform="matrix(0.7071 0.7071 -0.7071 0.7071 287.2798 863.8976)" fill="#FFFFFF" width="37.5" height="6.25"/>
	
		<rect x="-940.024" y="797.698" transform="matrix(0.7071 0.7071 -0.7071 0.7071 296.4327 885.9947)" fill="#FFFFFF" width="37.5" height="6.25"/>
	<polygon fill="#FFFFFF" points="-946.875,773.391 -946.875,717.77 -950,714.645 -1020.711,785.355 -1016.291,789.775 
		-953.125,726.609 -953.125,782.23 -950,785.355 -879.289,714.645 -883.709,710.225 	"/>
	<path fill="#FFFFFF" d="M-882.33,717.686l4.677-4.677c-0.98-1.916-2.048-3.798-3.191-5.648l-4.543,4.543
		C-884.273,713.792-883.264,715.725-882.33,717.686z"/>
	<path fill="#FFFFFF" d="M-1003.033,696.967c4.577-4.576,9.602-8.436,14.936-11.58l-4.543-4.543
		c-5.264,3.252-10.248,7.138-14.813,11.703c-22.162,22.162-28.824,53.937-20.027,81.899l5.065-5.065
		C-1029.066,744.362-1022.619,716.553-1003.033,696.967z"/>
	<path fill="#FFFFFF" d="M-896.967,696.967c6.197,6.197,11.066,13.223,14.637,20.719l4.677-4.677
		c-3.77-7.371-8.724-14.292-14.894-20.461c-23.899-23.898-58.978-29.789-88.398-17.687l4.851,4.851
		C-949.461,669.87-918.325,675.609-896.967,696.967z"/>
	<path fill="#FFFFFF" d="M-896.967,803.033c-4.577,4.576-9.602,8.436-14.936,11.58l4.543,4.543
		c5.264-3.252,10.248-7.138,14.813-11.703c22.162-22.162,28.824-53.937,20.027-81.899l-5.065,5.065
		C-870.934,755.638-877.381,783.447-896.967,803.033z"/>
	<path fill="#FFFFFF" d="M-1003.033,803.033c-6.197-6.197-11.066-13.223-14.637-20.719l-4.677,4.677
		c3.77,7.371,8.724,14.292,14.894,20.461c23.899,23.898,58.978,29.789,88.398,17.687l-4.851-4.851
		C-950.539,830.13-981.675,824.391-1003.033,803.033z"/>
</g>
<rect x="-1400" y="900" width="300" height="300"/>
<g>
	<path fill="#FFFFFF" d="M-1177.654,1030.258l-6.202,6.202c0.893,4.409,1.356,8.938,1.357,13.54c0,18.03-7.021,34.981-19.77,47.73
		c-12.749,12.749-29.7,19.77-47.73,19.77c-18.03,0-34.981-7.021-47.73-19.77c-12.749-12.749-19.77-29.7-19.77-47.73
		c0-18.03,7.021-34.981,19.77-47.73c12.748-12.747,29.698-19.769,47.73-19.77l0.005-7.5c-0.002,0-0.004,0-0.006,0
		c-19.192,0.002-38.39,7.324-53.033,21.967c-29.289,29.289-29.289,76.777,0,106.066c14.645,14.645,33.839,21.967,53.033,21.967
		c19.194,0,38.388-7.322,53.033-21.967C-1177.252,1083.318-1170.829,1055.363-1177.654,1030.258z"/>
	<path fill="#FFFFFF" d="M-1249.993,982.5c18.026,0,34.974,7.021,47.723,19.77c3.54,3.54,6.62,7.413,9.25,11.534l5.421-5.421
		c-2.693-4.029-5.81-7.859-9.367-11.417c-14.645-14.645-33.832-21.967-53.027-21.967L-1249.993,982.5L-1249.993,982.5z"/>
	<path fill="#FFFFFF" d="M-1238.75,996.753l-69.128,69.128c0.732,2.683,1.661,5.301,2.759,7.847l58.87-58.87v52.174l7.499-7.499
		V996.753z"/>
	<polygon fill="#FFFFFF" points="-1253.751,1085.141 -1253.751,1032.967 -1261.25,1040.466 -1261.25,1103.247 -1175.969,1017.965 
		-1181.272,1012.662 	"/>
</g>
<rect x="-1100" y="900" fill="#FFFFFF" width="300" height="300"/>
<g>
	<path d="M-912.804,984.884v8.771c3.749,2.486,7.28,5.361,10.533,8.615c12.749,12.749,19.77,29.7,19.77,47.73
		c0,18.03-7.021,34.98-19.771,47.73c-12.749,12.749-29.7,19.77-47.729,19.77s-34.981-7.021-47.73-19.77
		c-12.749-12.749-19.77-29.7-19.77-47.73c0-18.028,7.021-34.979,19.771-47.73l-5.299-5.307c-0.001,0.002-0.003,0.003-0.004,0.004
		c-13.57,13.572-21.967,32.325-21.967,53.033c0,41.421,33.578,75,75,75c20.711,0,39.461-8.395,53.033-21.967
		C-883.395,1089.461-875,1070.711-875,1050C-875,1022.119-890.225,997.81-912.804,984.884z"/>
	<path d="M-997.725,1002.265C-984.979,989.519-968.03,982.5-950,982.5c5.006,0,9.923,0.561,14.696,1.615v-7.667
		C-940.057,975.504-944.969,975-950,975c-20.711,0-39.456,8.39-53.029,21.963L-997.725,1002.265L-997.725,1002.265z"/>
	<path d="M-979.696,1004.394v97.762c2.415,1.379,4.923,2.573,7.5,3.598v-83.254l36.893,36.893v-10.605L-979.696,1004.394z"/>
	<polygon points="-927.804,1077.501 -964.696,1040.608 -964.696,1051.214 -920.304,1095.606 -920.304,975 -927.804,975 	"/>
</g>
<rect x="-800" y="600" fill="#FFFFFF" width="300" height="300"/>
<g>
	<polygon points="-622,675 -628,675 -628,709.271 -622,715.271 	"/>
	<polygon points="-628,817.758 -720.758,725 -728,725 -728,775 -722,775 -722,732.242 -629.242,825 -622,825 -622,740.729 
		-628,734.729 	"/>
	<polygon points="-578,725 -578,767.758 -670.758,675 -678,675 -678,759.271 -672,765.271 -672,682.242 -579.242,775 -572,775 
		-572,725 	"/>
	<polygon points="-678,825 -672,825 -672,790.729 -678,784.729 	"/>
</g>
<rect x="-1400" y="1200" fill="#FFFFFF" width="300" height="300"/>
<path d="M-1202,1387.242l22.758,22.758h7.242v-120h-6v112.758l-9-9V1290h-6v97.758l-9-9V1290h-6v82.758l-82.758-82.758H-1298v22.758
	l-22.758-22.758H-1328v120h6v-112.758l9,9V1410h6v-97.758l9,9V1410h6v-82.758l82.758,82.758h7.242V1387.242z M-1208,1402.758l-84-84
	v-21.516l84,84V1402.758z"/>
<rect x="-1100" y="1200" width="300" height="300"/>
<path fill="#FFFFFF" d="M-942.393,1410.275v32.184l5.121,5.121l84.853-84.853l-4.243-4.243l-79.732,79.732v-12.728l73.368-73.368
	l-4.243-4.243l-69.125,69.125v-12.728l62.761-62.761l-4.243-4.243l-58.519,58.519v-117.037l-5.121-5.121l-16.092,16.092v-32.184
	l-5.121-5.121l-84.853,84.853l4.243,4.243l79.732-79.732v12.728l-73.368,73.368l4.243,4.243l69.125-69.125v12.728l-62.761,62.761
	l4.243,4.243l58.519-58.519v117.037l5.121,5.121L-942.393,1410.275z M-957.607,1417.004V1298.21l15.214-15.214v118.794
	L-957.607,1417.004z"/>
<rect x="-800" y="1200" fill="#FFFFFF" width="300" height="300"/>
<g>
	<polygon points="-655,1420 -605,1280 -595,1280 -645,1420 	"/>
	<polygon points="-730,1350 -720,1350 -695,1280 -705,1280 	"/>
	<polygon points="-705,1280 -655,1420 -645,1420 -695,1280 	"/>
	<polygon points="-655,1280 -605,1420 -595,1420 -645,1280 	"/>
	<polygon points="-570,1350 -580,1350 -605,1420 -595,1420 	"/>
	<polygon points="-705,1420 -655,1280 -645,1280 -695,1420 	"/>
	<polygon fill="#FFFFFF" points="-599.286,1380 -620.714,1320 -630.714,1320 -609.286,1380 	"/>
	<polygon fill="#FFFFFF" points="-650.714,1320 -629.286,1380 -619.286,1380 -640.714,1320 	"/>
	<polygon fill="#FFFFFF" points="-700,1320 -700,1322 -679.286,1380 -669.286,1380 -690.714,1320 	"/>
	<polygon fill="#FFFFFF" points="-680.714,1320 -659.286,1380 -649.286,1380 -670.714,1320 	"/>
</g>
<rect x="-800" y="900" width="300" height="300"/>
<g>
	<polygon fill="#FFFFFF" points="-703.033,1095.962 -568.683,1032.322 -561.612,1039.393 -695.962,1103.033 	"/>
	<polygon fill="#FFFFFF" points="-706.569,993.431 -699.497,1000.503 -632.322,968.683 -639.393,961.612 	"/>
	<polygon fill="#FFFFFF" points="-639.393,961.612 -703.033,1095.962 -695.962,1103.033 -632.322,968.683 	"/>
	<polygon fill="#FFFFFF" points="-604.038,996.967 -667.678,1131.317 -660.607,1138.388 -596.967,1004.038 	"/>
	<polygon fill="#FFFFFF" points="-593.431,1106.569 -600.503,1099.497 -667.678,1131.317 -660.607,1138.388 	"/>
	<polygon fill="#FFFFFF" points="-738.388,1060.607 -604.038,996.967 -596.967,1004.038 -731.317,1067.678 	"/>
	<polygon points="-635.353,1107.074 -608.079,1049.495 -615.15,1042.424 -642.424,1100.003 	"/>
	<polygon points="-629.292,1028.282 -656.566,1085.86 -649.495,1092.932 -622.221,1035.353 	"/>
	<polygon points="-664.142,993.431 -665.556,994.846 -691.921,1050.505 -684.85,1057.576 -657.576,999.997 	"/>
	<polygon points="-650.505,1007.068 -677.779,1064.647 -670.708,1071.718 -643.434,1014.14 	"/>
</g>
<rect x="600" y="-1300" fill="#FFE610" width="900" height="900"/>
<g>
	
		<rect x="954.446" y="-753.78" transform="matrix(0.7071 0.7071 -0.7071 0.7071 -210.9315 -885.8265)" fill="#2E58A6" width="18.75" height="112.5"/>
	
		<rect x="1166.578" y="-1018.945" transform="matrix(0.7071 0.7071 -0.7071 0.7071 -336.2995 -1113.4915)" fill="#2E58A6" width="18.75" height="112.5"/>
	
		<rect x="914.672" y="-793.555" transform="matrix(0.7071 0.7071 -0.7071 0.7071 -250.7063 -869.3513)" fill="#2E58A6" width="18.75" height="112.5"/>
	
		<rect x="1126.804" y="-1058.72" transform="matrix(0.7071 0.7071 -0.7071 0.7071 -376.0743 -1097.0162)" fill="#2E58A6" width="18.75" height="112.5"/>
	
		<rect x="874.426" y="-978.699" transform="matrix(0.7071 0.7071 -0.7071 0.7071 -412.8272 -941.9957)" fill="#2E58A6" width="112.5" height="18.75"/>
	
		<rect x="907.571" y="-1011.845" transform="matrix(0.7071 0.7071 -0.7071 0.7071 -426.5565 -975.1413)" fill="#2E58A6" width="112.5" height="18.75"/>
	
		<rect x="841.28" y="-945.554" transform="matrix(0.7071 0.7071 -0.7071 0.7071 -399.0978 -908.85)" fill="#2E58A6" width="112.5" height="18.75"/>
	
		<rect x="1113.074" y="-740.051" transform="matrix(0.7071 0.7071 -0.7071 0.7071 -174.1786 -1040.847)" fill="#2E58A6" width="112.5" height="18.75"/>
	
		<rect x="1146.22" y="-773.196" transform="matrix(0.7071 0.7071 -0.7071 0.7071 -187.908 -1073.9927)" fill="#2E58A6" width="112.5" height="18.75"/>
	
		<rect x="1079.929" y="-706.905" transform="matrix(0.7071 0.7071 -0.7071 0.7071 -160.4492 -1007.7015)" fill="#2E58A6" width="112.5" height="18.75"/>
	<polygon fill="#2E58A6" points="1059.375,-779.826 1059.375,-946.691 1050,-956.066 837.868,-743.934 851.126,-730.676 
		1040.625,-920.174 1040.625,-753.309 1050,-743.934 1262.132,-956.066 1248.874,-969.324 	"/>
	<path fill="#2E58A6" d="M1253.009-946.943l14.03-14.03c-2.941-5.749-6.144-11.395-9.572-16.944l-13.628,13.628
		C1247.18-958.622,1250.208-952.825,1253.009-946.943z"/>
	<path fill="#2E58A6" d="M890.901-1009.099c13.729-13.73,28.807-25.308,44.809-34.74l-13.628-13.628
		c-15.793,9.755-30.744,21.414-44.44,35.11c-66.487,66.487-86.471,161.81-60.082,245.697l15.195-15.195
		C812.803-866.913,832.142-950.34,890.901-1009.099z"/>
	<path fill="#2E58A6" d="M1209.099-1009.099c18.591,18.591,33.199,39.67,43.91,62.156l14.03-14.03
		c-11.311-22.112-26.173-42.875-44.682-61.384c-71.696-71.696-176.935-89.366-265.194-53.062l14.553,14.553
		C1051.618-1090.389,1145.024-1073.174,1209.099-1009.099z"/>
	<path fill="#2E58A6" d="M1209.099-690.901c-13.729,13.73-28.807,25.309-44.809,34.74l13.628,13.628
		c15.793-9.755,30.744-21.414,44.44-35.11c66.487-66.487,86.471-161.81,60.082-245.697l-15.195,15.195
		C1287.197-833.087,1267.858-749.66,1209.099-690.901z"/>
	<path fill="#2E58A6" d="M890.901-690.901c-18.591-18.591-33.199-39.67-43.91-62.156l-14.03,14.03
		c11.311,22.112,26.173,42.875,44.682,61.384c71.696,71.696,176.935,89.366,265.194,53.061l-14.553-14.553
		C1048.382-609.611,954.976-626.826,890.901-690.901z"/>
</g>
<rect fill="#FFE610" width="900" height="900"/>
<rect x="1500" y="-1300" fill="#FFE610" width="900" height="900"/>
<g>
	
		<rect x="1966.67" y="-693.647" transform="matrix(0.7071 0.7071 -0.7071 0.7071 108.6464 -1630.8394)" fill="#2E58A6" width="112.5" height="18.75"/>
	<polygon fill="#2E58A6" points="1959.375,-779.826 1959.375,-946.691 1950,-956.066 1737.868,-743.934 1751.126,-730.676 
		1940.625,-920.174 1940.625,-753.309 1950,-743.934 2162.132,-956.066 2148.874,-969.324 	"/>
	
		<rect x="1787.684" y="-991.958" transform="matrix(0.7071 0.7071 -0.7071 0.7071 -154.715 -1591.65)" fill="#2E58A6" width="112.5" height="18.75"/>
	
		<rect x="1820.83" y="-1025.103" transform="matrix(0.7071 0.7071 -0.7071 0.7071 -168.4444 -1624.7957)" fill="#2E58A6" width="112.5" height="18.75"/>
	
		<rect x="1754.538" y="-958.812" transform="matrix(0.7071 0.7071 -0.7071 0.7071 -140.9856 -1558.5044)" fill="#2E58A6" width="112.5" height="18.75"/>
	
		<rect x="1999.816" y="-726.792" transform="matrix(0.7071 0.7071 -0.7071 0.7071 94.917 -1663.9849)" fill="#2E58A6" width="112.5" height="18.75"/>
	
		<rect x="2032.962" y="-759.938" transform="matrix(0.7071 0.7071 -0.7071 0.7071 81.1877 -1697.1306)" fill="#2E58A6" width="112.5" height="18.75"/>
	<path fill="#2E58A6" d="M1804.159-1022.357c13.73-13.729,28.807-25.308,44.809-34.74l-13.628-13.628
		c-15.793,9.755-30.744,21.414-44.44,35.11c-66.487,66.487-86.471,161.81-60.082,245.697l15.195-15.195
		C1726.061-880.172,1745.4-963.598,1804.159-1022.357z"/>
	<path fill="#2E58A6" d="M2095.841-677.643c-13.729,13.729-28.807,25.308-44.809,34.74l13.628,13.628
		c15.793-9.755,30.744-21.414,44.44-35.11c66.487-66.487,86.471-161.81,60.082-245.697l-15.195,15.195
		C2173.939-819.828,2154.6-736.402,2095.841-677.643z"/>
	
		<rect x="2026.333" y="-965.441" transform="matrix(-0.7071 0.7071 -0.7071 -0.7071 2879.1499 -3104.7151)" fill="#2E58A6" width="112.5" height="18.75"/>
	
		<rect x="1993.187" y="-998.587" transform="matrix(-0.7071 0.7071 -0.7071 -0.7071 2799.1296 -3137.8608)" fill="#2E58A6" width="112.5" height="18.75"/>
	
		<rect x="1761.167" y="-753.309" transform="matrix(-0.7071 0.7071 -0.7071 -0.7071 2576.4849 -2555.083)" fill="#2E58A6" width="112.5" height="18.75"/>
	
		<rect x="1794.313" y="-720.163" transform="matrix(-0.7071 0.7071 -0.7071 -0.7071 2656.5056 -2521.9373)" fill="#2E58A6" width="112.5" height="18.75"/>
	<path fill="#2E58A6" d="M2122.357-995.841c13.73,13.73,25.309,28.807,34.74,44.809l13.628-13.628
		c-9.755-15.793-21.414-30.744-35.11-44.44c-66.487-66.487-161.81-86.471-245.697-60.082l15.195,15.195
		C1980.172-1073.939,2063.598-1054.6,2122.357-995.841z"/>
	<path fill="#2E58A6" d="M1777.643-704.159c-13.729-13.73-25.308-28.807-34.74-44.809l-13.628,13.628
		c9.755,15.793,21.414,30.744,35.11,44.44c66.487,66.487,161.81,86.471,245.697,60.082l-15.195-15.195
		C1919.828-626.061,1836.402-645.4,1777.643-704.159z"/>
</g>
<rect x="-300" y="-1300" fill="#FFE610" width="900" height="900"/>
<g>
	<path fill="#2E58A6" d="M243.75-1074.998v20.616c54.906,25.285,97.984,71.964,118.348,129.382H281.25v-56.25h-37.5v18.75h18.75v225
		h-225v-225h150v-18.75H18.75V-925h-80.848C-39.464-988.82,11.18-1039.464,75-1062.098V-1000h18.75v-67.88
		c15.072-3.894,30.764-6.217,46.875-6.882V-1000h18.75v-74.762c9.544,0.394,18.917,1.439,28.125,2.979v-19.027
		c-12.224-1.911-24.739-2.94-37.5-2.94C15.381-1093.75-93.75-984.619-93.75-850S15.381-606.25,150-606.25S393.75-715.381,393.75-850
		C393.75-951.387,331.823-1038.264,243.75-1074.998z M-67.88-906.25h86.63v46.875h-93.512
		C-74.097-875.486-71.774-891.178-67.88-906.25z M-74.762-840.625H18.75v46.875h-86.63
		C-71.774-808.822-74.097-824.514-74.762-840.625z M140.625-625.238c-16.111-0.665-31.803-2.988-46.875-6.882V-700H75v62.098
		C11.18-660.536-39.464-711.18-62.098-775H18.75v56.25h121.875V-625.238z M206.25-632.12c-15.072,3.894-30.764,6.217-46.875,6.882
		v-93.512h46.875V-632.12z M281.25-906.25h86.63c3.894,15.072,6.217,30.764,6.882,46.875H281.25V-906.25z M225-637.902v-80.848
		h56.25V-775h80.848C339.464-711.18,288.82-660.536,225-637.902z M367.88-793.75h-86.63v-46.875h93.512
		C374.097-824.514,371.774-808.822,367.88-793.75z"/>
	<path fill="#2E58A6" d="M206.25-807.009L88.259-925H75v168.75h18.75v-136.741L211.742-775H225v-306.94l0,0
		c-6.145-1.986-12.402-3.713-18.75-5.213l0,0V-807.009z"/>
</g>
<g>
	<path fill="#2E58A6" d="M290.901,290.902c18.591-18.591,39.67-33.199,62.156-43.91l-14.03-14.03
		c-22.112,11.311-42.875,26.173-61.384,44.682c-71.696,71.696-89.366,176.935-53.062,265.194l14.553-14.553
		C209.611,448.383,226.826,354.977,290.901,290.902z"/>
	<path fill="#2E58A6" d="M609.099,609.1c-18.591,18.591-39.67,33.199-62.156,43.91l14.03,14.03
		c22.112-11.311,42.875-26.173,61.384-44.682c71.696-71.696,89.366-176.935,53.061-265.194l-14.553,14.553
		C690.389,451.619,673.174,545.025,609.099,609.1z"/>
	<path fill="#2E58A6" d="M290.901,609.1c-18.591-18.591-33.199-39.67-43.91-62.156l-14.03,14.03
		c11.311,22.112,26.173,42.875,44.682,61.384c71.696,71.696,176.935,89.366,265.194,53.061l-14.553-14.553
		C448.382,690.39,354.976,673.175,290.901,609.1z"/>
	
		<rect x="367.707" y="559.473" transform="matrix(-0.7071 -0.7071 0.7071 -0.7071 208.3372 1317.7408)" fill="#2E58A6" width="18.75" height="112.499"/>
	
		<rect x="559.947" y="274.421" transform="matrix(-0.7071 -0.7071 0.7071 -0.7071 738.0746 967.0613)" fill="#2E58A6" width="18.75" height="112.499"/>
	
		<rect x="321.303" y="513.069" transform="matrix(-0.7071 -0.7071 0.7071 -0.7071 161.933 1205.7126)" fill="#2E58A6" width="18.75" height="112.499"/>
	
		<rect x="513.544" y="228.018" transform="matrix(-0.7071 -0.7071 0.7071 -0.7071 691.6705 855.0333)" fill="#2E58A6" width="18.75" height="112.499"/>
	
		<rect x="274.426" y="321.297" transform="matrix(-0.7071 -0.7071 0.7071 -0.7071 330.6782 798.3162)" fill="#2E58A6" width="112.499" height="18.75"/>
	
		<rect x="320.83" y="274.894" transform="matrix(-0.7071 -0.7071 0.7071 -0.7071 442.7063 751.9119)" fill="#2E58A6" width="112.499" height="18.75"/>
	
		<rect x="228.023" y="367.701" transform="matrix(-0.7071 -0.7071 0.7071 -0.7071 218.6501 844.7204)" fill="#2E58A6" width="112.499" height="18.75"/>
	
		<rect x="513.075" y="559.942" transform="matrix(-0.7071 -0.7071 0.7071 -0.7071 569.3295 1374.4576)" fill="#2E58A6" width="112.499" height="18.75"/>
	
		<rect x="559.478" y="513.538" transform="matrix(-0.7071 -0.7071 0.7071 -0.7071 681.3576 1328.0536)" fill="#2E58A6" width="112.499" height="18.75"/>
	
		<rect x="466.671" y="606.346" transform="matrix(-0.7071 -0.7071 0.7071 -0.7071 457.3015 1420.8621)" fill="#2E58A6" width="112.499" height="18.75"/>
	<path fill="#2E58A6" d="M609.099,290.902c9.037,9.037,17.089,18.685,24.265,28.768l13.476-13.476
		c-7.31-9.979-15.464-19.533-24.482-28.551c-71.696-71.696-176.935-89.366-265.194-53.062l14.553,14.553
		C451.618,209.612,545.024,226.827,609.099,290.902z"/>
	<polygon fill="#2E58A6" points="459.375,520.175 459.375,353.31 450,343.935 237.868,556.067 251.126,569.325 440.625,379.827 
		440.625,546.692 450,556.067 662.132,343.935 648.874,330.677 	"/>
	<path fill="#2E58A6" d="M653.009,353.058l14.03-14.03c-2.941-5.749-6.144-11.395-9.572-16.944l-13.628,13.628
		C647.18,341.379,650.208,347.176,653.009,353.058z"/>
</g>
<text transform="matrix(1 0 0 1 300 1000)" font-family="'Roboto-Thin'" font-size="36">N + E + X + T</text>
<path d="M300,1100v-24h3.258l12.606,18.843V1076h3.045v24h-3.258l-12.606-18.859V1100H300z"/>
<path d="M339.372,1096.12v-6.581h-6.532v-2.75h6.532v-6.532h2.783v6.532h6.532v2.75h-6.532v6.581H339.372z"/>
<path d="M362.521,1100v-24h17.353v2.832h-14.177v7.351h13.277v2.816h-13.277v8.169h14.734V1100H362.521z"/>
<path d="M420.589,1100l9.282-12.507L421.686,1076h3.782l4.355,6.156c0.906,1.277,1.55,2.259,1.932,2.947
	c0.535-0.873,1.168-1.784,1.899-2.734l4.829-6.368h3.454l-8.431,11.312l9.086,12.688h-3.929l-6.041-8.562
	c-0.338-0.491-0.688-1.026-1.048-1.604c-0.535,0.873-0.917,1.473-1.146,1.801l-6.025,8.366H420.589z"/>
<g>
	<path d="M399.945,1096.12v-6.581h-6.532v-2.75h6.532v-6.532h2.783v6.532h6.532v2.75h-6.532v6.581H399.945z"/>
	<path d="M460.518,1096.12v-6.581h-6.532v-2.75h6.532v-6.532h2.783v6.532h6.532v2.75h-6.532v6.581H460.518z"/>
</g>
<path d="M489.102,1100v-21.168h-7.907V1076h19.023v2.832h-7.94V1100H489.102z"/>
<path d="M521.091,1096.12v-6.581h-6.532v-2.75h6.532v-6.532h2.783v6.532h6.532v2.75h-6.532v6.581H521.091z"/>
<g>
	<path d="M552.769,1079c5.799,0,10.5,4.701,10.5,10.5s-4.701,10.5-10.5,10.5c-5.799,0-10.5-4.701-10.5-10.5
		S546.97,1079,552.769,1079 M552.769,1076c-7.444,0-13.5,6.056-13.5,13.5s6.056,13.5,13.5,13.5s13.5-6.056,13.5-13.5
		S560.213,1076,552.769,1076L552.769,1076z"/>
</g>
<g>
	<path d="M556.769,1085.5v8h-8v-8H556.769 M559.769,1082.5h-14v14h14V1082.5L559.769,1082.5z"/>
</g>
</svg>
