<?xml version="1.0" encoding="utf-8"?>
<!-- Generator: Adobe Illustrator 17.0.0, SVG Export Plug-In . SVG Version: 6.00 Build 0)  -->
<!DOCTYPE svg PUBLIC "-//W3C//DTD SVG 1.1//EN" "http://www.w3.org/Graphics/SVG/1.1/DTD/svg11.dtd">
<svg version="1.1" xmlns="http://www.w3.org/2000/svg" xmlns:xlink="http://www.w3.org/1999/xlink" x="0px" y="0px" width="150px"
	 height="150px" viewBox="-884.5 555.5 150 150" enable-background="new -884.5 555.5 150 150" xml:space="preserve">
<g id="圖層_1" display="none">
	<path display="inline" d="M-750.289,689.711h-11.842c-57.769,0-106.579-27.115-106.579-59.211c0-16.302,12.628-31.298,32.589-42.13
		c-6.627-0.813-13.546-1.291-20.747-1.291c-1.943,0-3.828,0.093-5.728,0.158c-13.812,12.154-21.903,27.011-21.903,43.263
		c0,42.056,53.752,75,122.368,75h27.632C-734.5,696.78-741.569,689.711-750.289,689.711z"/>
	<path display="inline" d="M-780.906,571.289h30.616c8.72,0,15.789-7.069,15.789-15.789h-150c0,8.72,7.069,15.789,15.789,15.789
		h11.842c57.769,0,106.579,27.115,106.579,59.211c0,16.302-12.628,31.298-32.589,42.13c6.627,0.813,13.546,1.291,20.747,1.291
		c1.943,0,3.828-0.093,5.728-0.158c13.812-12.154,21.903-27.011,21.903-43.263C-734.5,606.179-752.476,584.907-780.906,571.289z"/>
	<path display="inline" d="M-867.542,689.711h-1.168c-8.72,0-15.789,7.07-15.789,15.789h31.583h12.031
		C-850.832,701.032-859.767,695.713-867.542,689.711z"/>
	<path display="inline" d="M-802.793,610.621c1.099,0,2.143,0.64,2.61,1.712l10.327,23.746c0.624,1.438-0.035,3.115-1.476,3.739
		l-23.746,10.327c-0.366,0.158-0.752,0.235-1.13,0.235c-1.099,0-2.143-0.64-2.61-1.712l-10.327-23.746
		c-0.624-1.438,0.035-3.115,1.476-3.739l23.746-10.327C-803.556,610.698-803.17,610.621-802.793,610.621 M-802.793,594.831
		c-2.567,0-5.061,0.517-7.421,1.542l-23.754,10.331c-4.549,1.97-8.076,5.617-9.903,10.25c-1.827,4.63-1.739,9.695,0.243,14.259
		l10.331,23.754c2.945,6.796,9.656,11.202,17.089,11.202c2.567,0,5.061-0.517,7.421-1.542l23.754-10.331
		c4.549-1.97,8.076-5.617,9.903-10.25c1.827-4.63,1.739-9.695-0.243-14.259l-10.331-23.754
		C-788.649,599.237-795.36,594.831-802.793,594.831L-802.793,594.831z"/>
</g>
<g id="圖層_2">
	<g>
		<path d="M-864.314,579.405c-5.663,6.075-10.464,13.136-13.965,21.189c-11.736,26.99-6.282,57.062,11.449,78.162l3.764-8.657
			c-10.463-14.182-15.042-32.204-12.221-50.03l28.572,12.424l3.323-7.642l-30.05-13.066c0.777-2.644,1.677-5.274,2.804-7.868
			l30.569,13.292l3.323-7.642l-30.039-13.061c1.457-2.463,3.071-4.788,4.797-7.001l28.565,12.42l3.323-7.642L-864.314,579.405z"/>
		<path d="M-799.072,564.721l-12.42,28.565l7.642,3.323l13.061-30.039c2.644,0.777,5.279,1.665,7.873,2.793l-13.292,30.569
			l7.642,3.323l16.615-38.211c0,0-5.056-2.198-7.642-3.323c-26.99-11.736-57.062-6.282-78.162,11.449l8.709,3.787
			C-834.87,566.517-816.895,561.883-799.072,564.721z"/>
		<path d="M-754.686,681.595c5.663-6.075,10.464-13.136,13.965-21.189c11.736-26.99,6.282-57.062-11.449-78.162l-3.764,8.657
			c10.463,14.182,15.042,32.204,12.221,50.03l-28.572-12.424l-3.323,7.642l30.05,13.066c-0.777,2.644-1.677,5.274-2.804,7.868
			l-30.569-13.292l-3.323,7.642l30.039,13.061c-1.457,2.463-3.071,4.788-4.797,7.001l-28.565-12.42l-3.323,7.642L-754.686,681.595z"
			/>
		<path d="M-819.928,696.279l12.42-28.565l-7.642-3.323l-13.061,30.039c-2.644-0.777-5.279-1.665-7.873-2.793l13.292-30.569
			l-7.642-3.323l-16.615,38.211c0,0,5.056,2.198,7.642,3.323c26.99,11.736,57.062,6.282,78.162-11.449l-8.709-3.787
			C-784.13,694.483-802.105,699.117-819.928,696.279z"/>
		<polygon points="-796.542,663.395 -756.667,571.689 -764.31,568.366 -798.512,647.027 -817.055,599.954 -822.458,597.605 
			-862.333,689.311 -854.69,692.634 -820.488,613.973 -801.945,661.046 		"/>
	</g>
</g>
<g id="圖層_3" display="none">
	<path display="inline" d="M-772,565.648V555.5h-8.333v5.904c-8.968-3.8-18.827-5.904-29.167-5.904c-41.357,0-75,33.643-75,75
		c0,27.69,15.12,51.864,37.5,64.852V705.5h8.333v-5.904c8.968,3.8,18.827,5.904,29.167,5.904c41.357,0,75-33.643,75-75
		C-734.5,602.81-749.62,578.636-772,565.648z M-876.167,630.5c0-36.759,29.907-66.667,66.667-66.667
		c10.47,0,20.341,2.494,29.167,6.812v88.249c-6.266-1.855-18.034-8.171-25.212-29.712C-817.467,593.415-841.8,593-842.833,593H-847
		v92.578C-864.59,673.562-876.167,653.36-876.167,630.5z M-809.5,697.167c-10.47,0-20.341-2.494-29.167-6.812v-88.249
		c6.266,1.855,18.034,8.171,25.212,29.712C-801.533,667.585-777.2,668-776.167,668H-772v-92.578
		c17.59,12.016,29.167,32.218,29.167,55.078C-742.833,667.259-772.741,697.167-809.5,697.167z"/>
</g>
<g id="圖層_4" display="none">
	<g display="inline">
		<path d="M-797,637.108v-11.784l-41.667-41.667v97.306c2.653,1.538,5.436,2.861,8.333,3.971v-81.161L-797,637.108z"/>
		<path d="M-822,623.892v11.784l41.667,41.667V561.384c-2.694-1.139-5.489-2.067-8.333-2.889v98.73L-822,623.892z"/>
		<path d="M-772,565.616v9.77c17.603,12,29.167,32.202,29.167,55.115c0,36.82-29.846,66.667-66.667,66.667
			s-66.667-29.846-66.667-66.667s29.846-66.667,66.667-66.667c4.277,0,8.447,0.444,12.5,1.213v-8.423
			c-4.073-0.684-8.232-1.123-12.5-1.123c-41.423,0-75,33.577-75,75s33.577,75,75,75s75-33.577,75-75
			C-734.5,602.753-749.604,578.588-772,565.616z"/>
	</g>
</g>
</svg>
