<?xml version="1.0" encoding="utf-8"?>
<!-- Generator: Adobe Illustrator 17.0.0, SVG Export Plug-In . SVG Version: 6.00 Build 0)  -->
<!DOCTYPE svg PUBLIC "-//W3C//DTD SVG 1.1//EN" "http://www.w3.org/Graphics/SVG/1.1/DTD/svg11.dtd">
<svg version="1.1" id="圖層_1" xmlns="http://www.w3.org/2000/svg" xmlns:xlink="http://www.w3.org/1999/xlink" x="0px" y="0px"
	 width="150px" height="150px" viewBox="0 0 150 150" enable-background="new 0 0 150 150" xml:space="preserve">
<g>
	<path fill="#FFE610" d="M45,28.446v98.506c2.4,1.389,4.904,2.617,7.5,3.669V46.554l37.5,37.5V73.447L45,28.446z"/>
	<path fill="#FFE610" d="M112.5,10.036v8.866c18.078,12.124,30,32.744,30,56.098c0,37.22-30.28,67.5-67.5,67.5S7.5,112.22,7.5,75
		S37.78,7.5,75,7.5c5.154,0,10.174,0.582,15,1.683V1.501C85.154,0.517,80.137,0,75,0C33.579,0,0,33.579,0,75s33.579,75,75,75
		s75-33.579,75-75C150,47.24,134.918,23.004,112.5,10.036z"/>
	<path fill="#FFE610" d="M97.5,103.446L60,65.946v10.606l45,45V6.253c-2.435-1.064-4.939-1.996-7.5-2.801V103.446z"/>
</g>
</svg>
