<?xml version="1.0" encoding="utf-8"?>
<!-- Generator: Adobe Illustrator 17.0.0, SVG Export Plug-In . SVG Version: 6.00 Build 0)  -->
<!DOCTYPE svg PUBLIC "-//W3C//DTD SVG 1.1//EN" "http://www.w3.org/Graphics/SVG/1.1/DTD/svg11.dtd">
<svg version="1.1" id="圖層_1" xmlns="http://www.w3.org/2000/svg" xmlns:xlink="http://www.w3.org/1999/xlink" x="0px" y="0px"
	 width="180px" height="30px" viewBox="0 0 180 30" enable-background="new 0 0 180 30" xml:space="preserve">
<g>
	<g>
		<rect x="59" y="14" fill="#F8E618" width="15" height="2"/>
		<polygon fill="#F8E618" points="60,8 76,8 76,6 58,6 58,24 76,24 76,22 60,22 		"/>
	</g>
	<g>
		
			<rect x="100.272" y="14" transform="matrix(0.7071 0.7071 -0.7071 0.7071 43.7035 -75.5097)" fill="#F8E618" width="25.456" height="2"/>
		
			<rect x="112" y="2.272" transform="matrix(0.7071 0.7071 -0.7071 0.7071 43.7035 -75.5097)" fill="#F8E618" width="2" height="25.456"/>
	</g>
	<g>
		<rect x="150" y="6" fill="#F8E618" width="18" height="2"/>
		<rect x="158" y="7" fill="#F8E618" width="2" height="17"/>
	</g>
	<polygon fill="#F8E618" points="30,6 28,6 28,21.37 14.338,6 12,6 12,24 14,24 14,8.63 27.662,24 30,24 	"/>
</g>
</svg>
