<?xml version="1.0" encoding="utf-8"?>
<!-- Generator: Adobe Illustrator 17.0.0, SVG Export Plug-In . SVG Version: 6.00 Build 0)  -->
<!DOCTYPE svg PUBLIC "-//W3C//DTD SVG 1.1//EN" "http://www.w3.org/Graphics/SVG/1.1/DTD/svg11.dtd">
<svg version="1.1" id="圖層_1" xmlns="http://www.w3.org/2000/svg" xmlns:xlink="http://www.w3.org/1999/xlink" x="0px" y="0px"
	 width="180px" height="180px" viewBox="0 0 180 180" enable-background="new 0 0 180 180" xml:space="preserve">
<g>
	<path fill="#FFE610" d="M66,52.757v78.805c1.92,1.111,3.923,2.094,6,2.935V67.243l30,30v-8.485L66,52.757z"/>
	<path fill="#FFE610" d="M120,38.029v7.093c14.462,9.699,24,26.195,24,44.878c0,29.776-24.224,54-54,54s-54-24.224-54-54
		s24.224-54,54-54c4.123,0,8.139,0.466,12,1.346v-6.145C98.123,30.414,94.11,30,90,30c-33.137,0-60,26.863-60,60s26.863,60,60,60
		s60-26.863,60-60C150,67.792,137.934,48.403,120,38.029z"/>
	<path fill="#FFE610" d="M108,112.757l-30-30v8.485l36,36v-92.24c-1.948-0.851-3.951-1.597-6-2.241V112.757z"/>
</g>
</svg>
