<?xml version="1.0" encoding="utf-8"?>
<!-- Generator: Adobe Illustrator 17.0.0, SVG Export Plug-In . SVG Version: 6.00 Build 0)  -->
<!DOCTYPE svg PUBLIC "-//W3C//DTD SVG 1.1//EN" "http://www.w3.org/Graphics/SVG/1.1/DTD/svg11.dtd">
<svg version="1.1" id="圖層_1" xmlns="http://www.w3.org/2000/svg" xmlns:xlink="http://www.w3.org/1999/xlink" x="0px" y="0px"
	 width="76px" height="76px" viewBox="0 0 76 76" enable-background="new 0 0 76 76" xml:space="preserve">
<g>
	<path d="M11.5,13v46c0,1.657-1.343,3-3,3h-5v1h17v-1h-5c-1.657,0-3-1.343-3-3V17c0-1.657,1.343-3,3-3h3v-1"/>
	<polygon points="19.5,13 11.5,13 26.457,63 26.5,63 30.5,49.667 	"/>
	<polygon points="49.5,36.333 49.5,13 41.5,13 41.5,63 45.5,49.667 	"/>
	<polygon points="26.5,63 27.5,63 42.5,13 41.5,13 	"/>
	<polygon points="41.5,63 42.5,63 57.5,13 56.5,13 	"/>
	<path d="M56.5,13v46c0,1.657-1.343,3-3,3h-5v1h24v-1h-5c-1.657,0-3-1.343-3-3V13H56.5z"/>
</g>
</svg>
