<?xml version="1.0" encoding="utf-8"?>
<!-- Generator: Adobe Illustrator 17.0.0, SVG Export Plug-In . SVG Version: 6.00 Build 0)  -->
<!DOCTYPE svg PUBLIC "-//W3C//DTD SVG 1.1//EN" "http://www.w3.org/Graphics/SVG/1.1/DTD/svg11.dtd">
<svg version="1.1" id="圖層_1" xmlns="http://www.w3.org/2000/svg" xmlns:xlink="http://www.w3.org/1999/xlink" x="0px" y="0px"
	 width="197px" height="56px" viewBox="-329.5 335 197 56" enable-background="new -329.5 335 197 56" xml:space="preserve">
<g>
	<path fill="#231815" d="M-247.875,336.875L-238.5,365h0.625l9.375-28.125V365h0.625l9.375-28.125V362.5
		c0,1.036-0.839,1.875-1.875,1.875h-3.125V365h15v-0.625h-3.125c-1.036,0-1.875-0.839-1.875-1.875V335h-5l-5,15v-15h-5l-7.5,22.5
		l-7.5-22.5h-5v27.5c0,1.036-0.839,1.875-1.875,1.875h-3.125V365h10.625v-0.625H-246c-1.036,0-1.875-0.839-1.875-1.875V336.875z"/>
	<g>
		<path fill="#231815" d="M-325,391c-2.176,0-4.5-0.92-4.5-3.5h1c0,2.257,2.447,2.5,3.5,2.5s3.5-0.243,3.5-2.5
			c0-1.373-1.34-2.001-3.385-2.801c-1.777-0.696-3.615-1.416-3.615-3.199c0-1.141,0.694-2.5,4-2.5h3v1h-3c-3,0-3,1.129-3,1.5
			c0,1.101,1.447,1.668,2.98,2.268c1.884,0.737,4.02,1.574,4.02,3.732C-320.5,390.08-322.824,391-325,391z"/>
		<rect x="-210.5" y="379" fill="#231815" width="1" height="12"/>
		<rect x="-197.5" y="379" fill="#231815" width="1" height="12"/>
		<rect x="-188.5" y="379" fill="#231815" width="1" height="12"/>
		<polygon fill="#231815" points="-187.5,390.697 -195.298,379 -196.5,379 -188.5,391 -187.5,391 		"/>
		<path fill="#231815" d="M-221.702,391h1.202l-4.102-6.152c1.215-0.384,2.102-1.506,2.102-2.848c0-1.657-1.343-3-3-3h-5v12h1v-6
			h3.798L-221.702,391z M-229.5,384v-4h4c1.105,0,2,0.895,2,2c0,1.105-0.895,2-2,2h-0.868H-229.5z"/>
		<rect x="-292.5" y="379" fill="#231815" width="1" height="12"/>
		<rect x="-282.5" y="379" fill="#231815" width="1" height="12"/>
		<polygon fill="#231815" points="-283.5,379 -287,389.5 -290.5,379 -291.5,379 -287.5,391 -286.5,391 -282.5,379 		"/>
		<rect x="-269.5" y="379" fill="#231815" width="1" height="12"/>
		<rect x="-259.5" y="379" fill="#231815" width="1" height="12"/>
		<polygon fill="#231815" points="-260.5,379 -264,389.5 -267.5,379 -268.5,379 -264.5,391 -263.5,391 -259.5,379 		"/>
		<polygon fill="#231815" points="-302.5,391 -301.5,391 -305.5,379 -306.5,379 -304,386.5 -309,386.5 -306.5,379 -307.5,379 
			-311.5,391 -310.5,391 -309.333,387.5 -303.667,387.5 		"/>
		<polygon fill="#231815" points="-240.5,391 -239.5,391 -243.5,379 -244.5,379 -242,386.5 -247,386.5 -244.5,379 -245.5,379 
			-249.5,391 -248.5,391 -247.333,387.5 -241.667,387.5 		"/>
		<polygon fill="#231815" points="-175.5,391 -167.5,391 -167.5,390 -174.5,390 -174.5,385.5 -169.5,385.5 -169.5,384.5 
			-174.5,384.5 -174.5,380 -167.5,380 -167.5,379 -175.5,379 		"/>
		<polygon fill="#231815" points="-140.5,391 -132.5,391 -132.5,390 -139.5,390 -139.5,385.5 -134.5,385.5 -134.5,384.5 
			-139.5,384.5 -139.5,380 -132.5,380 -132.5,379 -140.5,379 		"/>
		<path fill="#231815" d="M-154,391c-2.176,0-4.5-0.92-4.5-3.5h1c0,2.257,2.447,2.5,3.5,2.5s3.5-0.243,3.5-2.5
			c0-1.373-1.34-2.001-3.385-2.801c-1.777-0.696-3.615-1.416-3.615-3.199c0-1.141,0.694-2.5,4-2.5h3v1h-3c-3,0-3,1.129-3,1.5
			c0,1.101,1.447,1.668,2.98,2.268c1.884,0.737,4.02,1.574,4.02,3.732C-149.5,390.08-151.824,391-154,391z"/>
	</g>
</g>
</svg>
