<?xml version="1.0" encoding="utf-8"?>
<!-- Generator: Adobe Illustrator 17.0.0, SVG Export Plug-In . SVG Version: 6.00 Build 0)  -->
<!DOCTYPE svg PUBLIC "-//W3C//DTD SVG 1.1//EN" "http://www.w3.org/Graphics/SVG/1.1/DTD/svg11.dtd">
<svg version="1.1" id="圖層_1" xmlns="http://www.w3.org/2000/svg" xmlns:xlink="http://www.w3.org/1999/xlink" x="0px" y="0px"
	 width="197px" height="56px" viewBox="0 0 197 56" enable-background="new 0 0 197 56" xml:space="preserve">
<g>
	<path fill="#FFFFFF" d="M81.625,1.875L91,30h0.625L101,1.875V30h0.625L111,1.875V27.5c0,1.036-0.839,1.875-1.875,1.875H106V30h15
		v-0.625h-3.125c-1.036,0-1.875-0.839-1.875-1.875V0h-5l-5,15V0h-5l-7.5,22.5L86,0h-5v27.5c0,1.036-0.839,1.875-1.875,1.875H76V30
		h10.625v-0.625H83.5c-1.036,0-1.875-0.839-1.875-1.875V1.875z"/>
	<path fill="#FFFFFF" d="M4.5,56C2.324,56,0,55.08,0,52.5h1C1,54.757,3.447,55,4.5,55S8,54.757,8,52.5
		c0-1.373-1.34-2.001-3.385-2.801C2.838,49.003,1,48.283,1,46.5C1,45.359,1.694,44,5,44h3v1H5c-3,0-3,1.129-3,1.5
		c0,1.101,1.447,1.668,2.98,2.268C6.864,49.505,9,50.342,9,52.5C9,55.08,6.676,56,4.5,56z"/>
	<rect x="119" y="44" fill="#FFFFFF" width="1" height="12"/>
	<rect x="132" y="44" fill="#FFFFFF" width="1" height="12"/>
	<rect x="141" y="44" fill="#FFFFFF" width="1" height="12"/>
	<polygon fill="#FFFFFF" points="142,55.697 134.202,44 133,44 141,56 142,56 	"/>
	<path fill="#FFFFFF" d="M107.798,56H109l-4.102-6.152C106.113,49.464,107,48.342,107,47c0-1.657-1.343-3-3-3h-5v12h1v-6h3.798
		L107.798,56z M100,49v-4h4c1.105,0,2,0.895,2,2c0,1.105-0.895,2-2,2h-0.868H100z"/>
	<rect x="37" y="44" fill="#FFFFFF" width="1" height="12"/>
	<rect x="47" y="44" fill="#FFFFFF" width="1" height="12"/>
	<polygon fill="#FFFFFF" points="46,44 42.5,54.5 39,44 38,44 42,56 43,56 47,44 	"/>
	<rect x="60" y="44" fill="#FFFFFF" width="1" height="12"/>
	<rect x="70" y="44" fill="#FFFFFF" width="1" height="12"/>
	<polygon fill="#FFFFFF" points="69,44 65.5,54.5 62,44 61,44 65,56 66,56 70,44 	"/>
	<polygon fill="#FFFFFF" points="27,56 28,56 24,44 23,44 25.5,51.5 20.5,51.5 23,44 22,44 18,56 19,56 20.167,52.5 25.833,52.5 	
		"/>
	<polygon fill="#FFFFFF" points="89,56 90,56 86,44 85,44 87.5,51.5 82.5,51.5 85,44 84,44 80,56 81,56 82.167,52.5 87.833,52.5 	
		"/>
	<polygon fill="#FFFFFF" points="154,56 162,56 162,55 155,55 155,50.5 160,50.5 160,49.5 155,49.5 155,45 162,45 162,44 154,44 	
		"/>
	<polygon fill="#FFFFFF" points="189,56 197,56 197,55 190,55 190,50.5 195,50.5 195,49.5 190,49.5 190,45 197,45 197,44 189,44 	
		"/>
	<path fill="#FFFFFF" d="M175.5,56c-2.176,0-4.5-0.92-4.5-3.5h1c0,2.257,2.447,2.5,3.5,2.5s3.5-0.243,3.5-2.5
		c0-1.373-1.34-2.001-3.385-2.801C173.838,49.003,172,48.283,172,46.5c0-1.141,0.694-2.5,4-2.5h3v1h-3c-3,0-3,1.129-3,1.5
		c0,1.101,1.447,1.668,2.98,2.268c1.884,0.737,4.02,1.574,4.02,3.732C180,55.08,177.676,56,175.5,56z"/>
</g>
</svg>
