<?xml version="1.0" encoding="utf-8"?>
<!-- Generator: Adobe Illustrator 17.0.0, SVG Export Plug-In . SVG Version: 6.00 Build 0)  -->
<!DOCTYPE svg PUBLIC "-//W3C//DTD SVG 1.1//EN" "http://www.w3.org/Graphics/SVG/1.1/DTD/svg11.dtd">
<svg version="1.1" id="圖層_1" xmlns="http://www.w3.org/2000/svg" xmlns:xlink="http://www.w3.org/1999/xlink" x="0px" y="0px"
	 width="90px" height="90px" viewBox="0 0 90 90" enable-background="new 0 0 90 90" xml:space="preserve">
<g>
	<g>
		<path d="M46,35h24v3H50.982C53.417,39.824,55,42.723,55,46v24h-4V44c0-3.314-2.686-6-6-6h-2L46,35z"/>
		<path d="M54.396,26.604C53.004,22.755,49.329,20,45,20c-5.523,0-10,4.477-10,10v5H20v3h15v32h4V29c0-3.314,2.686-6,6-6
			s6,2.686,6,6v1L54.396,26.604z"/>
	</g>
</g>
</svg>
