<?xml version="1.0" encoding="utf-8"?>
<!-- Generator: Adobe Illustrator 17.0.0, SVG Export Plug-In . SVG Version: 6.00 Build 0)  -->
<!DOCTYPE svg PUBLIC "-//W3C//DTD SVG 1.1//EN" "http://www.w3.org/Graphics/SVG/1.1/DTD/svg11.dtd">
<svg version="1.1" id="圖層_1" xmlns="http://www.w3.org/2000/svg" xmlns:xlink="http://www.w3.org/1999/xlink" x="0px" y="0px"
	 width="300px" height="300px" viewBox="-270.5 447.5 300 300" enable-background="new -270.5 447.5 300 300" xml:space="preserve">
<path fill="#FFFFFF" d="M-65.758,545.573c-11.243,6.273-33.44,20.138-58.93,57.029c0.253-14.863-0.011-31.42-0.661-47.005
	c29.031-13.753,41.293-30.587,41.293-30.587c5.733-9.26,5.292-18.521-2.646-21.608c-8.31,8.688-20.565,19.094-39.937,29.298
	c-0.561-7.701-1.22-14.68-1.955-20.478c-4.343-34.26-15.434-26.458-15.434-26.458c2.348,20.389,3.795,37.903,4.604,53.164
	c-20.997,9.664-28.32,12.696-60.608,28.415c0,0-1.764,2.646-6.174,5.733c27.654-0.506,49.963-5.406,67.565-11.898
	c0.432,26.711-1.227,45.375-2.742,61.287c-2.646,27.781-10.583,29.104-7.937,50.271c21.167,12.788,20.509-21.195,22.49-35.278
	c0.078-0.555,0.153-1.13,0.227-1.713c12.364-34.553,45.063-67.152,62.832-76.56c11.797-6.245,14.305-6.669,9.407,6.1
	c-8.231,21.461-18.815,39.981-28.516,54.681c-7.741,11.729-23.445,14.405-18.815,20.873c3.528,4.928,9.121-0.44,28.516,0.588
	c22.196,1.176,11.906-15.875,5.659-16.095c-8.601-0.304-12.421-3.895-12.421-3.895s25.213-26.588,37.336-47.037
	C-23.513,542.196-42.604,532.654-65.758,545.573z"/>
<g>
	<g enable-background="new    ">
		<path fill="#FFFFFF" d="M-173.164,711.214v4.061h4.974v-4.061h1.257v9.445h-1.257v-4.326h-4.974v4.326h-1.257v-9.445H-173.164z"/>
		<path fill="#FFFFFF" d="M-160.451,720.659v-1.085h-0.026c-0.238,0.424-0.542,0.734-0.913,0.933
			c-0.371,0.198-0.807,0.298-1.31,0.298c-0.45,0-0.825-0.06-1.125-0.179c-0.3-0.119-0.542-0.289-0.728-0.509
			c-0.186-0.221-0.315-0.483-0.391-0.787c-0.075-0.305-0.112-0.642-0.112-1.013v-4.498h1.125v4.631c0,0.423,0.124,0.759,0.371,1.005
			c0.247,0.247,0.586,0.371,1.019,0.371c0.344,0,0.642-0.054,0.893-0.159c0.251-0.105,0.46-0.256,0.628-0.45
			c0.167-0.193,0.293-0.421,0.377-0.681c0.083-0.261,0.125-0.545,0.125-0.854v-3.863h1.125v6.84H-160.451z"/>
		<path fill="#FFFFFF" d="M-156.641,713.819v1.006h0.027c0.511-0.776,1.248-1.164,2.209-1.164c0.423,0,0.807,0.088,1.151,0.265
			c0.344,0.176,0.586,0.476,0.728,0.899c0.229-0.37,0.531-0.657,0.906-0.86c0.375-0.202,0.787-0.304,1.237-0.304
			c0.344,0,0.655,0.037,0.933,0.112s0.516,0.191,0.714,0.351c0.198,0.158,0.353,0.363,0.463,0.615
			c0.11,0.251,0.166,0.554,0.166,0.906v5.014h-1.125v-4.484c0-0.212-0.018-0.41-0.053-0.596s-0.101-0.346-0.198-0.482
			s-0.231-0.245-0.403-0.324c-0.172-0.08-0.395-0.119-0.668-0.119c-0.556,0-0.992,0.158-1.31,0.476
			c-0.317,0.318-0.476,0.741-0.476,1.271v4.26h-1.125v-4.484c0-0.221-0.02-0.424-0.06-0.608c-0.04-0.186-0.108-0.347-0.205-0.483
			s-0.227-0.242-0.39-0.317c-0.164-0.075-0.373-0.112-0.628-0.112c-0.327,0-0.606,0.066-0.84,0.198
			c-0.233,0.132-0.423,0.291-0.569,0.477c-0.146,0.185-0.251,0.377-0.317,0.575c-0.066,0.198-0.099,0.363-0.099,0.496v4.26h-1.125
			v-6.84H-156.641z"/>
		<path fill="#FFFFFF" d="M-140.356,720.633c-0.194,0.114-0.463,0.172-0.807,0.172c-0.291,0-0.522-0.082-0.694-0.245
			c-0.172-0.163-0.258-0.43-0.258-0.8c-0.309,0.37-0.668,0.637-1.078,0.8s-0.853,0.245-1.33,0.245c-0.309,0-0.602-0.035-0.879-0.105
			c-0.278-0.071-0.519-0.181-0.721-0.331c-0.203-0.149-0.364-0.346-0.483-0.589c-0.119-0.242-0.179-0.535-0.179-0.88
			c0-0.388,0.066-0.705,0.199-0.952s0.306-0.447,0.522-0.602c0.216-0.154,0.463-0.271,0.741-0.351
			c0.278-0.08,0.562-0.146,0.854-0.199c0.309-0.062,0.602-0.107,0.879-0.139c0.278-0.03,0.523-0.075,0.734-0.132
			c0.212-0.058,0.379-0.142,0.503-0.252c0.123-0.11,0.185-0.271,0.185-0.482c0-0.247-0.046-0.445-0.139-0.596
			c-0.092-0.149-0.211-0.265-0.357-0.344s-0.309-0.132-0.489-0.159c-0.181-0.026-0.36-0.039-0.536-0.039
			c-0.476,0-0.873,0.091-1.19,0.271s-0.49,0.522-0.516,1.024h-1.125c0.018-0.423,0.106-0.78,0.265-1.071s0.371-0.526,0.635-0.708
			c0.264-0.181,0.566-0.311,0.906-0.39c0.34-0.08,0.704-0.119,1.092-0.119c0.309,0,0.615,0.021,0.919,0.066
			c0.304,0.044,0.58,0.134,0.827,0.271c0.247,0.136,0.445,0.327,0.595,0.574c0.15,0.246,0.225,0.567,0.225,0.963v3.512
			c0,0.265,0.015,0.458,0.046,0.581c0.031,0.123,0.134,0.185,0.311,0.185c0.097,0,0.212-0.018,0.344-0.053V720.633z
			 M-142.182,717.127c-0.141,0.105-0.327,0.183-0.556,0.23c-0.229,0.049-0.47,0.088-0.721,0.118
			c-0.251,0.031-0.505,0.066-0.761,0.105c-0.256,0.04-0.485,0.104-0.688,0.191c-0.203,0.087-0.369,0.212-0.496,0.375
			c-0.128,0.162-0.192,0.384-0.192,0.665c0,0.184,0.037,0.34,0.112,0.467c0.075,0.128,0.172,0.23,0.291,0.31
			s0.258,0.136,0.417,0.171c0.159,0.035,0.326,0.053,0.502,0.053c0.371,0,0.688-0.051,0.953-0.151s0.48-0.229,0.648-0.382
			s0.291-0.32,0.371-0.5s0.119-0.349,0.119-0.507V717.127z"/>
		<path fill="#FFFFFF" d="M-138.253,713.819v1.085h0.027c0.467-0.829,1.208-1.243,2.222-1.243c0.45,0,0.825,0.062,1.125,0.185
			c0.3,0.124,0.542,0.296,0.728,0.517c0.186,0.221,0.315,0.482,0.391,0.787c0.075,0.304,0.112,0.642,0.112,1.012v4.498h-1.125v-4.63
			c0-0.424-0.124-0.759-0.371-1.006c-0.247-0.247-0.586-0.37-1.019-0.37c-0.344,0-0.642,0.053-0.893,0.158
			c-0.251,0.106-0.461,0.256-0.628,0.45s-0.293,0.421-0.377,0.682c-0.084,0.26-0.125,0.544-0.125,0.853v3.863h-1.125v-6.84H-138.253
			z"/>
		<path fill="#FFFFFF" d="M-131.89,712.59v-1.376h1.125v1.376H-131.89z M-130.765,713.819v6.84h-1.125v-6.84H-130.765z"/>
		<path fill="#FFFFFF" d="M-126.095,713.819v0.992h-1.363v4.247c0,0.132,0.011,0.238,0.033,0.317
			c0.022,0.079,0.064,0.142,0.125,0.186s0.147,0.072,0.258,0.086c0.11,0.013,0.253,0.02,0.43,0.02h0.516v0.992h-0.86
			c-0.292,0-0.541-0.02-0.748-0.06c-0.208-0.04-0.375-0.112-0.503-0.218c-0.128-0.106-0.223-0.256-0.284-0.45
			c-0.062-0.194-0.093-0.45-0.093-0.768v-4.353h-1.164v-0.992h1.164v-2.05h1.125v2.05H-126.095z"/>
		<path fill="#FFFFFF" d="M-124.786,712.59v-1.376h1.125v1.376H-124.786z M-123.661,713.819v6.84h-1.125v-6.84H-123.661z"/>
		<path fill="#FFFFFF" d="M-117.073,720.223c-0.512,0.388-1.155,0.582-1.931,0.582c-0.547,0-1.021-0.088-1.422-0.265
			c-0.401-0.176-0.739-0.423-1.012-0.741c-0.273-0.317-0.479-0.696-0.615-1.138c-0.137-0.44-0.214-0.921-0.231-1.441
			c0-0.521,0.08-0.997,0.238-1.429c0.159-0.433,0.381-0.808,0.668-1.125s0.626-0.564,1.019-0.74c0.393-0.177,0.822-0.265,1.29-0.265
			c0.608,0,1.113,0.125,1.515,0.377c0.401,0.251,0.723,0.571,0.966,0.959c0.243,0.389,0.41,0.812,0.503,1.27
			c0.092,0.459,0.13,0.896,0.112,1.311h-5.12c-0.009,0.3,0.026,0.584,0.106,0.853c0.079,0.27,0.207,0.508,0.383,0.715
			s0.401,0.373,0.675,0.496s0.595,0.186,0.966,0.186c0.476,0,0.866-0.11,1.171-0.331c0.304-0.221,0.504-0.556,0.602-1.006h1.111
			C-116.231,719.257-116.562,719.835-117.073,720.223z M-117.344,715.83c-0.102-0.237-0.238-0.442-0.41-0.614
			c-0.172-0.173-0.375-0.309-0.608-0.41c-0.234-0.102-0.492-0.152-0.774-0.152c-0.291,0-0.554,0.051-0.787,0.152
			c-0.234,0.102-0.435,0.24-0.602,0.416c-0.168,0.177-0.3,0.382-0.397,0.615c-0.097,0.234-0.154,0.483-0.172,0.748h3.929
			C-117.184,716.32-117.243,716.068-117.344,715.83z"/>
		<path fill="#FFFFFF" d="M-113.951,719.131c0.106,0.172,0.245,0.31,0.417,0.41c0.172,0.102,0.366,0.175,0.583,0.219
			c0.216,0.044,0.438,0.066,0.668,0.066c0.176,0,0.361-0.014,0.556-0.04c0.194-0.026,0.373-0.075,0.536-0.146
			s0.298-0.174,0.403-0.311c0.106-0.137,0.159-0.312,0.159-0.523c0-0.291-0.11-0.511-0.331-0.661
			c-0.221-0.149-0.496-0.271-0.827-0.363c-0.331-0.093-0.69-0.177-1.078-0.252c-0.388-0.074-0.748-0.181-1.078-0.317
			c-0.331-0.137-0.606-0.328-0.827-0.575c-0.22-0.247-0.331-0.591-0.331-1.032c0-0.344,0.077-0.64,0.231-0.886
			c0.154-0.247,0.353-0.448,0.595-0.603s0.516-0.269,0.82-0.344s0.606-0.112,0.906-0.112c0.388,0,0.745,0.033,1.072,0.099
			c0.326,0.066,0.615,0.182,0.866,0.345s0.452,0.383,0.602,0.661c0.15,0.277,0.238,0.624,0.265,1.038h-1.125
			c-0.018-0.22-0.075-0.403-0.172-0.549c-0.097-0.146-0.221-0.262-0.371-0.351c-0.15-0.088-0.315-0.152-0.496-0.191
			c-0.181-0.04-0.364-0.06-0.549-0.06c-0.168,0-0.337,0.013-0.509,0.039c-0.172,0.027-0.329,0.073-0.47,0.14
			c-0.141,0.065-0.256,0.154-0.344,0.265s-0.132,0.253-0.132,0.43c0,0.194,0.068,0.355,0.205,0.482
			c0.137,0.128,0.311,0.234,0.522,0.317c0.212,0.084,0.45,0.155,0.715,0.212c0.264,0.058,0.529,0.117,0.793,0.179
			c0.282,0.062,0.558,0.137,0.827,0.225c0.269,0.089,0.507,0.205,0.714,0.351c0.208,0.146,0.375,0.329,0.503,0.55
			c0.128,0.22,0.192,0.493,0.192,0.819c0,0.415-0.086,0.759-0.258,1.032c-0.172,0.273-0.397,0.494-0.675,0.661
			c-0.278,0.168-0.591,0.285-0.939,0.351c-0.349,0.066-0.694,0.1-1.039,0.1c-0.379,0-0.741-0.04-1.084-0.119
			c-0.344-0.079-0.648-0.209-0.913-0.391c-0.265-0.181-0.476-0.418-0.635-0.714s-0.247-0.655-0.265-1.078h1.125
			C-114.114,718.75-114.057,718.959-113.951,719.131z"/>
		<path fill="#FFFFFF" d="M-105.34,712.271v-1.058h7.555v1.058h-3.149v8.388h-1.257v-8.388H-105.34z"/>
		<path fill="#FFFFFF" d="M-92.335,720.633c-0.194,0.114-0.464,0.172-0.808,0.172c-0.291,0-0.522-0.082-0.694-0.245
			s-0.258-0.43-0.258-0.8c-0.309,0.37-0.668,0.637-1.078,0.8s-0.854,0.245-1.33,0.245c-0.309,0-0.602-0.035-0.879-0.105
			c-0.278-0.071-0.519-0.181-0.722-0.331c-0.203-0.149-0.363-0.346-0.482-0.589c-0.119-0.242-0.179-0.535-0.179-0.88
			c0-0.388,0.066-0.705,0.198-0.952c0.133-0.247,0.307-0.447,0.522-0.602s0.463-0.271,0.741-0.351
			c0.277-0.08,0.562-0.146,0.854-0.199c0.309-0.062,0.602-0.107,0.879-0.139c0.278-0.03,0.523-0.075,0.734-0.132
			c0.212-0.058,0.379-0.142,0.503-0.252c0.123-0.11,0.186-0.271,0.186-0.482c0-0.247-0.047-0.445-0.14-0.596
			c-0.092-0.149-0.211-0.265-0.356-0.344s-0.31-0.132-0.489-0.159c-0.182-0.026-0.36-0.039-0.536-0.039
			c-0.477,0-0.873,0.091-1.19,0.271s-0.49,0.522-0.517,1.024H-98.5c0.018-0.423,0.105-0.78,0.265-1.071
			c0.158-0.291,0.37-0.526,0.635-0.708c0.265-0.181,0.566-0.311,0.906-0.39c0.34-0.08,0.703-0.119,1.092-0.119
			c0.309,0,0.615,0.021,0.919,0.066c0.305,0.044,0.58,0.134,0.827,0.271c0.246,0.136,0.445,0.327,0.595,0.574
			c0.15,0.246,0.226,0.567,0.226,0.963v3.512c0,0.265,0.015,0.458,0.046,0.581s0.135,0.185,0.311,0.185
			c0.098,0,0.212-0.018,0.345-0.053V720.633z M-94.161,717.127c-0.141,0.105-0.326,0.183-0.556,0.23
			c-0.229,0.049-0.47,0.088-0.721,0.118c-0.251,0.031-0.505,0.066-0.761,0.105c-0.256,0.04-0.485,0.104-0.688,0.191
			c-0.203,0.087-0.369,0.212-0.496,0.375c-0.128,0.162-0.192,0.384-0.192,0.665c0,0.184,0.037,0.34,0.112,0.467
			c0.075,0.128,0.172,0.23,0.291,0.31s0.258,0.136,0.417,0.171s0.326,0.053,0.503,0.053c0.37,0,0.688-0.051,0.952-0.151
			s0.48-0.229,0.648-0.382c0.167-0.153,0.291-0.32,0.37-0.5c0.08-0.18,0.119-0.349,0.119-0.507V717.127z"/>
		<path fill="#FFFFFF" d="M-91.225,712.59v-1.376h1.125v1.376H-91.225z M-90.1,713.819v6.84h-1.125v-6.84H-90.1z"/>
		<path fill="#FFFFFF" d="M-78.782,712.55c-0.48-0.335-1.052-0.503-1.713-0.503c-0.564,0-1.048,0.105-1.448,0.317
			c-0.401,0.212-0.732,0.496-0.992,0.854c-0.261,0.357-0.452,0.766-0.576,1.224c-0.123,0.459-0.185,0.935-0.185,1.429
			c0,0.538,0.062,1.048,0.185,1.528c0.124,0.48,0.315,0.899,0.576,1.257c0.26,0.356,0.593,0.642,0.998,0.853
			c0.406,0.212,0.891,0.318,1.456,0.318c0.414,0,0.782-0.068,1.104-0.205c0.321-0.137,0.6-0.326,0.833-0.569
			c0.233-0.242,0.417-0.531,0.549-0.866c0.133-0.335,0.212-0.697,0.238-1.085h1.257c-0.123,1.19-0.533,2.116-1.23,2.778
			c-0.696,0.661-1.649,0.992-2.857,0.992c-0.732,0-1.371-0.126-1.918-0.377c-0.547-0.252-1.001-0.598-1.362-1.039
			c-0.362-0.44-0.634-0.961-0.814-1.561s-0.271-1.244-0.271-1.932c0-0.688,0.097-1.334,0.291-1.938
			c0.193-0.604,0.479-1.131,0.854-1.581c0.374-0.449,0.842-0.805,1.401-1.064c0.561-0.26,1.202-0.391,1.926-0.391
			c0.493,0,0.961,0.066,1.401,0.199c0.441,0.132,0.834,0.326,1.178,0.582s0.631,0.575,0.86,0.959
			c0.229,0.384,0.379,0.826,0.449,1.329h-1.257C-77.99,713.388-78.302,712.885-78.782,712.55z"/>
		<path fill="#FFFFFF" d="M-74,711.214v3.611h0.026c0.088-0.212,0.212-0.391,0.371-0.536c0.158-0.146,0.337-0.265,0.535-0.356
			c0.198-0.093,0.406-0.161,0.622-0.205c0.216-0.045,0.426-0.066,0.628-0.066c0.45,0,0.825,0.062,1.125,0.185
			c0.3,0.124,0.542,0.296,0.728,0.517s0.315,0.482,0.391,0.787c0.074,0.304,0.112,0.642,0.112,1.012v4.498h-1.125v-4.63
			c0-0.424-0.123-0.759-0.37-1.006s-0.587-0.37-1.019-0.37c-0.344,0-0.642,0.053-0.894,0.158c-0.251,0.106-0.461,0.256-0.628,0.45
			c-0.168,0.194-0.293,0.421-0.377,0.682c-0.084,0.26-0.126,0.544-0.126,0.853v3.863h-1.124v-9.445H-74z"/>
		<path fill="#FFFFFF" d="M-67.703,712.59v-1.376h1.124v1.376H-67.703z M-66.579,713.819v6.84h-1.124v-6.84H-66.579z"/>
	</g>
</g>
</svg>
