<?xml version="1.0" encoding="utf-8"?>
<!-- Generator: Adobe Illustrator 17.0.0, SVG Export Plug-In . SVG Version: 6.00 Build 0)  -->
<!DOCTYPE svg PUBLIC "-//W3C//DTD SVG 1.1//EN" "http://www.w3.org/Graphics/SVG/1.1/DTD/svg11.dtd">
<svg version="1.1" id="圖層_1" xmlns="http://www.w3.org/2000/svg" xmlns:xlink="http://www.w3.org/1999/xlink" x="0px" y="0px"
	 width="300px" height="300px" viewBox="0 0 300 300" enable-background="new 0 0 300 300" xml:space="preserve">
<g>
	<path fill="#040000" d="M204.742,115.293c-11.243,6.273-33.44,20.138-58.93,57.029c0.253-14.863-0.011-31.42-0.661-47.005
		c29.031-13.753,41.293-30.587,41.293-30.587c5.733-9.26,5.292-18.521-2.646-21.608c-8.31,8.688-20.565,19.094-39.937,29.298
		c-0.561-7.701-1.22-14.68-1.955-20.478c-4.343-34.26-15.434-26.458-15.434-26.458c2.348,20.389,3.795,37.903,4.604,53.164
		c-20.997,9.664-28.32,12.696-60.608,28.415c0,0-1.764,2.646-6.174,5.733c27.654-0.506,49.963-5.406,67.565-11.898
		c0.432,26.711-1.227,45.375-2.742,61.287c-2.646,27.781-10.583,29.104-7.937,50.271c21.167,12.788,20.509-21.195,22.49-35.278
		c0.078-0.555,0.153-1.13,0.227-1.713c12.364-34.553,45.063-67.152,62.832-76.559c11.797-6.245,14.305-6.669,9.407,6.1
		c-8.231,21.461-18.815,39.981-28.516,54.681c-7.741,11.729-23.445,14.405-18.815,20.873c3.528,4.928,9.121-0.44,28.516,0.588
		c22.196,1.176,11.906-15.875,5.659-16.095c-8.601-0.304-12.421-3.895-12.421-3.895s25.213-26.588,37.336-47.037
		C246.987,111.916,227.896,102.374,204.742,115.293z"/>
</g>
</svg>
