<?xml version="1.0" encoding="utf-8"?>
<!-- Generator: Adobe Illustrator 17.0.0, SVG Export Plug-In . SVG Version: 6.00 Build 0)  -->
<!DOCTYPE svg PUBLIC "-//W3C//DTD SVG 1.1//EN" "http://www.w3.org/Graphics/SVG/1.1/DTD/svg11.dtd">
<svg version="1.1" id="圖層_1" xmlns="http://www.w3.org/2000/svg" xmlns:xlink="http://www.w3.org/1999/xlink" x="0px" y="0px"
	 width="90px" height="90px" viewBox="0 0 90 90" enable-background="new 0 0 90 90" xml:space="preserve">
<g>
	<polygon fill="#231815" points="58.5,24 58.5,57 49.5,57 49.5,24 40.5,24 40.5,57 31.5,57 31.5,24 22.5,24 22.5,66 67.5,66 
		67.5,24 	"/>
	<g>
		<polygon fill="#231815" points="27.857,71 22.5,71 22.5,76 23.572,76 23.572,72.072 24.643,72.072 24.643,76 25.715,76 
			25.715,72.072 26.785,72.072 26.785,76 27.857,76 		"/>
		<polygon fill="#231815" points="39.167,71 39.167,74.928 36.548,74.928 36.548,71 35.476,71 35.476,76 40.238,76 40.238,71 		"/>
		<polygon fill="#231815" points="46.429,71 41.666,71 41.666,76 42.738,76 42.738,72.072 45.357,72.072 45.357,76 46.429,76 		"/>
		<polygon fill="#231815" points="67.5,71 62.738,71 62.738,76 63.809,76 63.809,72.072 66.428,72.072 66.428,76 67.5,76 		"/>
		<path fill="#231815" d="M58.809,71h-4.762v5h1.072v-1.072h2.619V76h1.072L58.809,71L58.809,71z M57.738,73.857h-2.619v-1.786
			h2.619V73.857z"/>
		<path fill="#231815" d="M29.286,71v5h4.762v-5H29.286z M32.977,74.928h-2.619v-2.857h2.619V74.928z"/>
		<rect x="60.238" y="71" fill="#231815" width="1.072" height="5"/>
		<polygon fill="#231815" points="52.619,71 47.858,71 47.858,72.072 49.703,72.072 49.703,76 50.774,76 50.774,72.072 
			52.619,72.072 		"/>
	</g>
</g>
</svg>
