<?xml version="1.0" encoding="utf-8"?>
<!-- Generator: Adobe Illustrator 17.0.0, SVG Export Plug-In . SVG Version: 6.00 Build 0)  -->
<!DOCTYPE svg PUBLIC "-//W3C//DTD SVG 1.1//EN" "http://www.w3.org/Graphics/SVG/1.1/DTD/svg11.dtd">
<svg version="1.1" id="圖層_1" xmlns="http://www.w3.org/2000/svg" xmlns:xlink="http://www.w3.org/1999/xlink" x="0px" y="0px"
	 width="180px" height="180px" viewBox="0 0 180 180" enable-background="new 0 0 180 180" xml:space="preserve">
<polygon fill="#231815" points="59.4,22.6 59.4,57.8 49.8,57.8 49.8,22.6 40.2,22.6 40.2,57.8 30.6,57.8 30.6,22.6 21,22.6 21,67.4 
	69,67.4 69,22.6 "/>
<polygon fill="#FFFFFF" points="149.4,22.6 149.4,57.8 139.8,57.8 139.8,22.6 130.2,22.6 130.2,57.8 120.6,57.8 120.6,22.6 
	111,22.6 111,67.4 159,67.4 159,22.6 "/>
<g>
	<polygon fill="#231815" points="149.4,112.267 149.4,147.467 139.8,147.467 139.8,112.267 130.2,112.267 130.2,147.467 
		120.6,147.467 120.6,112.267 111,112.267 111,157.067 159,157.067 159,112.267 	"/>
	<g>
		<polygon fill="#231815" points="116.714,162.4 111,162.4 111,167.733 112.143,167.733 112.143,163.543 113.286,163.543 
			113.286,167.733 114.429,167.733 114.429,163.543 115.571,163.543 115.571,167.733 116.714,167.733 		"/>
		<polygon fill="#231815" points="128.778,162.4 128.778,166.59 125.984,166.59 125.984,162.4 124.841,162.4 124.841,167.733 
			129.921,167.733 129.921,162.4 		"/>
		<polygon fill="#231815" points="136.524,162.4 131.444,162.4 131.444,167.733 132.587,167.733 132.587,163.543 135.381,163.543 
			135.381,167.733 136.524,167.733 		"/>
		<polygon fill="#231815" points="159,162.4 153.921,162.4 153.921,167.733 155.063,167.733 155.063,163.543 157.857,163.543 
			157.857,167.733 159,167.733 		"/>
		<path fill="#231815" d="M149.73,162.4h-5.079v5.333h1.143v-1.143h2.794v1.143h1.143V162.4z M148.587,165.448h-2.794v-1.905h2.794
			V165.448z"/>
		<path fill="#231815" d="M118.238,162.4v5.333h5.079V162.4H118.238z M122.175,166.59h-2.794v-3.048h2.794V166.59z"/>
		<rect x="151.254" y="162.4" fill="#231815" width="1.143" height="5.333"/>
		<polygon fill="#231815" points="143.127,162.4 138.048,162.4 138.048,163.543 140.016,163.543 140.016,167.733 141.159,167.733 
			141.159,163.543 143.127,163.543 		"/>
	</g>
</g>
<g>
	<polygon fill="#FFFFFF" points="59.4,112.267 59.4,147.467 49.8,147.467 49.8,112.267 40.2,112.267 40.2,147.467 30.6,147.467 
		30.6,112.267 21,112.267 21,157.067 69,157.067 69,112.267 	"/>
	<g>
		<polygon fill="#FFFFFF" points="26.714,162.4 21,162.4 21,167.733 22.143,167.733 22.143,163.543 23.286,163.543 23.286,167.733 
			24.429,167.733 24.429,163.543 25.571,163.543 25.571,167.733 26.714,167.733 		"/>
		<polygon fill="#FFFFFF" points="38.778,162.4 38.778,166.59 35.984,166.59 35.984,162.4 34.841,162.4 34.841,167.733 
			39.921,167.733 39.921,162.4 		"/>
		<polygon fill="#FFFFFF" points="46.524,162.4 41.444,162.4 41.444,167.733 42.587,167.733 42.587,163.543 45.381,163.543 
			45.381,167.733 46.524,167.733 		"/>
		<polygon fill="#FFFFFF" points="69,162.4 63.921,162.4 63.921,167.733 65.063,167.733 65.063,163.543 67.857,163.543 
			67.857,167.733 69,167.733 		"/>
		<path fill="#FFFFFF" d="M59.73,162.4h-5.079v5.333h1.143v-1.143h2.794v1.143h1.143V162.4z M58.587,165.448h-2.794v-1.905h2.794
			V165.448z"/>
		<path fill="#FFFFFF" d="M28.238,162.4v5.333h5.079V162.4H28.238z M32.175,166.59h-2.794v-3.048h2.794V166.59z"/>
		<rect x="61.254" y="162.4" fill="#FFFFFF" width="1.143" height="5.333"/>
		<polygon fill="#FFFFFF" points="53.127,162.4 48.048,162.4 48.048,163.543 50.016,163.543 50.016,167.733 51.159,167.733 
			51.159,163.543 53.127,163.543 		"/>
	</g>
</g>
</svg>
