<?xml version="1.0" encoding="utf-8"?>
<!-- Generator: Adobe Illustrator 17.0.0, SVG Export Plug-In . SVG Version: 6.00 Build 0)  -->
<!DOCTYPE svg PUBLIC "-//W3C//DTD SVG 1.1//EN" "http://www.w3.org/Graphics/SVG/1.1/DTD/svg11.dtd">
<svg version="1.1" id="圖層_1" xmlns="http://www.w3.org/2000/svg" xmlns:xlink="http://www.w3.org/1999/xlink" x="0px" y="0px"
	 width="378px" height="42px" viewBox="0 0 378 42" enable-background="new 0 0 378 42" xml:space="preserve">
<g>
	<polygon fill="#FFFFFF" points="45,0 0,0 0,42 9,42 9,9 18,9 18,42 27,42 27,9 36,9 36,42 45,42 	"/>
	<polygon fill="#FFFFFF" points="140,0 140,33 118,33 118,0 109,0 109,42 149,42 149,0 	"/>
	<polygon fill="#FFFFFF" points="201,0 161,0 161,42 170,42 170,9 192,9 192,42 201,42 	"/>
	<polygon fill="#FFFFFF" points="378,0 338,0 338,42 347,42 347,9 369,9 369,42 378,42 	"/>
	<path fill="#FFFFFF" d="M305,0h-40v42h9v-9h22v9h9V0z M296,24h-22V9h22V24z"/>
	<path fill="#FFFFFF" d="M57,0v42h40V0H57z M88,33H66V9h22V33z"/>
	<rect x="317" fill="#FFFFFF" width="9" height="42"/>
	<polygon fill="#FFFFFF" points="253,0 213,0 213,9 228.5,9 228.5,42 237.5,42 237.5,9 253,9 	"/>
</g>
</svg>
