<?xml version="1.0" encoding="utf-8"?>
<!-- Generator: Adobe Illustrator 17.0.0, SVG Export Plug-In . SVG Version: 6.00 Build 0)  -->
<!DOCTYPE svg PUBLIC "-//W3C//DTD SVG 1.1//EN" "http://www.w3.org/Graphics/SVG/1.1/DTD/svg11.dtd">
<svg version="1.1" id="圖層_1" xmlns="http://www.w3.org/2000/svg" xmlns:xlink="http://www.w3.org/1999/xlink" x="0px" y="0px"
	 width="80px" height="80px" viewBox="0 0 80 80" enable-background="new 0 0 80 80" xml:space="preserve">
<path fill="#231815" d="M47.071,78.184L40,71.112l-7.071,7.071L17.373,62.627c-12.476-12.477-12.476-32.777,0-45.254
	C23.417,11.329,31.453,8,40,8s16.583,3.329,22.627,9.373c12.477,12.477,12.477,32.777,0,45.254L47.071,78.184z M40,12
	c-7.479,0-14.511,2.913-19.799,8.201c-10.917,10.917-10.917,28.681,0,39.598l12.728,12.729l4.243-4.243L24.444,55.557
	c-8.578-8.578-8.578-22.535,0-31.113c8.577-8.576,22.535-8.576,31.112,0c8.578,8.578,8.578,22.535,0,31.113l-8.485,8.484
	L31.515,48.485c-4.679-4.679-4.679-12.292,0-16.971c4.679-4.68,12.292-4.68,16.971,0c4.679,4.679,4.679,12.292,0,16.971
	l-5.657,5.657l4.243,4.242l5.657-5.656c7.018-7.019,7.018-18.438,0-25.457c-7.019-7.017-18.438-7.017-25.456,0
	C23.873,30.672,22,35.191,22,40s1.873,9.328,5.272,12.729l19.799,19.799l12.728-12.729c10.917-10.917,10.917-28.681,0-39.598
	C54.51,14.913,47.479,12,40,12z M40,32.004c-2.049,0-4.097,0.779-5.657,2.339c-3.119,3.119-3.119,8.195,0,11.314L40,51.313
	l5.657-5.656c3.119-3.119,3.119-8.195,0-11.314C44.098,32.783,42.048,32.004,40,32.004z"/>
</svg>
