<?xml version="1.0" encoding="utf-8"?>
<!-- Generator: Adobe Illustrator 17.0.0, SVG Export Plug-In . SVG Version: 6.00 Build 0)  -->
<!DOCTYPE svg PUBLIC "-//W3C//DTD SVG 1.1//EN" "http://www.w3.org/Graphics/SVG/1.1/DTD/svg11.dtd">
<svg version="1.1" id="圖層_1" xmlns="http://www.w3.org/2000/svg" xmlns:xlink="http://www.w3.org/1999/xlink" x="0px" y="0px"
	 width="108px" height="108px" viewBox="0 0 108 108" enable-background="new 0 0 108 108" xml:space="preserve">
<g>
	<path fill="#040000" d="M73.882,6L102,34.118v39.765L73.882,102H34.118L6,73.882V34.118L34.118,6H73.882 M76.368,0H31.632L0,31.632
		v44.735L31.632,108h44.735L108,76.368V31.632L76.368,0L76.368,0z"/>
	<rect x="63" y="33" width="6" height="30"/>
	<polygon fill="#040000" points="27,33 57,33 57,39 45,39 45,75 39,75 39,39 27,39 	"/>
	<polygon fill="#040000" points="51,45 57,45 57,69 81,69 81,75 51,75 	"/>
</g>
</svg>
