<?xml version="1.0" encoding="utf-8"?>
<!-- Generator: Adobe Illustrator 17.0.0, SVG Export Plug-In . SVG Version: 6.00 Build 0)  -->
<!DOCTYPE svg PUBLIC "-//W3C//DTD SVG 1.1//EN" "http://www.w3.org/Graphics/SVG/1.1/DTD/svg11.dtd">
<svg version="1.1" id="圖層_1" xmlns="http://www.w3.org/2000/svg" xmlns:xlink="http://www.w3.org/1999/xlink" x="0px" y="0px"
	 width="600px" height="600px" viewBox="159.5 334.5 600 600" enable-background="new 159.5 334.5 600 600" xml:space="preserve">
<g>
	<g>
		<g>
			<path fill="#969696" d="M226.5,349.5v8h-8v-8H226.5 M227.5,348.5h-10v10h10V348.5L227.5,348.5z"/>
		</g>
	</g>
	<g>
		<g>
			<path fill="#969696" d="M238.5,349.5v8h-8v-8H238.5 M239.5,348.5h-10v10h10V348.5L239.5,348.5z"/>
		</g>
	</g>
	<g>
		<g>
			<path fill="#969696" d="M250.5,349.5v8h-8v-8H250.5 M251.5,348.5h-10v10h10V348.5L251.5,348.5z"/>
		</g>
	</g>
	<g>
		<g>
			<path fill="#969696" d="M226.5,361.5v8h-8v-8H226.5 M227.5,360.5h-10v10h10V360.5L227.5,360.5z"/>
		</g>
	</g>
	<g>
		<g>
			<path fill="#969696" d="M238.5,361.5v8h-8v-8H238.5 M239.5,360.5h-10v10h10V360.5L239.5,360.5z"/>
		</g>
	</g>
	<g>
		<g>
			<path fill="#969696" d="M250.5,361.5v8h-8v-8H250.5 M251.5,360.5h-10v10h10V360.5L251.5,360.5z"/>
		</g>
	</g>
</g>
<path fill="#969696" d="M193.5,355.964l-0.707,0.707l2.121,2.121c0.391,0.391,0.39,1.024,0,1.414l-2.121,2.121l0.707,0.707
	l2.121-2.121c0.781-0.781,0.781-2.047,0-2.828L193.5,355.964z"/>
<path fill="#969696" d="M175.5,363.036l0.707-0.707l-2.121-2.121c-0.391-0.391-0.39-1.024,0-1.414l2.121-2.121l-0.707-0.707
	l-2.121,2.121c-0.781,0.781-0.781,2.047,0,2.828L175.5,363.036z"/>
<g>
	<path fill="#969696" d="M200.5,349.5v20h-32v-20H200.5 M201.5,348.5h-34v22h34V348.5L201.5,348.5z"/>
</g>
<g>
	<g>
		<g>
			<path d="M226.5,399.5v8h-8v-8H226.5 M227.5,398.5h-10v10h10V398.5L227.5,398.5z"/>
		</g>
	</g>
	<g>
		<g>
			<path d="M238.5,399.5v8h-8v-8H238.5 M239.5,398.5h-10v10h10V398.5L239.5,398.5z"/>
		</g>
	</g>
	<g>
		<g>
			<path d="M250.5,399.5v8h-8v-8H250.5 M251.5,398.5h-10v10h10V398.5L251.5,398.5z"/>
		</g>
	</g>
	<g>
		<g>
			<path d="M226.5,411.5v8h-8v-8H226.5 M227.5,410.5h-10v10h10V410.5L227.5,410.5z"/>
		</g>
	</g>
	<g>
		<g>
			<path d="M238.5,411.5v8h-8v-8H238.5 M239.5,410.5h-10v10h10V410.5L239.5,410.5z"/>
		</g>
	</g>
	<g>
		<g>
			<path d="M250.5,411.5v8h-8v-8H250.5 M251.5,410.5h-10v10h10V410.5L251.5,410.5z"/>
		</g>
	</g>
</g>
<path d="M193.5,405.964l-0.707,0.707l2.121,2.121c0.391,0.391,0.39,1.024,0,1.414l-2.121,2.121l0.707,0.707l2.121-2.121
	c0.781-0.781,0.781-2.047,0-2.828L193.5,405.964z"/>
<path d="M175.5,413.036l0.707-0.707l-2.121-2.121c-0.391-0.391-0.39-1.024,0-1.414l2.121-2.121l-0.707-0.707l-2.121,2.121
	c-0.781,0.781-0.781,2.047,0,2.828L175.5,413.036z"/>
<rect x="167.5" y="398.5" fill="none" stroke="#000000" stroke-miterlimit="10" width="34" height="22"/>
<g>
	<g>
		<g>
			<path fill="#E9573F" d="M226.5,449.5v8h-8v-8H226.5 M227.5,448.5h-10v10h10V448.5L227.5,448.5z"/>
		</g>
	</g>
	<g>
		<g>
			<path fill="#E9573F" d="M238.5,449.5v8h-8v-8H238.5 M239.5,448.5h-10v10h10V448.5L239.5,448.5z"/>
		</g>
	</g>
	<g>
		<g>
			<path fill="#E9573F" d="M250.5,449.5v8h-8v-8H250.5 M251.5,448.5h-10v10h10V448.5L251.5,448.5z"/>
		</g>
	</g>
	<g>
		<g>
			<path fill="#E9573F" d="M226.5,461.5v8h-8v-8H226.5 M227.5,460.5h-10v10h10V460.5L227.5,460.5z"/>
		</g>
	</g>
	<g>
		<g>
			<path fill="#E9573F" d="M238.5,461.5v8h-8v-8H238.5 M239.5,460.5h-10v10h10V460.5L239.5,460.5z"/>
		</g>
	</g>
	<g>
		<g>
			<path fill="#E9573F" d="M250.5,461.5v8h-8v-8H250.5 M251.5,460.5h-10v10h10V460.5L251.5,460.5z"/>
		</g>
	</g>
</g>
<path fill="#E9573F" d="M193.5,455.964l-0.707,0.707l2.121,2.121c0.391,0.391,0.39,1.024,0,1.414l-2.121,2.121l0.707,0.707
	l2.121-2.121c0.781-0.781,0.781-2.047,0-2.828L193.5,455.964z"/>
<path fill="#E9573F" d="M175.5,463.036l0.707-0.707l-2.121-2.121c-0.391-0.391-0.39-1.024,0-1.414l2.121-2.121l-0.707-0.707
	l-2.121,2.121c-0.781,0.781-0.781,2.047,0,2.828L175.5,463.036z"/>
<g>
	<path fill="#E9573F" d="M200.5,449.5v20h-32v-20H200.5 M201.5,448.5h-34v22h34V448.5L201.5,448.5z"/>
</g>
<g>
	<g>
		<g>
			<path fill="#F5F5F5" d="M226.5,499.5v8h-8v-8H226.5 M227.5,498.5h-10v10h10V498.5L227.5,498.5z"/>
		</g>
	</g>
	<g>
		<g>
			<path fill="#F5F5F5" d="M238.5,499.5v8h-8v-8H238.5 M239.5,498.5h-10v10h10V498.5L239.5,498.5z"/>
		</g>
	</g>
	<g>
		<g>
			<path fill="#F5F5F5" d="M250.5,499.5v8h-8v-8H250.5 M251.5,498.5h-10v10h10V498.5L251.5,498.5z"/>
		</g>
	</g>
	<g>
		<g>
			<path fill="#F5F5F5" d="M226.5,511.5v8h-8v-8H226.5 M227.5,510.5h-10v10h10V510.5L227.5,510.5z"/>
		</g>
	</g>
	<g>
		<g>
			<path fill="#F5F5F5" d="M238.5,511.5v8h-8v-8H238.5 M239.5,510.5h-10v10h10V510.5L239.5,510.5z"/>
		</g>
	</g>
	<g>
		<g>
			<path fill="#F5F5F5" d="M250.5,511.5v8h-8v-8H250.5 M251.5,510.5h-10v10h10V510.5L251.5,510.5z"/>
		</g>
	</g>
</g>
<path fill="#F5F5F5" d="M193.5,505.964l-0.707,0.707l2.121,2.121c0.391,0.391,0.39,1.024,0,1.414l-2.121,2.121l0.707,0.707
	l2.121-2.121c0.781-0.781,0.781-2.047,0-2.828L193.5,505.964z"/>
<path fill="#F5F5F5" d="M175.5,513.036l0.707-0.707l-2.121-2.121c-0.391-0.391-0.39-1.024,0-1.414l2.121-2.121l-0.707-0.707
	l-2.121,2.121c-0.781,0.781-0.781,2.047,0,2.828L175.5,513.036z"/>
<g>
	<path fill="#F5F5F5" d="M200.5,499.5v20h-32v-20H200.5 M201.5,498.5h-34v22h34V498.5L201.5,498.5z"/>
</g>
</svg>
