<?xml version="1.0" encoding="utf-8"?>
<!-- Generator: Adobe Illustrator 17.0.0, SVG Export Plug-In . SVG Version: 6.00 Build 0)  -->
<!DOCTYPE svg PUBLIC "-//W3C//DTD SVG 1.1//EN" "http://www.w3.org/Graphics/SVG/1.1/DTD/svg11.dtd">
<svg version="1.1" id="圖層_1" xmlns="http://www.w3.org/2000/svg" xmlns:xlink="http://www.w3.org/1999/xlink" x="0px" y="0px"
	 width="600px" height="600px" viewBox="-10.5 70.5 600 600" enable-background="new -10.5 70.5 600 600" xml:space="preserve">
<path fill="#969696" d="M180.5,86.5v18h-32v-18H180.5 M181.5,85.5h-34v20h34V85.5L181.5,85.5z"/>
<g>
	<g>
		<path fill="#969696" d="M206.5,85.5v8h-8v-8H206.5 M207.5,84.5h-10v10h10V84.5L207.5,84.5z"/>
	</g>
</g>
<g>
	<g>
		<path fill="#969696" d="M218.5,85.5v8h-8v-8H218.5 M219.5,84.5h-10v10h10V84.5L219.5,84.5z"/>
	</g>
</g>
<g>
	<g>
		<path fill="#969696" d="M230.5,85.5v8h-8v-8H230.5 M231.5,84.5h-10v10h10V84.5L231.5,84.5z"/>
	</g>
</g>
<g>
	<g>
		<path fill="#969696" d="M206.5,97.5v8h-8v-8H206.5 M207.5,96.5h-10v10h10V96.5L207.5,96.5z"/>
	</g>
</g>
<g>
	<g>
		<path fill="#969696" d="M218.5,97.5v8h-8v-8H218.5 M219.5,96.5h-10v10h10V96.5L219.5,96.5z"/>
	</g>
</g>
<g>
	<g>
		<path fill="#969696" d="M230.5,97.5v8h-8v-8H230.5 M231.5,96.5h-10v10h10V96.5L231.5,96.5z"/>
	</g>
</g>
<path fill="#969696" d="M174.793,91.964l-0.707,0.707l2.121,2.121c0.391,0.391,0.39,1.024,0,1.414l-2.121,2.121l0.707,0.707
	l2.121-2.121c0.781-0.781,0.781-2.047,0-2.828L174.793,91.964z"/>
<path fill="#969696" d="M154.207,99.036l0.707-0.707l-2.121-2.121c-0.391-0.391-0.39-1.024,0-1.414l2.121-2.121l-0.707-0.707
	l-2.121,2.121c-0.781,0.781-0.781,2.047,0,2.828L154.207,99.036z"/>
<g>
	<path d="M206.5,135.5v8h-8v-8H206.5 M207.5,134.5h-10v10h10V134.5L207.5,134.5z"/>
</g>
<g>
	<path d="M218.5,135.5v8h-8v-8H218.5 M219.5,134.5h-10v10h10V134.5L219.5,134.5z"/>
</g>
<g>
	<path d="M230.5,135.5v8h-8v-8H230.5 M231.5,134.5h-10v10h10V134.5L231.5,134.5z"/>
</g>
<g>
	<path d="M206.5,147.5v8h-8v-8H206.5 M207.5,146.5h-10v10h10V146.5L207.5,146.5z"/>
</g>
<g>
	<path d="M218.5,147.5v8h-8v-8H218.5 M219.5,146.5h-10v10h10V146.5L219.5,146.5z"/>
</g>
<g>
	<path d="M230.5,147.5v8h-8v-8H230.5 M231.5,146.5h-10v10h10V146.5L231.5,146.5z"/>
</g>
<g>
	<path fill="#E9573F" d="M206.5,185.5v8h-8v-8H206.5 M207.5,184.5h-10v10h10V184.5L207.5,184.5z"/>
</g>
<g>
	<path fill="#E9573F" d="M218.5,185.5v8h-8v-8H218.5 M219.5,184.5h-10v10h10V184.5L219.5,184.5z"/>
</g>
<g>
	<path fill="#E9573F" d="M230.5,185.5v8h-8v-8H230.5 M231.5,184.5h-10v10h10V184.5L231.5,184.5z"/>
</g>
<g>
	<path fill="#E9573F" d="M206.5,197.5v8h-8v-8H206.5 M207.5,196.5h-10v10h10V196.5L207.5,196.5z"/>
</g>
<g>
	<path fill="#E9573F" d="M218.5,197.5v8h-8v-8H218.5 M219.5,196.5h-10v10h10V196.5L219.5,196.5z"/>
</g>
<g>
	<path fill="#E9573F" d="M230.5,197.5v8h-8v-8H230.5 M231.5,196.5h-10v10h10V196.5L231.5,196.5z"/>
</g>
<g>
	<g>
		<path fill="#F5F5F5" d="M206.5,235.5v8h-8v-8H206.5 M207.5,234.5h-10v10h10V234.5L207.5,234.5z"/>
	</g>
</g>
<g>
	<g>
		<path fill="#F5F5F5" d="M218.5,235.5v8h-8v-8H218.5 M219.5,234.5h-10v10h10V234.5L219.5,234.5z"/>
	</g>
</g>
<g>
	<g>
		<path fill="#F5F5F5" d="M230.5,235.5v8h-8v-8H230.5 M231.5,234.5h-10v10h10V234.5L231.5,234.5z"/>
	</g>
</g>
<g>
	<g>
		<path fill="#F5F5F5" d="M206.5,247.5v8h-8v-8H206.5 M207.5,246.5h-10v10h10V246.5L207.5,246.5z"/>
	</g>
</g>
<g>
	<g>
		<path fill="#F5F5F5" d="M218.5,247.5v8h-8v-8H218.5 M219.5,246.5h-10v10h10V246.5L219.5,246.5z"/>
	</g>
</g>
<g>
	<g>
		<path fill="#F5F5F5" d="M230.5,247.5v8h-8v-8H230.5 M231.5,246.5h-10v10h10V246.5L231.5,246.5z"/>
	</g>
</g>
<path d="M180.5,136.5v18h-32v-18H180.5 M181.5,135.5h-34v20h34V135.5L181.5,135.5z"/>
<path d="M174.793,141.964l-0.707,0.707l2.121,2.121c0.391,0.391,0.39,1.024,0,1.414l-2.121,2.121l0.707,0.707l2.121-2.121
	c0.781-0.781,0.781-2.047,0-2.828L174.793,141.964z"/>
<path d="M154.207,149.036l0.707-0.707l-2.121-2.121c-0.391-0.391-0.39-1.024,0-1.414l2.121-2.121l-0.707-0.707l-2.121,2.121
	c-0.781,0.781-0.781,2.047,0,2.828L154.207,149.036z"/>
<path fill="#E9573F" d="M180.5,186.5v18h-32v-18H180.5 M181.5,185.5h-34v20h34V185.5L181.5,185.5z"/>
<path fill="#E9573F" d="M174.793,191.964l-0.707,0.707l2.121,2.121c0.391,0.391,0.39,1.024,0,1.414l-2.121,2.121l0.707,0.707
	l2.121-2.121c0.781-0.781,0.781-2.047,0-2.828L174.793,191.964z"/>
<path fill="#E9573F" d="M154.207,199.036l0.707-0.707l-2.121-2.121c-0.391-0.391-0.39-1.024,0-1.414l2.121-2.121l-0.707-0.707
	l-2.121,2.121c-0.781,0.781-0.781,2.047,0,2.828L154.207,199.036z"/>
<path fill="#F5F5F5" d="M180.5,236.5v18h-32v-18H180.5 M181.5,235.5h-34v20h34V235.5L181.5,235.5z"/>
<path fill="#F5F5F5" d="M174.793,241.964l-0.707,0.707l2.121,2.121c0.391,0.391,0.39,1.024,0,1.414l-2.121,2.121l0.707,0.707
	l2.121-2.121c0.781-0.781,0.781-2.047,0-2.828L174.793,241.964z"/>
<path fill="#F5F5F5" d="M154.207,249.036l0.707-0.707l-2.121-2.121c-0.391-0.391-0.39-1.024,0-1.414l2.121-2.121l-0.707-0.707
	l-2.121,2.121c-0.781,0.781-0.781,2.047,0,2.828L154.207,249.036z"/>
</svg>
