<?xml version="1.0" encoding="utf-8"?>
<!-- Generator: Adobe Illustrator 17.0.0, SVG Export Plug-In . SVG Version: 6.00 Build 0)  -->
<!DOCTYPE svg PUBLIC "-//W3C//DTD SVG 1.1//EN" "http://www.w3.org/Graphics/SVG/1.1/DTD/svg11.dtd">
<svg version="1.1" id="圖層_1" xmlns="http://www.w3.org/2000/svg" xmlns:xlink="http://www.w3.org/1999/xlink" x="0px" y="0px"
	 width="90px" height="270px" viewBox="0 0 90 270" enable-background="new 0 0 90 270" xml:space="preserve">
<polygon points="61.875,108.75 61.875,150 50.625,150 50.625,108.75 39.375,108.75 39.375,150 28.125,150 28.125,108.75 
	16.875,108.75 16.875,161.25 73.125,161.25 73.125,108.75 "/>
<g>
	<polygon points="23.571,167.5 16.875,167.5 16.875,173.75 18.215,173.75 18.215,168.84 19.554,168.84 19.554,173.75 20.894,173.75 
		20.894,168.84 22.231,168.84 22.231,173.75 23.571,173.75 	"/>
	<polygon points="37.709,167.5 37.709,172.41 34.435,172.41 34.435,167.5 33.095,167.5 33.095,173.75 39.048,173.75 39.048,167.5 	
		"/>
	<polygon points="46.786,167.5 40.833,167.5 40.833,173.75 42.173,173.75 42.173,168.84 45.446,168.84 45.446,173.75 46.786,173.75 
			"/>
	<polygon points="73.125,167.5 67.173,167.5 67.173,173.75 68.511,173.75 68.511,168.84 71.785,168.84 71.785,173.75 73.125,173.75 
			"/>
	<path d="M62.261,167.5h-5.952v6.25h1.34v-1.34h3.274v1.34h1.34L62.261,167.5L62.261,167.5z M60.923,171.071h-3.274v-2.232h3.274
		V171.071z"/>
	<path d="M25.357,167.5v6.25h5.953v-6.25H25.357z M29.971,172.41h-3.274v-3.571h3.274V172.41z"/>
	<rect x="64.048" y="167.5" width="1.34" height="6.25"/>
	<polygon points="54.524,167.5 48.572,167.5 48.572,168.84 50.879,168.84 50.879,173.75 52.217,173.75 52.217,168.84 54.524,168.84 
			"/>
</g>
<polygon fill="#FFFFFF" points="61.875,18.75 61.875,60 50.625,60 50.625,18.75 39.375,18.75 39.375,60 28.125,60 28.125,18.75 
	16.875,18.75 16.875,71.25 73.125,71.25 73.125,18.75 "/>
<g>
	<polygon fill="#FFFFFF" points="23.571,77.5 16.875,77.5 16.875,83.75 18.215,83.75 18.215,78.84 19.554,78.84 19.554,83.75 
		20.894,83.75 20.894,78.84 22.231,78.84 22.231,83.75 23.571,83.75 	"/>
	<polygon fill="#FFFFFF" points="37.709,77.5 37.709,82.41 34.435,82.41 34.435,77.5 33.095,77.5 33.095,83.75 39.048,83.75 
		39.048,77.5 	"/>
	<polygon fill="#FFFFFF" points="46.786,77.5 40.833,77.5 40.833,83.75 42.173,83.75 42.173,78.84 45.446,78.84 45.446,83.75 
		46.786,83.75 	"/>
	<polygon fill="#FFFFFF" points="73.125,77.5 67.173,77.5 67.173,83.75 68.511,83.75 68.511,78.84 71.785,78.84 71.785,83.75 
		73.125,83.75 	"/>
	<path fill="#FFFFFF" d="M62.261,77.5h-5.952v6.25h1.34v-1.34h3.274v1.34h1.34L62.261,77.5L62.261,77.5z M60.923,81.071h-3.274
		v-2.232h3.274V81.071z"/>
	<path fill="#FFFFFF" d="M25.357,77.5v6.25h5.953V77.5H25.357z M29.971,82.41h-3.274v-3.571h3.274V82.41z"/>
	<rect x="64.048" y="77.5" fill="#FFFFFF" width="1.34" height="6.25"/>
	<polygon fill="#FFFFFF" points="54.524,77.5 48.572,77.5 48.572,78.84 50.879,78.84 50.879,83.75 52.217,83.75 52.217,78.84 
		54.524,78.84 	"/>
</g>
<polygon fill="#E9573F" points="61.875,198.75 61.875,240 50.625,240 50.625,198.75 39.375,198.75 39.375,240 28.125,240 
	28.125,198.75 16.875,198.75 16.875,251.25 73.125,251.25 73.125,198.75 "/>
<g>
	<polygon fill="#E9573F" points="23.571,257.5 16.875,257.5 16.875,263.75 18.215,263.75 18.215,258.84 19.554,258.84 
		19.554,263.75 20.894,263.75 20.894,258.84 22.231,258.84 22.231,263.75 23.571,263.75 	"/>
	<polygon fill="#E9573F" points="37.709,257.5 37.709,262.41 34.435,262.41 34.435,257.5 33.095,257.5 33.095,263.75 39.048,263.75 
		39.048,257.5 	"/>
	<polygon fill="#E9573F" points="46.786,257.5 40.833,257.5 40.833,263.75 42.173,263.75 42.173,258.84 45.446,258.84 
		45.446,263.75 46.786,263.75 	"/>
	<polygon fill="#E9573F" points="73.125,257.5 67.173,257.5 67.173,263.75 68.511,263.75 68.511,258.84 71.785,258.84 
		71.785,263.75 73.125,263.75 	"/>
	<path fill="#E9573F" d="M62.261,257.5h-5.952v6.25h1.34v-1.34h3.274v1.34h1.34L62.261,257.5L62.261,257.5z M60.923,261.071h-3.274
		v-2.232h3.274V261.071z"/>
	<path fill="#E9573F" d="M25.357,257.5v6.25h5.953v-6.25H25.357z M29.971,262.41h-3.274v-3.571h3.274V262.41z"/>
	<rect x="64.048" y="257.5" fill="#E9573F" width="1.34" height="6.25"/>
	<polygon fill="#E9573F" points="54.524,257.5 48.572,257.5 48.572,258.84 50.879,258.84 50.879,263.75 52.217,263.75 
		52.217,258.84 54.524,258.84 	"/>
</g>
</svg>
