<?xml version="1.0" encoding="utf-8"?>
<!-- Generator: Adobe Illustrator 17.0.0, SVG Export Plug-In . SVG Version: 6.00 Build 0)  -->
<!DOCTYPE svg PUBLIC "-//W3C//DTD SVG 1.1//EN" "http://www.w3.org/Graphics/SVG/1.1/DTD/svg11.dtd">
<svg version="1.1" id="圖層_1" xmlns="http://www.w3.org/2000/svg" xmlns:xlink="http://www.w3.org/1999/xlink" x="0px" y="0px"
	 width="252px" height="270px" viewBox="0 0 252 270" enable-background="new 0 0 252 270" xml:space="preserve">
<rect x="90" y="-90" width="72" height="72"/>
<g>
	<polygon fill="#FFFFFF" points="139.5,-75 139.5,-42 130.5,-42 130.5,-75 121.5,-75 121.5,-42 112.5,-42 112.5,-75 103.5,-75 
		103.5,-33 148.5,-33 148.5,-75 	"/>
	<g>
		<polygon fill="#FFFFFF" points="108.857,-28 103.5,-28 103.5,-23 104.572,-23 104.572,-26.928 105.643,-26.928 105.643,-23 
			106.715,-23 106.715,-26.928 107.785,-26.928 107.785,-23 108.857,-23 		"/>
		<polygon fill="#FFFFFF" points="120.167,-28 120.167,-24.072 117.548,-24.072 117.548,-28 116.476,-28 116.476,-23 121.238,-23 
			121.238,-28 		"/>
		<polygon fill="#FFFFFF" points="127.429,-28 122.666,-28 122.666,-23 123.738,-23 123.738,-26.928 126.357,-26.928 126.357,-23 
			127.429,-23 		"/>
		<polygon fill="#FFFFFF" points="148.5,-28 143.738,-28 143.738,-23 144.809,-23 144.809,-26.928 147.428,-26.928 147.428,-23 
			148.5,-23 		"/>
		<path fill="#FFFFFF" d="M139.809-28h-4.762v5h1.072v-1.072h2.619V-23h1.072L139.809-28L139.809-28z M138.738-25.143h-2.619v-1.786
			h2.619V-25.143z"/>
		<path fill="#FFFFFF" d="M110.286-28v5h4.762v-5H110.286z M113.977-24.072h-2.619v-2.857h2.619V-24.072z"/>
		<rect x="141.238" y="-28" fill="#FFFFFF" width="1.072" height="5"/>
		<polygon fill="#FFFFFF" points="133.619,-28 128.858,-28 128.858,-26.928 130.703,-26.928 130.703,-23 131.774,-23 
			131.774,-26.928 133.619,-26.928 		"/>
	</g>
</g>
<g>
	<polygon fill="#E9573F" points="57.429,215 36,215 36,235 40.286,235 40.286,219.286 44.571,219.286 44.571,235 48.857,235 
		48.857,219.286 53.143,219.286 53.143,235 57.429,235 	"/>
	<polygon fill="#E9573F" points="102.667,215 102.667,230.714 92.19,230.714 92.19,215 87.904,215 87.904,235 106.952,235 
		106.952,215 	"/>
	<polygon fill="#E9573F" points="131.714,215 112.667,215 112.667,235 116.952,235 116.952,219.286 127.429,219.286 127.429,235 
		131.714,235 	"/>
	<polygon fill="#E9573F" points="216,215 196.952,215 196.952,235 201.238,235 201.238,219.286 211.714,219.286 211.714,235 
		216,235 	"/>
	<path fill="#E9573F" d="M181.238,215H162.19v20h4.286v-4.286h10.477V235h4.286L181.238,215L181.238,215z M176.952,226.429h-10.477
		v-7.143h10.477V226.429z"/>
	<path fill="#E9573F" d="M63.143,215v20h19.048v-20H63.143z M77.904,230.714H67.428v-11.429h10.477V230.714z"/>
	<rect x="186.952" y="215" fill="#E9573F" width="4.286" height="20"/>
	<polygon fill="#E9573F" points="156.477,215 137.429,215 137.429,219.286 144.81,219.286 144.81,235 149.096,235 149.096,219.286 
		156.477,219.286 	"/>
</g>
<g>
	<polygon points="57.429,125 36,125 36,145 40.286,145 40.286,129.286 44.571,129.286 44.571,145 48.857,145 48.857,129.286 
		53.143,129.286 53.143,145 57.429,145 	"/>
	<polygon points="102.667,125 102.667,140.714 92.19,140.714 92.19,125 87.904,125 87.904,145 106.952,145 106.952,125 	"/>
	<polygon points="131.714,125 112.667,125 112.667,145 116.952,145 116.952,129.286 127.429,129.286 127.429,145 131.714,145 	"/>
	<polygon points="216,125 196.952,125 196.952,145 201.238,145 201.238,129.286 211.714,129.286 211.714,145 216,145 	"/>
	<path d="M181.238,125H162.19v20h4.286v-4.286h10.477V145h4.286L181.238,125L181.238,125z M176.952,136.429h-10.477v-7.143h10.477
		V136.429z"/>
	<path d="M63.143,125v20h19.048v-20H63.143z M77.904,140.714H67.428v-11.429h10.477V140.714z"/>
	<rect x="186.952" y="125" width="4.286" height="20"/>
	<polygon points="156.477,125 137.429,125 137.429,129.286 144.81,129.286 144.81,145 149.096,145 149.096,129.286 156.477,129.286 
			"/>
</g>
<g>
	<polygon fill="#FFFFFF" points="57.429,35 36,35 36,55 40.286,55 40.286,39.286 44.571,39.286 44.571,55 48.857,55 48.857,39.286 
		53.143,39.286 53.143,55 57.429,55 	"/>
	<polygon fill="#FFFFFF" points="102.667,35 102.667,50.714 92.19,50.714 92.19,35 87.904,35 87.904,55 106.952,55 106.952,35 	"/>
	<polygon fill="#FFFFFF" points="131.714,35 112.667,35 112.667,55 116.952,55 116.952,39.286 127.429,39.286 127.429,55 
		131.714,55 	"/>
	<polygon fill="#FFFFFF" points="216,35 196.952,35 196.952,55 201.238,55 201.238,39.286 211.714,39.286 211.714,55 216,55 	"/>
	<path fill="#FFFFFF" d="M181.238,35H162.19v20h4.286v-4.286h10.477V55h4.286L181.238,35L181.238,35z M176.952,46.429h-10.477
		v-7.143h10.477V46.429z"/>
	<path fill="#FFFFFF" d="M63.143,35v20h19.048V35H63.143z M77.904,50.714H67.428V39.286h10.477V50.714z"/>
	<rect x="186.952" y="35" fill="#FFFFFF" width="4.286" height="20"/>
	<polygon fill="#FFFFFF" points="156.477,35 137.429,35 137.429,39.286 144.81,39.286 144.81,55 149.096,55 149.096,39.286 
		156.477,39.286 	"/>
</g>
</svg>
