<?xml version="1.0" encoding="utf-8"?>
<!-- Generator: Adobe Illustrator 17.0.0, SVG Export Plug-In . SVG Version: 6.00 Build 0)  -->
<!DOCTYPE svg PUBLIC "-//W3C//DTD SVG 1.1//EN" "http://www.w3.org/Graphics/SVG/1.1/DTD/svg11.dtd">
<svg version="1.1" id="圖層_1" xmlns="http://www.w3.org/2000/svg" xmlns:xlink="http://www.w3.org/1999/xlink" x="0px" y="0px"
	 width="260px" height="72px" viewBox="0 0 260 72" enable-background="new 0 0 260 72" xml:space="preserve">
<path fill="#E9573F" d="M0,0v72h72V0H0z M58.5,57h-45V15h9v33h9V15h9v33h9V15h9V57z"/>
<g>
	<polygon fill="#E9573F" points="104.286,27 85,27 85,45 88.857,45 88.857,30.857 92.714,30.857 92.714,45 96.571,45 96.571,30.857 
		100.429,30.857 100.429,45 104.286,45 	"/>
	<polygon fill="#E9573F" points="145,27 145,41.143 135.571,41.143 135.571,27 131.714,27 131.714,45 148.857,45 148.857,27 	"/>
	<polygon fill="#E9573F" points="171.143,27 154,27 154,45 157.857,45 157.857,30.857 167.286,30.857 167.286,45 171.143,45 	"/>
	<polygon fill="#E9573F" points="247,27 229.857,27 229.857,45 233.714,45 233.714,30.857 243.143,30.857 243.143,45 247,45 	"/>
	<path fill="#E9573F" d="M215.714,27h-17.143v18h3.857v-3.857h9.429V45h3.857L215.714,27L215.714,27z M211.857,37.286h-9.429v-6.429
		h9.429V37.286z"/>
	<path fill="#E9573F" d="M109.429,27v18h17.143V27H109.429z M122.714,41.143h-9.429V30.857h9.429V41.143z"/>
	<rect x="220.857" y="27" fill="#E9573F" width="3.857" height="18"/>
	<polygon fill="#E9573F" points="193.429,27 176.286,27 176.286,30.857 182.929,30.857 182.929,45 186.786,45 186.786,30.857 
		193.429,30.857 	"/>
</g>
</svg>
