<?xml version="1.0" standalone="no"?>
<!DOCTYPE svg PUBLIC "-//W3C//DTD SVG 1.1//EN" "http://www.w3.org/Graphics/SVG/1.1/DTD/svg11.dtd" >
<svg xmlns="http://www.w3.org/2000/svg" xmlns:xlink="http://www.w3.org/1999/xlink" version="1.1">
<metadata>
Created by FontForge 20150318 at Tue Sep 15 09:47:41 2015
 By uniteet7
 (C) Copyright 1992, 2002 The Monotype Corporation plc. All Rights Reserved. 
</metadata>
<defs>
<font id="ModernMTStd-ExtendedItalic" horiz-adv-x="510" >
  <font-face 
    font-family="Monotype Modern Std"
    font-weight="400"
    font-style="italic"
    font-stretch="expanded"
    units-per-em="1000"
    panose-1="2 2 5 5 5 5 5 9 3 3"
    ascent="689"
    descent="-311"
    x-height="426"
    cap-height="674"
    bbox="-171 -250 1000 936"
    underline-thickness="50"
    underline-position="-50"
    slope="-15"
    stemh="15"
    stemv="75"
    unicode-range="U+0020-FB02"
  />
<missing-glyph horiz-adv-x="607" 
d="M107 0v700h500v-700h-500zM357 395l170 255h-340zM387 350l170 -255v510zM187 50h340l-170 255zM157 605v-510l170 255z" />
    <glyph glyph-name=".notdef" horiz-adv-x="607" 
d="M107 0v700h500v-700h-500zM357 395l170 255h-340zM387 350l170 -255v510zM187 50h340l-170 255zM157 605v-510l170 255z" />
    <glyph glyph-name="space" unicode=" " horiz-adv-x="250" 
 />
    <glyph glyph-name="exclam" unicode="!" horiz-adv-x="333" 
d="M131 178l-13 4c33 117 59 236 79 357c3 24 22 136 73 136c17 0 30 -18 30 -43c0 -32 -16 -78 -58 -166c-43 -93 -81 -189 -111 -288zM86 85c26 0 46 -20 46 -46c0 -25 -21 -46 -46 -46s-46 21 -46 46s21 46 46 46z" />
    <glyph glyph-name="quotedbl" unicode="&#x22;" 
d="M234 392h-17l-29 193c-1 9 -1 18 -1 27c0 45 12 65 38 65c25 0 40 -21 40 -57c0 -9 -1 -21 -3 -35zM375 392h-17l-29 193c-1 9 -1 18 -1 27c0 45 12 65 38 65c25 0 40 -21 40 -57c0 -9 -1 -21 -3 -35z" />
    <glyph glyph-name="numbersign" unicode="#" horiz-adv-x="668" 
d="M46 420v43h164l43 203h42l-43 -203h223l42 203h43l-43 -203h104v-43h-112l-42 -198h154v-43h-163l-41 -202h-44l43 202h-223l-42 -202h-43l42 202h-104v43h113l42 198h-155zM466 420h-223l-41 -197h223z" />
    <glyph glyph-name="dollar" unicode="$" 
d="M391 696h16l-10 -47c51 -22 93 -65 93 -119c0 -32 -22 -59 -48 -59c-22 0 -40 21 -40 45c0 19 8 31 29 45c12 9 16 14 16 20c0 15 -27 41 -54 51l-66 -275c44 -44 87 -88 87 -176c0 -69 -39 -133 -102 -167c-22 -12 -36 -16 -72 -23l-27 -113h-17l27 111
c-28 0 -50 2 -81 8l-30 -119h-15l29 125c-66 27 -104 70 -104 119c0 35 20 60 49 60c25 0 43 -19 43 -46c0 -23 -9 -35 -32 -44c-14 -5 -18 -9 -18 -16c0 -17 39 -50 66 -57l75 315c-55 48 -83 101 -83 157c0 96 75 151 161 172l8 33h15l-6 -31c37 0 53 -2 82 -9zM230 443
l49 201c-56 -11 -96 -53 -96 -102c0 -39 26 -69 47 -99zM313 369l64 271c-26 8 -55 12 -82 8l-51 -218zM301 243l-56 -235c68 14 109 59 109 120c0 42 -20 85 -53 115zM287 258l-69 62l-72 -306c26 -8 53 -10 80 -8z" />
    <glyph glyph-name="percent" unicode="%" horiz-adv-x="1010" 
d="M337 337c-53 2 -94 55 -94 122c0 105 97 226 181 226c52 0 90 -53 90 -125c0 -101 -91 -223 -177 -223zM335 351c29 2 48 24 69 78c28 71 52 165 52 198c0 29 -12 44 -36 44s-46 -24 -65 -71c-29 -71 -54 -166 -54 -205c0 -31 11 -44 34 -44zM602 -26
c-53 2 -94 55 -94 122c0 105 97 226 181 226c52 0 90 -53 90 -125c0 -101 -91 -223 -177 -223zM600 -12c29 2 48 24 69 78c28 71 52 165 52 198c0 29 -12 44 -36 44s-46 -24 -65 -71c-29 -71 -54 -166 -54 -205c0 -31 11 -44 34 -44zM108 -26l759 713h49l-759 -713h-49z" />
    <glyph glyph-name="ampersand" unicode="&#x26;" horiz-adv-x="844" 
d="M461 388c75 34 114 84 114 146c0 32 -18 55 -44 55c-70 0 -70 -139 -70 -201zM195 132c0 -75 31 -118 87 -118c31 0 63 12 114 45c-18 27 -24 112 -24 169c0 36 1 59 6 117c-64 -18 -183 -50 -183 -213zM709 132h16c-21 -44 -67 -143 -201 -143c-52 0 -87 14 -120 55
c-57 -36 -107 -54 -154 -54c-86 0 -155 61 -155 138c0 23 7 107 123 171c72 39 124 53 161 62c17 138 82 246 149 246c37 0 63 -31 63 -76c0 -39 -20 -82 -54 -115c-22 -21 -36 -30 -75 -46c-2 -87 2 -203 10 -259c47 42 77 88 110 141c44 70 77 121 132 121
c34 0 58 -30 58 -72c0 -40 -22 -74 -48 -74c-21 0 -36 17 -36 41c0 18 6 36 19 58c7 12 9 16 9 22c0 4 -7 9 -13 9c-32 0 -69 -56 -106 -111c-36 -54 -75 -111 -121 -154c19 -61 39 -81 82 -81c68 0 119 58 151 121z" />
    <glyph glyph-name="quoteright" unicode="&#x2019;" horiz-adv-x="281" 
d="M164 456l-4 15c61 19 113 69 113 109c0 5 -3 8 -9 8c-3 0 -19 -4 -23 -4c-27 0 -47 20 -47 47c0 23 20 43 44 43c34 0 58 -29 58 -70c0 -64 -49 -119 -132 -148z" />
    <glyph glyph-name="parenleft" unicode="(" 
d="M234 -196h-16c-25 49 -77 151 -77 311c0 131 55 416 332 573l13 -9c-53 -39 -72 -57 -105 -101c-114 -150 -184 -474 -184 -585c0 -86 20 -143 37 -189z" />
    <glyph glyph-name="parenright" unicode=")" 
d="M279 688h16c25 -49 77 -151 77 -311c0 -131 -55 -416 -332 -573l-13 9c53 39 72 57 105 101c114 150 184 474 184 585c0 86 -20 143 -37 189z" />
    <glyph glyph-name="asterisk" unicode="*" horiz-adv-x="521" 
d="M280 481l7 4c0 19 1 31 -17 78c-11 31 -15 45 -15 61c0 26 17 46 38 46c22 0 37 -20 37 -49c0 -14 -3 -27 -14 -55c-15 -40 -17 -53 -17 -81l6 -3c25 14 37 26 62 56c21 28 44 49 72 49c20 0 35 -15 35 -35c0 -29 -27 -46 -87 -56c-42 -7 -55 -11 -75 -26v-7
c23 -13 37 -17 77 -24c59 -9 85 -29 85 -58c0 -18 -15 -33 -35 -33c-22 0 -46 15 -68 44c-23 31 -36 43 -64 60l-7 -3c0 -26 1 -39 18 -83c10 -28 13 -41 13 -54c0 -28 -15 -49 -36 -49s-39 21 -39 48c0 18 3 30 15 60c14 37 16 48 16 78l-7 3c-27 -17 -37 -26 -57 -52
c-15 -19 -41 -52 -76 -52c-19 0 -34 15 -34 34c0 36 43 49 82 56c40 7 56 12 79 25v7c-21 14 -36 18 -76 25c-41 7 -85 20 -85 57c0 18 15 33 35 33c32 0 62 -36 84 -62s29 -33 48 -42z" />
    <glyph glyph-name="plus" unicode="+" horiz-adv-x="666" 
d="M71 298v43h240v241h43v-241h242v-43h-242v-239h-43v239h-240z" />
    <glyph glyph-name="comma" unicode="," horiz-adv-x="281" 
d="M-1 -133l-4 14c72 28 115 70 115 113c0 6 -2 8 -5 8c-4 0 -23 -4 -28 -4c-24 0 -43 21 -43 47c0 25 19 45 43 45c35 0 56 -27 56 -72c0 -66 -50 -123 -134 -151z" />
    <glyph glyph-name="hyphen" unicode="-" horiz-adv-x="333" 
d="M75 198v41h213v-41h-213z" />
    <glyph glyph-name="period" unicode="." horiz-adv-x="281" 
d="M88 87c27 -1 48 -22 48 -48c0 -27 -22 -49 -48 -49c-27 0 -49 22 -49 49c0 24 20 48 49 48z" />
    <glyph glyph-name="slash" unicode="/" horiz-adv-x="333" 
d="M45 -246l206 929h26l-206 -929h-26z" />
    <glyph glyph-name="zero" unicode="0" 
d="M357 683c77 -3 124 -85 124 -213c0 -228 -155 -481 -295 -481c-77 0 -130 88 -130 216c0 239 189 486 301 478zM358 667c-47 -2 -84 -37 -113 -106c-35 -85 -131 -387 -131 -474c0 -53 26 -83 72 -83c74 0 114 98 176 311c48 170 61 213 61 267c0 58 -21 85 -65 85z" />
    <glyph glyph-name="one" unicode="1" 
d="M144 606h42c44 0 124 7 199 73h23l-175 -613c-2 -7 -3 -14 -3 -20c0 -21 17 -31 51 -31h68l-5 -15h-337v15h67c48 0 65 17 85 87l126 446c1 4 2 9 2 13c0 20 -17 29 -53 29h-95z" />
    <glyph glyph-name="two" unicode="2" 
d="M422 205h15c-34 -127 -105 -215 -175 -215c-33 0 -57 13 -95 51c-30 30 -47 40 -68 40c-24 0 -41 -11 -41 -27c0 -4 2 -8 7 -17c8 -11 10 -17 10 -26c0 -13 -8 -21 -22 -21s-22 13 -22 37c0 81 49 124 165 227c15 12 36 32 64 57c56 60 74 87 101 151c16 39 24 76 24 108
c0 59 -28 93 -76 93c-85 0 -188 -103 -188 -153c0 -10 6 -10 17 -10c33 0 57 -24 57 -56s-24 -58 -54 -58c-33 0 -54 25 -54 67c0 109 124 229 237 229c84 0 150 -67 150 -150c0 -115 -98 -181 -183 -238c-134 -90 -202 -149 -229 -206c28 10 44 13 73 13c20 0 40 -2 81 -8
c34 -6 57 -8 72 -8c89 0 114 58 134 120z" />
    <glyph glyph-name="three" unicode="3" 
d="M312 419c42 46 72 117 72 170c0 49 -25 77 -70 77c-47 0 -103 -28 -103 -52c0 -3 2 -6 10 -10c17 -9 23 -20 23 -38c0 -26 -26 -52 -52 -52c-22 0 -37 18 -37 44c0 63 84 124 171 124c83 0 140 -48 140 -117c0 -59 -41 -105 -157 -173c-19 -12 -22 -13 -33 -21
c29 -4 41 -6 59 -15c64 -31 96 -97 96 -162c0 -105 -111 -204 -230 -204c-101 0 -174 63 -174 148c0 55 30 97 71 97c23 0 42 -20 42 -45c0 -29 -27 -58 -55 -58c-4 0 -23 6 -28 6c-7 0 -11 -8 -11 -21c0 -52 68 -108 130 -108c28 0 59 13 78 33c53 55 101 163 101 228
c0 53 -30 85 -79 85c-22 0 -39 -7 -60 -23c-10 -8 -16 -11 -20 -11c-7 0 -11 4 -11 9c0 9 12 18 43 33c50 25 65 39 84 56z" />
    <glyph glyph-name="four" unicode="4" 
d="M250 208l111 388l-312 -388h201zM28 207l380 472h61l-135 -471h132l-8 -28h-132l-32 -114c-2 -7 -3 -14 -3 -21c0 -20 16 -30 51 -30h76l-5 -15h-348l5 15h69c42 0 61 16 75 65l27 100h-213v27z" />
    <glyph glyph-name="five" unicode="5" 
d="M119 341l126 341c54 -24 84 -32 122 -32c40 0 70 10 99 32c-7 -65 -63 -109 -137 -109c-33 0 -41 3 -100 22l-73 -200c40 33 66 44 103 44c91 0 167 -89 167 -194c0 -135 -114 -255 -243 -255c-91 0 -154 60 -154 146c0 59 36 110 77 110c24 0 42 -19 42 -45
c0 -33 -29 -63 -60 -63c-5 0 -27 10 -32 10c-7 0 -10 -9 -10 -24c0 -63 54 -116 118 -116c34 0 65 13 86 37c49 55 92 181 92 269c0 69 -33 110 -88 110c-45 0 -85 -28 -118 -83h-17z" />
    <glyph glyph-name="six" unicode="6" 
d="M210 5c46 1 85 40 114 112c29 74 53 171 53 212c0 48 -30 79 -76 79c-136 0 -182 -227 -182 -295c0 -54 23 -108 91 -108zM191 400l-15 -45c50 52 80 69 125 69c85 0 152 -82 152 -185c0 -124 -117 -250 -233 -250c-97 0 -162 91 -162 225c0 218 171 468 322 468
c66 0 112 -46 112 -111c0 -41 -26 -75 -59 -75c-24 0 -43 21 -43 48c0 36 22 61 57 62c11 0 14 3 14 12c0 22 -40 48 -76 48c-97 0 -135 -92 -194 -266z" />
    <glyph glyph-name="seven" unicode="7" 
d="M112 439l86 244h15l-36 -107l12 10c48 40 78 54 115 54c33 0 52 -16 65 -52c9 -26 17 -34 36 -34c31 0 68 32 68 59c0 3 -1 17 -1 20c0 30 8 48 22 48c10 0 16 -9 16 -25c0 -35 -20 -78 -78 -165l-18 -28c-90 -134 -105 -166 -134 -284l-13 -53
c-25 -102 -46 -138 -78 -138c-26 0 -40 19 -40 53c0 93 83 204 161 307c80 109 127 174 137 196c1 2 3 5 5 10c-3 -1 -4 -2 -11 -5c-32 -17 -61 -25 -87 -25c-39 0 -59 15 -74 55c-7 21 -13 27 -26 27c-3 0 -71 -1 -121 -154l-4 -13h-17z" />
    <glyph glyph-name="eight" unicode="8" 
d="M229 341l-14 19c-44 63 -57 97 -57 146c0 95 82 175 181 175c74 0 134 -58 134 -130c0 -87 -78 -136 -149 -180c51 -57 97 -112 97 -193c0 -106 -87 -188 -200 -188c-96 0 -180 73 -180 157c0 77 73 125 188 194zM314 383c34 21 121 74 121 179c0 64 -38 104 -99 104
c-68 0 -120 -47 -120 -110c0 -65 55 -126 98 -173zM238 328c-57 -34 -150 -88 -150 -203c0 -73 52 -120 131 -120c82 0 141 52 141 123c0 73 -71 147 -122 200z" />
    <glyph glyph-name="nine" unicode="9" 
d="M346 292l9 30c-43 -46 -76 -64 -120 -64c-85 0 -150 77 -150 177c0 122 121 248 239 248c93 0 152 -83 152 -216c0 -226 -166 -477 -316 -477c-69 0 -121 44 -121 102c0 46 27 79 65 79c24 0 43 -19 43 -43c0 -34 -26 -60 -60 -60c-1 0 -7 1 -9 1c-8 0 -11 -3 -11 -10
c0 -26 46 -53 90 -53c104 0 144 118 189 286zM234 273c36 1 70 17 93 42c49 52 88 163 88 249c0 67 -30 104 -85 104c-27 0 -54 -12 -72 -34c-64 -73 -93 -244 -93 -282c0 -53 24 -79 69 -79z" />
    <glyph glyph-name="colon" unicode=":" horiz-adv-x="333" 
d="M104 86c26 0 47 -21 47 -47s-21 -47 -47 -47s-47 21 -47 47s21 47 47 47zM201 425c26 0 47 -21 47 -47s-21 -47 -47 -47s-47 21 -47 47s21 47 47 47z" />
    <glyph glyph-name="semicolon" unicode=";" horiz-adv-x="333" 
d="M196 425c26 0 47 -21 47 -47s-21 -47 -47 -47s-47 21 -47 47s21 47 47 47zM20 -133l-4 14c72 28 115 70 115 113c0 6 -2 8 -5 8c-4 0 -23 -4 -28 -4c-24 0 -43 21 -43 47c0 25 19 45 43 45c35 0 56 -27 56 -72c0 -66 -50 -123 -134 -151z" />
    <glyph glyph-name="less" unicode="&#x3c;" horiz-adv-x="668" 
d="M595 127v-48l-523 223v38l523 221v-47l-466 -193z" />
    <glyph glyph-name="equal" unicode="=" horiz-adv-x="667" 
d="M72 414v43h523v-43h-523zM72 187v43h523v-43h-523z" />
    <glyph glyph-name="greater" unicode="&#x3e;" horiz-adv-x="667" 
d="M72 514v47l523 -222v-38l-523 -222v47l466 194z" />
    <glyph glyph-name="question" unicode="?" horiz-adv-x="396" 
d="M152 474h-13c2 102 71 191 148 191c55 0 92 -49 92 -123c0 -91 -75 -150 -124 -189c-53 -41 -95 -76 -95 -122c0 -27 18 -47 43 -47c29 0 46 17 60 61l15 -5c-13 -47 -40 -72 -77 -72c-36 0 -62 30 -62 72c0 76 61 140 110 190c68 68 94 113 94 157c0 38 -21 61 -55 61
c-59 0 -114 -69 -136 -174zM144 -9c-25 0 -46 21 -46 46c0 26 21 47 46 47c26 0 47 -21 47 -47c0 -25 -21 -46 -47 -46z" />
    <glyph glyph-name="at" unicode="@" horiz-adv-x="920" 
d="M612 457l77 11l-57 -195l-29 -105c-8 -29 -16 -69 -16 -80c0 -22 16 -38 38 -38c102 0 205 160 205 316c0 176 -130 303 -308 303c-291 0 -427 -259 -427 -467c0 -226 158 -388 380 -388c180 0 320 96 394 270h28c-58 -181 -225 -299 -420 -299c-247 0 -428 182 -428 430
c0 273 201 479 468 479c202 0 342 -137 342 -335c0 -187 -121 -344 -265 -344c-54 0 -78 21 -78 69c0 20 2 34 9 70c-42 -50 -116 -139 -192 -139c-53 0 -90 49 -90 117c0 139 150 339 270 339c44 0 73 -24 83 -67zM517 448c-97 0 -197 -225 -197 -300c0 -44 24 -74 57 -74
c75 0 149 121 159 141c21 40 42 122 42 158c0 46 -24 75 -61 75z" />
    <glyph glyph-name="A" unicode="A" horiz-adv-x="729" 
d="M457 258l10 317l-220 -317h210zM174 183l349 503h36l-20 -607c-3 -64 40 -64 53 -64h57l-4 -15h-313l4 15h62c38 0 52 15 53 55l5 159h-230c-65 -92 -84 -119 -84 -153c0 -37 28 -61 71 -61h43l-5 -15h-282v15c82 5 119 43 205 168z" />
    <glyph glyph-name="B" unicode="B" horiz-adv-x="667" 
d="M346 625l-72 -251h113c53 0 96 15 124 44c33 33 55 88 55 136c0 106 -76 106 -165 106c-40 0 -46 -4 -55 -35zM342 358h-72l-86 -309c-2 -5 -3 -10 -3 -15c0 -13 9 -20 27 -20h95c57 0 105 15 132 42c38 37 68 110 68 165c0 90 -56 137 -161 137zM143 658l4 16h308
c118 0 199 -62 199 -152c0 -120 -146 -146 -235 -160c83 -29 182 -78 182 -180c0 -145 -174 -182 -258 -182h-383l4 15h46c65 0 74 8 98 93l142 501c1 6 2 12 2 17c0 21 -14 32 -39 32h-70z" />
    <glyph glyph-name="C" unicode="C" horiz-adv-x="656" 
d="M548 242h15c-27 -82 -43 -112 -88 -164c-53 -61 -115 -93 -179 -93c-135 0 -243 120 -243 269c0 193 204 430 371 430c57 0 109 -29 138 -78c6 -10 9 -13 15 -13c18 0 47 40 67 90h16l-62 -322l-15 -1c3 127 1 206 -56 264c-29 30 -62 44 -102 44c-45 0 -96 -22 -124 -54
c-78 -86 -164 -325 -164 -454c0 -98 61 -159 158 -159c57 0 114 28 160 79c44 49 61 78 93 162z" />
    <glyph glyph-name="D" unicode="D" horiz-adv-x="729" 
d="M342 634l-158 -569c-4 -14 -6 -24 -6 -32c0 -12 15 -17 55 -17c41 0 82 2 122 8c190 26 254 348 254 458c0 118 -59 176 -183 178h-23c-41 0 -54 -2 -61 -26zM129 658l3 16h307c142 0 258 -126 258 -281c0 -96 -39 -189 -110 -262c-89 -92 -189 -131 -330 -131h-299l4 15
h58c44 0 61 15 76 68l138 496c5 21 9 40 9 48c0 21 -10 31 -33 31h-81z" />
    <glyph glyph-name="E" unicode="E" horiz-adv-x="688" 
d="M145 658l6 15v1h527l-62 -267h-16c8 50 10 69 10 97c0 154 -102 154 -189 155h-19c-43 0 -45 -2 -56 -38l-75 -266h27c29 0 66 12 92 29c51 35 75 94 90 154h18l-116 -412h-17c11 47 23 97 23 121c0 57 -23 92 -104 93h-16l-85 -297c-3 -13 2 -26 24 -26h97
c38 0 155 25 235 152c27 44 39 76 50 105h15l-77 -274h-542l3 15h48c28 0 53 20 62 51l152 541c2 7 3 13 3 19c0 20 -13 32 -35 32h-73z" />
    <glyph glyph-name="F" unicode="F" horiz-adv-x="667" 
d="M143 658l5 16h527l-60 -271l-17 1c9 41 11 58 11 85c0 149 -97 164 -104 165c-24 4 -52 4 -75 4c-60 1 -62 1 -77 -53l-65 -244h20c122 2 155 109 172 161h15l-98 -370h-14c11 42 14 61 14 85c0 69 -32 108 -90 108h-22l-70 -267c-4 -13 -5 -25 -5 -36
c0 -19 19 -27 61 -27h67l-5 -15h-354l4 15h42c44 0 79 0 94 57l137 512c5 19 8 36 8 43c0 22 -11 31 -37 31h-84z" />
    <glyph glyph-name="G" unicode="G" horiz-adv-x="677" 
d="M481 -10h-14c3 22 4 30 4 47c0 36 -8 53 -24 53c-10 0 -19 -9 -42 -32c-46 -44 -95 -68 -141 -68c-109 0 -205 129 -205 275c0 110 47 211 143 307c74 74 152 116 214 116c80 0 111 -45 128 -70c14 -21 21 -27 30 -27c24 0 54 37 78 96h16l-86 -342h-15c5 41 7 58 7 84
c0 147 -60 243 -151 243c-43 0 -84 -19 -115 -55c-112 -126 -173 -395 -173 -470c0 -84 52 -141 131 -141c26 0 58 11 85 28c82 55 107 201 107 209c0 21 -13 29 -48 29h-71l3 15h326l-5 -15h-51c-37 0 -55 -16 -67 -58z" />
    <glyph glyph-name="H" unicode="H" horiz-adv-x="781" 
d="M162 659l5 15h301l-4 -15c-82 0 -104 0 -118 -49l-72 -250h284l69 242c3 11 4 22 4 32c0 18 -16 25 -57 25h-30l5 15h247v-15c-21 0 -61 0 -75 -47l-154 -546c-1 -6 -2 -12 -2 -18c0 -21 13 -33 38 -33h60l-3 -15h-316l5 15h58c36 0 58 17 69 54l76 272h-284l-77 -273
c-2 -8 -3 -16 -3 -24c0 -17 15 -29 38 -29h57l-4 -15h-287v15h44c30 0 54 20 63 50l150 535c3 10 4 21 4 32c0 20 -16 27 -57 27h-34z" />
    <glyph glyph-name="I" unicode="I" horiz-adv-x="406" 
d="M145 658l4 16h291l-2 -16h-17c-50 0 -71 -11 -81 -45l-155 -546c-2 -6 -3 -13 -3 -19c0 -22 15 -33 46 -33h69l-4 -15h-328l3 15h68c24 0 48 22 56 50l152 538c2 9 3 18 3 28c0 17 -16 27 -46 27h-56z" />
    <glyph glyph-name="J" unicode="J" horiz-adv-x="594" 
d="M325 659l4 15h292v-15h-31c-36 0 -57 -16 -67 -52l-111 -413c-33 -120 -128 -206 -228 -206c-82 0 -143 54 -143 126c0 53 34 94 77 94c33 0 57 -25 57 -59c0 -33 -26 -57 -68 -63c-22 -3 -30 -8 -30 -18c0 -29 50 -62 94 -62c101 0 133 121 152 192l101 381
c6 23 10 42 10 49c0 22 -12 31 -38 31h-71z" />
    <glyph glyph-name="K" unicode="K" horiz-adv-x="740" 
d="M151 658l4 16h287l-5 -16h-18c-48 0 -67 -14 -80 -58l-92 -326l288 256c33 30 47 54 47 80c0 29 -27 48 -71 48h-14l5 16h270l-3 -16h-16c-29 0 -81 -28 -127 -69l-208 -184l127 -325c22 -56 36 -65 93 -65h32l-4 -15h-318l4 15h61c26 0 44 14 44 34c0 5 -1 12 -3 18
l-107 275l-108 -96l-45 -162c-4 -15 -6 -30 -6 -43c0 -17 15 -26 47 -26h48l-6 -15h-312l4 15h61c36 0 56 17 68 58l149 528c2 10 4 19 4 28c0 20 -13 29 -41 29h-59z" />
    <glyph glyph-name="L" unicode="L" horiz-adv-x="635" 
d="M143 658l3 16h341l-5 -16h-81c-30 0 -52 -17 -60 -47l-157 -559c-2 -6 -2 -11 -2 -17c0 -11 11 -17 31 -17h76c80 0 175 56 230 135c28 40 48 86 68 130h15l-85 -283h-555l4 15h62c34 0 56 17 65 49l153 538c3 10 4 20 4 29c0 18 -19 27 -56 27h-51z" />
    <glyph glyph-name="M" unicode="M" horiz-adv-x="833" 
d="M117 659l4 15h251v-511l292 511h219l-2 -15h-38c-48 0 -63 -13 -80 -73l-143 -500c-4 -16 -7 -31 -7 -43c0 -28 34 -28 98 -28h19l-4 -15h-344l6 15h62c43 0 63 17 78 69l159 558c3 11 -3 16 -8 16c-3 0 -6 -2 -8 -6l-371 -655h-12l-7 640c-1 13 -4 21 -9 21
c-4 0 -8 -5 -10 -13l-114 -399c-21 -75 -30 -105 -30 -142c0 -62 27 -89 90 -89h25l-5 -15h-314l5 15h21c120 0 154 94 180 186l108 379c4 14 5 27 5 41c0 24 -20 38 -55 38h-61z" />
    <glyph glyph-name="N" unicode="N" horiz-adv-x="667" 
d="M94 659l6 15h209l192 -534l96 345c7 26 10 49 10 70c0 65 -38 104 -102 104h-18l3 15h263l-1 -15c-22 -2 -32 -4 -45 -11c-47 -24 -71 -74 -84 -125l-144 -530h-14l-217 601l-108 -393c-8 -30 -13 -60 -13 -80c0 -65 43 -105 114 -106h31l-5 -15h-324l3 15h14
c27 0 73 17 90 34c27 26 53 74 67 126l112 407c1 5 2 11 2 17c0 38 -25 60 -71 60h-66z" />
    <glyph glyph-name="O" unicode="O" horiz-adv-x="677" 
d="M273 -15c-119 0 -210 116 -210 267c0 208 202 437 386 437c124 0 208 -112 208 -274c0 -205 -200 -430 -384 -430zM273 1c53 2 95 20 130 54c31 31 62 78 82 126c10 22 92 235 92 341c0 95 -48 151 -129 151c-52 0 -103 -23 -139 -64c-113 -128 -166 -404 -166 -464
c0 -77 41 -144 130 -144z" />
    <glyph glyph-name="P" unicode="P" horiz-adv-x="677" 
d="M349 636l-82 -293h110c60 0 104 15 137 48c35 35 57 94 57 153c0 36 -11 65 -33 87c-23 21 -46 28 -100 28h-20c-56 0 -63 -2 -69 -23zM131 658l4 16h328c122 0 207 -66 207 -161c0 -38 -17 -75 -47 -106c-55 -55 -135 -79 -260 -79h-101l-70 -250c-4 -12 -6 -24 -6 -31
c0 -22 13 -32 39 -32h75l-4 -15h-322l4 15h52c32 0 58 20 67 52l150 537c2 8 4 16 4 24c0 20 -13 30 -37 30h-83z" />
    <glyph glyph-name="Q" unicode="Q" horiz-adv-x="677" 
d="M578 24h17c-20 -57 -77 -206 -198 -206c-61 0 -100 37 -100 95c0 22 5 44 16 77c-9 -1 -17 -2 -24 -2c-7 -1 -13 -1 -18 -1c-158 0 -210 179 -210 265c0 210 200 436 388 436c120 0 206 -115 206 -274c0 -184 -150 -346 -273 -401l2 -31c5 -98 19 -130 57 -130
c45 0 99 68 137 172zM212 16c-14 22 -20 39 -20 54c0 51 39 92 87 92c57 0 89 -40 99 -124c27 21 37 31 53 54c78 107 143 344 143 428c0 94 -48 152 -127 152c-57 0 -103 -21 -140 -63c-115 -133 -165 -401 -165 -459c0 -66 23 -110 70 -134zM242 5c11 -2 15 -2 28 -2
c22 0 34 2 48 6c7 19 13 49 13 68c0 42 -21 66 -57 66c-35 0 -66 -33 -66 -70c0 -23 12 -47 34 -68z" />
    <glyph glyph-name="R" unicode="R" horiz-adv-x="688" 
d="M349 629l-75 -266h73c72 0 125 15 156 46c33 33 56 93 56 150c0 101 -78 101 -129 101h-19c-50 1 -55 -6 -62 -31zM136 659l3 15h300c80 0 132 -16 169 -53c28 -28 43 -63 43 -100c0 -56 -34 -105 -93 -134c-46 -22 -103 -30 -158 -37c41 -21 116 -60 116 -173
c0 -21 -3 -45 -9 -78c-4 -24 -4 -27 -5 -41c0 -23 8 -33 24 -33c37 0 71 51 84 126h16c-15 -83 -52 -154 -131 -154c-48 0 -85 38 -85 90c0 22 5 46 18 91c11 42 15 63 15 82c0 54 -38 87 -102 87h-72l-76 -275c-3 -8 -4 -16 -4 -23c0 -22 14 -34 39 -34h77l-4 -15h-339
l5 15h54c47 0 65 13 78 60l150 523c3 12 4 23 4 35c0 16 -12 26 -33 26h-84z" />
    <glyph glyph-name="S" unicode="S" horiz-adv-x="583" 
d="M105 325h16c-7 -43 -9 -63 -9 -87c0 -139 81 -236 198 -236c82 0 147 55 147 124c0 76 -49 109 -133 165c-57 38 -75 51 -99 74c-40 42 -58 81 -58 129c0 105 83 191 185 191c47 0 85 -15 118 -47c14 -14 28 -27 42 -27c23 0 41 21 61 73h14l-73 -309h-16
c9 46 11 66 11 95c0 121 -61 199 -157 199c-75 0 -135 -55 -135 -124c0 -65 65 -107 125 -145c87 -56 170 -112 170 -212c0 -108 -93 -203 -200 -203c-55 0 -114 26 -160 71c-16 16 -26 26 -42 26c-26 0 -58 -36 -87 -97l-14 -1z" />
    <glyph glyph-name="T" unicode="T" horiz-adv-x="688" 
d="M71 362l107 312h548l-71 -310h-15c8 74 9 91 9 130c0 118 -32 165 -114 165c-41 0 -42 -3 -57 -58l-145 -518c-3 -10 -6 -29 -6 -38c0 -22 14 -30 37 -30h82l-5 -15h-360l4 15h80c43 0 61 16 75 66l151 538c3 9 4 16 4 22c0 12 -12 17 -34 17c-66 0 -125 -43 -186 -136
c-34 -51 -64 -104 -88 -160h-16z" />
    <glyph glyph-name="U" unicode="U" horiz-adv-x="732" 
d="M129 659l4 15h332l-3 -15h-67c-42 0 -60 -19 -78 -84l-114 -408c-5 -18 -7 -35 -7 -51c0 -69 55 -114 139 -114c118 0 212 94 253 251l64 246c6 25 10 50 10 69c0 59 -33 91 -92 91h-20l3 15h250l-3 -15c-32 0 -52 -5 -73 -28c-22 -23 -44 -71 -57 -119l-69 -270
c-42 -161 -143 -256 -273 -256c-119 0 -208 76 -208 178c0 22 3 44 10 67l101 362c4 14 6 28 6 41c0 16 -12 25 -35 25h-73z" />
    <glyph glyph-name="V" unicode="V" horiz-adv-x="656" 
d="M173 659h-68l5 15h305l-3 -15h-44c-58 0 -68 -11 -68 -71v-476l246 400c21 34 32 64 32 86c0 37 -27 61 -71 61h-22l4 15h229l-3 -15c-53 -3 -85 -39 -135 -122l-350 -569h-20v651c0 25 -14 40 -37 40z" />
    <glyph glyph-name="W" unicode="W" horiz-adv-x="896" 
d="M424 659l4 15h251l-4 -15h-20c-50 0 -63 -10 -63 -48v-477l200 393c13 25 22 58 22 80c0 33 -21 52 -56 52h-24l3 15h223l-4 -15c-64 -3 -96 -35 -149 -138l-282 -553h-22v532l-285 -533h-22v645c0 31 -11 47 -33 47h-61l4 15h266l-4 -15h-36c-37 0 -50 -14 -50 -55v-470
l2 -4l220 405v79c0 29 -12 45 -33 45h-47z" />
    <glyph glyph-name="X" unicode="X" horiz-adv-x="729" 
d="M417 390l115 -324c11 -31 39 -51 71 -51h58l-4 -15h-310l4 15h42c32 0 49 11 49 31c0 9 -1 18 -5 28l-87 240l-118 -134c-36 -40 -48 -67 -48 -98c0 -50 27 -66 111 -67l-3 -15h-336l4 15c74 2 122 21 227 139l157 176l-103 284c-10 28 -33 44 -62 44h-55l4 16h290
l-4 -16h-51c-17 0 -29 -10 -29 -25c0 -6 1 -12 3 -17l74 -209l115 132c16 18 27 45 27 67c0 29 -25 52 -56 52h-36l5 16h283l-4 -16h-18c-49 0 -103 -32 -158 -95z" />
    <glyph glyph-name="Y" unicode="Y" horiz-adv-x="677" 
d="M103 658l5 16h312l-5 -16h-47c-37 0 -54 -8 -54 -25c0 -9 2 -18 4 -28l79 -276l148 198c24 31 37 61 37 82c0 32 -25 49 -72 49h-20l5 16h247l-4 -16c-25 -1 -35 -4 -52 -13c-38 -20 -71 -52 -117 -113l-172 -228l-64 -229c-3 -10 -4 -19 -4 -28c0 -21 12 -32 37 -32h68
l-6 -15h-335l4 15h73c34 0 58 18 68 53l71 247l-81 283c-13 44 -32 60 -73 60h-52z" />
    <glyph glyph-name="Z" unicode="Z" horiz-adv-x="656" 
d="M130 397l86 277h435v-9l-514 -648h130c231 0 312 227 335 291l16 1l-89 -309h-514v7l517 651h-92c-42 0 -96 -18 -138 -47c-72 -48 -120 -125 -157 -213z" />
    <glyph glyph-name="bracketleft" unicode="[" 
d="M59 -182l230 856h182v-17h-50c-40 0 -66 -19 -76 -56l-188 -703c-3 -10 -4 -20 -4 -29c0 -25 16 -33 65 -34h32l-4 -17h-187z" />
    <glyph glyph-name="backslash" unicode="\" horiz-adv-x="333" 
d="M295 -246l-206 929h27l206 -929h-27z" />
    <glyph glyph-name="bracketright" unicode="]" 
d="M282 657l5 17h187l-232 -856h-183v17h44c46 0 72 17 82 55l193 712c2 7 3 14 3 21c0 24 -17 34 -57 34h-42z" />
    <glyph glyph-name="asciicircum" unicode="^" horiz-adv-x="422" 
d="M238 677h14l208 -350h-45l-171 287l-171 -287h-46z" />
    <glyph glyph-name="underscore" unicode="_" horiz-adv-x="500" 
d="M500 -75v-50h-500v50h500z" />
    <glyph glyph-name="quoteleft" unicode="&#x2018;" horiz-adv-x="281" 
d="M281 673l4 -15c-61 -19 -113 -69 -113 -109c0 -5 3 -8 9 -8c3 0 19 4 23 4c27 0 47 -20 47 -47c0 -23 -20 -43 -44 -43c-34 0 -58 29 -58 70c0 64 49 119 132 148z" />
    <glyph glyph-name="a" unicode="a" 
d="M250 415c-21 0 -44 -11 -60 -29c-66 -75 -115 -270 -115 -315c0 -40 18 -64 48 -64c109 0 195 216 195 303c0 62 -28 105 -68 105zM469 175h18c-48 -129 -95 -186 -151 -186c-37 0 -60 34 -60 88c0 13 2 27 6 52c-51 -95 -102 -139 -158 -139c-59 0 -107 72 -107 163
c0 172 150 279 234 279c46 0 76 -40 83 -111l35 100h65l-103 -351c-3 -10 -5 -20 -5 -30c0 -19 9 -31 23 -31c37 0 79 58 120 166z" />
    <glyph glyph-name="b" unicode="b" horiz-adv-x="448" 
d="M268 418c-139 -5 -190 -288 -190 -330c0 -51 27 -82 72 -82c44 0 89 39 116 99c11 23 66 161 66 231c0 19 -2 82 -64 82zM51 658l4 16h21c42 0 103 4 120 9c8 2 13 3 15 3h24l-92 -332c47 57 83 80 128 80c70 0 124 -80 124 -183c0 -124 -129 -261 -246 -261
c-76 0 -124 64 -124 165c0 36 7 65 31 152l84 301c2 7 3 13 3 19c0 20 -12 31 -35 31h-57z" />
    <glyph glyph-name="c" unicode="c" horiz-adv-x="396" 
d="M341 180h17c-19 -57 -31 -78 -62 -114c-42 -48 -94 -76 -143 -76c-78 0 -138 77 -138 175c0 130 125 277 236 277c50 0 84 -34 84 -84c0 -35 -21 -60 -49 -60c-23 0 -40 19 -40 45c0 14 7 27 23 44c10 10 14 16 14 21c0 13 -10 19 -28 19c-125 0 -173 -273 -173 -333
c0 -56 28 -88 76 -88c40 0 83 22 119 62c30 33 42 54 64 112z" />
    <glyph glyph-name="d" unicode="d" 
d="M236 417c-17 -1 -36 -10 -49 -25c-56 -64 -112 -252 -112 -317c0 -41 20 -68 50 -68c79 0 171 162 171 301c0 104 -38 109 -60 109zM284 659l4 15h48c49 0 89 5 126 11h26l-163 -574c-7 -25 -12 -51 -12 -65c0 -21 7 -31 20 -31c35 0 78 61 121 171h15
c-21 -60 -32 -83 -54 -118c-18 -29 -55 -78 -98 -78c-35 0 -55 33 -55 89c0 9 1 17 3 35l-14 -21c-36 -55 -70 -102 -125 -102c-64 0 -108 68 -108 167c0 177 144 275 215 275c49 0 72 -31 81 -109l80 286c2 6 3 13 3 19c0 20 -16 30 -49 30h-64z" />
    <glyph glyph-name="e" unicode="e" horiz-adv-x="396" 
d="M103 196c72 15 105 32 143 68c36 34 53 69 53 106c0 29 -19 49 -48 49c-31 0 -66 -27 -91 -70c-27 -46 -42 -99 -57 -153zM331 135h15c-14 -42 -23 -58 -45 -83c-36 -40 -82 -62 -131 -62c-87 0 -150 70 -150 168c0 125 124 276 226 276c50 0 81 -32 81 -84
c0 -128 -160 -159 -228 -173c-11 -30 -17 -63 -17 -92c0 -48 36 -79 92 -79c68 0 127 49 157 129z" />
    <glyph glyph-name="f" unicode="f" horiz-adv-x="333" 
d="M64 419h89c27 116 56 189 90 225c23 24 50 37 77 37c48 0 79 -34 79 -88c0 -31 -19 -55 -45 -55c-20 0 -33 15 -33 37c0 14 8 28 18 38s14 19 14 27c0 15 -11 25 -29 25c-30 0 -55 -26 -63 -63l-37 -183h95l-5 -22h-95l-28 -141c-62 -306 -116 -500 -239 -500
c-46 0 -82 36 -82 82c0 31 24 60 50 60c22 0 38 -15 38 -37c0 -16 -7 -28 -25 -45c-11 -10 -15 -16 -15 -23c0 -12 12 -21 29 -21c26 0 49 15 65 45c24 41 39 93 65 223l70 357h-88z" />
    <glyph glyph-name="g" unicode="g" horiz-adv-x="448" 
d="M139 7c112 6 181 230 181 319c0 57 -28 97 -69 97c-21 0 -46 -11 -61 -29c-51 -58 -103 -215 -103 -310c0 -25 5 -77 52 -77zM433 426l-127 -447c-22 -78 -42 -115 -78 -151c-32 -33 -68 -48 -110 -48c-57 0 -102 39 -102 91c0 38 22 68 50 68c23 0 40 -20 40 -46
c0 -21 -8 -34 -29 -49c-12 -9 -16 -14 -16 -20c0 -14 24 -27 48 -27c25 0 50 12 69 31c36 38 50 100 84 252c-49 -65 -85 -90 -127 -90c-60 0 -112 78 -112 168c0 137 117 281 227 281c49 0 80 -39 86 -107l27 94h70z" />
    <glyph glyph-name="h" unicode="h" 
d="M278 688l-118 -397c5 8 6 9 14 22c57 89 95 122 139 122s71 -42 71 -112c0 -47 -15 -97 -52 -173c-25 -51 -34 -79 -34 -101c0 -21 9 -33 25 -33c24 0 51 22 77 63c20 31 30 52 51 108l17 1c-32 -86 -53 -124 -84 -156c-23 -22 -48 -36 -67 -36c-40 0 -66 36 -66 93
c0 43 14 90 51 172c29 61 39 93 39 118c0 24 -14 40 -33 40c-36 0 -144 -70 -241 -419h-68l179 599c3 10 5 21 5 31c0 21 -15 28 -76 28h-40l4 16h23c37 0 104 5 162 14h22z" />
    <glyph glyph-name="i" unicode="i" horiz-adv-x="333" 
d="M237 673c27 0 49 -22 49 -50s-22 -50 -49 -50c-28 0 -50 22 -50 50s22 50 50 50zM29 261h-15c18 54 27 73 46 105c24 40 53 65 83 65c43 0 69 -36 69 -96c0 -44 -14 -91 -50 -176c-26 -61 -38 -99 -38 -122c0 -17 9 -28 22 -28c41 0 88 64 126 170h14
c-32 -115 -91 -189 -150 -189c-39 0 -62 35 -62 93c0 44 19 108 59 193c24 53 35 86 35 104c0 21 -10 33 -29 33c-36 0 -72 -50 -110 -152z" />
    <glyph glyph-name="j" unicode="j" horiz-adv-x="333" 
d="M247 669c28 0 50 -22 50 -50s-22 -50 -50 -50c-27 0 -49 22 -49 50s22 50 49 50zM37 232h-16c31 116 92 200 145 200c49 0 84 -55 84 -135c0 -147 -91 -417 -166 -498c-24 -25 -71 -45 -106 -45c-56 0 -96 34 -96 81c0 33 21 58 49 58c23 0 41 -19 41 -41
c0 -16 -6 -26 -23 -39c-10 -8 -14 -13 -14 -19c0 -15 14 -23 39 -23c18 0 60 0 91 77c23 58 133 420 133 514c0 35 -12 54 -33 54c-44 0 -102 -83 -128 -184z" />
    <glyph glyph-name="k" unicode="k" 
d="M152 215l-60 -215h-73l170 605c2 8 4 16 4 24c0 20 -14 29 -45 29h-48l5 16h41c17 0 85 6 126 13h13l-128 -458h29c59 0 86 51 114 106c22 43 51 101 103 101c34 0 56 -27 56 -69c0 -36 -17 -63 -41 -63c-19 0 -33 18 -33 42c0 13 3 23 11 40c5 11 7 15 7 20
c0 7 -4 11 -11 11c-23 0 -49 -30 -79 -92c-34 -68 -51 -87 -94 -105c51 -28 74 -73 75 -143c0 -24 1 -58 27 -58c38 0 84 59 115 149h16c-29 -86 -75 -175 -162 -175c-49 0 -81 30 -81 78c0 15 3 29 11 53c7 21 9 31 9 42c0 31 -17 49 -48 49h-29z" />
    <glyph glyph-name="l" unicode="l" horiz-adv-x="298" 
d="M221 184h15c-24 -116 -79 -194 -136 -194c-40 0 -64 36 -64 96c0 30 5 62 14 94l119 419c3 10 4 21 4 30c0 20 -12 30 -71 30h-33l5 15h54c17 0 85 6 126 13h13l-174 -609c-4 -15 -7 -31 -7 -40c0 -20 8 -29 23 -29c41 0 89 74 112 175z" />
    <glyph glyph-name="m" unicode="m" horiz-adv-x="792" 
d="M17 251h-14c30 108 89 184 144 184c36 0 58 -36 58 -94c0 -14 -3 -47 -6 -68l-6 -39c28 54 84 201 173 201c41 0 70 -41 70 -99c0 -34 -8 -67 -11 -100c27 61 89 199 177 199c43 0 72 -41 72 -102c0 -51 -19 -118 -59 -204c-21 -46 -31 -75 -31 -91c0 -18 10 -28 27 -28
c26 0 64 31 91 73c14 23 23 43 39 87h15c-36 -113 -90 -176 -149 -176c-42 0 -67 33 -67 90c0 45 17 103 54 188c24 53 34 85 34 105c0 25 -11 40 -32 40c-111 0 -203 -309 -224 -369l-17 -48h-65l80 267c17 61 24 90 24 108c0 27 -12 41 -34 41c-96 0 -197 -301 -217 -350
l-23 -66h-66l100 336c5 18 8 35 8 47c0 22 -8 34 -23 34c-38 0 -93 -75 -122 -166z" />
    <glyph glyph-name="n" unicode="n" horiz-adv-x="563" 
d="M21 272h-16c30 95 90 164 142 164c96 0 52 -164 45 -205c25 46 91 204 175 204c46 0 76 -44 76 -114c0 -46 -14 -92 -50 -168c-26 -55 -35 -84 -35 -108c0 -20 11 -32 29 -32c44 0 96 65 129 158l15 1c-34 -110 -92 -178 -152 -178c-44 0 -70 34 -70 92
c0 48 15 98 52 178c27 57 36 86 36 110s-13 42 -30 42c-60 0 -134 -110 -204 -304l-40 -112h-64l88 296c16 56 22 77 22 88c0 20 -12 33 -29 33c-47 0 -96 -88 -119 -145z" />
    <glyph glyph-name="o" unicode="o" horiz-adv-x="448" 
d="M159 -10c-81 3 -144 84 -144 184c0 129 121 259 240 259c86 0 149 -78 149 -184c0 -141 -138 -265 -245 -259zM165 6c117 6 177 229 177 316c0 60 -33 95 -90 95c-116 0 -175 -233 -175 -317c0 -68 45 -97 88 -94z" />
    <glyph glyph-name="p" unicode="p" horiz-adv-x="563" 
d="M387 415c-22 -1 -47 -14 -65 -33c-54 -60 -107 -196 -107 -273c0 -59 31 -102 74 -102c41 0 76 34 103 104c32 78 56 177 56 226c0 33 -11 78 -61 78zM20 223h-15c42 128 106 208 168 208c84 0 76 -108 74 -141c44 96 89 141 138 141c72 0 122 -74 122 -181
c0 -129 -108 -260 -214 -260c-49 0 -78 30 -94 98l-66 -223c-4 -16 -7 -30 -7 -38c0 -23 12 -33 39 -33h61l-4 -15h-280l5 15h39c36 0 59 19 71 60l126 431c10 34 15 64 15 84c0 28 -11 43 -32 43c-47 0 -106 -76 -146 -189z" />
    <glyph glyph-name="q" unicode="q" horiz-adv-x="448" 
d="M289 178c23 76 35 116 35 157c0 51 -22 81 -61 81c-117 0 -177 -282 -177 -334c0 -48 19 -75 54 -75c54 0 119 76 149 171zM199 -147l65 230c-47 -66 -87 -95 -129 -95c-61 0 -110 75 -110 170c0 172 161 274 240 274c47 0 75 -30 88 -95c31 36 47 61 67 108h17
l-165 -592c-2 -9 -4 -17 -4 -25c0 -23 15 -34 42 -34h50l-3 -15h-288l6 15h54c37 0 59 18 70 59z" />
    <glyph glyph-name="r" unicode="r" horiz-adv-x="396" 
d="M40 248h-17c18 60 27 83 47 116c19 34 47 66 79 66s48 -33 48 -98c0 -27 -2 -45 -9 -92l12 25c54 117 93 165 133 165c23 0 42 -25 42 -54c0 -34 -19 -63 -42 -63c-15 0 -27 16 -27 34c0 11 3 19 13 33c7 11 10 17 10 23c0 4 -3 7 -7 7c-49 0 -142 -218 -171 -311
l-31 -99h-60l81 288c13 43 21 83 21 97c0 18 -6 26 -18 26c-34 0 -75 -64 -104 -163z" />
    <glyph glyph-name="s" unicode="s" horiz-adv-x="396" 
d="M129 226c-21 23 -32 49 -32 78c0 70 64 132 136 132c66 0 115 -43 115 -101c0 -30 -19 -54 -43 -54c-18 0 -34 17 -34 39c0 16 10 30 29 42c9 6 12 9 12 14c0 22 -40 44 -81 44c-51 0 -95 -35 -95 -76c0 -33 17 -52 70 -78c43 -20 107 -56 107 -129
c0 -82 -72 -147 -164 -147c-77 0 -141 54 -141 120c0 42 23 76 51 76c21 0 35 -16 35 -41c0 -26 -15 -44 -42 -51c-14 -3 -18 -7 -18 -16c0 -34 59 -71 112 -71c72 0 124 39 124 92c0 42 -36 62 -77 84c-35 20 -45 26 -64 43z" />
    <glyph glyph-name="t" unicode="t" horiz-adv-x="281" 
d="M101 419l46 172h73l-47 -172h80l-6 -23h-79l-89 -334c-2 -8 -3 -16 -3 -23c0 -17 7 -26 20 -26c36 0 90 74 123 169h14c-33 -111 -93 -188 -147 -188c-37 0 -63 38 -63 92c0 26 5 56 14 91l59 219h-71l6 23h70z" />
    <glyph glyph-name="u" unicode="u" horiz-adv-x="563" 
d="M22 255l-15 -1c17 65 27 89 55 123c19 24 54 55 93 55c43 0 72 -40 72 -95c0 -47 -15 -98 -53 -178c-25 -54 -35 -82 -35 -104c0 -29 14 -47 37 -47c18 0 41 12 58 29c48 50 75 119 127 259l43 130h68l-83 -286c-11 -37 -21 -85 -21 -98c0 -19 10 -32 26 -32
c39 0 87 61 119 154h16c-38 -113 -89 -173 -145 -173c-34 0 -56 32 -56 81c0 26 4 62 12 105c2 16 3 18 4 27c-36 -89 -94 -215 -169 -215c-49 0 -85 51 -85 119c0 44 14 90 52 167c26 55 36 84 36 106c0 20 -11 32 -30 32c-49 0 -100 -63 -126 -158z" />
    <glyph glyph-name="v" unicode="v" horiz-adv-x="448" 
d="M29 262h-15c21 68 32 91 62 127c22 26 50 41 75 41c38 0 65 -40 65 -96c0 -50 -14 -98 -52 -174c-27 -52 -36 -79 -36 -102c0 -34 17 -51 51 -51c119 0 208 223 208 283c0 24 -8 34 -33 40c-13 3 -15 4 -22 10c-10 11 -14 22 -14 40c0 30 18 51 44 51c29 0 50 -36 50 -84
c0 -112 -96 -357 -234 -357c-59 0 -95 48 -95 125c0 46 14 91 52 167c25 50 36 81 36 101c0 18 -12 31 -30 31c-13 0 -34 -13 -49 -32c-30 -35 -41 -56 -63 -120z" />
    <glyph glyph-name="w" unicode="w" horiz-adv-x="677" 
d="M395 423h67c-24 -89 -44 -156 -51 -182c-35 -118 -47 -163 -47 -181c0 -34 16 -53 46 -53c95 0 204 187 204 277c0 20 -7 29 -29 34c-14 4 -17 5 -27 13c-11 12 -15 23 -15 40c0 36 17 58 45 58c30 0 51 -39 51 -90c0 -157 -128 -349 -232 -349c-55 0 -83 42 -83 125
c0 13 1 33 4 62c-21 -44 -28 -58 -40 -80c-39 -66 -90 -107 -136 -107c-45 0 -79 50 -79 116c0 45 15 94 53 169c24 50 34 78 34 98c0 21 -12 37 -28 37c-10 0 -57 -5 -114 -139h-16c57 150 122 157 137 157c41 0 68 -41 68 -104c0 -47 -14 -93 -50 -168
c-26 -54 -35 -81 -35 -106c0 -27 14 -45 37 -45c18 0 49 18 70 40c51 51 91 140 148 322z" />
    <glyph glyph-name="x" unicode="x" 
d="M41 265h-15c55 141 132 161 162 161c54 0 88 -49 88 -129c0 -9 0 -20 -1 -33c34 74 87 161 148 161c29 0 53 -27 53 -60c0 -34 -21 -63 -46 -63c-20 0 -32 14 -32 36c0 16 5 28 18 45c7 8 9 12 9 17c0 4 -6 8 -14 8c-10 0 -32 -14 -47 -29c-53 -58 -115 -220 -115 -303
c0 -42 17 -65 49 -65c15 0 79 5 139 135h16c-23 -55 -36 -76 -64 -105c-32 -33 -68 -51 -99 -51c-58 0 -86 45 -91 147c-44 -97 -92 -148 -136 -148c-32 0 -57 30 -57 69c0 34 21 62 45 62c16 0 30 -17 30 -38c0 -15 -6 -30 -20 -47c-8 -9 -10 -14 -10 -19s7 -10 15 -10
c34 0 85 59 112 129c28 73 51 166 51 202c0 40 -21 69 -50 69c-48 0 -96 -48 -138 -141z" />
    <glyph glyph-name="y" unicode="y" 
d="M28 253h-16c36 106 96 176 151 176c38 0 61 -34 61 -92c0 -48 -17 -103 -57 -187c-26 -53 -37 -84 -37 -104c0 -26 12 -40 35 -40c22 0 56 17 81 41c52 50 80 119 121 244c13 36 24 69 35 98l13 37h67l-102 -350c-34 -118 -73 -195 -123 -243c-40 -38 -97 -64 -141 -64
c-59 0 -104 36 -104 84c0 35 21 61 48 61c24 0 43 -20 43 -44s-9 -39 -31 -51c-9 -5 -12 -8 -12 -12c0 -11 26 -22 51 -22c114 0 152 134 192 281l14 52l-19 -31c-36 -59 -90 -97 -136 -97c-49 0 -79 41 -79 110c0 35 14 80 50 159c30 65 42 100 42 124c0 16 -10 27 -25 27
c-36 0 -86 -64 -122 -157z" />
    <glyph glyph-name="z" unicode="z" horiz-adv-x="396" 
d="M27 283h-13c28 84 88 146 142 146c23 0 41 -12 65 -42c20 -24 32 -33 47 -33c18 0 34 13 34 28c0 4 -5 22 -5 27c0 11 7 19 18 19c12 0 18 -9 18 -26c0 -66 -72 -127 -176 -214c-69 -58 -87 -73 -109 -107c20 7 29 9 41 9c8 0 19 -2 40 -7c36 -10 61 -14 84 -14
c61 0 101 28 122 84h16c-48 -152 -126 -163 -139 -163c-27 0 -45 11 -74 43c-26 29 -41 38 -62 38c-23 0 -38 -12 -38 -31c0 -4 7 -24 7 -29c0 -13 -8 -21 -19 -21s-19 13 -19 31c0 65 80 134 193 228c48 40 75 63 97 98c-3 0 -3 -1 -8 -2c-14 -6 -24 -8 -36 -8
c-9 0 -24 3 -49 8c-34 8 -54 11 -71 11c-50 0 -74 -17 -106 -73z" />
    <glyph glyph-name="braceleft" unicode="{" horiz-adv-x="480" 
d="M431 701l-1 -17c-72 -18 -110 -58 -110 -116c0 -15 5 -46 13 -77c6 -29 10 -54 10 -74c0 -75 -54 -138 -144 -170c89 -33 144 -99 144 -172c0 -20 -4 -45 -11 -74c-7 -31 -12 -62 -12 -77c0 -58 38 -98 110 -116v-17c-110 15 -183 93 -183 197c0 18 3 41 11 69
c7 30 12 60 12 74c0 53 -45 96 -111 105v20c66 9 111 52 111 105c0 14 -5 44 -13 74c-6 26 -10 57 -10 76c0 96 77 176 184 190z" />
    <glyph glyph-name="bar" unicode="|" horiz-adv-x="496" 
d="M226 -250v1000h43v-1000h-43z" />
    <glyph glyph-name="braceright" unicode="}" horiz-adv-x="480" 
d="M87 -209v17c72 18 110 58 110 116c0 15 -5 46 -12 77c-6 29 -10 54 -10 74c0 75 54 138 144 170c-89 33 -144 99 -144 172c0 20 4 45 10 74c7 31 12 62 12 77c0 58 -38 98 -110 116v17c110 -15 183 -93 183 -197c0 -18 -3 -41 -10 -69c-7 -30 -12 -60 -12 -74
c0 -53 45 -96 111 -105v-20c-66 -9 -111 -52 -111 -105c0 -14 5 -44 12 -74c6 -26 10 -57 10 -76c0 -96 -77 -176 -183 -190z" />
    <glyph glyph-name="asciitilde" unicode="~" horiz-adv-x="667" 
d="M94 255h-21c2 47 12 74 36 99c20 21 49 34 75 34c21 0 47 0 188 -60c58 -25 83 -32 108 -32c53 0 86 33 92 91h21c-2 -78 -50 -133 -116 -133c-30 0 -51 5 -103 26l-81 33c-61 24 -84 31 -109 31c-48 0 -78 -29 -90 -89z" />
    <glyph glyph-name="exclamdown" unicode="&#xa1;" horiz-adv-x="336" 
d="M158 258l13 -4c-33 -117 -59 -236 -79 -357c-3 -24 -22 -136 -73 -136c-17 0 -30 18 -30 43c0 32 16 78 58 166c43 93 81 189 111 288zM203 351c-26 0 -46 20 -46 46c0 25 21 46 46 46s46 -21 46 -46s-21 -46 -46 -46z" />
    <glyph glyph-name="cent" unicode="&#xa2;" horiz-adv-x="396" 
d="M119 17l94 394c-78 -49 -128 -234 -128 -320c0 -36 9 -55 34 -74zM219 436l45 190h21l-43 -186c88 4 97 -58 97 -82c0 -36 -21 -63 -49 -63c-23 0 -41 20 -41 46c0 16 6 27 23 43c11 11 15 16 15 24c0 10 -11 16 -31 16c-6 0 -10 0 -19 -2l-100 -414c12 -2 17 -3 24 -3
c73 0 147 70 183 174h17c-38 -116 -118 -190 -205 -190c-6 0 -12 0 -23 2l-56 -234h-21l57 240c-22 10 -31 16 -43 27c-51 53 -54 123 -54 143c0 124 95 224 203 269z" />
    <glyph glyph-name="sterling" unicode="&#xa3;" 
d="M157 110c-13 3 -19 4 -27 4c-42 0 -74 -27 -74 -62c0 -21 14 -36 34 -36c29 0 56 37 67 94zM61 329h111c11 52 21 100 40 149c27 73 87 186 177 186c47 0 74 -33 74 -89c0 -41 -30 -82 -60 -82c-24 0 -45 24 -45 50s22 51 45 51c6 0 11 -1 18 -5c3 -1 5 -2 7 -2
c8 0 12 6 12 18c0 26 -23 46 -53 46c-22 0 -40 -8 -57 -25c-31 -31 -43 -71 -50 -169c-3 -44 -8 -85 -17 -128h123l-9 -33h-120c-17 -60 -32 -120 -57 -177c43 -19 94 -32 127 -32c54 0 81 23 103 90h16c-26 -106 -82 -178 -139 -178c-32 0 -62 20 -90 59
c-14 18 -18 23 -29 30c-31 -55 -69 -89 -99 -89c-29 0 -50 24 -50 56c0 46 37 75 97 75c7 0 12 0 25 -1c0 56 1 112 8 168h-116z" />
    <glyph glyph-name="fraction" unicode="&#x2044;" horiz-adv-x="333" 
d="M-158 -34l628 719h43l-629 -719h-42z" />
    <glyph glyph-name="yen" unicode="&#xa5;" horiz-adv-x="677" 
d="M603 188l-4 -15h-244l-27 -94c-4 -13 -6 -25 -6 -37c0 -17 15 -27 40 -27h65l-5 -15h-336l4 15h69c45 0 63 17 79 72l24 86h-229l4 15h229l33 116h-233l4 15h231l-78 273c-16 56 -30 67 -82 67h-44l4 15h312l-5 -15h-47c-38 0 -53 -8 -53 -30c0 -7 1 -14 3 -23l79 -277
l147 195c27 36 38 61 38 85c0 32 -26 50 -72 50h-20l5 15h243v-15c-49 -5 -89 -23 -171 -131l-157 -209h222l-4 -15h-230l-32 -116h244z" />
    <glyph glyph-name="florin" unicode="&#x192;" horiz-adv-x="488" 
d="M314 427h87l-8 -32h-85c-12 -66 -18 -89 -41 -183c-17 -66 -33 -129 -50 -187c-43 -156 -103 -235 -178 -235c-35 0 -59 21 -59 53c0 22 18 42 39 42c15 0 31 -14 31 -27c0 -7 -3 -15 -8 -20c-3 -4 -4 -5 -4 -9c0 -5 6 -10 12 -10c35 0 61 47 81 145l27 134l32 150
l38 147h-86l7 32c80 6 83 6 111 88c23 69 55 162 139 162c40 0 68 -23 68 -55c0 -21 -14 -37 -33 -37c-16 0 -31 13 -31 28c0 5 2 12 6 18c4 9 4 9 4 12c0 10 -5 14 -18 14c-18 0 -39 -19 -46 -41c-4 -11 -8 -31 -12 -59z" />
    <glyph glyph-name="section" unicode="&#xa7;" horiz-adv-x="615" 
d="M246 397c-57 -55 -77 -90 -77 -137c0 -73 64 -114 96 -134c27 -17 69 -48 86 -76c60 42 91 88 91 134c0 67 -54 101 -96 127c-61 38 -77 56 -100 86zM239 415c-5 17 -8 36 -8 53c0 94 92 189 185 189c75 0 130 -50 130 -118c0 -50 -29 -88 -66 -88c-22 0 -39 17 -39 39
c0 23 20 42 52 46c24 3 31 9 31 24c0 42 -48 78 -104 78c-78 0 -143 -57 -143 -126c0 -54 22 -81 87 -120c35 -21 112 -67 112 -166c0 -69 -36 -129 -118 -192c9 -21 13 -43 13 -65c0 -102 -87 -188 -190 -188c-71 0 -127 51 -127 117c0 44 30 83 64 83c21 0 34 -13 34 -37
c0 -29 -22 -51 -57 -59c-14 -3 -19 -7 -19 -13c0 -36 54 -74 103 -74c83 0 151 61 151 137c0 57 -61 98 -93 119c-41 27 -105 69 -105 163c0 98 74 166 107 198z" />
    <glyph glyph-name="currency" unicode="&#xa4;" horiz-adv-x="678" 
d="M354 475c-90 0 -162 -78 -162 -164c0 -88 72 -166 162 -166c92 0 164 78 164 166c0 86 -72 164 -164 164zM129 42l-44 42l98 98c-27 33 -43 79 -43 129s18 98 43 129l-98 96l44 44l96 -98c33 27 79 43 129 43c52 0 100 -18 129 -43l98 98l42 -44l-96 -96
c25 -31 43 -79 43 -129c0 -52 -18 -98 -43 -129l96 -98l-42 -42l-98 96c-31 -25 -77 -43 -129 -43s-98 18 -129 43z" />
    <glyph glyph-name="quotesingle" unicode="'" horiz-adv-x="281" 
d="M200 392h-17l-29 193c-1 9 -1 18 -1 27c0 45 12 65 38 65c25 0 40 -21 40 -57c0 -9 -1 -21 -3 -35z" />
    <glyph glyph-name="quotedblleft" unicode="&#x201c;" 
d="M344 674l3 -16c-58 -25 -100 -65 -100 -96c0 -14 4 -20 20 -32c18 -13 23 -22 23 -38c0 -29 -18 -49 -44 -49c-28 0 -49 27 -49 63c0 71 56 135 147 168zM527 674l3 -16c-58 -25 -100 -65 -100 -96c0 -14 4 -20 20 -32c18 -13 23 -22 23 -38c0 -29 -18 -49 -44 -49
c-28 0 -49 27 -49 63c0 71 56 135 147 168z" />
    <glyph glyph-name="guillemotleft" unicode="&#xab;" horiz-adv-x="396" 
d="M220 218l47 -177h-20l-90 178l162 175h20zM92 217l70 -203h-20l-119 205l185 202h21z" />
    <glyph glyph-name="guilsinglleft" unicode="&#x2039;" horiz-adv-x="281" 
d="M99 220l71 -205h-21l-118 204l186 205l19 -1z" />
    <glyph glyph-name="guilsinglright" unicode="&#x203a;" horiz-adv-x="281" 
d="M182 218l-71 205h21l118 -204l-186 -205l-19 1z" />
    <glyph glyph-name="endash" unicode="&#x2013;" horiz-adv-x="500" 
d="M0 244v22h500v-22h-500z" />
    <glyph glyph-name="dagger" unicode="&#x2020;" horiz-adv-x="563" 
d="M127 -213l-18 -1c62 200 109 361 107 514c24 22 58 56 78 103c-33 -1 -47 -4 -84 -18c-26 -11 -37 -13 -51 -13c-29 0 -50 18 -50 43c0 23 20 39 48 39c15 0 27 -3 56 -14c40 -16 56 -20 88 -21c6 21 8 35 8 57c0 11 -5 63 -5 75c0 58 21 93 54 93c28 0 46 -20 46 -51
c0 -28 -11 -51 -43 -96c-28 -38 -35 -52 -43 -78c27 1 40 4 76 19c29 13 42 16 58 16c29 0 51 -18 51 -39c0 -25 -21 -43 -51 -43c-15 0 -26 3 -54 14c-39 15 -52 17 -86 17c-2 -17 -3 -25 -3 -35c0 -27 6 -45 23 -67c-71 -122 -102 -196 -179 -434z" />
    <glyph glyph-name="daggerdbl" unicode="&#x2021;" horiz-adv-x="563" 
d="M317 461c8 19 11 34 11 49c0 8 -3 50 -3 59c0 43 20 75 47 75c18 0 32 -15 32 -35c0 -19 -9 -38 -33 -73c-24 -36 -32 -50 -37 -75c17 0 25 0 63 13c28 9 41 12 56 12c24 0 41 -15 41 -35c0 -17 -17 -31 -39 -31c-10 0 -20 2 -43 10c-44 13 -55 13 -81 13
c-2 -9 -2 -13 -2 -20c0 -18 5 -36 16 -56c-49 -60 -65 -87 -83 -151c-10 -35 -15 -70 -15 -103c0 -17 1 -30 4 -58c-27 -23 -43 -42 -64 -78c23 1 32 3 63 13c28 9 40 12 55 12c27 0 46 -13 46 -33s-17 -34 -43 -34c-12 0 -22 2 -47 11c-37 12 -50 15 -81 16
c-7 -21 -10 -35 -10 -54c0 -9 3 -51 3 -60c0 -39 -21 -72 -45 -72c-18 0 -34 17 -34 37c0 19 10 41 35 78c25 35 32 49 36 71c-26 -2 -36 -4 -68 -16c-26 -10 -38 -12 -52 -12c-23 0 -41 14 -41 33c0 20 18 34 44 34c13 0 23 -2 47 -11c39 -16 51 -15 72 -13
c3 30 0 38 -15 80c56 72 105 153 105 244c0 21 -2 35 -10 66c2 1 2 2 6 5c17 16 38 38 59 72c-28 0 -41 -3 -74 -15c-22 -8 -32 -10 -44 -10c-28 0 -48 14 -48 33c0 18 23 33 48 33c14 0 25 -2 51 -11c34 -11 44 -13 72 -13z" />
    <glyph glyph-name="periodcentered" unicode="&#xb7;" horiz-adv-x="281" 
d="M151 351c31 0 56 -25 56 -55c0 -31 -25 -56 -56 -56c-30 0 -55 25 -55 56c0 30 25 55 55 55z" />
    <glyph glyph-name="paragraph" unicode="&#xb6;" horiz-adv-x="453" 
d="M457 647h-65v-851h-35v851h-91v-851h-36v509l-14 1c-108 5 -166 32 -198 92c-15 27 -22 59 -22 91c0 116 82 185 220 185h241v-27z" />
    <glyph glyph-name="bullet" unicode="&#x2022;" horiz-adv-x="350" 
d="M176 453c67 0 122 -54 122 -122s-55 -123 -122 -123c-68 0 -123 55 -123 122c0 68 55 123 123 123z" />
    <glyph glyph-name="quotesinglbase" unicode="&#x201a;" horiz-adv-x="281" 
d="M-1 -128l-4 15c61 19 113 69 113 109c0 5 -3 8 -9 8c-3 0 -19 -4 -23 -4c-27 0 -47 20 -47 47c0 23 20 43 44 43c34 0 58 -29 58 -70c0 -64 -49 -119 -132 -148z" />
    <glyph glyph-name="quotedblbase" unicode="&#x201e;" 
d="M205 -136l-3 16c58 25 100 65 100 96c0 14 -4 20 -20 32c-18 13 -23 22 -23 38c0 29 18 49 44 49c28 0 49 -27 49 -63c0 -71 -56 -135 -147 -168zM22 -136l-3 16c58 25 100 65 100 96c0 14 -4 20 -20 32c-18 13 -23 22 -23 38c0 29 18 49 44 49c28 0 49 -27 49 -63
c0 -71 -56 -135 -147 -168z" />
    <glyph glyph-name="quotedblright" unicode="&#x201d;" 
d="M286 443l-3 16c58 25 100 65 100 96c0 14 -4 20 -20 32c-18 13 -23 22 -23 38c0 29 18 49 44 49c28 0 49 -27 49 -63c0 -71 -56 -135 -147 -168zM103 443l-3 16c58 25 100 65 100 96c0 14 -4 20 -20 32c-18 13 -23 22 -23 38c0 29 18 49 44 49c28 0 49 -27 49 -63
c0 -71 -56 -135 -147 -168z" />
    <glyph glyph-name="guillemotright" unicode="&#xbb;" horiz-adv-x="396" 
d="M167 217l-47 177h20l90 -178l-162 -175h-20zM295 218l-70 203h20l119 -205l-185 -202h-21z" />
    <glyph glyph-name="ellipsis" unicode="&#x2026;" horiz-adv-x="1000" 
d="M122 -17c-31 1 -54 24 -54 54s24 54 54 54s54 -24 54 -54c0 -28 -22 -54 -54 -54zM788 -17c-30 0 -54 24 -54 54s24 54 54 54s54 -24 54 -54s-24 -54 -54 -54zM455 -17c-31 1 -54 24 -54 54s24 54 54 54s54 -24 54 -54c0 -28 -22 -54 -54 -54z" />
    <glyph glyph-name="perthousand" unicode="&#x2030;" horiz-adv-x="990" 
d="M173 337c-53 2 -94 55 -94 122c0 105 97 226 181 226c52 0 90 -53 90 -125c0 -101 -91 -223 -177 -223zM171 351c29 2 48 24 69 78c28 71 52 165 52 198c0 29 -12 44 -36 44s-46 -24 -65 -71c-29 -71 -54 -166 -54 -205c0 -31 11 -44 34 -44zM438 -26
c-53 2 -94 55 -94 122c0 105 97 226 181 226c52 0 90 -53 90 -125c0 -101 -91 -223 -177 -223zM436 -12c29 2 48 24 69 78c28 71 52 165 52 198c0 29 -12 44 -36 44s-46 -24 -65 -71c-29 -71 -54 -166 -54 -205c0 -31 11 -44 34 -44zM762 -26c-53 2 -94 55 -94 122
c0 105 97 226 181 226c52 0 90 -53 90 -125c0 -101 -91 -223 -177 -223zM760 -12c29 2 48 24 69 78c28 71 52 165 52 198c0 29 -12 44 -36 44s-46 -24 -65 -71c-29 -71 -54 -166 -54 -205c0 -31 11 -44 34 -44zM-56 -26l759 713h49l-759 -713h-49z" />
    <glyph glyph-name="questiondown" unicode="&#xbf;" horiz-adv-x="396" 
d="M219 -37h13c-2 -102 -71 -191 -148 -191c-55 0 -92 49 -92 123c0 91 75 150 124 189c53 41 95 76 95 122c0 27 -18 47 -43 47c-29 0 -46 -17 -60 -61l-15 5c13 47 40 72 77 72c36 0 62 -30 62 -72c0 -76 -61 -140 -110 -190c-68 -68 -94 -113 -94 -157
c0 -38 21 -61 55 -61c59 0 114 69 136 174zM227 446c25 0 46 -21 46 -46c0 -26 -21 -47 -46 -47c-26 0 -47 21 -47 47c0 25 21 46 47 46z" />
    <glyph glyph-name="grave" unicode="`" horiz-adv-x="333" 
d="M284 504h-19l-88 73c-30 24 -41 34 -41 51s13 29 31 29c21 0 34 -12 61 -57z" />
    <glyph glyph-name="acute" unicode="&#xb4;" horiz-adv-x="333" 
d="M318 577l-89 -73h-19l56 96c27 45 41 57 62 57c17 0 31 -12 31 -29s-12 -27 -41 -51z" />
    <glyph glyph-name="circumflex" unicode="&#x2c6;" horiz-adv-x="333" 
d="M101 503l167 145h62l43 -145h-19l-69 93l-159 -93h-25z" />
    <glyph glyph-name="tilde" unicode="&#x2dc;" horiz-adv-x="333" 
d="M97 504h-17c0 65 35 108 88 108c20 0 52 -13 94 -38c28 -17 40 -22 53 -22c28 0 41 16 49 60h15c-2 -36 -8 -60 -21 -77c-14 -19 -38 -31 -61 -31c-20 0 -36 5 -61 19l-29 16c-34 19 -49 25 -62 25c-29 0 -45 -20 -48 -60z" />
    <glyph glyph-name="macron" unicode="&#xaf;" horiz-adv-x="333" 
d="M80 505l13 45h285l-13 -45h-285z" />
    <glyph glyph-name="breve" unicode="&#x2d8;" horiz-adv-x="333" 
d="M373 639h20c-38 -86 -96 -135 -158 -135c-65 0 -105 51 -105 135h21c0 -45 36 -75 88 -75c51 0 103 29 134 75z" />
    <glyph glyph-name="dotaccent" unicode="&#x2d9;" horiz-adv-x="333" 
d="M247 598c26 0 47 -23 47 -51c0 -24 -21 -44 -47 -44s-47 21 -47 46c0 27 21 49 47 49z" />
    <glyph glyph-name="dieresis" unicode="&#xa8;" horiz-adv-x="333" 
d="M146 583c22 0 40 -18 40 -39c0 -22 -17 -39 -38 -39c-22 0 -40 17 -40 39c0 21 17 39 38 39zM326 583c21 0 38 -18 38 -39c0 -22 -17 -39 -37 -39c-23 0 -41 18 -41 39c0 22 18 39 40 39z" />
    <glyph glyph-name="ring" unicode="&#x2da;" horiz-adv-x="333" 
d="M251 688c51 -1 91 -43 91 -95c0 -49 -40 -89 -89 -89c-52 0 -94 41 -94 91c0 51 41 93 92 93zM251 660c-35 0 -64 -29 -64 -64s29 -64 65 -64c35 0 63 28 63 62c0 36 -28 66 -64 66z" />
    <glyph glyph-name="cedilla" unicode="&#xb8;" horiz-adv-x="333" 
d="M-1 -86l70 93h31l-35 -51c41 -11 64 -36 64 -72c0 -53 -68 -96 -151 -96c-19 0 -32 2 -66 8l8 18c19 -3 26 -3 40 -3c62 0 104 25 104 61c0 21 -13 46 -65 42z" />
    <glyph glyph-name="hungarumlaut" unicode="&#x2dd;" horiz-adv-x="333" 
d="M351 579l-83 -75h-19l50 96c16 31 31 58 58 58c18 0 31 -11 31 -27c0 -17 -7 -24 -37 -52zM233 579l-83 -75h-19l51 96c15 31 30 58 58 58c17 0 30 -11 30 -27c0 -17 -7 -24 -37 -52z" />
    <glyph glyph-name="ogonek" unicode="&#x2db;" horiz-adv-x="333" 
d="M219 -132l9 -18c-43 -22 -72 -31 -107 -31c-67 0 -110 37 -110 93c0 32 12 59 41 95h21c-14 -23 -19 -38 -19 -56c0 -56 44 -95 108 -95c20 0 31 2 57 12z" />
    <glyph glyph-name="caron" unicode="&#x2c7;" horiz-adv-x="333" 
d="M407 649l-168 -145h-61l-44 145h20l69 -93l158 93h26z" />
    <glyph glyph-name="emdash" unicode="&#x2014;" horiz-adv-x="1000" 
d="M0 243v22h1000v-22h-1000z" />
    <glyph glyph-name="AE" unicode="&#xc6;" horiz-adv-x="948" 
d="M505 652l-280 -378h191l104 369c2 5 4 16 -4 16c-3 0 -8 -3 -11 -7zM342 659l3 15h561l-52 -268h-15c5 39 7 54 7 81c0 66 -14 110 -43 141c-24 25 -50 32 -120 32c-57 0 -65 0 -74 -30l-74 -265h23c122 0 165 134 178 178h15l-116 -412l-13 -1l3 16c10 55 13 67 13 96
c0 70 -31 107 -91 107h-17l-83 -294c-2 -7 -3 -14 -3 -21c0 -11 9 -17 24 -17h66c76 0 243 44 320 273h15l-81 -290h-541l5 15h39c40 0 59 19 74 78l45 162h-200l-11 -14c-74 -100 -95 -128 -95 -166c0 -37 26 -60 68 -60h23l-4 -15h-266v15c58 2 105 42 145 84
c20 21 27 30 91 118l274 366c11 15 17 31 17 43c0 21 -15 33 -42 33h-68z" />
    <glyph glyph-name="ordfeminine" unicode="&#xaa;" horiz-adv-x="344" 
d="M234 676c-14 0 -30 -7 -39 -17c-49 -53 -80 -190 -80 -213c0 -26 12 -43 31 -43c76 0 132 144 132 205c0 39 -18 68 -44 68zM379 515h12c-29 -81 -63 -124 -100 -124c-27 0 -42 21 -42 60c0 8 1 15 3 30c-27 -44 -56 -90 -105 -90c-39 0 -71 50 -71 110
c0 91 81 187 157 187c30 0 49 -25 56 -73l24 65h42l-68 -230c-2 -10 -4 -19 -4 -25c0 -14 5 -21 16 -21c25 0 53 40 80 111z" />
    <glyph glyph-name="Lslash" unicode="&#x141;" horiz-adv-x="635" 
d="M466 446l-10 -24l-189 -77l-83 -293c-2 -6 -2 -11 -2 -17c0 -11 11 -17 31 -17h76c80 0 175 56 230 135c28 40 48 86 68 130h15l-85 -283h-555l4 15h62c34 0 56 17 65 49l68 238l-163 -66l10 24l159 65l79 277c3 10 4 20 4 29c0 18 -19 27 -56 27h-51l3 16h341l-5 -16
h-81c-30 0 -52 -17 -60 -47l-68 -243z" />
    <glyph glyph-name="Oslash" unicode="&#xd8;" horiz-adv-x="677" 
d="M44 -17l74 86c-34 46 -55 111 -55 183c0 208 202 437 386 437c59 0 108 -25 144 -68l61 70l14 -11l-63 -75c33 -47 52 -113 52 -190c0 -205 -200 -430 -384 -430c-56 0 -105 25 -142 69l-72 -84zM573 568l-419 -487c17 -47 56 -80 119 -80c53 2 95 20 130 54
c31 31 62 78 82 126c10 22 92 235 92 341c0 17 -1 32 -4 46zM148 104l419 486c-18 53 -60 83 -119 83c-52 0 -103 -23 -139 -64c-113 -128 -166 -404 -166 -464c0 -14 1 -29 5 -41z" />
    <glyph glyph-name="OE" unicode="&#x152;" horiz-adv-x="990" 
d="M255 12c59 0 103 31 143 101c43 73 49 136 76 214c12 38 59 187 59 237c0 51 -24 100 -95 100c-47 0 -93 -23 -127 -57c-99 -101 -171 -326 -171 -463c0 -100 70 -132 115 -132zM909 282l-80 -282h-476c-15 0 -30 -1 -44 -3c-15 -1 -30 -3 -45 -3
c-115 0 -200 110 -200 258c0 80 14 153 58 220c65 97 194 208 317 208c30 0 60 -1 91 -3c30 -1 60 -3 90 -3h368l-73 -257h-15c10 41 14 66 14 88c0 89 -56 154 -133 154h-94c-27 0 -30 -11 -43 -57l-69 -244h23c136 0 171 125 186 177h16l-118 -413h-16l5 19
c14 54 19 83 19 109c0 61 -29 92 -86 92h-34l-79 -280c-4 -12 -5 -21 -5 -29c0 -12 12 -17 39 -17c47 0 99 4 116 7c48 7 109 41 151 83c66 67 89 141 100 176h17z" />
    <glyph glyph-name="ordmasculine" unicode="&#xba;" horiz-adv-x="302" 
d="M188 391c-58 2 -100 54 -100 125c0 85 81 172 161 172c57 0 100 -53 100 -123c0 -84 -78 -174 -161 -174zM188 401c87 5 119 178 119 213c0 40 -22 64 -59 64c-85 0 -118 -171 -118 -212c0 -13 0 -65 58 -65z" />
    <glyph glyph-name="ae" unicode="&#xe6;" horiz-adv-x="677" 
d="M380 196c115 16 211 94 211 171c0 29 -15 46 -41 46c-60 0 -132 -92 -170 -217zM444 424l-29 -108c53 82 93 113 141 113c41 0 69 -32 69 -79c0 -124 -188 -161 -252 -173c-11 -49 -14 -58 -14 -83c0 -53 31 -87 81 -87c66 0 123 47 169 140h17c-22 -49 -33 -68 -62 -98
c-38 -39 -82 -59 -127 -59c-73 0 -118 49 -132 143c-49 -99 -98 -143 -160 -143c-61 0 -117 79 -117 167c0 123 129 273 235 273c49 0 75 -34 83 -107l29 101h69zM148 6c125 5 182 234 182 306c0 65 -25 102 -69 102c-20 0 -45 -12 -61 -31c-52 -57 -113 -225 -113 -309
c0 -35 21 -68 61 -68z" />
    <glyph glyph-name="dotlessi" unicode="&#x131;" horiz-adv-x="333" 
d="M29 261h-15c18 54 27 73 46 105c24 40 53 65 83 65c43 0 69 -36 69 -96c0 -44 -14 -91 -50 -176c-26 -61 -38 -99 -38 -122c0 -17 9 -28 22 -28c41 0 88 64 126 170h14c-32 -115 -91 -189 -150 -189c-39 0 -62 35 -62 93c0 44 19 108 59 193c24 53 35 86 35 104
c0 21 -10 33 -29 33c-36 0 -72 -50 -110 -152z" />
    <glyph glyph-name="lslash" unicode="&#x142;" horiz-adv-x="281" 
d="M255 434l-78 -62l-84 -294c-4 -15 -7 -31 -7 -40c0 -20 8 -29 23 -29c41 0 89 74 112 175h15c-24 -116 -79 -194 -136 -194c-40 0 -64 36 -64 96c0 30 5 62 14 94l34 119l-69 -55l12 34l66 52l76 269c3 10 4 21 4 30c0 20 -12 30 -71 30h-33l5 15h54c17 0 85 6 126 13h13
l-81 -283l82 65z" />
    <glyph glyph-name="oslash" unicode="&#xf8;" horiz-adv-x="448" 
d="M20 -22l-14 12l50 58c-26 31 -41 76 -41 126c0 129 121 259 240 259c38 0 72 -16 98 -44l51 59l14 -12l-53 -61c25 -32 39 -76 39 -126c0 -141 -138 -265 -245 -259c-35 1 -67 17 -91 43zM340 346l-254 -292c15 -35 47 -50 79 -48c117 6 177 229 177 316c0 8 -1 16 -2 24
zM80 75l254 292c-14 33 -42 50 -82 50c-116 0 -175 -233 -175 -317c0 -9 1 -17 3 -25z" />
    <glyph glyph-name="oe" unicode="&#x153;" horiz-adv-x="677" 
d="M380 196c118 19 207 92 207 172c0 30 -16 48 -42 48c-21 0 -53 -15 -72 -34c-38 -38 -66 -95 -93 -186zM608 151h18c-24 -54 -37 -74 -67 -104c-37 -38 -80 -57 -125 -57c-61 0 -101 38 -116 110c-38 -58 -90 -110 -158 -110c-77 0 -141 79 -141 172
c0 122 135 268 248 268c64 0 101 -39 113 -121c60 80 117 122 164 122c41 0 70 -31 70 -75c0 -96 -84 -157 -241 -176c-8 -23 -14 -56 -14 -78c0 -62 27 -97 76 -97c70 0 135 55 173 146zM157 6c55 2 96 40 127 121c30 77 54 171 54 211c0 47 -28 78 -71 78
c-137 0 -184 -294 -184 -325c0 -45 24 -85 74 -85z" />
    <glyph glyph-name="germandbls" unicode="&#xdf;" horiz-adv-x="563" 
d="M236 470l-87 -345c-4 -15 -10 -42 -16 -67c-41 -174 -64 -232 -105 -268c-23 -19 -48 -28 -74 -28c-43 0 -82 43 -82 91c0 30 20 55 46 55c28 0 45 -18 45 -48c0 -19 -7 -30 -25 -44c-10 -8 -14 -13 -14 -19c0 -11 11 -19 25 -19c46 0 59 58 72 120c7 32 10 44 19 76
l98 389c35 140 68 244 142 294c29 19 62 30 94 30c75 0 133 -65 133 -148c0 -54 -29 -100 -80 -131c-25 -15 -42 -21 -84 -30c34 -15 48 -23 67 -41c39 -37 60 -88 60 -144c0 -106 -92 -206 -190 -206c-56 0 -88 31 -88 83c0 41 23 72 53 72c21 0 37 -20 37 -44
c0 -15 -5 -27 -20 -44c-12 -13 -15 -20 -15 -27c0 -14 12 -25 28 -25c83 0 122 157 122 240c0 88 -38 128 -120 128l5 16c46 0 81 11 101 31c32 33 57 111 57 178c0 48 -23 76 -62 76c-90 0 -121 -114 -142 -201z" />
    <glyph glyph-name="logicalnot" unicode="&#xac;" horiz-adv-x="667" 
d="M71 418v43h524v-281h-42v238h-482z" />
    <glyph glyph-name="mu" unicode="&#xb5;" horiz-adv-x="500" 
d="M33 63l107 367h74l-78 -273c-13 -45 -14 -48 -14 -56c0 -20 0 -67 50 -67c31 0 66 22 96 60c40 51 43 60 70 151l54 185h74l-82 -282l-10 -32c-4 -12 -6 -25 -6 -39c0 -27 9 -41 27 -41c33 0 50 33 67 69h18c-17 -53 -29 -73 -58 -94c-19 -14 -45 -23 -65 -23
c-38 0 -64 30 -64 74c0 7 1 22 3 37c-52 -76 -111 -111 -160 -111c-51 0 -67 33 -77 53c-21 -69 -23 -87 -30 -175c-5 -55 -22 -81 -54 -81c-21 0 -35 16 -35 39c0 16 2 22 37 90c21 40 39 88 56 149z" />
    <glyph glyph-name="trademark" unicode="&#x2122;" horiz-adv-x="980" 
d="M14 576l11 98h355l11 -98h-17c-8 51 -32 68 -95 68h-36v-282c0 -54 7 -63 52 -65v-17h-183v17c44 4 49 11 49 64v283h-37c-61 0 -83 -16 -93 -68h-17zM425 674h139l134 -280l129 280h136v-18c-47 -1 -54 -9 -54 -66v-229c0 -51 2 -61 54 -64v-17h-194v17
c54 1 58 16 58 63v241l-150 -321h-16l-150 317v-236c0 -44 0 -64 46 -64h17v-17h-149v17c51 0 55 14 55 64v228c0 51 0 67 -55 67v18z" />
    <glyph glyph-name="Eth" unicode="&#xd0;" horiz-adv-x="729" 
d="M419 358l-8 -29h-154l-73 -264c-4 -14 -6 -24 -6 -32c0 -12 15 -17 55 -17c41 0 82 2 122 8c190 26 254 348 254 458c0 118 -59 176 -183 178h-23c-41 0 -54 -2 -61 -26l-77 -276h154zM44 329l10 29h119l61 221c5 21 9 40 9 48c0 21 -10 31 -33 31h-81l3 16h307
c142 0 258 -126 258 -281c0 -96 -39 -189 -110 -262c-89 -92 -189 -131 -330 -131h-299l4 15h58c44 0 61 15 76 68l69 246h-121z" />
    <glyph glyph-name="onehalf" unicode="&#xbd;" horiz-adv-x="792" 
d="M168 647h31c59 0 91 13 116 31l16 1l-79 -283c-1 -4 -2 -9 -2 -14c0 -16 12 -24 32 -24h34l-3 -14h-216l4 13h37c27 0 42 10 49 33l59 205c2 6 3 13 3 20c0 12 -11 18 -31 18h-55zM75 -34l628 718h43l-629 -718h-42zM692 77h10c-32 -72 -69 -111 -105 -111
c-15 0 -32 7 -56 26c-22 15 -34 21 -45 21c-12 0 -20 -8 -20 -19c0 -2 1 -12 1 -15c0 -9 -3 -13 -9 -13c-9 0 -14 10 -14 25c0 37 40 67 74 92c28 21 36 27 51 42c40 42 64 90 64 128c0 29 -13 44 -38 44c-36 0 -96 -35 -96 -57c0 -6 3 -8 12 -9c16 -3 22 -10 22 -28
c0 -24 -15 -43 -35 -43s-34 16 -34 37c0 59 70 115 144 115c53 0 91 -31 91 -75c0 -51 -52 -86 -111 -124c-71 -45 -88 -62 -117 -90c24 8 48 15 73 15c11 0 64 -9 76 -9c26 0 41 11 62 48z" />
    <glyph glyph-name="plusminus" unicode="&#xb1;" horiz-adv-x="667" 
d="M71 376v43h240v241h43v-241h242v-43h-242v-240h-43v240h-240zM71 -18v43h525v-43h-525z" />
    <glyph glyph-name="Thorn" unicode="&#xde;" horiz-adv-x="677" 
d="M410 494h-98l-91 -316h123c158 0 182 148 182 202c0 70 -44 114 -116 114zM136 674h325l-7 -17h-54c-27 0 -41 -11 -51 -42l-34 -104h100c124 0 209 -66 209 -162c0 -39 -16 -75 -47 -107c-55 -55 -133 -79 -260 -79h-101l-27 -99c-1 -6 -2 -11 -2 -17
c0 -20 12 -30 34 -30h80l-4 -17h-324l5 16h52c35 0 58 17 67 50l150 533c2 9 4 18 4 25c0 22 -14 33 -41 33h-79z" />
    <glyph glyph-name="onequarter" unicode="&#xbc;" horiz-adv-x="792" 
d="M614 83h65l-6 -20h-64l-10 -32c-1 -6 -2 -11 -2 -16c0 -18 12 -28 32 -28h26l-3 -13h-197l4 14h40c16 0 31 10 35 23l14 52h-119v20l209 226h39zM553 83l46 163l-148 -163h102zM160 647h32c58 0 90 13 115 31l16 1l-78 -283c-2 -4 -2 -9 -2 -14c0 -16 11 -24 32 -24h33
l-3 -14h-215l4 13h36c28 0 42 10 49 33l59 205c2 6 3 13 3 20c0 12 -11 18 -31 18h-54zM75 -34l628 718h43l-629 -718h-42z" />
    <glyph glyph-name="divide" unicode="&#xf7;" horiz-adv-x="668" 
d="M302 525c1 15 14 27 31 27c16 0 29 -13 29 -30c0 -16 -13 -30 -29 -30c-17 0 -31 15 -31 33zM72 299v42h524v-42h-524zM302 121c1 15 14 27 31 27c16 0 29 -13 29 -30c0 -16 -13 -30 -29 -30c-17 0 -31 15 -31 33z" />
    <glyph glyph-name="brokenbar" unicode="&#xa6;" horiz-adv-x="496" 
d="M226 -175v350h43v-350h-43zM226 325v350h43v-350h-43z" />
    <glyph glyph-name="degree" unicode="&#xb0;" horiz-adv-x="399" 
d="M256 678c82 0 149 -67 149 -150s-67 -150 -149 -150c-83 0 -150 67 -150 150s67 150 150 150zM255 637c-59 0 -108 -49 -108 -109c0 -61 48 -109 108 -109c61 0 109 48 109 109c0 60 -48 109 -109 109z" />
    <glyph glyph-name="thorn" unicode="&#xfe;" horiz-adv-x="448" 
d="M277 416c-23 -1 -47 -12 -65 -32c-55 -61 -109 -197 -109 -272c0 -62 31 -106 73 -106c113 0 161 294 161 332c0 42 -20 78 -60 78zM71 658l3 16c57 0 109 3 129 7c15 3 23 5 26 5h22l-113 -391c28 54 63 137 138 137c67 0 119 -79 119 -180c0 -129 -108 -262 -211 -262
c-52 0 -81 30 -97 99l-69 -236c-3 -11 -4 -21 -4 -32c0 -17 14 -27 38 -27h61l-4 -15h-280l5 15h40c37 0 58 18 71 64l213 744c3 10 4 20 4 30c0 16 -13 26 -36 26h-55z" />
    <glyph glyph-name="threequarters" unicode="&#xbe;" horiz-adv-x="792" 
d="M281 565c15 16 24 37 24 58c0 25 -17 41 -43 41c-17 0 -53 -7 -53 -16c0 -2 2 -4 7 -7c10 -6 14 -13 14 -23c0 -18 -13 -29 -33 -29c-18 0 -30 10 -30 25c0 38 48 66 113 66c51 0 86 -25 86 -61c0 -31 -21 -51 -85 -82c-11 -5 -14 -7 -23 -11c64 -12 95 -43 95 -93
c0 -57 -59 -99 -137 -99c-70 0 -111 28 -111 78c0 32 16 54 42 54c16 0 28 -13 28 -30c0 -23 -15 -38 -40 -40c-9 -1 -12 -2 -12 -6c0 -19 46 -42 85 -42c18 0 34 6 43 16c17 20 36 76 36 108c0 25 -17 43 -43 43c-9 0 -17 -2 -29 -8c-6 -4 -10 -5 -13 -5c-5 0 -8 3 -8 6
c0 4 4 7 18 13c28 12 48 24 69 44zM95 -34l628 718h42l-629 -718h-41zM633 83h65l-6 -20h-64l-10 -32c-1 -6 -2 -11 -2 -16c0 -18 12 -28 32 -28h26l-3 -13h-197l4 14h40c16 0 31 10 35 23l14 52h-119v20l209 226h39zM572 83l46 163l-148 -163h102z" />
    <glyph glyph-name="registered" unicode="&#xae;" horiz-adv-x="760" 
d="M380 677c191 0 346 -155 346 -346s-155 -346 -346 -346s-346 155 -346 346s155 346 346 346zM380 647c-175 0 -316 -141 -316 -316s141 -316 316 -316s316 141 316 316s-141 316 -316 316zM188 526v18h188c88 0 146 -44 146 -110c0 -54 -35 -89 -109 -108l102 -145
c23 -33 35 -41 59 -43v-16h-89l-144 197h-37v-151c0 -21 16 -30 57 -30v-16h-178v16c23 0 33 3 42 13c8 10 8 15 8 54v265c0 38 0 56 -45 56zM304 515v-175h14c80 0 125 32 125 89c0 53 -42 93 -98 93c-15 0 -23 -1 -41 -7z" />
    <glyph glyph-name="minus" unicode="&#x2212;" horiz-adv-x="667" 
d="M71 299v43h524v-43h-524z" />
    <glyph glyph-name="eth" unicode="&#xf0;" horiz-adv-x="448" 
d="M345 340c-14 51 -45 79 -90 79c-126 0 -174 -263 -174 -313c0 -62 33 -99 89 -99c106 0 160 188 175 333zM243 682l12 9c22 -25 43 -50 62 -77l78 55l8 -12l-77 -55c50 -81 87 -192 87 -274c0 -235 -145 -338 -241 -338c-84 0 -151 83 -151 187c0 132 112 258 228 258
c48 0 73 -14 99 -59c-1 70 -5 150 -39 213l-84 -58l-8 12l84 58c-12 21 -33 50 -58 81z" />
    <glyph glyph-name="multiply" unicode="&#xd7;" horiz-adv-x="668" 
d="M304 319l-207 209l29 30l208 -208l208 208l30 -30l-207 -209l205 -205l-30 -31l-206 206l-207 -206l-30 31z" />
    <glyph glyph-name="copyright" unicode="&#xa9;" horiz-adv-x="760" 
d="M531 554h20l10 -137h-19c-24 76 -74 115 -148 115c-97 0 -157 -73 -157 -190c0 -128 58 -201 162 -201c53 0 105 22 137 59c3 4 8 11 15 20l18 -9c-46 -67 -107 -99 -187 -99c-128 0 -226 94 -226 216c0 129 105 226 244 226c31 0 41 -2 90 -18c9 -3 13 -4 18 -4
c11 0 17 5 23 22zM380 677c191 0 346 -155 346 -346s-155 -346 -346 -346s-346 155 -346 346s155 346 346 346zM380 647c-175 0 -316 -141 -316 -316s141 -316 316 -316s316 141 316 316s-141 316 -316 316z" />
    <glyph glyph-name="Aacute" unicode="&#xc1;" horiz-adv-x="729" 
d="M457 258l10 317l-220 -317h210zM174 183l349 503h36l-20 -607c-3 -64 40 -64 53 -64h57l-4 -15h-313l4 15h62c38 0 52 15 53 55l5 159h-230c-65 -92 -84 -119 -84 -153c0 -37 28 -61 71 -61h43l-5 -15h-282v15c82 5 119 43 205 168zM606 825l-89 -73h-19l56 96
c27 45 41 57 62 57c17 0 31 -12 31 -29s-12 -27 -41 -51z" />
    <glyph glyph-name="Acircumflex" unicode="&#xc2;" horiz-adv-x="729" 
d="M457 258l10 317l-220 -317h210zM174 183l349 503h36l-20 -607c-3 -64 40 -64 53 -64h57l-4 -15h-313l4 15h62c38 0 52 15 53 55l5 159h-230c-65 -92 -84 -119 -84 -153c0 -37 28 -61 71 -61h43l-5 -15h-282v15c82 5 119 43 205 168zM399 751l167 145h62l43 -145h-19
l-69 93l-159 -93h-25z" />
    <glyph glyph-name="Adieresis" unicode="&#xc4;" horiz-adv-x="729" 
d="M457 258l10 317l-220 -317h210zM174 183l349 503h36l-20 -607c-3 -64 40 -64 53 -64h57l-4 -15h-313l4 15h62c38 0 52 15 53 55l5 159h-230c-65 -92 -84 -119 -84 -153c0 -37 28 -61 71 -61h43l-5 -15h-282v15c82 5 119 43 205 168zM469 831c22 0 40 -18 40 -39
c0 -22 -17 -39 -38 -39c-22 0 -40 17 -40 39c0 21 17 39 38 39zM649 831c21 0 38 -18 38 -39c0 -22 -17 -39 -37 -39c-23 0 -41 18 -41 39c0 22 18 39 40 39z" />
    <glyph glyph-name="Agrave" unicode="&#xc0;" horiz-adv-x="729" 
d="M457 258l10 317l-220 -317h210zM174 183l349 503h36l-20 -607c-3 -64 40 -64 53 -64h57l-4 -15h-313l4 15h62c38 0 52 15 53 55l5 159h-230c-65 -92 -84 -119 -84 -153c0 -37 28 -61 71 -61h43l-5 -15h-282v15c82 5 119 43 205 168zM602 752h-19l-88 73
c-30 24 -41 34 -41 51s13 29 31 29c21 0 34 -12 61 -57z" />
    <glyph glyph-name="Aring" unicode="&#xc5;" horiz-adv-x="729" 
d="M457 258l10 317l-220 -317h210zM174 183l349 503h36l-20 -607c-3 -64 40 -64 53 -64h57l-4 -15h-313l4 15h62c38 0 52 15 53 55l5 159h-230c-65 -92 -84 -119 -84 -153c0 -37 28 -61 71 -61h43l-5 -15h-282v15c82 5 119 43 205 168zM569 936c51 -1 91 -43 91 -95
c0 -49 -40 -89 -89 -89c-52 0 -94 41 -94 91c0 51 41 93 92 93zM569 908c-35 0 -64 -29 -64 -64s29 -64 65 -64c35 0 63 28 63 62c0 36 -28 66 -64 66z" />
    <glyph glyph-name="Atilde" unicode="&#xc3;" horiz-adv-x="729" 
d="M457 258l10 317l-220 -317h210zM174 183l349 503h36l-20 -607c-3 -64 40 -64 53 -64h57l-4 -15h-313l4 15h62c38 0 52 15 53 55l5 159h-230c-65 -92 -84 -119 -84 -153c0 -37 28 -61 71 -61h43l-5 -15h-282v15c82 5 119 43 205 168zM425 752h-17c0 65 35 108 88 108
c20 0 52 -13 94 -38c28 -17 40 -22 53 -22c28 0 41 16 49 60h15c-2 -36 -8 -60 -21 -77c-14 -19 -38 -31 -61 -31c-20 0 -36 5 -61 19l-29 16c-34 19 -49 25 -62 25c-29 0 -45 -20 -48 -60z" />
    <glyph glyph-name="Ccedilla" unicode="&#xc7;" horiz-adv-x="668" 
d="M117 -204l8 18c19 -3 26 -3 40 -3c62 0 104 25 104 61c0 21 -13 46 -65 42l59 77c-116 20 -202 130 -202 263c0 193 204 430 371 430c57 0 109 -29 138 -78c6 -10 9 -13 15 -13c18 0 47 40 67 90h16l-62 -322l-15 -1c3 127 1 206 -56 264c-29 30 -62 44 -102 44
c-45 0 -96 -22 -124 -54c-78 -86 -164 -325 -164 -454c0 -98 61 -159 158 -159c57 0 114 28 160 79c44 49 61 78 93 162h15c-27 -82 -43 -112 -88 -164c-53 -61 -115 -93 -179 -93c-5 0 -9 0 -13 2l-21 -31c41 -11 64 -36 64 -72c0 -53 -68 -96 -151 -96c-19 0 -32 2 -66 8z
" />
    <glyph glyph-name="Eacute" unicode="&#xc9;" horiz-adv-x="688" 
d="M145 658l6 15v1h527l-62 -267h-16c8 50 10 69 10 97c0 154 -102 154 -189 155h-19c-43 0 -45 -2 -56 -38l-75 -266h27c29 0 66 12 92 29c51 35 75 94 90 154h18l-116 -412h-17c11 47 23 97 23 121c0 57 -23 92 -104 93h-16l-85 -297c-3 -13 2 -26 24 -26h97
c38 0 155 25 235 152c27 44 39 76 50 105h15l-77 -274h-542l3 15h48c28 0 53 20 62 51l152 541c2 7 3 13 3 19c0 20 -13 32 -35 32h-73zM486 825l-89 -73h-19l56 96c27 45 41 57 62 57c17 0 31 -12 31 -29s-12 -27 -41 -51z" />
    <glyph glyph-name="Ecircumflex" unicode="&#xca;" horiz-adv-x="688" 
d="M145 658l6 15v1h527l-62 -267h-16c8 50 10 69 10 97c0 154 -102 154 -189 155h-19c-43 0 -45 -2 -56 -38l-75 -266h27c29 0 66 12 92 29c51 35 75 94 90 154h18l-116 -412h-17c11 47 23 97 23 121c0 57 -23 92 -104 93h-16l-85 -297c-3 -13 2 -26 24 -26h97
c38 0 155 25 235 152c27 44 39 76 50 105h15l-77 -274h-542l3 15h48c28 0 53 20 62 51l152 541c2 7 3 13 3 19c0 20 -13 32 -35 32h-73zM324 751l167 145h62l43 -145h-19l-69 93l-159 -93h-25z" />
    <glyph glyph-name="Edieresis" unicode="&#xcb;" horiz-adv-x="688" 
d="M145 658l6 15v1h527l-62 -267h-16c8 50 10 69 10 97c0 154 -102 154 -189 155h-19c-43 0 -45 -2 -56 -38l-75 -266h27c29 0 66 12 92 29c51 35 75 94 90 154h18l-116 -412h-17c11 47 23 97 23 121c0 57 -23 92 -104 93h-16l-85 -297c-3 -13 2 -26 24 -26h97
c38 0 155 25 235 152c27 44 39 76 50 105h15l-77 -274h-542l3 15h48c28 0 53 20 62 51l152 541c2 7 3 13 3 19c0 20 -13 32 -35 32h-73zM384 831c22 0 40 -18 40 -39c0 -22 -17 -39 -38 -39c-22 0 -40 17 -40 39c0 21 17 39 38 39zM564 831c21 0 38 -18 38 -39
c0 -22 -17 -39 -37 -39c-23 0 -41 18 -41 39c0 22 18 39 40 39z" />
    <glyph glyph-name="Egrave" unicode="&#xc8;" horiz-adv-x="688" 
d="M145 658l6 15v1h527l-62 -267h-16c8 50 10 69 10 97c0 154 -102 154 -189 155h-19c-43 0 -45 -2 -56 -38l-75 -266h27c29 0 66 12 92 29c51 35 75 94 90 154h18l-116 -412h-17c11 47 23 97 23 121c0 57 -23 92 -104 93h-16l-85 -297c-3 -13 2 -26 24 -26h97
c38 0 155 25 235 152c27 44 39 76 50 105h15l-77 -274h-542l3 15h48c28 0 53 20 62 51l152 541c2 7 3 13 3 19c0 20 -13 32 -35 32h-73zM502 752h-19l-88 73c-30 24 -41 34 -41 51s13 29 31 29c21 0 34 -12 61 -57z" />
    <glyph glyph-name="Iacute" unicode="&#xcd;" horiz-adv-x="406" 
d="M145 658l4 16h291l-2 -16h-17c-50 0 -71 -11 -81 -45l-155 -546c-2 -6 -3 -13 -3 -19c0 -22 15 -33 46 -33h69l-4 -15h-328l3 15h68c24 0 48 22 56 50l152 538c2 9 3 18 3 28c0 17 -16 27 -46 27h-56zM405 825l-89 -73h-19l56 96c27 45 41 57 62 57c17 0 31 -12 31 -29
s-12 -27 -41 -51z" />
    <glyph glyph-name="Icircumflex" unicode="&#xce;" horiz-adv-x="406" 
d="M145 658l4 16h291l-2 -16h-17c-50 0 -71 -11 -81 -45l-155 -546c-2 -6 -3 -13 -3 -19c0 -22 15 -33 46 -33h69l-4 -15h-328l3 15h68c24 0 48 22 56 50l152 538c2 9 3 18 3 28c0 17 -16 27 -46 27h-56zM178 751l167 145h62l43 -145h-19l-69 93l-159 -93h-25z" />
    <glyph glyph-name="Idieresis" unicode="&#xcf;" horiz-adv-x="406" 
d="M145 658l4 16h291l-2 -16h-17c-50 0 -71 -11 -81 -45l-155 -546c-2 -6 -3 -13 -3 -19c0 -22 15 -33 46 -33h69l-4 -15h-328l3 15h68c24 0 48 22 56 50l152 538c2 9 3 18 3 28c0 17 -16 27 -46 27h-56zM243 831c22 0 40 -18 40 -39c0 -22 -17 -39 -38 -39
c-22 0 -40 17 -40 39c0 21 17 39 38 39zM423 831c21 0 38 -18 38 -39c0 -22 -17 -39 -37 -39c-23 0 -41 18 -41 39c0 22 18 39 40 39z" />
    <glyph glyph-name="Igrave" unicode="&#xcc;" horiz-adv-x="406" 
d="M145 658l4 16h291l-2 -16h-17c-50 0 -71 -11 -81 -45l-155 -546c-2 -6 -3 -13 -3 -19c0 -22 15 -33 46 -33h69l-4 -15h-328l3 15h68c24 0 48 22 56 50l152 538c2 9 3 18 3 28c0 17 -16 27 -46 27h-56zM351 752h-19l-88 73c-30 24 -41 34 -41 51s13 29 31 29
c21 0 34 -12 61 -57z" />
    <glyph glyph-name="Ntilde" unicode="&#xd1;" horiz-adv-x="667" 
d="M94 659l6 15h209l192 -534l96 345c7 26 10 49 10 70c0 65 -38 104 -102 104h-18l3 15h263l-1 -15c-22 -2 -32 -4 -45 -11c-47 -24 -71 -74 -84 -125l-144 -530h-14l-217 601l-108 -393c-8 -30 -13 -60 -13 -80c0 -65 43 -105 114 -106h31l-5 -15h-324l3 15h14
c27 0 73 17 90 34c27 26 53 74 67 126l112 407c1 5 2 11 2 17c0 38 -25 60 -71 60h-66zM324 752h-17c0 65 35 108 88 108c20 0 52 -13 94 -38c28 -17 40 -22 53 -22c28 0 41 16 49 60h15c-2 -36 -8 -60 -21 -77c-14 -19 -38 -31 -61 -31c-20 0 -36 5 -61 19l-29 16
c-34 19 -49 25 -62 25c-29 0 -45 -20 -48 -60z" />
    <glyph glyph-name="Oacute" unicode="&#xd3;" horiz-adv-x="677" 
d="M273 -15c-119 0 -210 116 -210 267c0 208 202 437 386 437c124 0 208 -112 208 -274c0 -205 -200 -430 -384 -430zM273 1c53 2 95 20 130 54c31 31 62 78 82 126c10 22 92 235 92 341c0 95 -48 151 -129 151c-52 0 -103 -23 -139 -64c-113 -128 -166 -404 -166 -464
c0 -77 41 -144 130 -144zM530 825l-89 -73h-19l56 96c27 45 41 57 62 57c17 0 31 -12 31 -29s-12 -27 -41 -51z" />
    <glyph glyph-name="Ocircumflex" unicode="&#xd4;" horiz-adv-x="677" 
d="M273 -15c-119 0 -210 116 -210 267c0 208 202 437 386 437c124 0 208 -112 208 -274c0 -205 -200 -430 -384 -430zM273 1c53 2 95 20 130 54c31 31 62 78 82 126c10 22 92 235 92 341c0 95 -48 151 -129 151c-52 0 -103 -23 -139 -64c-113 -128 -166 -404 -166 -464
c0 -77 41 -144 130 -144zM343 751l167 145h62l43 -145h-19l-69 93l-159 -93h-25z" />
    <glyph glyph-name="Odieresis" unicode="&#xd6;" horiz-adv-x="677" 
d="M273 -15c-119 0 -210 116 -210 267c0 208 202 437 386 437c124 0 208 -112 208 -274c0 -205 -200 -430 -384 -430zM273 1c53 2 95 20 130 54c31 31 62 78 82 126c10 22 92 235 92 341c0 95 -48 151 -129 151c-52 0 -103 -23 -139 -64c-113 -128 -166 -404 -166 -464
c0 -77 41 -144 130 -144zM398 831c22 0 40 -18 40 -39c0 -22 -17 -39 -38 -39c-22 0 -40 17 -40 39c0 21 17 39 38 39zM578 831c21 0 38 -18 38 -39c0 -22 -17 -39 -37 -39c-23 0 -41 18 -41 39c0 22 18 39 40 39z" />
    <glyph glyph-name="Ograve" unicode="&#xd2;" horiz-adv-x="677" 
d="M273 -15c-119 0 -210 116 -210 267c0 208 202 437 386 437c124 0 208 -112 208 -274c0 -205 -200 -430 -384 -430zM273 1c53 2 95 20 130 54c31 31 62 78 82 126c10 22 92 235 92 341c0 95 -48 151 -129 151c-52 0 -103 -23 -139 -64c-113 -128 -166 -404 -166 -464
c0 -77 41 -144 130 -144zM506 752h-19l-88 73c-30 24 -41 34 -41 51s13 29 31 29c21 0 34 -12 61 -57z" />
    <glyph glyph-name="Otilde" unicode="&#xd5;" horiz-adv-x="677" 
d="M273 -15c-119 0 -210 116 -210 267c0 208 202 437 386 437c124 0 208 -112 208 -274c0 -205 -200 -430 -384 -430zM273 1c53 2 95 20 130 54c31 31 62 78 82 126c10 22 92 235 92 341c0 95 -48 151 -129 151c-52 0 -103 -23 -139 -64c-113 -128 -166 -404 -166 -464
c0 -77 41 -144 130 -144zM329 752h-17c0 65 35 108 88 108c20 0 52 -13 94 -38c28 -17 40 -22 53 -22c28 0 41 16 49 60h15c-2 -36 -8 -60 -21 -77c-14 -19 -38 -31 -61 -31c-20 0 -36 5 -61 19l-29 16c-34 19 -49 25 -62 25c-29 0 -45 -20 -48 -60z" />
    <glyph glyph-name="Scaron" unicode="&#x160;" horiz-adv-x="583" 
d="M105 325h16c-7 -43 -9 -63 -9 -87c0 -139 81 -236 198 -236c82 0 147 55 147 124c0 76 -49 109 -133 165c-57 38 -75 51 -99 74c-40 42 -58 81 -58 129c0 105 83 191 185 191c47 0 85 -15 118 -47c14 -14 28 -27 42 -27c23 0 41 21 61 73h14l-73 -309h-16
c9 46 11 66 11 95c0 121 -61 199 -157 199c-75 0 -135 -55 -135 -124c0 -65 65 -107 125 -145c87 -56 170 -112 170 -212c0 -108 -93 -203 -200 -203c-55 0 -114 26 -160 71c-16 16 -26 26 -42 26c-26 0 -58 -36 -87 -97l-14 -1zM577 897l-168 -145h-61l-44 145h20l69 -93
l158 93h26z" />
    <glyph glyph-name="Uacute" unicode="&#xda;" horiz-adv-x="732" 
d="M129 659l4 15h332l-3 -15h-67c-42 0 -60 -19 -78 -84l-114 -408c-5 -18 -7 -35 -7 -51c0 -69 55 -114 139 -114c118 0 212 94 253 251l64 246c6 25 10 50 10 69c0 59 -33 91 -92 91h-20l3 15h250l-3 -15c-32 0 -52 -5 -73 -28c-22 -23 -44 -71 -57 -119l-69 -270
c-42 -161 -143 -256 -273 -256c-119 0 -208 76 -208 178c0 22 3 44 10 67l101 362c4 14 6 28 6 41c0 16 -12 25 -35 25h-73zM568 825l-89 -73h-19l56 96c27 45 41 57 62 57c17 0 31 -12 31 -29s-12 -27 -41 -51z" />
    <glyph glyph-name="Ucircumflex" unicode="&#xdb;" horiz-adv-x="732" 
d="M129 659l4 15h332l-3 -15h-67c-42 0 -60 -19 -78 -84l-114 -408c-5 -18 -7 -35 -7 -51c0 -69 55 -114 139 -114c118 0 212 94 253 251l64 246c6 25 10 50 10 69c0 59 -33 91 -92 91h-20l3 15h250l-3 -15c-32 0 -52 -5 -73 -28c-22 -23 -44 -71 -57 -119l-69 -270
c-42 -161 -143 -256 -273 -256c-119 0 -208 76 -208 178c0 22 3 44 10 67l101 362c4 14 6 28 6 41c0 16 -12 25 -35 25h-73zM361 751l167 145h62l43 -145h-19l-69 93l-159 -93h-25z" />
    <glyph glyph-name="Udieresis" unicode="&#xdc;" horiz-adv-x="732" 
d="M129 659l4 15h332l-3 -15h-67c-42 0 -60 -19 -78 -84l-114 -408c-5 -18 -7 -35 -7 -51c0 -69 55 -114 139 -114c118 0 212 94 253 251l64 246c6 25 10 50 10 69c0 59 -33 91 -92 91h-20l3 15h250l-3 -15c-32 0 -52 -5 -73 -28c-22 -23 -44 -71 -57 -119l-69 -270
c-42 -161 -143 -256 -273 -256c-119 0 -208 76 -208 178c0 22 3 44 10 67l101 362c4 14 6 28 6 41c0 16 -12 25 -35 25h-73zM431 831c22 0 40 -18 40 -39c0 -22 -17 -39 -38 -39c-22 0 -40 17 -40 39c0 21 17 39 38 39zM611 831c21 0 38 -18 38 -39c0 -22 -17 -39 -37 -39
c-23 0 -41 18 -41 39c0 22 18 39 40 39z" />
    <glyph glyph-name="Ugrave" unicode="&#xd9;" horiz-adv-x="732" 
d="M129 659l4 15h332l-3 -15h-67c-42 0 -60 -19 -78 -84l-114 -408c-5 -18 -7 -35 -7 -51c0 -69 55 -114 139 -114c118 0 212 94 253 251l64 246c6 25 10 50 10 69c0 59 -33 91 -92 91h-20l3 15h250l-3 -15c-32 0 -52 -5 -73 -28c-22 -23 -44 -71 -57 -119l-69 -270
c-42 -161 -143 -256 -273 -256c-119 0 -208 76 -208 178c0 22 3 44 10 67l101 362c4 14 6 28 6 41c0 16 -12 25 -35 25h-73zM529 752h-19l-88 73c-30 24 -41 34 -41 51s13 29 31 29c21 0 34 -12 61 -57z" />
    <glyph glyph-name="Yacute" unicode="&#xdd;" horiz-adv-x="677" 
d="M103 658l5 16h312l-5 -16h-47c-37 0 -54 -8 -54 -25c0 -9 2 -18 4 -28l79 -276l148 198c24 31 37 61 37 82c0 32 -25 49 -72 49h-20l5 16h247l-4 -16c-25 -1 -35 -4 -52 -13c-38 -20 -71 -52 -117 -113l-172 -228l-64 -229c-3 -10 -4 -19 -4 -28c0 -21 12 -32 37 -32h68
l-6 -15h-335l4 15h73c34 0 58 18 68 53l71 247l-81 283c-13 44 -32 60 -73 60h-52zM530 825l-89 -73h-19l56 96c27 45 41 57 62 57c17 0 31 -12 31 -29s-12 -27 -41 -51z" />
    <glyph glyph-name="Ydieresis" unicode="&#x178;" horiz-adv-x="677" 
d="M103 658l5 16h312l-5 -16h-47c-37 0 -54 -8 -54 -25c0 -9 2 -18 4 -28l79 -276l148 198c24 31 37 61 37 82c0 32 -25 49 -72 49h-20l5 16h247l-4 -16c-25 -1 -35 -4 -52 -13c-38 -20 -71 -52 -117 -113l-172 -228l-64 -229c-3 -10 -4 -19 -4 -28c0 -21 12 -32 37 -32h68
l-6 -15h-335l4 15h73c34 0 58 18 68 53l71 247l-81 283c-13 44 -32 60 -73 60h-52zM373 831c22 0 40 -18 40 -39c0 -22 -17 -39 -38 -39c-22 0 -40 17 -40 39c0 21 17 39 38 39zM553 831c21 0 38 -18 38 -39c0 -22 -17 -39 -37 -39c-23 0 -41 18 -41 39c0 22 18 39 40 39z
" />
    <glyph glyph-name="Zcaron" unicode="&#x17d;" horiz-adv-x="656" 
d="M130 397l86 277h435v-9l-514 -648h130c231 0 312 227 335 291l16 1l-89 -309h-514v7l517 651h-92c-42 0 -96 -18 -138 -47c-72 -48 -120 -125 -157 -213zM629 897l-168 -145h-61l-44 145h20l69 -93l158 93h26z" />
    <glyph glyph-name="aacute" unicode="&#xe1;" 
d="M250 415c-21 0 -44 -11 -60 -29c-66 -75 -115 -270 -115 -315c0 -40 18 -64 48 -64c109 0 195 216 195 303c0 62 -28 105 -68 105zM469 175h18c-48 -129 -95 -186 -151 -186c-37 0 -60 34 -60 88c0 13 2 27 6 52c-51 -95 -102 -139 -158 -139c-59 0 -107 72 -107 163
c0 172 150 279 234 279c46 0 76 -40 83 -111l35 100h65l-103 -351c-3 -10 -5 -20 -5 -30c0 -19 9 -31 23 -31c37 0 79 58 120 166zM372 577l-89 -73h-19l56 96c27 45 41 57 62 57c17 0 31 -12 31 -29s-12 -27 -41 -51z" />
    <glyph glyph-name="acircumflex" unicode="&#xe2;" 
d="M250 415c-21 0 -44 -11 -60 -29c-66 -75 -115 -270 -115 -315c0 -40 18 -64 48 -64c109 0 195 216 195 303c0 62 -28 105 -68 105zM469 175h18c-48 -129 -95 -186 -151 -186c-37 0 -60 34 -60 88c0 13 2 27 6 52c-51 -95 -102 -139 -158 -139c-59 0 -107 72 -107 163
c0 172 150 279 234 279c46 0 76 -40 83 -111l35 100h65l-103 -351c-3 -10 -5 -20 -5 -30c0 -19 9 -31 23 -31c37 0 79 58 120 166zM145 503l167 145h62l43 -145h-19l-69 93l-159 -93h-25z" />
    <glyph glyph-name="adieresis" unicode="&#xe4;" 
d="M250 415c-21 0 -44 -11 -60 -29c-66 -75 -115 -270 -115 -315c0 -40 18 -64 48 -64c109 0 195 216 195 303c0 62 -28 105 -68 105zM469 175h18c-48 -129 -95 -186 -151 -186c-37 0 -60 34 -60 88c0 13 2 27 6 52c-51 -95 -102 -139 -158 -139c-59 0 -107 72 -107 163
c0 172 150 279 234 279c46 0 76 -40 83 -111l35 100h65l-103 -351c-3 -10 -5 -20 -5 -30c0 -19 9 -31 23 -31c37 0 79 58 120 166zM235 583c22 0 40 -18 40 -39c0 -22 -17 -39 -38 -39c-22 0 -40 17 -40 39c0 21 17 39 38 39zM415 583c21 0 38 -18 38 -39
c0 -22 -17 -39 -37 -39c-23 0 -41 18 -41 39c0 22 18 39 40 39z" />
    <glyph glyph-name="agrave" unicode="&#xe0;" 
d="M250 415c-21 0 -44 -11 -60 -29c-66 -75 -115 -270 -115 -315c0 -40 18 -64 48 -64c109 0 195 216 195 303c0 62 -28 105 -68 105zM469 175h18c-48 -129 -95 -186 -151 -186c-37 0 -60 34 -60 88c0 13 2 27 6 52c-51 -95 -102 -139 -158 -139c-59 0 -107 72 -107 163
c0 172 150 279 234 279c46 0 76 -40 83 -111l35 100h65l-103 -351c-3 -10 -5 -20 -5 -30c0 -19 9 -31 23 -31c37 0 79 58 120 166zM373 504h-19l-88 73c-30 24 -41 34 -41 51s13 29 31 29c21 0 34 -12 61 -57z" />
    <glyph glyph-name="aring" unicode="&#xe5;" 
d="M250 415c-21 0 -44 -11 -60 -29c-66 -75 -115 -270 -115 -315c0 -40 18 -64 48 -64c109 0 195 216 195 303c0 62 -28 105 -68 105zM469 175h18c-48 -129 -95 -186 -151 -186c-37 0 -60 34 -60 88c0 13 2 27 6 52c-51 -95 -102 -139 -158 -139c-59 0 -107 72 -107 163
c0 172 150 279 234 279c46 0 76 -40 83 -111l35 100h65l-103 -351c-3 -10 -5 -20 -5 -30c0 -19 9 -31 23 -31c37 0 79 58 120 166zM340 688c51 -1 91 -43 91 -95c0 -49 -40 -89 -89 -89c-52 0 -94 41 -94 91c0 51 41 93 92 93zM340 660c-35 0 -64 -29 -64 -64s29 -64 65 -64
c35 0 63 28 63 62c0 36 -28 66 -64 66z" />
    <glyph glyph-name="atilde" unicode="&#xe3;" 
d="M250 415c-21 0 -44 -11 -60 -29c-66 -75 -115 -270 -115 -315c0 -40 18 -64 48 -64c109 0 195 216 195 303c0 62 -28 105 -68 105zM469 175h18c-48 -129 -95 -186 -151 -186c-37 0 -60 34 -60 88c0 13 2 27 6 52c-51 -95 -102 -139 -158 -139c-59 0 -107 72 -107 163
c0 172 150 279 234 279c46 0 76 -40 83 -111l35 100h65l-103 -351c-3 -10 -5 -20 -5 -30c0 -19 9 -31 23 -31c37 0 79 58 120 166zM186 504h-17c0 65 35 108 88 108c20 0 52 -13 94 -38c28 -17 40 -22 53 -22c28 0 41 16 49 60h15c-2 -36 -8 -60 -21 -77
c-14 -19 -38 -31 -61 -31c-20 0 -36 5 -61 19l-29 16c-34 19 -49 25 -62 25c-29 0 -45 -20 -48 -60z" />
    <glyph glyph-name="ccedilla" unicode="&#xe7;" horiz-adv-x="400" 
d="M-13 -204l8 18c19 -3 26 -3 40 -3c62 0 104 25 104 61c0 21 -13 46 -65 42l63 85c-57 21 -97 86 -97 166c0 130 125 277 236 277c50 0 84 -34 84 -84c0 -35 -21 -60 -49 -60c-23 0 -40 19 -40 45c0 14 7 27 23 44c10 10 14 16 14 21c0 13 -10 19 -28 19
c-125 0 -173 -273 -173 -333c0 -56 28 -88 76 -88c40 0 83 22 119 62c30 33 42 54 64 112h17c-19 -57 -31 -78 -62 -114c-42 -48 -94 -76 -143 -76c-5 0 -10 0 -14 2l-24 -36c41 -11 64 -36 64 -72c0 -53 -68 -96 -151 -96c-19 0 -32 2 -66 8z" />
    <glyph glyph-name="eacute" unicode="&#xe9;" horiz-adv-x="396" 
d="M103 196c72 15 105 32 143 68c36 34 53 69 53 106c0 29 -19 49 -48 49c-31 0 -66 -27 -91 -70c-27 -46 -42 -99 -57 -153zM331 135h15c-14 -42 -23 -58 -45 -83c-36 -40 -82 -62 -131 -62c-87 0 -150 70 -150 168c0 125 124 276 226 276c50 0 81 -32 81 -84
c0 -128 -160 -159 -228 -173c-11 -30 -17 -63 -17 -92c0 -48 36 -79 92 -79c68 0 127 49 157 129zM350 577l-89 -73h-19l56 96c27 45 41 57 62 57c17 0 31 -12 31 -29s-12 -27 -41 -51z" />
    <glyph glyph-name="ecircumflex" unicode="&#xea;" horiz-adv-x="396" 
d="M103 196c72 15 105 32 143 68c36 34 53 69 53 106c0 29 -19 49 -48 49c-31 0 -66 -27 -91 -70c-27 -46 -42 -99 -57 -153zM331 135h15c-14 -42 -23 -58 -45 -83c-36 -40 -82 -62 -131 -62c-87 0 -150 70 -150 168c0 125 124 276 226 276c50 0 81 -32 81 -84
c0 -128 -160 -159 -228 -173c-11 -30 -17 -63 -17 -92c0 -48 36 -79 92 -79c68 0 127 49 157 129zM103 503l167 145h62l43 -145h-19l-69 93l-159 -93h-25z" />
    <glyph glyph-name="edieresis" unicode="&#xeb;" horiz-adv-x="396" 
d="M103 196c72 15 105 32 143 68c36 34 53 69 53 106c0 29 -19 49 -48 49c-31 0 -66 -27 -91 -70c-27 -46 -42 -99 -57 -153zM331 135h15c-14 -42 -23 -58 -45 -83c-36 -40 -82 -62 -131 -62c-87 0 -150 70 -150 168c0 125 124 276 226 276c50 0 81 -32 81 -84
c0 -128 -160 -159 -228 -173c-11 -30 -17 -63 -17 -92c0 -48 36 -79 92 -79c68 0 127 49 157 129zM148 583c22 0 40 -18 40 -39c0 -22 -17 -39 -38 -39c-22 0 -40 17 -40 39c0 21 17 39 38 39zM328 583c21 0 38 -18 38 -39c0 -22 -17 -39 -37 -39c-23 0 -41 18 -41 39
c0 22 18 39 40 39z" />
    <glyph glyph-name="egrave" unicode="&#xe8;" horiz-adv-x="396" 
d="M103 196c72 15 105 32 143 68c36 34 53 69 53 106c0 29 -19 49 -48 49c-31 0 -66 -27 -91 -70c-27 -46 -42 -99 -57 -153zM331 135h15c-14 -42 -23 -58 -45 -83c-36 -40 -82 -62 -131 -62c-87 0 -150 70 -150 168c0 125 124 276 226 276c50 0 81 -32 81 -84
c0 -128 -160 -159 -228 -173c-11 -30 -17 -63 -17 -92c0 -48 36 -79 92 -79c68 0 127 49 157 129zM316 504h-19l-88 73c-30 24 -41 34 -41 51s13 29 31 29c21 0 34 -12 61 -57z" />
    <glyph glyph-name="iacute" unicode="&#xed;" horiz-adv-x="333" 
d="M29 261h-15c18 54 27 73 46 105c24 40 53 65 83 65c43 0 69 -36 69 -96c0 -44 -14 -91 -50 -176c-26 -61 -38 -99 -38 -122c0 -17 9 -28 22 -28c41 0 88 64 126 170h14c-32 -115 -91 -189 -150 -189c-39 0 -62 35 -62 93c0 44 19 108 59 193c24 53 35 86 35 104
c0 21 -10 33 -29 33c-36 0 -72 -50 -110 -152zM283 577l-89 -73h-19l56 96c27 45 41 57 62 57c17 0 31 -12 31 -29s-12 -27 -41 -51z" />
    <glyph glyph-name="icircumflex" unicode="&#xee;" horiz-adv-x="333" 
d="M29 261h-15c18 54 27 73 46 105c24 40 53 65 83 65c43 0 69 -36 69 -96c0 -44 -14 -91 -50 -176c-26 -61 -38 -99 -38 -122c0 -17 9 -28 22 -28c41 0 88 64 126 170h14c-32 -115 -91 -189 -150 -189c-39 0 -62 35 -62 93c0 44 19 108 59 193c24 53 35 86 35 104
c0 21 -10 33 -29 33c-36 0 -72 -50 -110 -152zM41 503l167 145h62l43 -145h-19l-69 93l-159 -93h-25z" />
    <glyph glyph-name="idieresis" unicode="&#xef;" horiz-adv-x="333" 
d="M29 261h-15c18 54 27 73 46 105c24 40 53 65 83 65c43 0 69 -36 69 -96c0 -44 -14 -91 -50 -176c-26 -61 -38 -99 -38 -122c0 -17 9 -28 22 -28c41 0 88 64 126 170h14c-32 -115 -91 -189 -150 -189c-39 0 -62 35 -62 93c0 44 19 108 59 193c24 53 35 86 35 104
c0 21 -10 33 -29 33c-36 0 -72 -50 -110 -152zM96 583c22 0 40 -18 40 -39c0 -22 -17 -39 -38 -39c-22 0 -40 17 -40 39c0 21 17 39 38 39zM276 583c21 0 38 -18 38 -39c0 -22 -17 -39 -37 -39c-23 0 -41 18 -41 39c0 22 18 39 40 39z" />
    <glyph glyph-name="igrave" unicode="&#xec;" horiz-adv-x="333" 
d="M29 261h-15c18 54 27 73 46 105c24 40 53 65 83 65c43 0 69 -36 69 -96c0 -44 -14 -91 -50 -176c-26 -61 -38 -99 -38 -122c0 -17 9 -28 22 -28c41 0 88 64 126 170h14c-32 -115 -91 -189 -150 -189c-39 0 -62 35 -62 93c0 44 19 108 59 193c24 53 35 86 35 104
c0 21 -10 33 -29 33c-36 0 -72 -50 -110 -152zM284 504h-19l-88 73c-30 24 -41 34 -41 51s13 29 31 29c21 0 34 -12 61 -57z" />
    <glyph glyph-name="ntilde" unicode="&#xf1;" horiz-adv-x="563" 
d="M21 272h-16c30 95 90 164 142 164c96 0 52 -164 45 -205c25 46 91 204 175 204c46 0 76 -44 76 -114c0 -46 -14 -92 -50 -168c-26 -55 -35 -84 -35 -108c0 -20 11 -32 29 -32c44 0 96 65 129 158l15 1c-34 -110 -92 -178 -152 -178c-44 0 -70 34 -70 92
c0 48 15 98 52 178c27 57 36 86 36 110s-13 42 -30 42c-60 0 -134 -110 -204 -304l-40 -112h-64l88 296c16 56 22 77 22 88c0 20 -12 33 -29 33c-47 0 -96 -88 -119 -145zM212 504h-17c0 65 35 108 88 108c20 0 52 -13 94 -38c28 -17 40 -22 53 -22c28 0 41 16 49 60h15
c-2 -36 -8 -60 -21 -77c-14 -19 -38 -31 -61 -31c-20 0 -36 5 -61 19l-29 16c-34 19 -49 25 -62 25c-29 0 -45 -20 -48 -60z" />
    <glyph glyph-name="oacute" unicode="&#xf3;" horiz-adv-x="448" 
d="M159 -10c-81 3 -144 84 -144 184c0 129 121 259 240 259c86 0 149 -78 149 -184c0 -141 -138 -265 -245 -259zM165 6c117 6 177 229 177 316c0 60 -33 95 -90 95c-116 0 -175 -233 -175 -317c0 -68 45 -97 88 -94zM376 577l-89 -73h-19l56 96c27 45 41 57 62 57
c17 0 31 -12 31 -29s-12 -27 -41 -51z" />
    <glyph glyph-name="ocircumflex" unicode="&#xf4;" horiz-adv-x="448" 
d="M159 -10c-81 3 -144 84 -144 184c0 129 121 259 240 259c86 0 149 -78 149 -184c0 -141 -138 -265 -245 -259zM165 6c117 6 177 229 177 316c0 60 -33 95 -90 95c-116 0 -175 -233 -175 -317c0 -68 45 -97 88 -94zM119 503l167 145h62l43 -145h-19l-69 93l-159 -93h-25z
" />
    <glyph glyph-name="odieresis" unicode="&#xf6;" horiz-adv-x="448" 
d="M159 -10c-81 3 -144 84 -144 184c0 129 121 259 240 259c86 0 149 -78 149 -184c0 -141 -138 -265 -245 -259zM165 6c117 6 177 229 177 316c0 60 -33 95 -90 95c-116 0 -175 -233 -175 -317c0 -68 45 -97 88 -94zM204 583c22 0 40 -18 40 -39c0 -22 -17 -39 -38 -39
c-22 0 -40 17 -40 39c0 21 17 39 38 39zM384 583c21 0 38 -18 38 -39c0 -22 -17 -39 -37 -39c-23 0 -41 18 -41 39c0 22 18 39 40 39z" />
    <glyph glyph-name="ograve" unicode="&#xf2;" horiz-adv-x="448" 
d="M159 -10c-81 3 -144 84 -144 184c0 129 121 259 240 259c86 0 149 -78 149 -184c0 -141 -138 -265 -245 -259zM165 6c117 6 177 229 177 316c0 60 -33 95 -90 95c-116 0 -175 -233 -175 -317c0 -68 45 -97 88 -94zM342 504h-19l-88 73c-30 24 -41 34 -41 51s13 29 31 29
c21 0 34 -12 61 -57z" />
    <glyph glyph-name="otilde" unicode="&#xf5;" horiz-adv-x="448" 
d="M159 -10c-81 3 -144 84 -144 184c0 129 121 259 240 259c86 0 149 -78 149 -184c0 -141 -138 -265 -245 -259zM165 6c117 6 177 229 177 316c0 60 -33 95 -90 95c-116 0 -175 -233 -175 -317c0 -68 45 -97 88 -94zM155 504h-17c0 65 35 108 88 108c20 0 52 -13 94 -38
c28 -17 40 -22 53 -22c28 0 41 16 49 60h15c-2 -36 -8 -60 -21 -77c-14 -19 -38 -31 -61 -31c-20 0 -36 5 -61 19l-29 16c-34 19 -49 25 -62 25c-29 0 -45 -20 -48 -60z" />
    <glyph glyph-name="scaron" unicode="&#x161;" horiz-adv-x="396" 
d="M129 226c-21 23 -32 49 -32 78c0 70 64 132 136 132c66 0 115 -43 115 -101c0 -30 -19 -54 -43 -54c-18 0 -34 17 -34 39c0 16 10 30 29 42c9 6 12 9 12 14c0 22 -40 44 -81 44c-51 0 -95 -35 -95 -76c0 -33 17 -52 70 -78c43 -20 107 -56 107 -129
c0 -82 -72 -147 -164 -147c-77 0 -141 54 -141 120c0 42 23 76 51 76c21 0 35 -16 35 -41c0 -26 -15 -44 -42 -51c-14 -3 -18 -7 -18 -16c0 -34 59 -71 112 -71c72 0 124 39 124 92c0 42 -36 62 -77 84c-35 20 -45 26 -64 43zM439 649l-168 -145h-61l-44 145h20l69 -93
l158 93h26z" />
    <glyph glyph-name="uacute" unicode="&#xfa;" horiz-adv-x="563" 
d="M22 255l-15 -1c17 65 27 89 55 123c19 24 54 55 93 55c43 0 72 -40 72 -95c0 -47 -15 -98 -53 -178c-25 -54 -35 -82 -35 -104c0 -29 14 -47 37 -47c18 0 41 12 58 29c48 50 75 119 127 259l43 130h68l-83 -286c-11 -37 -21 -85 -21 -98c0 -19 10 -32 26 -32
c39 0 87 61 119 154h16c-38 -113 -89 -173 -145 -173c-34 0 -56 32 -56 81c0 26 4 62 12 105c2 16 3 18 4 27c-36 -89 -94 -215 -169 -215c-49 0 -85 51 -85 119c0 44 14 90 52 167c26 55 36 84 36 106c0 20 -11 32 -30 32c-49 0 -100 -63 -126 -158zM433 577l-89 -73h-19
l56 96c27 45 41 57 62 57c17 0 31 -12 31 -29s-12 -27 -41 -51z" />
    <glyph glyph-name="ucircumflex" unicode="&#xfb;" horiz-adv-x="563" 
d="M22 255l-15 -1c17 65 27 89 55 123c19 24 54 55 93 55c43 0 72 -40 72 -95c0 -47 -15 -98 -53 -178c-25 -54 -35 -82 -35 -104c0 -29 14 -47 37 -47c18 0 41 12 58 29c48 50 75 119 127 259l43 130h68l-83 -286c-11 -37 -21 -85 -21 -98c0 -19 10 -32 26 -32
c39 0 87 61 119 154h16c-38 -113 -89 -173 -145 -173c-34 0 -56 32 -56 81c0 26 4 62 12 105c2 16 3 18 4 27c-36 -89 -94 -215 -169 -215c-49 0 -85 51 -85 119c0 44 14 90 52 167c26 55 36 84 36 106c0 20 -11 32 -30 32c-49 0 -100 -63 -126 -158zM216 503l167 145h62
l43 -145h-19l-69 93l-159 -93h-25z" />
    <glyph glyph-name="udieresis" unicode="&#xfc;" horiz-adv-x="563" 
d="M22 255l-15 -1c17 65 27 89 55 123c19 24 54 55 93 55c43 0 72 -40 72 -95c0 -47 -15 -98 -53 -178c-25 -54 -35 -82 -35 -104c0 -29 14 -47 37 -47c18 0 41 12 58 29c48 50 75 119 127 259l43 130h68l-83 -286c-11 -37 -21 -85 -21 -98c0 -19 10 -32 26 -32
c39 0 87 61 119 154h16c-38 -113 -89 -173 -145 -173c-34 0 -56 32 -56 81c0 26 4 62 12 105c2 16 3 18 4 27c-36 -89 -94 -215 -169 -215c-49 0 -85 51 -85 119c0 44 14 90 52 167c26 55 36 84 36 106c0 20 -11 32 -30 32c-49 0 -100 -63 -126 -158zM261 583
c22 0 40 -18 40 -39c0 -22 -17 -39 -38 -39c-22 0 -40 17 -40 39c0 21 17 39 38 39zM441 583c21 0 38 -18 38 -39c0 -22 -17 -39 -37 -39c-23 0 -41 18 -41 39c0 22 18 39 40 39z" />
    <glyph glyph-name="ugrave" unicode="&#xf9;" horiz-adv-x="563" 
d="M22 255l-15 -1c17 65 27 89 55 123c19 24 54 55 93 55c43 0 72 -40 72 -95c0 -47 -15 -98 -53 -178c-25 -54 -35 -82 -35 -104c0 -29 14 -47 37 -47c18 0 41 12 58 29c48 50 75 119 127 259l43 130h68l-83 -286c-11 -37 -21 -85 -21 -98c0 -19 10 -32 26 -32
c39 0 87 61 119 154h16c-38 -113 -89 -173 -145 -173c-34 0 -56 32 -56 81c0 26 4 62 12 105c2 16 3 18 4 27c-36 -89 -94 -215 -169 -215c-49 0 -85 51 -85 119c0 44 14 90 52 167c26 55 36 84 36 106c0 20 -11 32 -30 32c-49 0 -100 -63 -126 -158zM359 504h-19l-88 73
c-30 24 -41 34 -41 51s13 29 31 29c21 0 34 -12 61 -57z" />
    <glyph glyph-name="yacute" unicode="&#xfd;" 
d="M28 253h-16c36 106 96 176 151 176c38 0 61 -34 61 -92c0 -48 -17 -103 -57 -187c-26 -53 -37 -84 -37 -104c0 -26 12 -40 35 -40c22 0 56 17 81 41c52 50 80 119 121 244c13 36 24 69 35 98l13 37h67l-102 -350c-34 -118 -73 -195 -123 -243c-40 -38 -97 -64 -141 -64
c-59 0 -104 36 -104 84c0 35 21 61 48 61c24 0 43 -20 43 -44s-9 -39 -31 -51c-9 -5 -12 -8 -12 -12c0 -11 26 -22 51 -22c114 0 152 134 192 281l14 52l-19 -31c-36 -59 -90 -97 -136 -97c-49 0 -79 41 -79 110c0 35 14 80 50 159c30 65 42 100 42 124c0 16 -10 27 -25 27
c-36 0 -86 -64 -122 -157zM407 577l-89 -73h-19l56 96c27 45 41 57 62 57c17 0 31 -12 31 -29s-12 -27 -41 -51z" />
    <glyph glyph-name="ydieresis" unicode="&#xff;" 
d="M28 253h-16c36 106 96 176 151 176c38 0 61 -34 61 -92c0 -48 -17 -103 -57 -187c-26 -53 -37 -84 -37 -104c0 -26 12 -40 35 -40c22 0 56 17 81 41c52 50 80 119 121 244c13 36 24 69 35 98l13 37h67l-102 -350c-34 -118 -73 -195 -123 -243c-40 -38 -97 -64 -141 -64
c-59 0 -104 36 -104 84c0 35 21 61 48 61c24 0 43 -20 43 -44s-9 -39 -31 -51c-9 -5 -12 -8 -12 -12c0 -11 26 -22 51 -22c114 0 152 134 192 281l14 52l-19 -31c-36 -59 -90 -97 -136 -97c-49 0 -79 41 -79 110c0 35 14 80 50 159c30 65 42 100 42 124c0 16 -10 27 -25 27
c-36 0 -86 -64 -122 -157zM250 583c22 0 40 -18 40 -39c0 -22 -17 -39 -38 -39c-22 0 -40 17 -40 39c0 21 17 39 38 39zM430 583c21 0 38 -18 38 -39c0 -22 -17 -39 -37 -39c-23 0 -41 18 -41 39c0 22 18 39 40 39z" />
    <glyph glyph-name="zcaron" unicode="&#x17e;" horiz-adv-x="396" 
d="M27 283h-13c28 84 88 146 142 146c23 0 41 -12 65 -42c20 -24 32 -33 47 -33c18 0 34 13 34 28c0 4 -5 22 -5 27c0 11 7 19 18 19c12 0 18 -9 18 -26c0 -66 -72 -127 -176 -214c-69 -58 -87 -73 -109 -107c20 7 29 9 41 9c8 0 19 -2 40 -7c36 -10 61 -14 84 -14
c61 0 101 28 122 84h16c-48 -152 -126 -163 -139 -163c-27 0 -45 11 -74 43c-26 29 -41 38 -62 38c-23 0 -38 -12 -38 -31c0 -4 7 -24 7 -29c0 -13 -8 -21 -19 -21s-19 13 -19 31c0 65 80 134 193 228c48 40 75 63 97 98c-3 0 -3 -1 -8 -2c-14 -6 -24 -8 -36 -8
c-9 0 -24 3 -49 8c-34 8 -54 11 -71 11c-50 0 -74 -17 -106 -73zM409 649l-168 -145h-61l-44 145h20l69 -93l158 93h26z" />
    <glyph glyph-name="f_i" unicode="&#xfb01;" horiz-adv-x="563" 
d="M46 419h113c40 158 138 266 241 266c54 0 94 -34 94 -81c0 -40 -20 -68 -49 -68c-22 0 -42 19 -42 39c0 15 5 26 20 43c11 13 15 19 15 27c0 16 -13 24 -37 24c-86 0 -141 -81 -171 -250h123c25 0 75 7 104 14l-68 -285c-15 -64 -20 -90 -20 -104c0 -22 8 -32 24 -32
c36 0 83 59 109 136h17c-43 -109 -85 -158 -139 -158c-41 0 -70 41 -70 98c0 54 25 140 39 191c12 42 22 88 22 99c0 14 -4 19 -15 19h-132l-56 -253c-40 -179 -58 -244 -86 -298c-19 -36 -61 -89 -125 -89c-52 0 -91 36 -91 84c0 33 22 60 50 60c22 0 38 -17 38 -41
c0 -16 -7 -29 -25 -42c-11 -9 -15 -14 -15 -20c0 -13 20 -25 42 -25c65 0 86 74 110 214c5 29 6 36 10 57l76 353h-112z" />
    <glyph glyph-name="f_l" unicode="&#xfb02;" horiz-adv-x="563" 
d="M505 148h16c-40 -107 -85 -158 -138 -158c-43 0 -70 37 -70 94c0 22 3 45 12 81l55 232h-155l-31 -143l-17 -84c-42 -197 -62 -269 -92 -324c-36 -68 -84 -91 -122 -91c-54 0 -94 35 -94 84c0 31 23 60 48 60c23 0 40 -18 40 -42c0 -16 -6 -27 -24 -41
c-12 -9 -16 -15 -16 -21c0 -13 19 -24 40 -24c70 0 89 81 110 207c6 39 9 55 17 95l70 324h-112l7 22h111c20 68 30 93 56 138c77 128 176 128 187 128s23 -2 35 -3c12 -2 23 -4 31 -4c14 0 19 0 33 4c9 3 12 3 18 3l-137 -575c-7 -29 -12 -56 -12 -66c0 -23 8 -34 25 -34
c34 0 75 51 109 138zM231 419h153l32 129c-9 11 -12 19 -12 30c0 12 5 23 14 33s21 22 21 38c0 11 -16 19 -39 19c-75 0 -135 -76 -159 -199z" />
    <glyph glyph-name="one.superior" unicode="&#xb9;" horiz-adv-x="333" 
d="M128 647h32c41 0 83 7 116 31l15 1l-78 -283c-1 -4 -2 -9 -2 -13c0 -17 11 -25 32 -25h34l-3 -14h-216l4 13h37c27 0 41 10 48 33l59 205c2 6 3 13 3 20c0 12 -11 18 -31 18h-54z" />
    <glyph glyph-name="two.superior" unicode="&#xb2;" horiz-adv-x="333" 
d="M309 448h10c-32 -72 -69 -111 -105 -111c-15 0 -32 7 -56 26c-22 15 -34 21 -45 21c-12 0 -20 -8 -20 -19c0 -2 1 -12 1 -15c0 -9 -3 -13 -9 -13c-9 0 -14 10 -14 25c0 37 40 67 74 92c28 21 36 27 51 42c40 42 64 90 64 128c0 29 -13 44 -38 44c-36 0 -96 -35 -96 -57
c0 -6 3 -8 12 -9c16 -3 22 -10 22 -28c0 -24 -15 -43 -35 -43s-34 16 -34 37c0 59 70 115 144 115c53 0 91 -31 91 -75c0 -51 -52 -86 -111 -124c-71 -45 -88 -62 -117 -90c24 8 48 15 73 15c26 0 50 -9 76 -9s41 11 62 48z" />
    <glyph glyph-name="three.superior" unicode="&#xb3;" horiz-adv-x="333" 
d="M222 527c64 -12 95 -43 95 -93c0 -57 -59 -99 -137 -99c-70 0 -111 28 -111 78c0 32 16 54 42 54c17 0 28 -13 28 -30c0 -23 -15 -38 -39 -40c-10 0 -13 -2 -13 -6c0 -19 46 -42 85 -42c18 0 34 6 43 17c17 19 36 75 36 107c0 25 -17 43 -43 43c-9 0 -17 -2 -29 -8
c-6 -4 -10 -5 -13 -5c-5 0 -8 3 -8 6c0 4 4 7 18 13c63 27 93 61 93 102c0 25 -17 41 -43 41c-24 0 -53 -9 -53 -16c0 -2 2 -4 7 -7c10 -6 14 -13 14 -23c0 -18 -13 -29 -33 -29c-18 0 -30 10 -30 25c0 38 48 66 113 66c51 0 86 -25 86 -61c0 -31 -21 -51 -85 -82
c-11 -5 -14 -7 -23 -11z" />
    <glyph glyph-name="Delta" unicode="&#x2206;" horiz-adv-x="572" 
d="M462 0h-505l5 16l412 654l26 8l66 -662zM405 35l-53 552l-345 -552h398z" />
    <glyph glyph-name="Omega" unicode="&#x2126;" horiz-adv-x="667" 
d="M590 119l-52 -119h-208v15c62 74 187 200 227 352c55 209 -27 288 -125 288c-107 0 -223 -85 -279 -293c-39 -146 9 -261 38 -346l-11 -16h-203l12 119l17 2c2 -66 15 -77 49 -77h103c-39 54 -109 163 -66 324c52 191 201 311 348 311c151 0 231 -113 180 -303
c-38 -143 -161 -261 -242 -332h103c40 0 51 7 90 77z" />
    <glyph glyph-name="uni03BC" unicode="&#x3bc;" horiz-adv-x="500" 
d="M33 63l107 367h74l-78 -273c-13 -45 -14 -48 -14 -56c0 -20 0 -67 50 -67c31 0 66 22 96 60c40 51 43 60 70 151l54 185h74l-82 -282l-10 -32c-4 -12 -6 -25 -6 -39c0 -27 9 -41 27 -41c33 0 50 33 67 69h18c-17 -53 -29 -73 -58 -94c-19 -14 -45 -23 -65 -23
c-38 0 -64 30 -64 74c0 7 1 22 3 37c-52 -76 -111 -111 -160 -111c-51 0 -67 33 -77 53c-21 -69 -23 -87 -30 -175c-5 -55 -22 -81 -54 -81c-21 0 -35 16 -35 39c0 16 2 22 37 90c21 40 39 88 56 149z" />
    <glyph glyph-name="pi" unicode="&#x3c0;" horiz-adv-x="513" 
d="M510 454l17 -9c-18 -34 -34 -51 -49 -67c-16 -3 -41 -3 -69 -3c-20 -57 -53 -183 -71 -253c-15 -55 -15 -91 20 -91c20 0 36 11 59 34l8 -15c-36 -47 -73 -61 -103 -61c-44 0 -67 24 -41 119c24 89 56 188 83 269c-59 2 -124 2 -163 2l-7 -23
c-59 -221 -139 -337 -156 -351c-13 -6 -38 -15 -52 -16l-1 13c93 85 160 275 188 378c-68 0 -98 -22 -135 -48l-8 16c33 28 81 77 171 77c33 0 71 -1 112 -2s86 -2 132 -2c28 0 41 5 65 33z" />
    <glyph glyph-name="Euro" unicode="&#x20ac;" 
d="M542 554h-17c9 65 -35 96 -106 96c-121 0 -190 -94 -244 -249h276l-20 -30h-266c-3 -9 -7 -22 -9 -31c-3 -9 -7 -26 -9 -34h240l-20 -29h-226c-34 -165 2 -256 110 -256c62 0 128 26 157 98h18l-23 -69c-33 -33 -85 -60 -170 -60c-141 0 -189 97 -150 287h-65l19 29h50
c2 8 7 26 9 35c2 7 6 21 9 30h-62l20 30h52c65 182 150 282 304 282c92 0 125 -32 138 -58z" />
    <glyph glyph-name="afii61289" unicode="&#x2113;" horiz-adv-x="360" 
d="M277 97l12 -13c-49 -62 -105 -93 -165 -93c-38 0 -64 13 -76 37c-13 27 -12 64 8 138l24 91l-69 -46l-7 17l83 59l32 118c46 171 67 224 120 270c27 25 50 37 75 37c49 0 59 -57 41 -123c-31 -119 -124 -217 -215 -294l-27 -102c-35 -131 -8 -163 44 -163
c44 0 84 28 120 67zM186 465l-36 -134c78 74 147 174 169 258c15 55 10 97 -21 97c-38 0 -71 -66 -112 -221z" />
    <glyph glyph-name="estimated" unicode="&#x212e;" horiz-adv-x="942" 
d="M909 326h-624c-3 0 -5 -1 -5 -4v-189c0 -8 3 -15 8 -21c61 -63 144 -103 236 -103c100 0 188 45 248 115h56c-69 -81 -181 -134 -305 -134c-212 0 -384 154 -384 345c0 192 172 346 384 346c213 0 386 -154 386 -346v-9zM767 350v190c0 8 -3 16 -9 23
c-61 59 -143 98 -234 98s-174 -40 -235 -102c-6 -6 -9 -14 -9 -23v-186c0 -2 2 -6 5 -6h478c3 0 4 4 4 6z" />
    <glyph glyph-name="partialdiff" unicode="&#x2202;" horiz-adv-x="475" 
d="M273 415h1c45 0 95 -22 114 -74c11 32 22 64 32 101c15 50 21 105 16 157c-5 51 -41 112 -104 112c-46 0 -93 -21 -133 -48c-14 -2 -22 24 -10 43c37 22 86 40 136 40c84 0 125 -51 144 -136c16 -73 -2 -166 -17 -221c-18 -68 -56 -173 -109 -249
c-61 -88 -134 -149 -217 -149c-98 0 -142 73 -111 195c18 66 56 120 95 157c42 40 106 72 163 72zM279 383h-1c-45 0 -87 -19 -128 -58c-40 -44 -69 -103 -86 -165c-20 -73 1 -144 67 -144c57 0 109 50 145 102c43 60 66 110 96 186c-5 29 -36 79 -93 79z" />
    <glyph glyph-name="product" unicode="&#x220f;" horiz-adv-x="713" 
d="M686 668v-20c-80 -6 -83 -10 -83 -52v-598c0 -51 6 -59 80 -64v-19h-212v19c75 5 81 8 81 64v616c0 25 -6 28 -32 28h-226c-26 0 -31 -3 -31 -25v-619c0 -51 0 -57 75 -64v-19h-205v19c72 6 79 10 79 64v598c0 42 -5 46 -83 52v20h557z" />
    <glyph glyph-name="summation" unicode="&#x2211;" horiz-adv-x="603" 
d="M581 72l-38 -157h-413v17l213 354l-207 365v17h408c1 -18 7 -85 11 -142l-21 -4c-6 47 -16 75 -27 93c-11 20 -25 27 -96 27h-205l186 -324l-209 -355h252c78 0 89 5 125 115z" />
    <glyph glyph-name="uni2219" unicode="&#x2219;" horiz-adv-x="281" 
d="M151 351c31 0 56 -25 56 -55c0 -31 -25 -56 -56 -56c-30 0 -55 25 -55 56c0 30 25 55 55 55z" />
    <glyph glyph-name="radical" unicode="&#x221a;" horiz-adv-x="608" 
d="M587 868l-147 -999l-13 -9l-205 535l-80 -40l-9 26l126 61l169 -453h2l128 888z" />
    <glyph glyph-name="infinity" unicode="&#x221e;" horiz-adv-x="734" 
d="M689 279v-1c0 -85 -65 -140 -136 -140c-58 0 -103 37 -167 108c-48 -54 -98 -108 -172 -108c-73 0 -133 60 -133 137c0 80 58 140 139 140c69 0 121 -54 169 -110c49 55 95 110 171 110c78 0 129 -56 129 -136zM219 175h1c60 0 107 59 145 99c-41 49 -85 105 -152 105
c-59 0 -92 -50 -92 -105s40 -99 98 -99zM555 379h-1c-62 0 -112 -69 -145 -102c62 -66 97 -102 147 -102c59 0 93 51 93 100c0 67 -40 104 -94 104z" />
    <glyph glyph-name="integral" unicode="&#x222b;" horiz-adv-x="435" 
d="M257 29l-18 408c-13 316 49 383 127 383c20 0 46 -12 46 -36c0 -20 -13 -30 -30 -30c-26 0 -24 32 -46 32s-55 -33 -50 -172l17 -381c16 -360 -53 -412 -125 -412c-29 0 -47 18 -47 37c-1 18 14 33 36 33c23 0 23 -33 44 -33c31 0 51 68 46 171z" />
    <glyph glyph-name="approxequal" unicode="&#x2248;" horiz-adv-x="534" 
d="M467 400l25 -21c-23 -46 -58 -85 -114 -85c-36 0 -62 14 -105 38c-28 16 -55 31 -85 31c-41 0 -67 -31 -89 -69l-27 20c27 54 71 86 122 86c44 0 77 -25 102 -38c31 -17 52 -31 85 -31c36 0 60 23 86 69zM467 251l25 -21c-23 -46 -58 -85 -114 -85c-37 0 -62 14 -105 38
c-28 16 -55 31 -84 31c-43 0 -69 -32 -90 -69l-27 20c27 54 71 86 122 86c45 0 77 -24 102 -37c29 -17 52 -32 85 -32c37 0 60 23 86 69z" />
    <glyph glyph-name="notequal" unicode="&#x2260;" horiz-adv-x="555" 
d="M407 467l-41 -90h143v-39h-159l-62 -133h221v-39h-237l-48 -105l-31 14l42 91h-136v39h153l60 133h-213v39h229l48 104z" />
    <glyph glyph-name="lessequal" unicode="&#x2264;" horiz-adv-x="574" 
d="M526 99l-403 207v39l403 206v-47l-360 -177v-2l360 -179v-47zM528 21h-410v40h410v-40z" />
    <glyph glyph-name="greaterequal" unicode="&#x2265;" horiz-adv-x="574" 
d="M124 551l402 -206v-39l-402 -207v47l359 178v2l-359 178v47zM528 21h-409v40h409v-40z" />
    <glyph glyph-name="lozenge" unicode="&#x25ca;" horiz-adv-x="614" 
d="M568 324l-185 -388h-44l-185 388l186 391h43zM524 324l-161 345h-3l-162 -343l163 -346h2z" />
    <glyph glyph-name="uni00A0" unicode="&#xa0;" horiz-adv-x="250" 
 />
    <glyph glyph-name="uni00AD" unicode="&#xad;" horiz-adv-x="333" 
d="M75 198v41h213v-41h-213z" />
    <glyph glyph-name="uni02C9" unicode="&#x2c9;" horiz-adv-x="333" 
d="M80 505l13 45h285l-13 -45h-285z" />
    <glyph glyph-name="uni2215" unicode="&#x2215;" horiz-adv-x="333" 
d="M-158 -34l628 719h43l-629 -719h-42z" />
    <glyph glyph-name="uni03A9" unicode="&#x3a9;" horiz-adv-x="667" 
d="M590 119l-52 -119h-208v15c62 74 187 200 227 352c55 209 -27 288 -125 288c-107 0 -223 -85 -279 -293c-39 -146 9 -261 38 -346l-11 -16h-203l12 119l17 2c2 -66 15 -77 49 -77h103c-39 54 -109 163 -66 324c52 191 201 311 348 311c151 0 231 -113 180 -303
c-38 -143 -161 -261 -242 -332h103c40 0 51 7 90 77z" />
    </font>
</defs>
</svg>
