<?xml version="1.0" encoding="utf-8"?>
<!-- Generator: Adobe Illustrator 17.0.0, SVG Export Plug-In . SVG Version: 6.00 Build 0)  -->
<!DOCTYPE svg PUBLIC "-//W3C//DTD SVG 1.1//EN" "http://www.w3.org/Graphics/SVG/1.1/DTD/svg11.dtd">
<svg version="1.1" id="圖層_1" xmlns="http://www.w3.org/2000/svg" xmlns:xlink="http://www.w3.org/1999/xlink" x="0px" y="0px"
	 width="90px" height="90px" viewBox="-50.5 124.5 90 90" enable-background="new -50.5 124.5 90 90" xml:space="preserve">
<g>
	<polygon fill="#E9573F" points="8,148.5 8,181.5 -1,181.5 -1,148.5 -10,148.5 -10,181.5 -19,181.5 -19,148.5 -28,148.5 -28,190.5 
		17,190.5 17,148.5 	"/>
	<g>
		<polygon fill="#E9573F" points="-22.643,195.5 -28,195.5 -28,200.5 -26.928,200.5 -26.928,196.572 -25.857,196.572 -25.857,200.5 
			-24.785,200.5 -24.785,196.572 -23.715,196.572 -23.715,200.5 -22.643,200.5 		"/>
		<polygon fill="#E9573F" points="-11.333,195.5 -11.333,199.428 -13.952,199.428 -13.952,195.5 -15.024,195.5 -15.024,200.5 
			-10.262,200.5 -10.262,195.5 		"/>
		<polygon fill="#E9573F" points="-4.071,195.5 -8.834,195.5 -8.834,200.5 -7.762,200.5 -7.762,196.572 -5.143,196.572 
			-5.143,200.5 -4.071,200.5 		"/>
		<polygon fill="#E9573F" points="17,195.5 12.238,195.5 12.238,200.5 13.309,200.5 13.309,196.572 15.928,196.572 15.928,200.5 
			17,200.5 		"/>
		<path fill="#E9573F" d="M8.309,195.5H3.547v5h1.072v-1.072h2.619v1.072H8.31L8.309,195.5L8.309,195.5z M7.238,198.357H4.619
			v-1.786h2.619V198.357z"/>
		<path fill="#E9573F" d="M-21.214,195.5v5h4.762v-5H-21.214z M-17.523,199.428h-2.619v-2.857h2.619V199.428z"/>
		<rect x="9.738" y="195.5" fill="#E9573F" width="1.072" height="5"/>
		<polygon fill="#E9573F" points="2.119,195.5 -2.642,195.5 -2.642,196.572 -0.797,196.572 -0.797,200.5 0.274,200.5 0.274,196.572 
			2.119,196.572 		"/>
	</g>
</g>
</svg>
