<?xml version="1.0" encoding="utf-8"?>
<!-- Generator: Adobe Illustrator 17.0.0, SVG Export Plug-In . SVG Version: 6.00 Build 0)  -->
<!DOCTYPE svg PUBLIC "-//W3C//DTD SVG 1.1//EN" "http://www.w3.org/Graphics/SVG/1.1/DTD/svg11.dtd">
<svg version="1.1" id="圖層_1" xmlns="http://www.w3.org/2000/svg" xmlns:xlink="http://www.w3.org/1999/xlink" x="0px" y="0px"
	 width="90px" height="90px" viewBox="-50.5 124.5 90 90" enable-background="new -50.5 124.5 90 90" xml:space="preserve">
<g>
	<polygon fill="#231815" points="8,148.5 8,181.5 -1,181.5 -1,148.5 -10,148.5 -10,181.5 -19,181.5 -19,148.5 -28,148.5 -28,190.5 
		17,190.5 17,148.5 	"/>
	<g>
		<polygon fill="#231815" points="-22.643,195.5 -28,195.5 -28,200.5 -26.928,200.5 -26.928,196.572 -25.857,196.572 -25.857,200.5 
			-24.785,200.5 -24.785,196.572 -23.715,196.572 -23.715,200.5 -22.643,200.5 		"/>
		<polygon fill="#231815" points="-11.333,195.5 -11.333,199.428 -13.952,199.428 -13.952,195.5 -15.024,195.5 -15.024,200.5 
			-10.262,200.5 -10.262,195.5 		"/>
		<polygon fill="#231815" points="-4.071,195.5 -8.834,195.5 -8.834,200.5 -7.762,200.5 -7.762,196.572 -5.143,196.572 
			-5.143,200.5 -4.071,200.5 		"/>
		<polygon fill="#231815" points="17,195.5 12.238,195.5 12.238,200.5 13.309,200.5 13.309,196.572 15.928,196.572 15.928,200.5 
			17,200.5 		"/>
		<path fill="#231815" d="M8.309,195.5H3.547v5h1.072v-1.072h2.619v1.072H8.31L8.309,195.5L8.309,195.5z M7.238,198.357H4.619
			v-1.786h2.619V198.357z"/>
		<path fill="#231815" d="M-21.214,195.5v5h4.762v-5H-21.214z M-17.523,199.428h-2.619v-2.857h2.619V199.428z"/>
		<rect x="9.738" y="195.5" fill="#231815" width="1.072" height="5"/>
		<polygon fill="#231815" points="2.119,195.5 -2.642,195.5 -2.642,196.572 -0.797,196.572 -0.797,200.5 0.274,200.5 0.274,196.572 
			2.119,196.572 		"/>
	</g>
</g>
<polygon fill="#231815" points="-149,624.5 -149,657.5 -158,657.5 -158,624.5 -167,624.5 -167,657.5 -176,657.5 -176,624.5 
	-185,624.5 -185,666.5 -140,666.5 -140,624.5 "/>
<g>
	<polygon fill="#231815" points="-179.643,671.5 -185,671.5 -185,676.5 -183.928,676.5 -183.928,672.572 -182.857,672.572 
		-182.857,676.5 -181.785,676.5 -181.785,672.572 -180.715,672.572 -180.715,676.5 -179.643,676.5 	"/>
	<polygon fill="#231815" points="-168.333,671.5 -168.333,675.428 -170.952,675.428 -170.952,671.5 -172.024,671.5 -172.024,676.5 
		-167.262,676.5 -167.262,671.5 	"/>
	<polygon fill="#231815" points="-161.071,671.5 -165.834,671.5 -165.834,676.5 -164.762,676.5 -164.762,672.572 -162.143,672.572 
		-162.143,676.5 -161.071,676.5 	"/>
	<polygon fill="#231815" points="-140,671.5 -144.762,671.5 -144.762,676.5 -143.691,676.5 -143.691,672.572 -141.072,672.572 
		-141.072,676.5 -140,676.5 	"/>
	<path fill="#231815" d="M-148.691,671.5h-4.762v5h1.072v-1.072h2.619v1.072h1.072L-148.691,671.5L-148.691,671.5z
		 M-149.762,674.357h-2.619v-1.786h2.619V674.357z"/>
	<path fill="#231815" d="M-178.214,671.5v5h4.762v-5H-178.214z M-174.523,675.428h-2.619v-2.857h2.619V675.428z"/>
	<rect x="-147.262" y="671.5" fill="#231815" width="1.072" height="5"/>
	<polygon fill="#231815" points="-154.881,671.5 -159.642,671.5 -159.642,672.572 -157.797,672.572 -157.797,676.5 -156.726,676.5 
		-156.726,672.572 -154.881,672.572 	"/>
</g>
<g>
	<polygon fill="#FFFFFF" points="-59,624.5 -59,657.5 -68,657.5 -68,624.5 -77,624.5 -77,657.5 -86,657.5 -86,624.5 -95,624.5 
		-95,666.5 -50,666.5 -50,624.5 	"/>
	<g>
		<polygon fill="#FFFFFF" points="-89.643,671.5 -95,671.5 -95,676.5 -93.928,676.5 -93.928,672.572 -92.857,672.572 -92.857,676.5 
			-91.785,676.5 -91.785,672.572 -90.715,672.572 -90.715,676.5 -89.643,676.5 		"/>
		<polygon fill="#FFFFFF" points="-78.333,671.5 -78.333,675.428 -80.952,675.428 -80.952,671.5 -82.024,671.5 -82.024,676.5 
			-77.262,676.5 -77.262,671.5 		"/>
		<polygon fill="#FFFFFF" points="-71.071,671.5 -75.834,671.5 -75.834,676.5 -74.762,676.5 -74.762,672.572 -72.143,672.572 
			-72.143,676.5 -71.071,676.5 		"/>
		<polygon fill="#FFFFFF" points="-50,671.5 -54.762,671.5 -54.762,676.5 -53.691,676.5 -53.691,672.572 -51.072,672.572 
			-51.072,676.5 -50,676.5 		"/>
		<path fill="#FFFFFF" d="M-58.691,671.5h-4.762v5h1.072v-1.072h2.619v1.072h1.072L-58.691,671.5L-58.691,671.5z M-59.762,674.357
			h-2.619v-1.786h2.619V674.357z"/>
		<path fill="#FFFFFF" d="M-88.214,671.5v5h4.762v-5H-88.214z M-84.523,675.428h-2.619v-2.857h2.619V675.428z"/>
		<rect x="-57.262" y="671.5" fill="#FFFFFF" width="1.072" height="5"/>
		<polygon fill="#FFFFFF" points="-64.881,671.5 -69.642,671.5 -69.642,672.572 -67.797,672.572 -67.797,676.5 -66.726,676.5 
			-66.726,672.572 -64.881,672.572 		"/>
	</g>
</g>
<polygon fill="#231815" points="-149,534.5 -149,567.5 -158,567.5 -158,534.5 -167,534.5 -167,567.5 -176,567.5 -176,534.5 
	-185,534.5 -185,576.5 -140,576.5 -140,534.5 "/>
<polygon fill="#FFFFFF" points="-59,534.5 -59,567.5 -68,567.5 -68,534.5 -77,534.5 -77,567.5 -86,567.5 -86,534.5 -95,534.5 
	-95,576.5 -50,576.5 -50,534.5 "/>
</svg>
