<?xml version="1.0" encoding="utf-8"?>
<!-- Generator: Adobe Illustrator 17.0.0, SVG Export Plug-In . SVG Version: 6.00 Build 0)  -->
<!DOCTYPE svg PUBLIC "-//W3C//DTD SVG 1.1//EN" "http://www.w3.org/Graphics/SVG/1.1/DTD/svg11.dtd">
<svg version="1.1" id="圖層_1" xmlns="http://www.w3.org/2000/svg" xmlns:xlink="http://www.w3.org/1999/xlink" x="0px" y="0px"
	 width="197px" height="44px" viewBox="0 0 197 44" enable-background="new 0 0 197 44" xml:space="preserve">
<g>
	<rect x="0" y="1" width="9" height="42"/>
	<polygon points="47.001,8.999 47.001,0.999 18,0.999 18,42.998 27,42.998 27,25.999 44,25.999 44,17.999 27,17.999 27,8.999 	"/>
	<polygon points="124,0.999 124,18 107.001,18 107.001,0.999 98,0.999 98,43 107.001,43 107.001,26 124,26 124,43 133,43 133,0.999 
			"/>
	<rect x="142.001" y="1" width="9" height="42"/>
	<path d="M179,36v0.003V36C172.001,36,167,31,167,22c0-9,5-14,11.999-14V7.996v0.003c4.614,0,8.349,2.185,10.366,6.243l7.445-4.702
		C193.131,3.412,186.601,0,179,0v0.003V0c-11.782,0-21,8.187-21,22c0,13.813,9.217,22,21,22v-0.003V44
		c7.603,0,14.132-3.412,17.811-9.541l-7.445-4.702C187.348,33.815,183.614,36,179,36z"/>
	<path d="M73.999,36v0.003V36C67,36,62,31,62,22c0-9,5-14,11.999-14V7.996v0.003c4.615,0,8.349,2.185,10.366,6.243l7.445-4.702
		C88.131,3.412,81.601,0,73.999,0v0.003V0c-11.782,0-21,8.187-21,22c0,13.813,9.217,22,21,22v-0.003V44
		c7.603,0,14.132-3.412,17.811-9.541l-7.445-4.702C82.348,33.815,78.614,36,73.999,36z"/>
</g>
</svg>
