<?xml version="1.0" encoding="utf-8"?>
<!-- Generator: Adobe Illustrator 17.0.0, SVG Export Plug-In . SVG Version: 6.00 Build 0)  -->
<!DOCTYPE svg PUBLIC "-//W3C//DTD SVG 1.1//EN" "http://www.w3.org/Graphics/SVG/1.1/DTD/svg11.dtd">
<svg version="1.1" id="圖層_1" xmlns="http://www.w3.org/2000/svg" xmlns:xlink="http://www.w3.org/1999/xlink" x="0px" y="0px"
	 width="393px" height="88px" viewBox="0 0 393 88" enable-background="new 0 0 393 88" xml:space="preserve">
<g>
	<rect y="2" fill="#0D1228" width="18" height="84"/>
	<rect x="284" y="2" fill="#0D1228" width="18" height="84"/>
	<polygon fill="#0D1228" points="94,18 94,2 54,2 52,2 36,2 36,86 54,86 54,52 88,52 88,36 54,36 54,18 	"/>
	<polygon fill="#0D1228" points="248,2 248,36 214,36 214,2 196,2 196,86 214,86 214,52 248,52 248,86 266,86 266,2 	"/>
	<g>
		<path fill="#0D1228" d="M147.999,71.999v0.007V71.999c-13.998,0-23.999-9.999-23.999-28c0-18,10.001-28,23.999-28v-0.007v0.007
			c9.229,0,16.698,4.37,20.733,12.487l14.89-9.404C176.263,6.825,163.203,0,147.999,0v0.007V0C124.435,0,106,16.375,106,44.001
			S124.435,88,147.999,88v-0.005V88c15.207,0,28.264-6.825,35.622-19.083l-14.89-9.405
			C164.698,67.629,157.229,71.999,147.999,71.999z"/>
	</g>
	<g>
		<path fill="#0D1228" d="M356.999,71.999v0.007V71.999c-13.998,0-23.999-9.999-23.999-28c0-18,10.001-28,23.999-28v-0.007v0.007
			c9.229,0,16.698,4.37,20.733,12.487l14.89-9.404C385.263,6.825,372.203,0,356.999,0v0.007V0C333.435,0,315,16.375,315,44.001
			S333.435,88,356.999,88v-0.005V88c15.207,0,28.264-6.825,35.622-19.083l-14.89-9.405
			C373.698,67.629,366.229,71.999,356.999,71.999z"/>
	</g>
</g>
</svg>
