<?xml version="1.0" encoding="utf-8"?>
<!-- Generator: Adobe Illustrator 17.0.0, SVG Export Plug-In . SVG Version: 6.00 Build 0)  -->
<!DOCTYPE svg PUBLIC "-//W3C//DTD SVG 1.1//EN" "http://www.w3.org/Graphics/SVG/1.1/DTD/svg11.dtd">
<svg version="1.1" id="圖層_1" xmlns="http://www.w3.org/2000/svg" xmlns:xlink="http://www.w3.org/1999/xlink" x="0px" y="0px"
	 width="156px" height="54px" viewBox="0 0 156 54" enable-background="new 0 0 156 54" xml:space="preserve">
<g>
	<path fill="#FFFFFF" d="M58.5,46.5C52.701,46.5,48,41.799,48,36s4.701-10.5,10.5-10.5c3.282,0,6.211,1.506,8.136,3.864l5.317-5.317
		C68.656,20.338,63.852,18,58.5,18c-9.941,0-18,8.059-18,18s8.059,18,18,18c5.352,0,10.156-2.339,13.453-6.047l-5.317-5.317
		C64.711,44.994,61.782,46.5,58.5,46.5z"/>
	<circle fill="#FFFFFF" cx="6" cy="10.5" r="6"/>
	<rect x="1.5" y="21" fill="#FFFFFF" width="9" height="33"/>
	<rect x="111.5" y="21" fill="#FFFFFF" width="9" height="33"/>
	<path fill="#FFFFFF" d="M142.5,46.5c-5.799,0-10.5-4.701-10.5-10.5s4.701-10.5,10.5-10.5c3.282,0,6.211,1.506,8.136,3.864
		l5.317-5.317C152.656,20.338,147.852,18,142.5,18c-9.941,0-18,8.059-18,18s8.059,18,18,18c5.352,0,10.156-2.339,13.453-6.047
		l-5.317-5.317C148.711,44.994,145.782,46.5,142.5,46.5z"/>
	<path fill="#FFFFFF" d="M93.5,20c-3.429,0-6.566,1.237-9,3.283V0h-9v54h9V34c0-3.866,3.134-7,7-7s7,3.134,7,7v20h9V34
		C107.5,26.268,101.232,20,93.5,20z"/>
	<circle fill="#FFFFFF" cx="116" cy="10.5" r="6"/>
	<path fill="#FFFFFF" d="M36.5,8h3l1-8h-5c-7.732,0-14,6.268-14,14v7h-8v8h8v25h9V29h8v-8h-8v-7C30.5,10.686,33.186,8,36.5,8z"/>
</g>
</svg>
