<?xml version="1.0" encoding="utf-8"?>
<!-- Generator: Adobe Illustrator 17.0.0, SVG Export Plug-In . SVG Version: 6.00 Build 0)  -->
<!DOCTYPE svg PUBLIC "-//W3C//DTD SVG 1.1//EN" "http://www.w3.org/Graphics/SVG/1.1/DTD/svg11.dtd">
<svg version="1.1" id="圖層_1" xmlns="http://www.w3.org/2000/svg" xmlns:xlink="http://www.w3.org/1999/xlink" x="0px" y="0px"
	 width="600px" height="600px" viewBox="2.5 720.5 600 600" enable-background="new 2.5 720.5 600 600" xml:space="preserve">
<g>
	<g>
		<path fill="#969696" d="M64.5,958.5v24h-24v-24H64.5 M64.5,957h-24c-0.828,0-1.5,0.672-1.5,1.5v24c0,0.828,0.672,1.5,1.5,1.5h24
			c0.828,0,1.5-0.672,1.5-1.5v-24C66,957.672,65.328,957,64.5,957L64.5,957z"/>
	</g>
	<path fill="none" stroke="#969696" stroke-width="1.5" stroke-miterlimit="10" d="M54.75,961.5h6c0.828,0,1.5,0.672,1.5,1.5v6"/>
</g>
<g>
	<g>
		<path fill="#969696" d="M142.5,957.5c0.276,0,0.5,0.224,0.5,0.5v8c0,0.276-0.224,0.5-0.5,0.5h-8c-0.276,0-0.5-0.224-0.5-0.5v-8
			c0-0.276,0.224-0.5,0.5-0.5H142.5 M142.5,956h-8c-1.105,0-2,0.895-2,2v8c0,1.105,0.895,2,2,2h8c1.105,0,2-0.895,2-2v-8
			C144.5,956.895,143.605,956,142.5,956L142.5,956z"/>
	</g>
	<g>
		<path fill="#969696" d="M156.5,957.5c0.276,0,0.5,0.224,0.5,0.5v8c0,0.276-0.224,0.5-0.5,0.5h-8c-0.276,0-0.5-0.224-0.5-0.5v-8
			c0-0.276,0.224-0.5,0.5-0.5H156.5 M156.5,956h-8c-1.105,0-2,0.895-2,2v8c0,1.105,0.895,2,2,2h8c1.105,0,2-0.895,2-2v-8
			C158.5,956.895,157.605,956,156.5,956L156.5,956z"/>
	</g>
	<g>
		<path fill="#969696" d="M170.5,957.5c0.276,0,0.5,0.224,0.5,0.5v8c0,0.276-0.224,0.5-0.5,0.5h-8c-0.276,0-0.5-0.224-0.5-0.5v-8
			c0-0.276,0.224-0.5,0.5-0.5H170.5 M170.5,956h-8c-1.105,0-2,0.895-2,2v8c0,1.105,0.895,2,2,2h8c1.105,0,2-0.895,2-2v-8
			C172.5,956.895,171.605,956,170.5,956L170.5,956z"/>
	</g>
	<g>
		<path fill="#969696" d="M142.5,974.5c0.276,0,0.5,0.224,0.5,0.5v8c0,0.276-0.224,0.5-0.5,0.5h-8c-0.276,0-0.5-0.224-0.5-0.5v-8
			c0-0.276,0.224-0.5,0.5-0.5H142.5 M142.5,973h-8c-1.105,0-2,0.895-2,2v8c0,1.105,0.895,2,2,2h8c1.105,0,2-0.895,2-2v-8
			C144.5,973.895,143.605,973,142.5,973L142.5,973z"/>
	</g>
	<g>
		<path fill="#969696" d="M156.5,974.5c0.276,0,0.5,0.224,0.5,0.5v8c0,0.276-0.224,0.5-0.5,0.5h-8c-0.276,0-0.5-0.224-0.5-0.5v-8
			c0-0.276,0.224-0.5,0.5-0.5H156.5 M156.5,973h-8c-1.105,0-2,0.895-2,2v8c0,1.105,0.895,2,2,2h8c1.105,0,2-0.895,2-2v-8
			C158.5,973.895,157.605,973,156.5,973L156.5,973z"/>
	</g>
	<g>
		<path fill="#969696" d="M170.5,974.5c0.276,0,0.5,0.224,0.5,0.5v8c0,0.276-0.224,0.5-0.5,0.5h-8c-0.276,0-0.5-0.224-0.5-0.5v-8
			c0-0.276,0.224-0.5,0.5-0.5H170.5 M170.5,973h-8c-1.105,0-2,0.895-2,2v8c0,1.105,0.895,2,2,2h8c1.105,0,2-0.895,2-2v-8
			C172.5,973.895,171.605,973,170.5,973L170.5,973z"/>
	</g>
</g>
<g>
	<path fill="#969696" d="M191.409,738.626c-0.984,0.326-1.802,0.655-2.946,0.818c0.982-0.652,1.8-1.636,2.29-2.782
		c-0.982,0.655-2.126,0.984-3.274,1.146c-0.98-0.98-2.29-1.637-3.6-1.637c-2.78,0-5.072,2.292-5.072,5.075
		c0,0.325,0,0.82,0.163,1.142c-4.254-0.163-7.855-2.287-10.309-5.233c-0.491,0.82-0.654,1.637-0.654,2.455
		c0,1.799,0.818,3.274,2.29,4.254c-0.818,0-1.636-0.328-2.29-0.655l0,0c0,2.454,1.801,4.418,4.091,4.909
		c-0.492,0.167-0.818,0.167-1.31,0.167c-0.325,0-0.653,0-0.98-0.167c0.653,1.964,2.454,3.439,4.744,3.439
		c-1.801,1.308-3.925,2.125-6.22,2.125c-0.325,0-0.818,0-1.145,0c2.291,1.475,4.91,2.292,7.69,2.292
		c9.328,0,14.401-7.691,14.401-14.402c0-0.164,0-0.491,0-0.653C189.936,740.591,190.754,739.774,191.409,738.626z"/>
</g>
<path fill="#969696" d="M128.104,732.737c-7.529,0-11.291,5.399-11.291,9.818c0,2.782,0.983,5.072,3.274,6.055
	c0.328,0.163,0.654,0,0.818-0.328c0-0.328,0.166-0.984,0.328-1.309c0.163-0.326,0-0.493-0.166-0.818
	c-0.653-0.818-0.982-1.802-0.982-3.11c0-3.926,2.945-7.525,7.691-7.525c4.254,0,6.545,2.617,6.545,6.052
	c0,4.584-1.963,8.347-5.074,8.347c-1.636,0-2.947-1.308-2.455-3.109c0.491-1.964,1.472-4.091,1.472-5.562
	c0-1.312-0.653-2.291-2.126-2.291c-1.636,0-3.109,1.799-3.109,4.091c0,1.474,0.492,2.454,0.492,2.454s-1.801,7.364-1.964,8.674
	c-0.325,1.146-0.325,2.454-0.325,3.6c0.653,0.328,1.144,0.491,1.799,0.655c0.655-0.984,1.31-2.13,1.636-3.438
	c0.166-0.653,1.146-4.42,1.146-4.42c0.491,0.984,2.126,1.964,3.926,1.964c5.074,0,8.509-4.582,8.509-10.799
	C138.084,736.991,133.993,732.737,128.104,732.737z"/>
<g>
	<path fill="#969696" d="M233.02,735.66c2.382,0,4.32,1.938,4.32,4.32v11.04c0,2.382-1.938,4.32-4.32,4.32h-11.04
		c-2.382,0-4.32-1.938-4.32-4.32v-11.04c0-2.382,1.938-4.32,4.32-4.32H233.02 M233.02,733.5h-11.04c-3.579,0-6.48,2.901-6.48,6.48
		v11.04c0,3.579,2.901,6.48,6.48,6.48h11.04c3.579,0,6.48-2.901,6.48-6.48v-11.04C239.5,736.401,236.599,733.5,233.02,733.5
		L233.02,733.5z"/>
	<path fill="#969696" d="M227.5,741.66c2.117,0,3.84,1.723,3.84,3.84s-1.723,3.84-3.84,3.84c-2.117,0-3.84-1.723-3.84-3.84
		S225.383,741.66,227.5,741.66 M227.5,739.5c-3.314,0-6,2.686-6,6s2.686,6,6,6c3.314,0,6-2.686,6-6S230.814,739.5,227.5,739.5
		L227.5,739.5z"/>
	<circle fill="#969696" cx="233.92" cy="739.08" r="1.62"/>
</g>
<g>
	<path d="M191.409,788.626c-0.984,0.326-1.802,0.655-2.946,0.818c0.982-0.652,1.8-1.636,2.29-2.782
		c-0.982,0.655-2.126,0.984-3.274,1.146c-0.98-0.98-2.29-1.637-3.6-1.637c-2.78,0-5.072,2.292-5.072,5.075
		c0,0.325,0,0.82,0.163,1.142c-4.254-0.163-7.855-2.287-10.309-5.233c-0.491,0.82-0.654,1.637-0.654,2.455
		c0,1.799,0.818,3.274,2.29,4.254c-0.818,0-1.636-0.328-2.29-0.655l0,0c0,2.454,1.801,4.418,4.091,4.909
		c-0.492,0.167-0.818,0.167-1.31,0.167c-0.325,0-0.653,0-0.98-0.167c0.653,1.964,2.454,3.439,4.744,3.439
		c-1.801,1.308-3.925,2.125-6.22,2.125c-0.325,0-0.818,0-1.145,0c2.291,1.475,4.91,2.292,7.69,2.292
		c9.328,0,14.401-7.691,14.401-14.402c0-0.164,0-0.491,0-0.653C189.936,790.591,190.754,789.774,191.409,788.626z"/>
</g>
<path d="M128.104,782.737c-7.529,0-11.291,5.399-11.291,9.818c0,2.782,0.983,5.072,3.274,6.055c0.328,0.163,0.654,0,0.818-0.328
	c0-0.328,0.166-0.984,0.328-1.309c0.163-0.326,0-0.493-0.166-0.818c-0.653-0.818-0.982-1.802-0.982-3.11
	c0-3.926,2.945-7.525,7.691-7.525c4.254,0,6.545,2.617,6.545,6.052c0,4.584-1.963,8.347-5.074,8.347
	c-1.636,0-2.947-1.308-2.455-3.109c0.491-1.964,1.472-4.091,1.472-5.562c0-1.312-0.653-2.291-2.126-2.291
	c-1.636,0-3.109,1.799-3.109,4.091c0,1.474,0.492,2.454,0.492,2.454s-1.801,7.364-1.964,8.674c-0.325,1.146-0.325,2.454-0.325,3.6
	c0.653,0.328,1.144,0.491,1.799,0.655c0.655-0.984,1.31-2.13,1.636-3.438c0.166-0.653,1.146-4.42,1.146-4.42
	c0.491,0.984,2.126,1.964,3.926,1.964c5.074,0,8.509-4.582,8.509-10.799C138.084,786.991,133.993,782.737,128.104,782.737z"/>
<g>
	<path d="M233.02,785.66c2.382,0,4.32,1.938,4.32,4.32v11.04c0,2.382-1.938,4.32-4.32,4.32h-11.04c-2.382,0-4.32-1.938-4.32-4.32
		v-11.04c0-2.382,1.938-4.32,4.32-4.32H233.02 M233.02,783.5h-11.04c-3.579,0-6.48,2.901-6.48,6.48v11.04
		c0,3.579,2.901,6.48,6.48,6.48h11.04c3.579,0,6.48-2.901,6.48-6.48v-11.04C239.5,786.401,236.599,783.5,233.02,783.5L233.02,783.5z
		"/>
	<path d="M227.5,791.66c2.117,0,3.84,1.723,3.84,3.84s-1.723,3.84-3.84,3.84c-2.117,0-3.84-1.723-3.84-3.84
		S225.383,791.66,227.5,791.66 M227.5,789.5c-3.314,0-6,2.686-6,6s2.686,6,6,6c3.314,0,6-2.686,6-6S230.814,789.5,227.5,789.5
		L227.5,789.5z"/>
	<circle cx="233.92" cy="789.08" r="1.62"/>
</g>
<g>
	<path fill="#E9573F" d="M191.409,838.626c-0.984,0.326-1.802,0.655-2.946,0.818c0.982-0.652,1.8-1.636,2.29-2.782
		c-0.982,0.655-2.126,0.984-3.274,1.146c-0.98-0.98-2.29-1.637-3.6-1.637c-2.78,0-5.072,2.292-5.072,5.075
		c0,0.325,0,0.82,0.163,1.142c-4.254-0.163-7.855-2.287-10.309-5.233c-0.491,0.82-0.654,1.637-0.654,2.455
		c0,1.799,0.818,3.274,2.29,4.254c-0.818,0-1.636-0.328-2.29-0.655l0,0c0,2.454,1.801,4.418,4.091,4.909
		c-0.492,0.167-0.818,0.167-1.31,0.167c-0.325,0-0.653,0-0.98-0.167c0.653,1.964,2.454,3.439,4.744,3.439
		c-1.801,1.308-3.925,2.125-6.22,2.125c-0.325,0-0.818,0-1.145,0c2.291,1.475,4.91,2.292,7.69,2.292
		c9.328,0,14.401-7.691,14.401-14.402c0-0.164,0-0.491,0-0.653C189.936,840.591,190.754,839.774,191.409,838.626z"/>
</g>
<path fill="#E9573F" d="M128.104,832.737c-7.529,0-11.291,5.399-11.291,9.818c0,2.782,0.983,5.072,3.274,6.055
	c0.328,0.163,0.654,0,0.818-0.328c0-0.328,0.166-0.984,0.328-1.309c0.163-0.326,0-0.493-0.166-0.818
	c-0.653-0.818-0.982-1.802-0.982-3.11c0-3.926,2.945-7.525,7.691-7.525c4.254,0,6.545,2.617,6.545,6.052
	c0,4.584-1.963,8.347-5.074,8.347c-1.636,0-2.947-1.308-2.455-3.109c0.491-1.964,1.472-4.091,1.472-5.562
	c0-1.312-0.653-2.291-2.126-2.291c-1.636,0-3.109,1.799-3.109,4.091c0,1.474,0.492,2.454,0.492,2.454s-1.801,7.364-1.964,8.674
	c-0.325,1.146-0.325,2.454-0.325,3.6c0.653,0.328,1.144,0.491,1.799,0.655c0.655-0.984,1.31-2.13,1.636-3.438
	c0.166-0.653,1.146-4.42,1.146-4.42c0.491,0.984,2.126,1.964,3.926,1.964c5.074,0,8.509-4.582,8.509-10.799
	C138.084,836.991,133.993,832.737,128.104,832.737z"/>
<g>
	<path fill="#E9573F" d="M233.02,835.66c2.382,0,4.32,1.938,4.32,4.32v11.04c0,2.382-1.938,4.32-4.32,4.32h-11.04
		c-2.382,0-4.32-1.938-4.32-4.32v-11.04c0-2.382,1.938-4.32,4.32-4.32H233.02 M233.02,833.5h-11.04c-3.579,0-6.48,2.901-6.48,6.48
		v11.04c0,3.579,2.901,6.48,6.48,6.48h11.04c3.579,0,6.48-2.901,6.48-6.48v-11.04C239.5,836.401,236.599,833.5,233.02,833.5
		L233.02,833.5z"/>
	<path fill="#E9573F" d="M227.5,841.66c2.117,0,3.84,1.723,3.84,3.84s-1.723,3.84-3.84,3.84c-2.117,0-3.84-1.723-3.84-3.84
		S225.383,841.66,227.5,841.66 M227.5,839.5c-3.314,0-6,2.686-6,6s2.686,6,6,6c3.314,0,6-2.686,6-6S230.814,839.5,227.5,839.5
		L227.5,839.5z"/>
	<circle fill="#E9573F" cx="233.92" cy="839.08" r="1.62"/>
</g>
<g>
	<path fill="#E6E6E6" d="M191.409,888.626c-0.984,0.326-1.802,0.655-2.946,0.818c0.982-0.652,1.8-1.636,2.29-2.782
		c-0.982,0.655-2.126,0.984-3.274,1.146c-0.98-0.98-2.29-1.637-3.6-1.637c-2.78,0-5.072,2.292-5.072,5.075
		c0,0.325,0,0.82,0.163,1.142c-4.254-0.163-7.855-2.287-10.309-5.233c-0.491,0.82-0.654,1.637-0.654,2.455
		c0,1.799,0.818,3.274,2.29,4.254c-0.818,0-1.636-0.328-2.29-0.655l0,0c0,2.454,1.801,4.418,4.091,4.909
		c-0.492,0.167-0.818,0.167-1.31,0.167c-0.325,0-0.653,0-0.98-0.167c0.653,1.964,2.454,3.439,4.744,3.439
		c-1.801,1.308-3.925,2.125-6.22,2.125c-0.325,0-0.818,0-1.145,0c2.291,1.475,4.91,2.292,7.69,2.292
		c9.328,0,14.401-7.691,14.401-14.402c0-0.164,0-0.491,0-0.653C189.936,890.591,190.754,889.774,191.409,888.626z"/>
</g>
<path fill="#E6E6E6" d="M128.104,882.737c-7.529,0-11.291,5.399-11.291,9.818c0,2.782,0.983,5.072,3.274,6.055
	c0.328,0.163,0.654,0,0.818-0.328c0-0.328,0.166-0.984,0.328-1.309c0.163-0.326,0-0.493-0.166-0.818
	c-0.653-0.818-0.982-1.802-0.982-3.11c0-3.926,2.945-7.525,7.691-7.525c4.254,0,6.545,2.617,6.545,6.052
	c0,4.584-1.963,8.347-5.074,8.347c-1.636,0-2.947-1.308-2.455-3.109c0.491-1.964,1.472-4.091,1.472-5.562
	c0-1.312-0.653-2.291-2.126-2.291c-1.636,0-3.109,1.799-3.109,4.091c0,1.474,0.492,2.454,0.492,2.454s-1.801,7.364-1.964,8.674
	c-0.325,1.146-0.325,2.454-0.325,3.6c0.653,0.328,1.144,0.491,1.799,0.655c0.655-0.984,1.31-2.13,1.636-3.438
	c0.166-0.653,1.146-4.42,1.146-4.42c0.491,0.984,2.126,1.964,3.926,1.964c5.074,0,8.509-4.582,8.509-10.799
	C138.084,886.991,133.993,882.737,128.104,882.737z"/>
<g>
	<path fill="#E6E6E6" d="M233.02,885.66c2.382,0,4.32,1.938,4.32,4.32v11.04c0,2.382-1.938,4.32-4.32,4.32h-11.04
		c-2.382,0-4.32-1.938-4.32-4.32v-11.04c0-2.382,1.938-4.32,4.32-4.32H233.02 M233.02,883.5h-11.04c-3.579,0-6.48,2.901-6.48,6.48
		v11.04c0,3.579,2.901,6.48,6.48,6.48h11.04c3.579,0,6.48-2.901,6.48-6.48v-11.04C239.5,886.401,236.599,883.5,233.02,883.5
		L233.02,883.5z"/>
	<path fill="#E6E6E6" d="M227.5,891.66c2.117,0,3.84,1.723,3.84,3.84s-1.723,3.84-3.84,3.84c-2.117,0-3.84-1.723-3.84-3.84
		S225.383,891.66,227.5,891.66 M227.5,889.5c-3.314,0-6,2.686-6,6s2.686,6,6,6c3.314,0,6-2.686,6-6S230.814,889.5,227.5,889.5
		L227.5,889.5z"/>
	<circle fill="#E6E6E6" cx="233.92" cy="889.08" r="1.62"/>
</g>
<g>
	<g>
		<path d="M64.5,1058.5v24h-24v-24H64.5 M64.5,1057h-24c-0.828,0-1.5,0.672-1.5,1.5v24c0,0.828,0.672,1.5,1.5,1.5h24
			c0.828,0,1.5-0.672,1.5-1.5v-24C66,1057.672,65.328,1057,64.5,1057L64.5,1057z"/>
	</g>
	<path fill="none" stroke="#000000" stroke-width="1.5" stroke-miterlimit="10" d="M54.75,1061.5h6c0.828,0,1.5,0.672,1.5,1.5v6"/>
</g>
<g>
	<g>
		<path d="M142.5,1057.5c0.276,0,0.5,0.224,0.5,0.5v8c0,0.276-0.224,0.5-0.5,0.5h-8c-0.276,0-0.5-0.224-0.5-0.5v-8
			c0-0.276,0.224-0.5,0.5-0.5H142.5 M142.5,1056h-8c-1.105,0-2,0.895-2,2v8c0,1.105,0.895,2,2,2h8c1.105,0,2-0.895,2-2v-8
			C144.5,1056.895,143.605,1056,142.5,1056L142.5,1056z"/>
	</g>
	<g>
		<path d="M156.5,1057.5c0.276,0,0.5,0.224,0.5,0.5v8c0,0.276-0.224,0.5-0.5,0.5h-8c-0.276,0-0.5-0.224-0.5-0.5v-8
			c0-0.276,0.224-0.5,0.5-0.5H156.5 M156.5,1056h-8c-1.105,0-2,0.895-2,2v8c0,1.105,0.895,2,2,2h8c1.105,0,2-0.895,2-2v-8
			C158.5,1056.895,157.605,1056,156.5,1056L156.5,1056z"/>
	</g>
	<g>
		<path d="M170.5,1057.5c0.276,0,0.5,0.224,0.5,0.5v8c0,0.276-0.224,0.5-0.5,0.5h-8c-0.276,0-0.5-0.224-0.5-0.5v-8
			c0-0.276,0.224-0.5,0.5-0.5H170.5 M170.5,1056h-8c-1.105,0-2,0.895-2,2v8c0,1.105,0.895,2,2,2h8c1.105,0,2-0.895,2-2v-8
			C172.5,1056.895,171.605,1056,170.5,1056L170.5,1056z"/>
	</g>
	<g>
		<path d="M142.5,1074.5c0.276,0,0.5,0.224,0.5,0.5v8c0,0.276-0.224,0.5-0.5,0.5h-8c-0.276,0-0.5-0.224-0.5-0.5v-8
			c0-0.276,0.224-0.5,0.5-0.5H142.5 M142.5,1073h-8c-1.105,0-2,0.895-2,2v8c0,1.105,0.895,2,2,2h8c1.105,0,2-0.895,2-2v-8
			C144.5,1073.895,143.605,1073,142.5,1073L142.5,1073z"/>
	</g>
	<g>
		<path d="M156.5,1074.5c0.276,0,0.5,0.224,0.5,0.5v8c0,0.276-0.224,0.5-0.5,0.5h-8c-0.276,0-0.5-0.224-0.5-0.5v-8
			c0-0.276,0.224-0.5,0.5-0.5H156.5 M156.5,1073h-8c-1.105,0-2,0.895-2,2v8c0,1.105,0.895,2,2,2h8c1.105,0,2-0.895,2-2v-8
			C158.5,1073.895,157.605,1073,156.5,1073L156.5,1073z"/>
	</g>
	<g>
		<path d="M170.5,1074.5c0.276,0,0.5,0.224,0.5,0.5v8c0,0.276-0.224,0.5-0.5,0.5h-8c-0.276,0-0.5-0.224-0.5-0.5v-8
			c0-0.276,0.224-0.5,0.5-0.5H170.5 M170.5,1073h-8c-1.105,0-2,0.895-2,2v8c0,1.105,0.895,2,2,2h8c1.105,0,2-0.895,2-2v-8
			C172.5,1073.895,171.605,1073,170.5,1073L170.5,1073z"/>
	</g>
</g>
<g>
	<g>
		<path fill="#E9573F" d="M64.5,1158.5v24h-24v-24H64.5 M64.5,1157h-24c-0.828,0-1.5,0.672-1.5,1.5v24c0,0.828,0.672,1.5,1.5,1.5h24
			c0.828,0,1.5-0.672,1.5-1.5v-24C66,1157.672,65.328,1157,64.5,1157L64.5,1157z"/>
	</g>
	<path fill="none" stroke="#E9573F" stroke-width="1.5" stroke-miterlimit="10" d="M54.75,1161.5h6c0.828,0,1.5,0.672,1.5,1.5v6"/>
</g>
<g>
	<g>
		<path fill="#E9573F" d="M142.5,1157.5c0.276,0,0.5,0.224,0.5,0.5v8c0,0.276-0.224,0.5-0.5,0.5h-8c-0.276,0-0.5-0.224-0.5-0.5v-8
			c0-0.276,0.224-0.5,0.5-0.5H142.5 M142.5,1156h-8c-1.105,0-2,0.895-2,2v8c0,1.105,0.895,2,2,2h8c1.105,0,2-0.895,2-2v-8
			C144.5,1156.895,143.605,1156,142.5,1156L142.5,1156z"/>
	</g>
	<g>
		<path fill="#E9573F" d="M156.5,1157.5c0.276,0,0.5,0.224,0.5,0.5v8c0,0.276-0.224,0.5-0.5,0.5h-8c-0.276,0-0.5-0.224-0.5-0.5v-8
			c0-0.276,0.224-0.5,0.5-0.5H156.5 M156.5,1156h-8c-1.105,0-2,0.895-2,2v8c0,1.105,0.895,2,2,2h8c1.105,0,2-0.895,2-2v-8
			C158.5,1156.895,157.605,1156,156.5,1156L156.5,1156z"/>
	</g>
	<g>
		<path fill="#E9573F" d="M170.5,1157.5c0.276,0,0.5,0.224,0.5,0.5v8c0,0.276-0.224,0.5-0.5,0.5h-8c-0.276,0-0.5-0.224-0.5-0.5v-8
			c0-0.276,0.224-0.5,0.5-0.5H170.5 M170.5,1156h-8c-1.105,0-2,0.895-2,2v8c0,1.105,0.895,2,2,2h8c1.105,0,2-0.895,2-2v-8
			C172.5,1156.895,171.605,1156,170.5,1156L170.5,1156z"/>
	</g>
	<g>
		<path fill="#E9573F" d="M142.5,1174.5c0.276,0,0.5,0.224,0.5,0.5v8c0,0.276-0.224,0.5-0.5,0.5h-8c-0.276,0-0.5-0.224-0.5-0.5v-8
			c0-0.276,0.224-0.5,0.5-0.5H142.5 M142.5,1173h-8c-1.105,0-2,0.895-2,2v8c0,1.105,0.895,2,2,2h8c1.105,0,2-0.895,2-2v-8
			C144.5,1173.895,143.605,1173,142.5,1173L142.5,1173z"/>
	</g>
	<g>
		<path fill="#E9573F" d="M156.5,1174.5c0.276,0,0.5,0.224,0.5,0.5v8c0,0.276-0.224,0.5-0.5,0.5h-8c-0.276,0-0.5-0.224-0.5-0.5v-8
			c0-0.276,0.224-0.5,0.5-0.5H156.5 M156.5,1173h-8c-1.105,0-2,0.895-2,2v8c0,1.105,0.895,2,2,2h8c1.105,0,2-0.895,2-2v-8
			C158.5,1173.895,157.605,1173,156.5,1173L156.5,1173z"/>
	</g>
	<g>
		<path fill="#E9573F" d="M170.5,1174.5c0.276,0,0.5,0.224,0.5,0.5v8c0,0.276-0.224,0.5-0.5,0.5h-8c-0.276,0-0.5-0.224-0.5-0.5v-8
			c0-0.276,0.224-0.5,0.5-0.5H170.5 M170.5,1173h-8c-1.105,0-2,0.895-2,2v8c0,1.105,0.895,2,2,2h8c1.105,0,2-0.895,2-2v-8
			C172.5,1173.895,171.605,1173,170.5,1173L170.5,1173z"/>
	</g>
</g>
<g>
	<g>
		<path fill="#E6E6E6" d="M64.5,1258.5v24h-24v-24H64.5 M64.5,1257h-24c-0.828,0-1.5,0.672-1.5,1.5v24c0,0.828,0.672,1.5,1.5,1.5h24
			c0.828,0,1.5-0.672,1.5-1.5v-24C66,1257.672,65.328,1257,64.5,1257L64.5,1257z"/>
	</g>
	<path fill="none" stroke="#E6E6E6" stroke-width="1.5" stroke-miterlimit="10" d="M54.75,1261.5h6c0.828,0,1.5,0.672,1.5,1.5v6"/>
</g>
<g>
	<g>
		<path fill="#E6E6E6" d="M142.5,1257.5c0.276,0,0.5,0.224,0.5,0.5v8c0,0.276-0.224,0.5-0.5,0.5h-8c-0.276,0-0.5-0.224-0.5-0.5v-8
			c0-0.276,0.224-0.5,0.5-0.5H142.5 M142.5,1256h-8c-1.105,0-2,0.896-2,2v8c0,1.104,0.895,2,2,2h8c1.105,0,2-0.896,2-2v-8
			C144.5,1256.896,143.605,1256,142.5,1256L142.5,1256z"/>
	</g>
	<g>
		<path fill="#E6E6E6" d="M156.5,1257.5c0.276,0,0.5,0.224,0.5,0.5v8c0,0.276-0.224,0.5-0.5,0.5h-8c-0.276,0-0.5-0.224-0.5-0.5v-8
			c0-0.276,0.224-0.5,0.5-0.5H156.5 M156.5,1256h-8c-1.105,0-2,0.896-2,2v8c0,1.104,0.895,2,2,2h8c1.105,0,2-0.896,2-2v-8
			C158.5,1256.896,157.605,1256,156.5,1256L156.5,1256z"/>
	</g>
	<g>
		<path fill="#E6E6E6" d="M170.5,1257.5c0.276,0,0.5,0.224,0.5,0.5v8c0,0.276-0.224,0.5-0.5,0.5h-8c-0.276,0-0.5-0.224-0.5-0.5v-8
			c0-0.276,0.224-0.5,0.5-0.5H170.5 M170.5,1256h-8c-1.105,0-2,0.896-2,2v8c0,1.104,0.895,2,2,2h8c1.105,0,2-0.896,2-2v-8
			C172.5,1256.896,171.605,1256,170.5,1256L170.5,1256z"/>
	</g>
	<g>
		<path fill="#E6E6E6" d="M142.5,1274.5c0.276,0,0.5,0.224,0.5,0.5v8c0,0.276-0.224,0.5-0.5,0.5h-8c-0.276,0-0.5-0.224-0.5-0.5v-8
			c0-0.276,0.224-0.5,0.5-0.5H142.5 M142.5,1273h-8c-1.105,0-2,0.896-2,2v8c0,1.104,0.895,2,2,2h8c1.105,0,2-0.896,2-2v-8
			C144.5,1273.896,143.605,1273,142.5,1273L142.5,1273z"/>
	</g>
	<g>
		<path fill="#E6E6E6" d="M156.5,1274.5c0.276,0,0.5,0.224,0.5,0.5v8c0,0.276-0.224,0.5-0.5,0.5h-8c-0.276,0-0.5-0.224-0.5-0.5v-8
			c0-0.276,0.224-0.5,0.5-0.5H156.5 M156.5,1273h-8c-1.105,0-2,0.896-2,2v8c0,1.104,0.895,2,2,2h8c1.105,0,2-0.896,2-2v-8
			C158.5,1273.896,157.605,1273,156.5,1273L156.5,1273z"/>
	</g>
	<g>
		<path fill="#E6E6E6" d="M170.5,1274.5c0.276,0,0.5,0.224,0.5,0.5v8c0,0.276-0.224,0.5-0.5,0.5h-8c-0.276,0-0.5-0.224-0.5-0.5v-8
			c0-0.276,0.224-0.5,0.5-0.5H170.5 M170.5,1273h-8c-1.105,0-2,0.896-2,2v8c0,1.104,0.895,2,2,2h8c1.105,0,2-0.896,2-2v-8
			C172.5,1273.896,171.605,1273,170.5,1273L170.5,1273z"/>
	</g>
</g>
</svg>
