<?xml version="1.0" encoding="utf-8"?>
<!-- Generator: Adobe Illustrator 17.0.0, SVG Export Plug-In . SVG Version: 6.00 Build 0)  -->
<!DOCTYPE svg PUBLIC "-//W3C//DTD SVG 1.1//EN" "http://www.w3.org/Graphics/SVG/1.1/DTD/svg11.dtd">
<svg version="1.1" id="圖層_1" xmlns="http://www.w3.org/2000/svg" xmlns:xlink="http://www.w3.org/1999/xlink" x="0px" y="0px"
	 width="600px" height="600px" viewBox="2.5 720.5 600 600" enable-background="new 2.5 720.5 600 600" xml:space="preserve">
<g>
	<g>
		<path fill="#969696" d="M39.5,733.5v24h-24v-24H39.5 M39.5,732h-24c-0.828,0-1.5,0.672-1.5,1.5v24c0,0.828,0.672,1.5,1.5,1.5h24
			c0.828,0,1.5-0.672,1.5-1.5v-24C41,732.672,40.328,732,39.5,732L39.5,732z"/>
	</g>
	<path fill="none" stroke="#969696" stroke-width="1.5" stroke-miterlimit="10" d="M29.75,736.5h6c0.828,0,1.5,0.672,1.5,1.5v6"/>
</g>
<g>
	<g>
		<path d="M39.5,783.5v24h-24v-24H39.5 M39.5,782h-24c-0.828,0-1.5,0.672-1.5,1.5v24c0,0.828,0.672,1.5,1.5,1.5h24
			c0.828,0,1.5-0.672,1.5-1.5v-24C41,782.672,40.328,782,39.5,782L39.5,782z"/>
	</g>
	<path fill="none" stroke="#000000" stroke-width="1.5" stroke-miterlimit="10" d="M29.75,786.5h6c0.828,0,1.5,0.672,1.5,1.5v6"/>
</g>
<g>
	<g>
		<path fill="#E9573F" d="M39.5,833.5v24h-24v-24H39.5 M39.5,832h-24c-0.828,0-1.5,0.672-1.5,1.5v24c0,0.828,0.672,1.5,1.5,1.5h24
			c0.828,0,1.5-0.672,1.5-1.5v-24C41,832.672,40.328,832,39.5,832L39.5,832z"/>
	</g>
	<path fill="none" stroke="#E9573F" stroke-width="1.5" stroke-miterlimit="10" d="M29.75,836.5h6c0.828,0,1.5,0.672,1.5,1.5v6"/>
</g>
<g>
	<g>
		<path fill="#E6E6E6" d="M39.5,883.5v24h-24v-24H39.5 M39.5,882h-24c-0.828,0-1.5,0.672-1.5,1.5v24c0,0.828,0.672,1.5,1.5,1.5h24
			c0.828,0,1.5-0.672,1.5-1.5v-24C41,882.672,40.328,882,39.5,882L39.5,882z"/>
	</g>
	<path fill="none" stroke="#E6E6E6" stroke-width="1.5" stroke-miterlimit="10" d="M29.75,886.5h6c0.828,0,1.5,0.672,1.5,1.5v6"/>
</g>
<g>
	<g>
		<path fill="#969696" d="M67.5,732.5c0.276,0,0.5,0.224,0.5,0.5v8c0,0.276-0.224,0.5-0.5,0.5h-8c-0.276,0-0.5-0.224-0.5-0.5v-8
			c0-0.276,0.224-0.5,0.5-0.5H67.5 M67.5,731h-8c-1.105,0-2,0.895-2,2v8c0,1.105,0.895,2,2,2h8c1.105,0,2-0.895,2-2v-8
			C69.5,731.895,68.605,731,67.5,731L67.5,731z"/>
	</g>
	<g>
		<path fill="#969696" d="M81.5,732.5c0.276,0,0.5,0.224,0.5,0.5v8c0,0.276-0.224,0.5-0.5,0.5h-8c-0.276,0-0.5-0.224-0.5-0.5v-8
			c0-0.276,0.224-0.5,0.5-0.5H81.5 M81.5,731h-8c-1.105,0-2,0.895-2,2v8c0,1.105,0.895,2,2,2h8c1.105,0,2-0.895,2-2v-8
			C83.5,731.895,82.605,731,81.5,731L81.5,731z"/>
	</g>
	<g>
		<path fill="#969696" d="M95.5,732.5c0.276,0,0.5,0.224,0.5,0.5v8c0,0.276-0.224,0.5-0.5,0.5h-8c-0.276,0-0.5-0.224-0.5-0.5v-8
			c0-0.276,0.224-0.5,0.5-0.5H95.5 M95.5,731h-8c-1.105,0-2,0.895-2,2v8c0,1.105,0.895,2,2,2h8c1.105,0,2-0.895,2-2v-8
			C97.5,731.895,96.605,731,95.5,731L95.5,731z"/>
	</g>
	<g>
		<path fill="#969696" d="M67.5,749.5c0.276,0,0.5,0.224,0.5,0.5v8c0,0.276-0.224,0.5-0.5,0.5h-8c-0.276,0-0.5-0.224-0.5-0.5v-8
			c0-0.276,0.224-0.5,0.5-0.5H67.5 M67.5,748h-8c-1.105,0-2,0.895-2,2v8c0,1.105,0.895,2,2,2h8c1.105,0,2-0.895,2-2v-8
			C69.5,748.895,68.605,748,67.5,748L67.5,748z"/>
	</g>
	<g>
		<path fill="#969696" d="M81.5,749.5c0.276,0,0.5,0.224,0.5,0.5v8c0,0.276-0.224,0.5-0.5,0.5h-8c-0.276,0-0.5-0.224-0.5-0.5v-8
			c0-0.276,0.224-0.5,0.5-0.5H81.5 M81.5,748h-8c-1.105,0-2,0.895-2,2v8c0,1.105,0.895,2,2,2h8c1.105,0,2-0.895,2-2v-8
			C83.5,748.895,82.605,748,81.5,748L81.5,748z"/>
	</g>
	<g>
		<path fill="#969696" d="M95.5,749.5c0.276,0,0.5,0.224,0.5,0.5v8c0,0.276-0.224,0.5-0.5,0.5h-8c-0.276,0-0.5-0.224-0.5-0.5v-8
			c0-0.276,0.224-0.5,0.5-0.5H95.5 M95.5,748h-8c-1.105,0-2,0.895-2,2v8c0,1.105,0.895,2,2,2h8c1.105,0,2-0.895,2-2v-8
			C97.5,748.895,96.605,748,95.5,748L95.5,748z"/>
	</g>
</g>
<g>
	<g>
		<path d="M67.5,782.5c0.276,0,0.5,0.224,0.5,0.5v8c0,0.276-0.224,0.5-0.5,0.5h-8c-0.276,0-0.5-0.224-0.5-0.5v-8
			c0-0.276,0.224-0.5,0.5-0.5H67.5 M67.5,781h-8c-1.105,0-2,0.895-2,2v8c0,1.105,0.895,2,2,2h8c1.105,0,2-0.895,2-2v-8
			C69.5,781.895,68.605,781,67.5,781L67.5,781z"/>
	</g>
	<g>
		<path d="M81.5,782.5c0.276,0,0.5,0.224,0.5,0.5v8c0,0.276-0.224,0.5-0.5,0.5h-8c-0.276,0-0.5-0.224-0.5-0.5v-8
			c0-0.276,0.224-0.5,0.5-0.5H81.5 M81.5,781h-8c-1.105,0-2,0.895-2,2v8c0,1.105,0.895,2,2,2h8c1.105,0,2-0.895,2-2v-8
			C83.5,781.895,82.605,781,81.5,781L81.5,781z"/>
	</g>
	<g>
		<path d="M95.5,782.5c0.276,0,0.5,0.224,0.5,0.5v8c0,0.276-0.224,0.5-0.5,0.5h-8c-0.276,0-0.5-0.224-0.5-0.5v-8
			c0-0.276,0.224-0.5,0.5-0.5H95.5 M95.5,781h-8c-1.105,0-2,0.895-2,2v8c0,1.105,0.895,2,2,2h8c1.105,0,2-0.895,2-2v-8
			C97.5,781.895,96.605,781,95.5,781L95.5,781z"/>
	</g>
	<g>
		<path d="M67.5,799.5c0.276,0,0.5,0.224,0.5,0.5v8c0,0.276-0.224,0.5-0.5,0.5h-8c-0.276,0-0.5-0.224-0.5-0.5v-8
			c0-0.276,0.224-0.5,0.5-0.5H67.5 M67.5,798h-8c-1.105,0-2,0.895-2,2v8c0,1.105,0.895,2,2,2h8c1.105,0,2-0.895,2-2v-8
			C69.5,798.895,68.605,798,67.5,798L67.5,798z"/>
	</g>
	<g>
		<path d="M81.5,799.5c0.276,0,0.5,0.224,0.5,0.5v8c0,0.276-0.224,0.5-0.5,0.5h-8c-0.276,0-0.5-0.224-0.5-0.5v-8
			c0-0.276,0.224-0.5,0.5-0.5H81.5 M81.5,798h-8c-1.105,0-2,0.895-2,2v8c0,1.105,0.895,2,2,2h8c1.105,0,2-0.895,2-2v-8
			C83.5,798.895,82.605,798,81.5,798L81.5,798z"/>
	</g>
	<g>
		<path d="M95.5,799.5c0.276,0,0.5,0.224,0.5,0.5v8c0,0.276-0.224,0.5-0.5,0.5h-8c-0.276,0-0.5-0.224-0.5-0.5v-8
			c0-0.276,0.224-0.5,0.5-0.5H95.5 M95.5,798h-8c-1.105,0-2,0.895-2,2v8c0,1.105,0.895,2,2,2h8c1.105,0,2-0.895,2-2v-8
			C97.5,798.895,96.605,798,95.5,798L95.5,798z"/>
	</g>
</g>
<g>
	<g>
		<path fill="#E9573F" d="M67.5,832.5c0.276,0,0.5,0.224,0.5,0.5v8c0,0.276-0.224,0.5-0.5,0.5h-8c-0.276,0-0.5-0.224-0.5-0.5v-8
			c0-0.276,0.224-0.5,0.5-0.5H67.5 M67.5,831h-8c-1.105,0-2,0.895-2,2v8c0,1.105,0.895,2,2,2h8c1.105,0,2-0.895,2-2v-8
			C69.5,831.895,68.605,831,67.5,831L67.5,831z"/>
	</g>
	<g>
		<path fill="#E9573F" d="M81.5,832.5c0.276,0,0.5,0.224,0.5,0.5v8c0,0.276-0.224,0.5-0.5,0.5h-8c-0.276,0-0.5-0.224-0.5-0.5v-8
			c0-0.276,0.224-0.5,0.5-0.5H81.5 M81.5,831h-8c-1.105,0-2,0.895-2,2v8c0,1.105,0.895,2,2,2h8c1.105,0,2-0.895,2-2v-8
			C83.5,831.895,82.605,831,81.5,831L81.5,831z"/>
	</g>
	<g>
		<path fill="#E9573F" d="M95.5,832.5c0.276,0,0.5,0.224,0.5,0.5v8c0,0.276-0.224,0.5-0.5,0.5h-8c-0.276,0-0.5-0.224-0.5-0.5v-8
			c0-0.276,0.224-0.5,0.5-0.5H95.5 M95.5,831h-8c-1.105,0-2,0.895-2,2v8c0,1.105,0.895,2,2,2h8c1.105,0,2-0.895,2-2v-8
			C97.5,831.895,96.605,831,95.5,831L95.5,831z"/>
	</g>
	<g>
		<path fill="#E9573F" d="M67.5,849.5c0.276,0,0.5,0.224,0.5,0.5v8c0,0.276-0.224,0.5-0.5,0.5h-8c-0.276,0-0.5-0.224-0.5-0.5v-8
			c0-0.276,0.224-0.5,0.5-0.5H67.5 M67.5,848h-8c-1.105,0-2,0.895-2,2v8c0,1.105,0.895,2,2,2h8c1.105,0,2-0.895,2-2v-8
			C69.5,848.895,68.605,848,67.5,848L67.5,848z"/>
	</g>
	<g>
		<path fill="#E9573F" d="M81.5,849.5c0.276,0,0.5,0.224,0.5,0.5v8c0,0.276-0.224,0.5-0.5,0.5h-8c-0.276,0-0.5-0.224-0.5-0.5v-8
			c0-0.276,0.224-0.5,0.5-0.5H81.5 M81.5,848h-8c-1.105,0-2,0.895-2,2v8c0,1.105,0.895,2,2,2h8c1.105,0,2-0.895,2-2v-8
			C83.5,848.895,82.605,848,81.5,848L81.5,848z"/>
	</g>
	<g>
		<path fill="#E9573F" d="M95.5,849.5c0.276,0,0.5,0.224,0.5,0.5v8c0,0.276-0.224,0.5-0.5,0.5h-8c-0.276,0-0.5-0.224-0.5-0.5v-8
			c0-0.276,0.224-0.5,0.5-0.5H95.5 M95.5,848h-8c-1.105,0-2,0.895-2,2v8c0,1.105,0.895,2,2,2h8c1.105,0,2-0.895,2-2v-8
			C97.5,848.895,96.605,848,95.5,848L95.5,848z"/>
	</g>
</g>
<g>
	<g>
		<path fill="#E6E6E6" d="M67.5,882.5c0.276,0,0.5,0.224,0.5,0.5v8c0,0.276-0.224,0.5-0.5,0.5h-8c-0.276,0-0.5-0.224-0.5-0.5v-8
			c0-0.276,0.224-0.5,0.5-0.5H67.5 M67.5,881h-8c-1.105,0-2,0.895-2,2v8c0,1.105,0.895,2,2,2h8c1.105,0,2-0.895,2-2v-8
			C69.5,881.895,68.605,881,67.5,881L67.5,881z"/>
	</g>
	<g>
		<path fill="#E6E6E6" d="M81.5,882.5c0.276,0,0.5,0.224,0.5,0.5v8c0,0.276-0.224,0.5-0.5,0.5h-8c-0.276,0-0.5-0.224-0.5-0.5v-8
			c0-0.276,0.224-0.5,0.5-0.5H81.5 M81.5,881h-8c-1.105,0-2,0.895-2,2v8c0,1.105,0.895,2,2,2h8c1.105,0,2-0.895,2-2v-8
			C83.5,881.895,82.605,881,81.5,881L81.5,881z"/>
	</g>
	<g>
		<path fill="#E6E6E6" d="M95.5,882.5c0.276,0,0.5,0.224,0.5,0.5v8c0,0.276-0.224,0.5-0.5,0.5h-8c-0.276,0-0.5-0.224-0.5-0.5v-8
			c0-0.276,0.224-0.5,0.5-0.5H95.5 M95.5,881h-8c-1.105,0-2,0.895-2,2v8c0,1.105,0.895,2,2,2h8c1.105,0,2-0.895,2-2v-8
			C97.5,881.895,96.605,881,95.5,881L95.5,881z"/>
	</g>
	<g>
		<path fill="#E6E6E6" d="M67.5,899.5c0.276,0,0.5,0.224,0.5,0.5v8c0,0.276-0.224,0.5-0.5,0.5h-8c-0.276,0-0.5-0.224-0.5-0.5v-8
			c0-0.276,0.224-0.5,0.5-0.5H67.5 M67.5,898h-8c-1.105,0-2,0.895-2,2v8c0,1.105,0.895,2,2,2h8c1.105,0,2-0.895,2-2v-8
			C69.5,898.895,68.605,898,67.5,898L67.5,898z"/>
	</g>
	<g>
		<path fill="#E6E6E6" d="M81.5,899.5c0.276,0,0.5,0.224,0.5,0.5v8c0,0.276-0.224,0.5-0.5,0.5h-8c-0.276,0-0.5-0.224-0.5-0.5v-8
			c0-0.276,0.224-0.5,0.5-0.5H81.5 M81.5,898h-8c-1.105,0-2,0.895-2,2v8c0,1.105,0.895,2,2,2h8c1.105,0,2-0.895,2-2v-8
			C83.5,898.895,82.605,898,81.5,898L81.5,898z"/>
	</g>
	<g>
		<path fill="#E6E6E6" d="M95.5,899.5c0.276,0,0.5,0.224,0.5,0.5v8c0,0.276-0.224,0.5-0.5,0.5h-8c-0.276,0-0.5-0.224-0.5-0.5v-8
			c0-0.276,0.224-0.5,0.5-0.5H95.5 M95.5,898h-8c-1.105,0-2,0.895-2,2v8c0,1.105,0.895,2,2,2h8c1.105,0,2-0.895,2-2v-8
			C97.5,898.895,96.605,898,95.5,898L95.5,898z"/>
	</g>
</g>
<g>
	<path fill="#969696" d="M191.409,738.626c-0.984,0.326-1.802,0.655-2.946,0.818c0.982-0.652,1.8-1.636,2.29-2.782
		c-0.982,0.655-2.126,0.984-3.274,1.146c-0.98-0.98-2.29-1.637-3.6-1.637c-2.78,0-5.072,2.292-5.072,5.075
		c0,0.325,0,0.82,0.163,1.142c-4.254-0.163-7.855-2.287-10.309-5.233c-0.491,0.82-0.654,1.637-0.654,2.455
		c0,1.799,0.818,3.274,2.29,4.254c-0.818,0-1.636-0.328-2.29-0.655l0,0c0,2.454,1.801,4.418,4.091,4.909
		c-0.492,0.167-0.818,0.167-1.31,0.167c-0.325,0-0.653,0-0.98-0.167c0.653,1.964,2.454,3.439,4.744,3.439
		c-1.801,1.308-3.925,2.125-6.22,2.125c-0.325,0-0.818,0-1.145,0c2.291,1.475,4.91,2.292,7.69,2.292
		c9.328,0,14.401-7.691,14.401-14.402c0-0.164,0-0.491,0-0.653C189.936,740.591,190.754,739.774,191.409,738.626z"/>
</g>
<path fill="#969696" d="M128.104,732.737c-7.529,0-11.291,5.399-11.291,9.818c0,2.782,0.983,5.072,3.274,6.055
	c0.328,0.163,0.654,0,0.818-0.328c0-0.328,0.166-0.984,0.328-1.309c0.163-0.326,0-0.493-0.166-0.818
	c-0.653-0.818-0.982-1.802-0.982-3.11c0-3.926,2.945-7.525,7.691-7.525c4.254,0,6.545,2.617,6.545,6.052
	c0,4.584-1.963,8.347-5.074,8.347c-1.636,0-2.947-1.308-2.455-3.109c0.491-1.964,1.472-4.091,1.472-5.562
	c0-1.312-0.653-2.291-2.126-2.291c-1.636,0-3.109,1.799-3.109,4.091c0,1.474,0.492,2.454,0.492,2.454s-1.801,7.364-1.964,8.674
	c-0.325,1.146-0.325,2.454-0.325,3.6c0.653,0.328,1.144,0.491,1.799,0.655c0.655-0.984,1.31-2.13,1.636-3.438
	c0.166-0.653,1.146-4.42,1.146-4.42c0.491,0.984,2.126,1.964,3.926,1.964c5.074,0,8.509-4.582,8.509-10.799
	C138.084,736.991,133.993,732.737,128.104,732.737z"/>
<g>
	<path fill="#969696" d="M233.02,735.66c2.382,0,4.32,1.938,4.32,4.32v11.04c0,2.382-1.938,4.32-4.32,4.32h-11.04
		c-2.382,0-4.32-1.938-4.32-4.32v-11.04c0-2.382,1.938-4.32,4.32-4.32H233.02 M233.02,733.5h-11.04c-3.579,0-6.48,2.901-6.48,6.48
		v11.04c0,3.579,2.901,6.48,6.48,6.48h11.04c3.579,0,6.48-2.901,6.48-6.48v-11.04C239.5,736.401,236.599,733.5,233.02,733.5
		L233.02,733.5z"/>
	<path fill="#969696" d="M227.5,741.66c2.117,0,3.84,1.723,3.84,3.84s-1.723,3.84-3.84,3.84c-2.117,0-3.84-1.723-3.84-3.84
		S225.383,741.66,227.5,741.66 M227.5,739.5c-3.314,0-6,2.686-6,6s2.686,6,6,6c3.314,0,6-2.686,6-6S230.814,739.5,227.5,739.5
		L227.5,739.5z"/>
	<circle fill="#969696" cx="233.92" cy="739.08" r="1.62"/>
</g>
<g>
	<g>
		<g>
			<path d="M297.1,1002.3c1.985,0,3.6,1.615,3.6,3.6v9.2c0,1.985-1.615,3.6-3.6,3.6h-9.2c-1.985,0-3.6-1.615-3.6-3.6v-9.2
				c0-1.985,1.615-3.6,3.6-3.6H297.1 M297.1,1000.5h-9.2c-2.982,0-5.4,2.418-5.4,5.4v9.2c0,2.982,2.418,5.4,5.4,5.4h9.2
				c2.982,0,5.4-2.418,5.4-5.4v-9.2C302.5,1002.918,300.082,1000.5,297.1,1000.5L297.1,1000.5z"/>
		</g>
	</g>
	<g>
		<path d="M292.5,1007.3c1.764,0,3.2,1.435,3.2,3.2s-1.436,3.2-3.2,3.2s-3.2-1.435-3.2-3.2S290.736,1007.3,292.5,1007.3
			 M292.5,1005.5c-2.761,0-5,2.239-5,5s2.239,5,5,5s5-2.239,5-5S295.261,1005.5,292.5,1005.5L292.5,1005.5z"/>
	</g>
	<circle cx="297.85" cy="1005.15" r="1.35"/>
</g>
<g>
	<path d="M191.409,788.626c-0.984,0.326-1.802,0.655-2.946,0.818c0.982-0.652,1.8-1.636,2.29-2.782
		c-0.982,0.655-2.126,0.984-3.274,1.146c-0.98-0.98-2.29-1.637-3.6-1.637c-2.78,0-5.072,2.292-5.072,5.075
		c0,0.325,0,0.82,0.163,1.142c-4.254-0.163-7.855-2.287-10.309-5.233c-0.491,0.82-0.654,1.637-0.654,2.455
		c0,1.799,0.818,3.274,2.29,4.254c-0.818,0-1.636-0.328-2.29-0.655l0,0c0,2.454,1.801,4.418,4.091,4.909
		c-0.492,0.167-0.818,0.167-1.31,0.167c-0.325,0-0.653,0-0.98-0.167c0.653,1.964,2.454,3.439,4.744,3.439
		c-1.801,1.308-3.925,2.125-6.22,2.125c-0.325,0-0.818,0-1.145,0c2.291,1.475,4.91,2.292,7.69,2.292
		c9.328,0,14.401-7.691,14.401-14.402c0-0.164,0-0.491,0-0.653C189.936,790.591,190.754,789.774,191.409,788.626z"/>
</g>
<path d="M128.104,782.737c-7.529,0-11.291,5.399-11.291,9.818c0,2.782,0.983,5.072,3.274,6.055c0.328,0.163,0.654,0,0.818-0.328
	c0-0.328,0.166-0.984,0.328-1.309c0.163-0.326,0-0.493-0.166-0.818c-0.653-0.818-0.982-1.802-0.982-3.11
	c0-3.926,2.945-7.525,7.691-7.525c4.254,0,6.545,2.617,6.545,6.052c0,4.584-1.963,8.347-5.074,8.347
	c-1.636,0-2.947-1.308-2.455-3.109c0.491-1.964,1.472-4.091,1.472-5.562c0-1.312-0.653-2.291-2.126-2.291
	c-1.636,0-3.109,1.799-3.109,4.091c0,1.474,0.492,2.454,0.492,2.454s-1.801,7.364-1.964,8.674c-0.325,1.146-0.325,2.454-0.325,3.6
	c0.653,0.328,1.144,0.491,1.799,0.655c0.655-0.984,1.31-2.13,1.636-3.438c0.166-0.653,1.146-4.42,1.146-4.42
	c0.491,0.984,2.126,1.964,3.926,1.964c5.074,0,8.509-4.582,8.509-10.799C138.084,786.991,133.993,782.737,128.104,782.737z"/>
<g>
	<path d="M233.02,785.66c2.382,0,4.32,1.938,4.32,4.32v11.04c0,2.382-1.938,4.32-4.32,4.32h-11.04c-2.382,0-4.32-1.938-4.32-4.32
		v-11.04c0-2.382,1.938-4.32,4.32-4.32H233.02 M233.02,783.5h-11.04c-3.579,0-6.48,2.901-6.48,6.48v11.04
		c0,3.579,2.901,6.48,6.48,6.48h11.04c3.579,0,6.48-2.901,6.48-6.48v-11.04C239.5,786.401,236.599,783.5,233.02,783.5L233.02,783.5z
		"/>
	<path d="M227.5,791.66c2.117,0,3.84,1.723,3.84,3.84s-1.723,3.84-3.84,3.84c-2.117,0-3.84-1.723-3.84-3.84
		S225.383,791.66,227.5,791.66 M227.5,789.5c-3.314,0-6,2.686-6,6s2.686,6,6,6c3.314,0,6-2.686,6-6S230.814,789.5,227.5,789.5
		L227.5,789.5z"/>
	<circle cx="233.92" cy="789.08" r="1.62"/>
</g>
<g>
	<path fill="#E9573F" d="M191.409,838.626c-0.984,0.326-1.802,0.655-2.946,0.818c0.982-0.652,1.8-1.636,2.29-2.782
		c-0.982,0.655-2.126,0.984-3.274,1.146c-0.98-0.98-2.29-1.637-3.6-1.637c-2.78,0-5.072,2.292-5.072,5.075
		c0,0.325,0,0.82,0.163,1.142c-4.254-0.163-7.855-2.287-10.309-5.233c-0.491,0.82-0.654,1.637-0.654,2.455
		c0,1.799,0.818,3.274,2.29,4.254c-0.818,0-1.636-0.328-2.29-0.655l0,0c0,2.454,1.801,4.418,4.091,4.909
		c-0.492,0.167-0.818,0.167-1.31,0.167c-0.325,0-0.653,0-0.98-0.167c0.653,1.964,2.454,3.439,4.744,3.439
		c-1.801,1.308-3.925,2.125-6.22,2.125c-0.325,0-0.818,0-1.145,0c2.291,1.475,4.91,2.292,7.69,2.292
		c9.328,0,14.401-7.691,14.401-14.402c0-0.164,0-0.491,0-0.653C189.936,840.591,190.754,839.774,191.409,838.626z"/>
</g>
<path fill="#E9573F" d="M128.104,832.737c-7.529,0-11.291,5.399-11.291,9.818c0,2.782,0.983,5.072,3.274,6.055
	c0.328,0.163,0.654,0,0.818-0.328c0-0.328,0.166-0.984,0.328-1.309c0.163-0.326,0-0.493-0.166-0.818
	c-0.653-0.818-0.982-1.802-0.982-3.11c0-3.926,2.945-7.525,7.691-7.525c4.254,0,6.545,2.617,6.545,6.052
	c0,4.584-1.963,8.347-5.074,8.347c-1.636,0-2.947-1.308-2.455-3.109c0.491-1.964,1.472-4.091,1.472-5.562
	c0-1.312-0.653-2.291-2.126-2.291c-1.636,0-3.109,1.799-3.109,4.091c0,1.474,0.492,2.454,0.492,2.454s-1.801,7.364-1.964,8.674
	c-0.325,1.146-0.325,2.454-0.325,3.6c0.653,0.328,1.144,0.491,1.799,0.655c0.655-0.984,1.31-2.13,1.636-3.438
	c0.166-0.653,1.146-4.42,1.146-4.42c0.491,0.984,2.126,1.964,3.926,1.964c5.074,0,8.509-4.582,8.509-10.799
	C138.084,836.991,133.993,832.737,128.104,832.737z"/>
<g>
	<path fill="#E9573F" d="M233.02,835.66c2.382,0,4.32,1.938,4.32,4.32v11.04c0,2.382-1.938,4.32-4.32,4.32h-11.04
		c-2.382,0-4.32-1.938-4.32-4.32v-11.04c0-2.382,1.938-4.32,4.32-4.32H233.02 M233.02,833.5h-11.04c-3.579,0-6.48,2.901-6.48,6.48
		v11.04c0,3.579,2.901,6.48,6.48,6.48h11.04c3.579,0,6.48-2.901,6.48-6.48v-11.04C239.5,836.401,236.599,833.5,233.02,833.5
		L233.02,833.5z"/>
	<path fill="#E9573F" d="M227.5,841.66c2.117,0,3.84,1.723,3.84,3.84s-1.723,3.84-3.84,3.84c-2.117,0-3.84-1.723-3.84-3.84
		S225.383,841.66,227.5,841.66 M227.5,839.5c-3.314,0-6,2.686-6,6s2.686,6,6,6c3.314,0,6-2.686,6-6S230.814,839.5,227.5,839.5
		L227.5,839.5z"/>
	<circle fill="#E9573F" cx="233.92" cy="839.08" r="1.62"/>
</g>
<g>
	<path fill="#E6E6E6" d="M191.409,888.626c-0.984,0.326-1.802,0.655-2.946,0.818c0.982-0.652,1.8-1.636,2.29-2.782
		c-0.982,0.655-2.126,0.984-3.274,1.146c-0.98-0.98-2.29-1.637-3.6-1.637c-2.78,0-5.072,2.292-5.072,5.075
		c0,0.325,0,0.82,0.163,1.142c-4.254-0.163-7.855-2.287-10.309-5.233c-0.491,0.82-0.654,1.637-0.654,2.455
		c0,1.799,0.818,3.274,2.29,4.254c-0.818,0-1.636-0.328-2.29-0.655l0,0c0,2.454,1.801,4.418,4.091,4.909
		c-0.492,0.167-0.818,0.167-1.31,0.167c-0.325,0-0.653,0-0.98-0.167c0.653,1.964,2.454,3.439,4.744,3.439
		c-1.801,1.308-3.925,2.125-6.22,2.125c-0.325,0-0.818,0-1.145,0c2.291,1.475,4.91,2.292,7.69,2.292
		c9.328,0,14.401-7.691,14.401-14.402c0-0.164,0-0.491,0-0.653C189.936,890.591,190.754,889.774,191.409,888.626z"/>
</g>
<path fill="#E6E6E6" d="M128.104,882.737c-7.529,0-11.291,5.399-11.291,9.818c0,2.782,0.983,5.072,3.274,6.055
	c0.328,0.163,0.654,0,0.818-0.328c0-0.328,0.166-0.984,0.328-1.309c0.163-0.326,0-0.493-0.166-0.818
	c-0.653-0.818-0.982-1.802-0.982-3.11c0-3.926,2.945-7.525,7.691-7.525c4.254,0,6.545,2.617,6.545,6.052
	c0,4.584-1.963,8.347-5.074,8.347c-1.636,0-2.947-1.308-2.455-3.109c0.491-1.964,1.472-4.091,1.472-5.562
	c0-1.312-0.653-2.291-2.126-2.291c-1.636,0-3.109,1.799-3.109,4.091c0,1.474,0.492,2.454,0.492,2.454s-1.801,7.364-1.964,8.674
	c-0.325,1.146-0.325,2.454-0.325,3.6c0.653,0.328,1.144,0.491,1.799,0.655c0.655-0.984,1.31-2.13,1.636-3.438
	c0.166-0.653,1.146-4.42,1.146-4.42c0.491,0.984,2.126,1.964,3.926,1.964c5.074,0,8.509-4.582,8.509-10.799
	C138.084,886.991,133.993,882.737,128.104,882.737z"/>
<g>
	<path fill="#E6E6E6" d="M233.02,885.66c2.382,0,4.32,1.938,4.32,4.32v11.04c0,2.382-1.938,4.32-4.32,4.32h-11.04
		c-2.382,0-4.32-1.938-4.32-4.32v-11.04c0-2.382,1.938-4.32,4.32-4.32H233.02 M233.02,883.5h-11.04c-3.579,0-6.48,2.901-6.48,6.48
		v11.04c0,3.579,2.901,6.48,6.48,6.48h11.04c3.579,0,6.48-2.901,6.48-6.48v-11.04C239.5,886.401,236.599,883.5,233.02,883.5
		L233.02,883.5z"/>
	<path fill="#E6E6E6" d="M227.5,891.66c2.117,0,3.84,1.723,3.84,3.84s-1.723,3.84-3.84,3.84c-2.117,0-3.84-1.723-3.84-3.84
		S225.383,891.66,227.5,891.66 M227.5,889.5c-3.314,0-6,2.686-6,6s2.686,6,6,6c3.314,0,6-2.686,6-6S230.814,889.5,227.5,889.5
		L227.5,889.5z"/>
	<circle fill="#E6E6E6" cx="233.92" cy="889.08" r="1.62"/>
</g>
</svg>
