<?xml version="1.0" encoding="utf-8"?>
<!-- Generator: Adobe Illustrator 17.0.0, SVG Export Plug-In . SVG Version: 6.00 Build 0)  -->
<!DOCTYPE svg PUBLIC "-//W3C//DTD SVG 1.1//EN" "http://www.w3.org/Graphics/SVG/1.1/DTD/svg11.dtd">
<svg version="1.1" id="圖層_1" xmlns="http://www.w3.org/2000/svg" xmlns:xlink="http://www.w3.org/1999/xlink" x="0px" y="0px"
	 width="310px" height="111px" viewBox="-413.5 297.5 310 111" enable-background="new -413.5 297.5 310 111" xml:space="preserve">
<g>
	<g>
		<circle fill="#231815" cx="-401.5" cy="318.5" r="12"/>
	</g>
	<g>
		<rect x="-410.5" y="339.5" fill="#231815" width="18" height="66"/>
	</g>
	<g>
		<rect x="-191.5" y="339.5" fill="#231815" width="18" height="66"/>
	</g>
	<g>
		<circle fill="#231815" cx="-182.5" cy="318.5" r="12"/>
	</g>
	<g>
		<path fill="#231815" d="M-299.5,393.5c-11.598,0-21-9.402-21-21s9.402-21,21-21c6.563,0,12.419,3.014,16.27,7.73l10.636-10.636
			c-6.594-7.416-16.202-12.093-26.907-12.093c-19.882,0-36,16.118-36,36s16.118,36,36,36c10.705,0,20.313-4.677,26.907-12.093
			l-10.636-10.636C-287.081,390.486-292.937,393.5-299.5,393.5z"/>
	</g>
	<g>
		<path fill="#231815" d="M-131.5,393.5c-11.598,0-21-9.402-21-21s9.402-21,21-21c6.563,0,12.419,3.014,16.27,7.73l10.636-10.636
			c-6.594-7.416-16.202-12.093-26.907-12.093c-19.882,0-36,16.118-36,36s16.118,36,36,36c10.705,0,20.313-4.677,26.907-12.093
			l-10.636-10.636C-119.081,390.486-124.937,393.5-131.5,393.5z"/>
	</g>
	<g>
		<path fill="#231815" d="M-227.5,339.5c-6.917,0-13.223,2.604-18,6.881V297.5h-18v108h18V368c0-7.456,6.044-13.5,13.5-13.5
			c7.456,0,13.5,6.044,13.5,13.5v37.5h18v-39C-200.5,351.588-212.588,339.5-227.5,339.5z"/>
	</g>
	<path fill="#231815" d="M-353.5,321.5c0-4.971,4.029-9,9-9h6l3-15h-9c-14.912,0-27,12.088-27,27v15h-15v15h15v51h18v-51h15v-15h-15
		v-12V321.5z"/>
</g>
</svg>
