<?xml version="1.0" encoding="utf-8"?>
<!-- Generator: Adobe Illustrator 17.0.0, SVG Export Plug-In . SVG Version: 6.00 Build 0)  -->
<!DOCTYPE svg PUBLIC "-//W3C//DTD SVG 1.1//EN" "http://www.w3.org/Graphics/SVG/1.1/DTD/svg11.dtd">
<svg version="1.1" id="圖層_1" xmlns="http://www.w3.org/2000/svg" xmlns:xlink="http://www.w3.org/1999/xlink" x="0px" y="0px"
	 width="288px" height="270px" viewBox="0 0 288 270" enable-background="new 0 0 288 270" xml:space="preserve">
<path d="M73.125,161.25h-56.25v-52.5h11.25V150h11.25v-41.25h11.25V150h11.25v-41.25h11.25V161.25z"/>
<g>
	<polygon points="111.429,125 90,125 90,145 94.286,145 94.286,129.286 98.571,129.286 98.571,145 102.857,145 102.857,129.286 
		107.143,129.286 107.143,145 111.429,145 	"/>
	<polygon points="156.667,125 156.667,140.714 146.19,140.714 146.19,125 141.904,125 141.904,145 160.952,145 160.952,125 	"/>
	<polygon points="185.714,125 166.667,125 166.667,145 170.952,145 170.952,129.286 181.429,129.286 181.429,145 185.714,145 	"/>
	<polygon points="270,125 250.952,125 250.952,145 255.238,145 255.238,129.286 265.714,129.286 265.714,145 270,145 	"/>
	<path d="M235.238,125H216.19v20h4.286v-4.286h10.477V145h4.286L235.238,125L235.238,125z M230.952,136.429h-10.477v-7.143h10.477
		V136.429z"/>
	<path d="M117.143,125v20h19.048v-20H117.143z M131.904,140.714h-10.477v-11.429h10.477V140.714z"/>
	<rect x="240.952" y="125" width="4.286" height="20"/>
	<polygon points="210.477,125 191.429,125 191.429,129.286 198.81,129.286 198.81,145 203.096,145 203.096,129.286 210.477,129.286 
			"/>
</g>
<path fill="#E9573F" d="M73.125,251.25h-56.25v-52.5h11.25V240h11.25v-41.25h11.25V240h11.25v-41.25h11.25V251.25z"/>
<g>
	<polygon fill="#E9573F" points="111.429,215 90,215 90,235 94.286,235 94.286,219.286 98.571,219.286 98.571,235 102.857,235 
		102.857,219.286 107.143,219.286 107.143,235 111.429,235 	"/>
	<polygon fill="#E9573F" points="156.667,215 156.667,230.714 146.19,230.714 146.19,215 141.904,215 141.904,235 160.952,235 
		160.952,215 	"/>
	<polygon fill="#E9573F" points="185.714,215 166.667,215 166.667,235 170.952,235 170.952,219.286 181.429,219.286 181.429,235 
		185.714,235 	"/>
	<polygon fill="#E9573F" points="270,215 250.952,215 250.952,235 255.238,235 255.238,219.286 265.714,219.286 265.714,235 
		270,235 	"/>
	<path fill="#E9573F" d="M235.238,215H216.19v20h4.286v-4.286h10.477V235h4.286L235.238,215L235.238,215z M230.952,226.429h-10.477
		v-7.143h10.477V226.429z"/>
	<path fill="#E9573F" d="M117.143,215v20h19.048v-20H117.143z M131.904,230.714h-10.477v-11.429h10.477V230.714z"/>
	<rect x="240.952" y="215" fill="#E9573F" width="4.286" height="20"/>
	<polygon fill="#E9573F" points="210.477,215 191.429,215 191.429,219.286 198.81,219.286 198.81,235 203.096,235 203.096,219.286 
		210.477,219.286 	"/>
</g>
<path fill="#FFFFFF" d="M73.125,71.25h-56.25v-52.5h11.25V60h11.25V18.75h11.25V60h11.25V18.75h11.25V71.25z"/>
<g>
	<polygon fill="#FFFFFF" points="111.429,35 90,35 90,55 94.286,55 94.286,39.286 98.571,39.286 98.571,55 102.857,55 
		102.857,39.286 107.143,39.286 107.143,55 111.429,55 	"/>
	<polygon fill="#FFFFFF" points="156.667,35 156.667,50.714 146.19,50.714 146.19,35 141.904,35 141.904,55 160.952,55 160.952,35 	
		"/>
	<polygon fill="#FFFFFF" points="185.714,35 166.667,35 166.667,55 170.952,55 170.952,39.286 181.429,39.286 181.429,55 
		185.714,55 	"/>
	<polygon fill="#FFFFFF" points="270,35 250.952,35 250.952,55 255.238,55 255.238,39.286 265.714,39.286 265.714,55 270,55 	"/>
	<path fill="#FFFFFF" d="M235.238,35H216.19v20h4.286v-4.286h10.477V55h4.286L235.238,35L235.238,35z M230.952,46.429h-10.477
		v-7.143h10.477V46.429z"/>
	<path fill="#FFFFFF" d="M117.143,35v20h19.048V35H117.143z M131.904,50.714h-10.477V39.286h10.477V50.714z"/>
	<rect x="240.952" y="35" fill="#FFFFFF" width="4.286" height="20"/>
	<polygon fill="#FFFFFF" points="210.477,35 191.429,35 191.429,39.286 198.81,39.286 198.81,55 203.096,55 203.096,39.286 
		210.477,39.286 	"/>
</g>
</svg>
