<?xml version="1.0" encoding="utf-8"?>
<!-- Generator: Adobe Illustrator 17.0.0, SVG Export Plug-In . SVG Version: 6.00 Build 0)  -->
<!DOCTYPE svg PUBLIC "-//W3C//DTD SVG 1.1//EN" "http://www.w3.org/Graphics/SVG/1.1/DTD/svg11.dtd">
<svg version="1.1" id="圖層_1" xmlns="http://www.w3.org/2000/svg" xmlns:xlink="http://www.w3.org/1999/xlink" x="0px" y="0px"
	 width="783px" height="270px" viewBox="0 0 783 270" enable-background="new 0 0 783 270" xml:space="preserve">
<rect x="90" y="-90" width="72" height="72"/>
<polygon points="404,12.5 404,45.5 395,45.5 395,12.5 386,12.5 386,45.5 377,45.5 377,12.5 368,12.5 368,54.5 413,54.5 413,12.5 "/>
<g>
	<polygon fill="#E9573F" points="57.429,215 36,215 36,235 40.286,235 40.286,219.286 44.571,219.286 44.571,235 48.857,235 
		48.857,219.286 53.143,219.286 53.143,235 57.429,235 	"/>
	<polygon fill="#E9573F" points="102.667,215 102.667,230.714 92.19,230.714 92.19,215 87.904,215 87.904,235 106.952,235 
		106.952,215 	"/>
	<polygon fill="#E9573F" points="131.714,215 112.667,215 112.667,235 116.952,235 116.952,219.286 127.429,219.286 127.429,235 
		131.714,235 	"/>
	<polygon fill="#E9573F" points="216,215 196.952,215 196.952,235 201.238,235 201.238,219.286 211.714,219.286 211.714,235 
		216,235 	"/>
	<path fill="#E9573F" d="M181.238,215H162.19v20h4.286v-4.286h10.477V235h4.286L181.238,215L181.238,215z M176.952,226.429h-10.477
		v-7.143h10.477V226.429z"/>
	<path fill="#E9573F" d="M63.143,215v20h19.048v-20H63.143z M77.904,230.714H67.428v-11.429h10.477L77.904,230.714L77.904,230.714z"
		/>
	<rect x="186.952" y="215" fill="#E9573F" width="4.286" height="20"/>
	<polygon fill="#E9573F" points="156.477,215 137.429,215 137.429,219.286 144.81,219.286 144.81,235 149.096,235 149.096,219.286 
		156.477,219.286 	"/>
</g>
<polygon points="46.5,105.5 26.5,105.5 26.5,125.5 29.929,125.5 29.929,108.929 33.357,108.929 33.357,125.5 36.786,125.5 
	36.786,108.929 43.071,108.929 43.071,125.5 46.5,125.5 "/>
<polygon points="98.31,105.5 98.31,122.071 89.929,122.071 89.929,105.5 86.5,105.5 86.5,125.5 101.738,125.5 101.738,105.5 "/>
<polygon points="131.738,105.5 116.5,105.5 116.5,125.5 119.928,125.5 119.928,108.929 128.31,108.929 128.31,125.5 131.738,125.5 
	"/>
<polygon points="246.5,105.5 231.262,105.5 231.262,125.5 234.69,125.5 234.69,108.929 243.071,108.929 243.071,125.5 246.5,125.5 
	"/>
<path d="M186.738,105.5H171.5v20h3.429v-7.429h8.382v7.429h3.429L186.738,105.5L186.738,105.5z M183.31,114.643h-8.382v-5.714h8.382
	V114.643z"/>
<path d="M56.568,105.5v20H76.5v-20H56.568z M73.07,122.071H59.996v-13.143h13.075L73.07,122.071L73.07,122.071z"/>
<rect x="208.051" y="105.5" width="3.429" height="20"/>
<polygon points="156.5,103 141.262,103 141.262,106.429 147.166,106.429 147.166,123 150.595,123 150.595,106.429 156.5,106.429 "/>
<g>
	<polygon fill="#FFFFFF" points="57.429,35 36,35 36,55 40.286,55 40.286,39.286 44.571,39.286 44.571,55 48.857,55 48.857,39.286 
		53.143,39.286 53.143,55 57.429,55 	"/>
	<polygon fill="#FFFFFF" points="102.667,35 102.667,50.714 92.19,50.714 92.19,35 87.904,35 87.904,55 106.952,55 106.952,35 	"/>
	<polygon fill="#FFFFFF" points="131.714,35 112.667,35 112.667,55 116.952,55 116.952,39.286 127.429,39.286 127.429,55 
		131.714,55 	"/>
	<polygon fill="#FFFFFF" points="216,35 196.952,35 196.952,55 201.238,55 201.238,39.286 211.714,39.286 211.714,55 216,55 	"/>
	<path fill="#FFFFFF" d="M181.238,35H162.19v20h4.286v-4.286h10.477V55h4.286L181.238,35L181.238,35z M176.952,46.429h-10.477
		v-7.143h10.477V46.429z"/>
	<path fill="#FFFFFF" d="M63.143,35v20h19.048V35H63.143z M77.904,50.714H67.428V39.286h10.477L77.904,50.714L77.904,50.714z"/>
	<rect x="186.952" y="35" fill="#FFFFFF" width="4.286" height="20"/>
	<polygon fill="#FFFFFF" points="156.477,35 137.429,35 137.429,39.286 144.81,39.286 144.81,55 149.096,55 149.096,39.286 
		156.477,39.286 	"/>
</g>
<path d="M26.5,80.959V61.075h3.96l4.707,14.079c0.434,1.311,0.75,2.292,0.95,2.943c0.226-0.724,0.579-1.786,1.058-3.188
	l4.761-13.835h3.54v19.884H42.94V64.316l-5.778,16.643h-2.374l-5.75-16.928v16.928H26.5z"/>
<path d="M64.984,86.053c0-3.301,0.886-5.885,2.658-7.752c1.772-1.867,4.06-2.801,6.863-2.801c1.835,0,3.49,0.438,4.964,1.315
	s2.597,2.101,3.37,3.669s1.16,3.348,1.16,5.337c0,2.017-0.407,3.821-1.221,5.412c-0.813,1.591-1.966,2.796-3.458,3.614
	s-3.102,1.228-4.829,1.228c-1.872,0-3.544-0.452-5.019-1.356c-1.474-0.904-2.59-2.139-3.35-3.703
	C65.364,89.452,64.984,87.797,64.984,86.053z M67.697,86.093c0,2.396,0.644,4.284,1.933,5.663s2.905,2.068,4.849,2.068
	c1.98,0,3.61-0.696,4.89-2.089s1.919-3.368,1.919-5.927c0-1.619-0.273-3.032-0.821-4.239c-0.547-1.207-1.347-2.144-2.4-2.808
	c-1.054-0.664-2.236-0.997-3.547-0.997c-1.863,0-3.465,0.64-4.808,1.919C68.369,80.964,67.697,83.1,67.697,86.093z"/>
<path d="M99.507,60.853h2.631v11.488c0,1.998-0.226,3.585-0.678,4.761s-1.268,2.131-2.448,2.869
	c-1.18,0.736-2.729,1.104-4.646,1.104c-1.863,0-3.386-0.321-4.571-0.963s-2.03-1.571-2.536-2.787
	c-0.507-1.216-0.76-2.878-0.76-4.984V60.853h2.631v11.475c0,1.728,0.161,2.999,0.481,3.817s0.873,1.449,1.655,1.893
	s1.738,0.664,2.869,0.664c1.935,0,3.314-0.438,4.137-1.314s1.234-2.564,1.234-5.06V60.853H99.507z"/>
<path d="M116.5,81.075V61.191h2.699l10.444,15.611V61.191h2.523v19.884h-2.699L119.023,65.45v15.625H116.5z"/>
<path d="M164.79,105.5V87.963h-6.551v-2.347H174v2.347h-6.579V105.5H164.79z"/>
<path d="M191.5,70.5l7.637-19.884h2.835L210.11,70.5h-2.998l-2.319-6.021h-8.313l-2.185,6.021H191.5z M197.237,62.335h6.741
	l-2.075-5.507c-0.633-1.673-1.104-3.047-1.41-4.123c-0.254,1.275-0.61,2.541-1.072,3.797L197.237,62.335z"/>
<polyline points="82.475,83.075 82.475,102.959 79.939,102.959 79.939,86.316 "/>
<rect x="194" y="130.5" width="2.5" height="20"/>
<polygon points="35.25,130.5 32.75,130.5 24,130.5 24,150.5 26.5,150.5 26.5,133 32.75,133 32.75,150.5 35.25,150.5 35.25,133 
	41.5,133 41.5,150.5 44,150.5 44,130.5 "/>
<path d="M56.5,130.5v20h15v-20H56.5z M69,148H59v-15h10V148z"/>
<polygon points="96.5,148 86.5,148 86.5,130.5 84,130.5 84,150.5 99,150.5 99,130.5 96.5,130.5 "/>
<polygon points="126.5,130.5 111.5,130.5 111.5,150.5 114,150.5 114,133 124,133 124,150.5 126.5,150.5 "/>
<polygon points="224,130.5 209,130.5 209,150.5 211.5,150.5 211.5,133 221.5,133 221.5,150.5 224,150.5 "/>
<polygon points="154,130.5 147.75,130.5 145.25,130.5 139,130.5 139,133 145.25,133 145.25,150.5 147.75,150.5 147.75,133 154,133 
	"/>
<path d="M166.5,130.5v11.25v2.5v6.25h2.5v-6.25h10v6.25h2.5v-6.25v-2.5V130.5H166.5z M169,141.75V133h10v8.75H169z"/>
<polygon fill="#E9573F" points="62.643,189.5 45.5,189.5 45.5,205.5 48.929,205.5 48.929,192.929 52.357,192.929 52.357,205.5 
	55.786,205.5 55.786,192.929 59.214,192.929 59.214,205.5 62.643,205.5 "/>
<polygon fill="#E9573F" points="94.881,189.5 94.881,200.5 87.547,200.5 87.547,189.5 84.547,189.5 84.547,203.5 97.881,203.5 
	97.881,189.5 "/>
<polygon fill="#E9573F" points="115.214,189.5 101.881,189.5 101.881,203.5 104.881,203.5 104.881,192.5 112.215,192.5 
	112.215,203.5 115.214,203.5 "/>
<polygon fill="#E9573F" points="180.881,189.5 160.881,189.5 160.881,210.5 165.381,210.5 165.381,194 176.381,194 176.381,210.5 
	180.881,210.5 "/>
<path fill="#E9573F" d="M152.5,163.5h-20v21h4.5V180h11.001v4.5h4.5L152.5,163.5L152.5,163.5z M148,175.5h-11.001V168H148V175.5z"/>
<path fill="#E9573F" d="M67.214,189.5v21h20v-21H67.214z M82.713,206h-11v-12h11.001L82.713,206L82.713,206z"/>
<rect x="153" y="189.5" fill="#E9573F" width="4.5" height="21"/>
<polygon fill="#E9573F" points="132.548,189.5 119.215,189.5 119.215,192.5 124.381,192.5 124.381,203.5 127.381,203.5 
	127.381,192.5 132.548,192.5 "/>
<polygon fill="#E9573F" points="85,160.5 62.5,160.5 62.5,181.5 67,181.5 67,165 71.5,165 71.5,181.5 76,181.5 76,165 80.5,165 
	80.5,181.5 85,181.5 "/>
<polygon points="186,-9.5 186,23.5 177,23.5 177,-9.5 168,-9.5 168,23.5 159,23.5 159,-9.5 150,-9.5 150,32.5 195,32.5 195,-9.5 "/>
<polygon points="156.857,48.5 151.5,48.5 151.5,53.5 152.572,53.5 152.572,49.572 153.643,49.572 153.643,53.5 154.715,53.5 
	154.715,49.572 155.785,49.572 155.785,53.5 156.857,53.5 "/>
<polygon points="166.667,37.5 166.667,41.428 164.048,41.428 164.048,37.5 162.976,37.5 162.976,42.5 167.738,42.5 167.738,37.5 "/>
<polygon points="173.929,37.5 169.166,37.5 169.166,42.5 170.238,42.5 170.238,38.572 172.857,38.572 172.857,42.5 173.929,42.5 "/>
<polygon points="195,37.5 190.238,37.5 190.238,42.5 191.309,42.5 191.309,38.572 193.928,38.572 193.928,42.5 195,42.5 "/>
<path d="M186.309,37.5h-4.762v5h1.072v-1.072h2.619V42.5h1.072L186.309,37.5L186.309,37.5z M185.238,40.357h-2.619v-1.786h2.619
	V40.357z"/>
<path d="M156.786,37.5v5h4.762v-5H156.786z M160.477,41.428h-2.619v-2.857h2.619V41.428z"/>
<rect x="187.738" y="37.5" width="1.072" height="5"/>
<polygon points="180.119,37.5 175.358,37.5 175.358,38.572 177.203,38.572 177.203,42.5 178.274,42.5 178.274,38.572 
	180.119,38.572 "/>
<polygon fill="#E9573F" points="350,207.5 305,207.5 305,249.5 308,249.5 308,210.5 326,210.5 326,249.5 329,249.5 329,210.5 
	347,210.5 347,249.5 350,249.5 "/>
<path fill="#E9573F" d="M368,207.5v42h36v-42H368z M401,246.5h-30v-36h30V246.5z"/>
<polygon fill="#E9573F" points="455,207.5 455,246.5 425,246.5 425,207.5 422,207.5 422,249.5 458,249.5 458,207.5 "/>
<polygon fill="#E9573F" points="509,249.5 509,210.5 479,210.5 479,249.5 476,249.5 476,207.5 512,207.5 512,249.5 "/>
<polygon fill="#E9573F" points="695,249.5 695,210.5 665,210.5 665,249.5 662,249.5 662,207.5 698,207.5 698,249.5 "/>
<g>
	<polygon fill="#E9573F" points="617,249.5 617,210.5 587,210.5 587,249.5 584,249.5 584,207.5 620,207.5 620,249.5 	"/>
	<rect x="584" y="231.5" fill="#E9573F" width="36" height="3"/>
</g>
<g>
	<rect x="530" y="207.5" fill="#E9573F" width="36" height="3"/>
	<rect x="546.5" y="207.5" fill="#E9573F" width="3" height="42"/>
</g>
<rect x="639.5" y="207.5" fill="#E9573F" width="3" height="42"/>
<g>
	<polygon points="312.192,70.5 307,70.5 307,75.346 307.346,75.346 307.346,70.846 309.423,70.846 309.423,75.346 309.769,75.346 
		309.769,70.846 311.846,70.846 311.846,75.346 312.192,75.346 	"/>
	<path d="M314.269,70.5v4.846h4.154V70.5H314.269z M318.077,75h-3.462v-4.154h3.462V75z"/>
	<polygon points="324.308,70.5 324.308,75 320.846,75 320.846,70.5 320.5,70.5 320.5,75.346 324.654,75.346 324.654,70.5 	"/>
	<polygon points="330.538,75.346 330.538,70.846 327.077,70.846 327.077,75.346 326.731,75.346 326.731,70.5 330.885,70.5 
		330.885,75.346 	"/>
	<polygon points="351.654,75.346 351.654,70.846 348.192,70.846 348.192,75.346 347.846,75.346 347.846,70.5 352,70.5 352,75.346 	
		"/>
	<g>
		<polygon points="343,75.346 343,70.846 339.538,70.846 339.538,75.346 339.192,75.346 339.192,70.5 343.346,70.5 343.346,75.346 
					"/>
		<rect x="339.192" y="73.269" width="4.154" height="0.346"/>
	</g>
	<g>
		<rect x="332.962" y="70.5" width="4.154" height="0.346"/>
		<rect x="334.865" y="70.5" width="0.346" height="4.846"/>
	</g>
	<rect x="345.423" y="70.5" width="0.346" height="4.846"/>
</g>
<path fill="#E9573F" d="M368,156.5v42h36v-42H368z M398,192.5h-24v-30h24V192.5z"/>
<polygon fill="#E9573F" points="452,192.5 428,192.5 428,156.5 422,156.5 422,198.5 458,198.5 458,156.5 452,156.5 "/>
<polygon fill="#E9573F" points="512,156.5 476,156.5 476,198.5 482,198.5 482,162.5 506,162.5 506,198.5 512,198.5 "/>
<polygon fill="#E9573F" points="698,156.5 662,156.5 662,198.5 668,198.5 668,162.5 692,162.5 692,198.5 698,198.5 "/>
<polygon fill="#E9573F" points="566,156.5 530,156.5 530,162.5 545,162.5 545,198.5 551,198.5 551,162.5 566,162.5 "/>
<path fill="#E9573F" d="M584,156.5v42h6V185h24v13.5h6v-42H584z M590,179v-16.5h24V179H590z"/>
<rect x="638" y="156.5" fill="#E9573F" width="6" height="42"/>
<polygon fill="#E9573F" points="305,156.5 305,198.5 311,198.5 311,162.5 324.5,162.5 324.5,198.5 330.5,198.5 330.5,162.5 
	344,162.5 344,198.5 350,198.5 350,156.5 "/>
<path d="M375.214,60.5v4.809h4.122V60.5H375.214z M378.649,64.622h-2.748v-3.435h2.748V64.622z"/>
<polygon points="384.832,64.622 382.084,64.622 382.084,60.5 381.397,60.5 381.397,65.309 385.519,65.309 385.519,60.5 
	384.832,60.5 "/>
<polygon points="391.702,60.5 387.58,60.5 387.58,65.309 388.267,65.309 388.267,61.187 391.015,61.187 391.015,65.309 
	391.702,65.309 "/>
<polygon points="413,60.5 408.878,60.5 408.878,65.309 409.565,65.309 409.565,61.187 412.313,61.187 412.313,65.309 413,65.309 "/>
<polygon points="397.885,60.5 393.763,60.5 393.763,61.187 395.481,61.187 395.481,65.309 396.168,65.309 396.168,61.187 
	397.885,61.187 "/>
<path d="M399.947,60.5v4.809h0.687v-1.546h2.748v1.546h0.687V60.5H399.947z M400.634,63.076v-1.889h2.748v1.889H400.634z"/>
<rect x="406.13" y="60.5" width="0.687" height="4.809"/>
<polygon points="368,60.5 368,65.309 368.687,65.309 368.687,61.187 370.233,61.187 370.233,65.309 370.92,65.309 370.92,61.187 
	372.466,61.187 372.466,65.309 373.153,65.309 373.153,60.5 "/>
<path d="M368,147.5h36v-42h-36V147.5z M377,114.5h18v24h-18V114.5z"/>
<polygon points="449,138.5 431,138.5 431,105.5 422,105.5 422,147.5 458,147.5 458,105.5 449,105.5 "/>
<polygon points="512,105.5 476,105.5 476,147.5 485,147.5 485,114.5 503,114.5 503,147.5 512,147.5 "/>
<polygon points="698,105.5 662,105.5 662,147.5 671,147.5 671,114.5 689,114.5 689,147.5 698,147.5 "/>
<polygon points="620,105.5 584,105.5 584,147.5 593,147.5 593,114.5 611,114.5 611,147.5 620,147.5 "/>
<polygon points="350,105.5 305,105.5 305,147.5 314,147.5 314,114.5 323,114.5 323,147.5 332,147.5 332,114.5 341,114.5 341,147.5 
	350,147.5 "/>
<polygon points="566,105.5 530,105.5 530,114.5 543.5,114.5 543.5,147.5 552.5,147.5 552.5,114.5 566,114.5 "/>
<rect x="636.5" y="105.5" width="9" height="42"/>
</svg>
