<?xml version="1.0" encoding="utf-8"?>
<!-- Generator: Adobe Illustrator 17.0.0, SVG Export Plug-In . SVG Version: 6.00 Build 0)  -->
<!DOCTYPE svg PUBLIC "-//W3C//DTD SVG 1.1//EN" "http://www.w3.org/Graphics/SVG/1.1/DTD/svg11.dtd">
<svg version="1.1" id="圖層_1" xmlns="http://www.w3.org/2000/svg" xmlns:xlink="http://www.w3.org/1999/xlink" x="0px" y="0px"
	 width="324px" height="111px" viewBox="0 0 324 111" enable-background="new 0 0 324 111" xml:space="preserve">
<g>
	<rect x="3" y="42" fill="#F0F0F0" width="18" height="66"/>
	<rect x="231" y="42" fill="#F0F0F0" width="18" height="66"/>
	<circle fill="#F0F0F0" cx="12" cy="21" r="12"/>
	<circle fill="#F0F0F0" cx="240" cy="21" r="12"/>
	<path fill="#F0F0F0" d="M72,15h12l3-15H69C57.402,0,48,9.402,48,21v21H33v15h15v51h18V57h15V42H66V21C66,17.686,68.686,15,72,15z"
		/>
	<path fill="#F0F0F0" d="M123,96c-11.598,0-21-9.402-21-21s9.402-21,21-21c6.563,0,12.419,3.014,16.27,7.73l10.636-10.636
		C143.313,43.677,133.705,39,123,39c-19.882,0-36,16.118-36,36s16.118,36,36,36c10.705,0,20.313-4.677,26.907-12.093L139.27,88.27
		C135.419,92.986,129.563,96,123,96z"/>
	<path fill="#F0F0F0" d="M297,96c-11.598,0-21-9.402-21-21s9.402-21,21-21c6.563,0,12.419,3.014,16.27,7.73l10.636-10.636
		C317.313,43.677,307.705,39,297,39c-19.882,0-36,16.118-36,36s16.118,36,36,36c10.705,0,20.313-4.677,26.907-12.093L313.27,88.27
		C309.419,92.986,303.563,96,297,96z"/>
	<path fill="#F0F0F0" d="M192,42c-6.917,0-13.223,2.604-18,6.881V0h-18v108h18V70.5c0-7.456,6.044-13.5,13.5-13.5
		S201,63.044,201,70.5V108h18V69C219,54.088,206.912,42,192,42z"/>
</g>
</svg>
