<?xml version="1.0" encoding="utf-8"?>
<!-- Generator: Adobe Illustrator 17.0.0, SVG Export Plug-In . SVG Version: 6.00 Build 0)  -->
<!DOCTYPE svg PUBLIC "-//W3C//DTD SVG 1.1//EN" "http://www.w3.org/Graphics/SVG/1.1/DTD/svg11.dtd">
<svg version="1.1" id="圖層_4_拷貝" xmlns="http://www.w3.org/2000/svg" xmlns:xlink="http://www.w3.org/1999/xlink" x="0px"
	 y="0px" width="800px" height="800px" viewBox="-305.5 396.5 800 800" enable-background="new -305.5 396.5 800 800"
	 xml:space="preserve">
<g>
	<line fill="none" stroke="#FCE1BC" stroke-width="4" stroke-miterlimit="10" x1="-230.5" y1="411.5" x2="-230.5" y2="421.5"/>
	<line fill="none" stroke="#FCE1BC" stroke-width="4" stroke-miterlimit="10" x1="-230.5" y1="521.5" x2="-230.5" y2="531.5"/>
	<line fill="none" stroke="#FCE1BC" stroke-width="4" stroke-miterlimit="10" x1="-290.5" y1="471.5" x2="-280.5" y2="471.5"/>
	<line fill="none" stroke="#FCE1BC" stroke-width="4" stroke-miterlimit="10" x1="-180.5" y1="471.5" x2="-170.5" y2="471.5"/>
</g>
<g>
	<line fill="none" stroke="#FCE1BC" stroke-width="4" stroke-miterlimit="10" x1="-282.462" y1="441.5" x2="-273.801" y2="446.5"/>
	<line fill="none" stroke="#FCE1BC" stroke-width="4" stroke-miterlimit="10" x1="-187.199" y1="496.5" x2="-178.538" y2="501.5"/>
	<line fill="none" stroke="#FCE1BC" stroke-width="4" stroke-miterlimit="10" x1="-260.5" y1="523.462" x2="-255.5" y2="514.801"/>
	<line fill="none" stroke="#FCE1BC" stroke-width="4" stroke-miterlimit="10" x1="-205.5" y1="428.199" x2="-200.5" y2="419.538"/>
</g>
<g>
	<line fill="none" stroke="#FCE1BC" stroke-width="4" stroke-miterlimit="10" x1="-260.5" y1="419.538" x2="-255.5" y2="428.199"/>
	<line fill="none" stroke="#FCE1BC" stroke-width="4" stroke-miterlimit="10" x1="-205.5" y1="514.801" x2="-200.5" y2="523.462"/>
	<line fill="none" stroke="#FCE1BC" stroke-width="4" stroke-miterlimit="10" x1="-282.462" y1="501.5" x2="-273.801" y2="496.5"/>
	<line fill="none" stroke="#FCE1BC" stroke-width="4" stroke-miterlimit="10" x1="-187.199" y1="446.5" x2="-178.538" y2="441.5"/>
</g>
<circle fill="#FCE1BC" cx="-230.5" cy="471.5" r="40"/>
<path fill="#FCE1BC" d="M-76.279,431.723c5.63,5.63,9.112,13.408,9.112,21.999c0,17.182-13.929,31.111-31.111,31.111
	c-8.591,0-16.369-3.482-21.999-9.112c2.109,20.107,19.111,35.779,39.777,35.779c22.091,0,40-17.909,40-40
	C-40.5,450.834-56.172,433.832-76.279,431.723z"/>
</svg>
